<?xml version="1.0" encoding="UTF-8" standalone="no"?>
<!-- Generator: Adobe Illustrator 22.1.0, SVG Export Plug-In . SVG Version: 6.00 Build 0)  -->

<svg
   xmlns:dc="http://purl.org/dc/elements/1.1/"
   xmlns:cc="http://creativecommons.org/ns#"
   xmlns:rdf="http://www.w3.org/1999/02/22-rdf-syntax-ns#"
   xmlns:svg="http://www.w3.org/2000/svg"
   xmlns="http://www.w3.org/2000/svg"
   xmlns:sodipodi="http://sodipodi.sourceforge.net/DTD/sodipodi-0.dtd"
   xmlns:inkscape="http://www.inkscape.org/namespaces/inkscape"
   version="1.1"
   id="Layer_3"
   x="0px"
   y="0px"
   viewBox="0 0 131 44"
   style="enable-background:new 0 0 131 44;"
   xml:space="preserve"
   sodipodi:docname="endava.svg"
   inkscape:version="0.92.2 2405546, 2018-03-11"><metadata
   id="metadata15"><rdf:RDF><cc:Work
       rdf:about=""><dc:format>image/svg+xml</dc:format><dc:type
         rdf:resource="http://purl.org/dc/dcmitype/StillImage" /><dc:title></dc:title></cc:Work></rdf:RDF></metadata><defs
   id="defs13" /><sodipodi:namedview
   pagecolor="#ffffff"
   bordercolor="#666666"
   borderopacity="1"
   objecttolerance="10"
   gridtolerance="10"
   guidetolerance="10"
   inkscape:pageopacity="0"
   inkscape:pageshadow="2"
   inkscape:window-width="640"
   inkscape:window-height="480"
   id="namedview11"
   showgrid="false"
   inkscape:zoom="1.9236641"
   inkscape:cx="56.402778"
   inkscape:cy="22"
   inkscape:window-x="0"
   inkscape:window-y="27"
   inkscape:window-maximized="0"
   inkscape:current-layer="Layer_3" />
<style
   type="text/css"
   id="style2">
	.st0{fill:#DE411B;}
	.st1{fill:#48535B;}
</style>
<g
   id="g8"
   style="fill:#ffffff">
	<path
   class="st0"
   d="M15.6,31.4c-2.7,0-4.9-2.2-4.9-4.9V23c0-0.3-0.2-1.1-0.7-1.6s-1.5-0.7-1.7-0.7H4.9c-2.7,0-4.9-2.2-4.9-4.9   C0,13.2,2.2,11,4.9,11h3.4c0,0,1.1-0.1,1.7-0.7c0.5-0.5,0.7-1.6,0.7-1.7V5.1c0-2.7,2.2-4.9,4.9-4.9c2.4,0,4.3,1.6,4.8,3.8   c0.1,0.3,0.1,0.6,0.1,1v3.4c0,0.3,0.2,1.1,0.7,1.6c0.7,0.7,1.7,0.8,1.7,0.8h3.4c2.7,0,4.9,2.2,4.9,4.9s-2.2,4.9-4.9,4.9   s-4.9-2.2-4.9-4.9v-3.5c0-0.3-0.2-1.1-0.7-1.6s-1.5-0.7-1.6-0.7h-6.9c0,0-1.1,0.1-1.7,0.7C10,11.1,9.8,12,9.8,12.2v6.9   c0,0.2,0.2,1.1,0.7,1.6c0.7,0.7,1.7,0.7,1.7,0.7h3.4c2.7,0,4.9,2.2,4.9,4.9C20.4,29.2,18.2,31.4,15.6,31.4z M21.3,5.1   c0,2.7,2.2,4.9,4.9,4.9h3.4c0,0,1,0.1,1.7,0.7c0.5,0.5,0.7,1.5,0.7,1.6v7c0,0.3-0.2,1-0.7,1.6c-0.6,0.6-1.7,0.7-1.7,0.7h-6.8   c-0.3,0-1.1-0.2-1.6-0.7s-0.7-1.3-0.7-1.6v-3.5c0-2.7-2.2-4.9-4.9-4.9s-4.9,2.2-4.9,4.9s2.2,4.9,4.9,4.9H19c0,0,1,0.1,1.7,0.8   c0.5,0.5,0.7,1.5,0.7,1.6v3.5c0,0.4,0,0.6,0.1,1c0.5,2.2,2.4,3.8,4.8,3.8c2.7,0,4.9-2.2,4.9-4.9V23c0-0.2,0.2-1.1,0.7-1.7   c0.6-0.6,1.7-0.8,1.7-0.7H37c2.7,0,4.9-2.2,4.9-4.9s-2.2-4.9-4.9-4.9h-3.4c-0.2,0-1.1-0.2-1.7-0.7c-0.5-0.5-0.7-1.4-0.7-1.6V5.1   c0-2.7-2.2-4.9-4.9-4.9C23.5,0.3,21.3,2.4,21.3,5.1z"
   id="path4"
   style="fill:#ffffff" />
	<path
   class="st1"
   d="M49.8,35.7H38.3c0.4,3.4,2.3,4.8,4.4,4.8c1.5,0,2.7-0.5,3.8-1.4l2,2.2c-1.6,1.5-3.4,2.3-6,2.3   c-4.1,0-7.5-3.3-7.5-9.1c0-6,3.1-9.1,7.6-9.1c4.9,0,7.3,4,7.3,8.7C49.9,34.7,49.8,35.3,49.8,35.7z M42.3,28.5c-2.3,0-3.7,1.6-4,4.4   h8.2C46.4,30.5,45.2,28.5,42.3,28.5z M62.6,43.2v-9.9c0-3.5-1.4-4.8-3.6-4.8c-2.3,0-3.6,1.6-3.6,4.5v10.2H52V25.8h3.4v1.6   c0.8-1.3,2.6-2,4.4-2c4,0,6.2,2.7,6.2,7.8v10H62.6z M79.2,43.2v-1.7c-1.3,1.2-2.7,2-4.6,2c-3.8,0-6.7-2.7-6.7-9.3   c0-6,3.3-8.8,6.9-8.8c1.7,0,3.4,0.9,4.4,2v-6.7l3.4-1.7v24.3L79.2,43.2L79.2,43.2z M79.2,30.9c-0.7-1-2.4-2.3-4.1-2.3   c-2.5,0-3.8,1.8-3.8,5.6c0,4.4,1.4,6.3,3.9,6.3c1.6,0,3-1.1,3.9-2.2C79.2,38.3,79.2,30.9,79.2,30.9z M110.4,43.2H107l-6.2-17.4h3.6   l3.1,9.4c0.5,1.7,1.1,3.3,1.3,4.3c0.2-1,0.6-2.6,1.2-4.3l3-9.4h3.7C116.7,25.8,110.4,43.2,110.4,43.2z M96,43.2v-1.7   c-1.3,1.2-2.7,2-4.6,2c-3.8,0-6.7-2.7-6.7-9.3c0-6,3.3-8.8,6.9-8.8c1.7,0,3.4,0.9,4.4,2v-1.6h3.4v17.5H96V43.2z M96,30.9   c-0.7-1-2.4-2.3-4.1-2.3c-2.5,0-3.8,1.8-3.8,5.6c0,4.4,1.4,6.3,3.9,6.3c1.6,0,3-1.1,3.9-2.2C96,38.3,96,30.9,96,30.9z M127.6,43.2   v-1.7c-1.3,1.2-2.7,2-4.6,2c-3.8,0-6.7-2.7-6.7-9.3c0-6,3.3-8.8,6.9-8.8c1.7,0,3.4,0.9,4.4,2v-1.6h3.4v17.5h-3.4V43.2z M127.6,30.9   c-0.7-1-2.4-2.3-4.1-2.3c-2.5,0-3.8,1.8-3.8,5.6c0,4.4,1.4,6.3,3.9,6.3c1.6,0,3-1.1,3.9-2.2L127.6,30.9L127.6,30.9z"
   id="path6"
   style="fill:#ffffff" />
</g>
</svg>