<?xml version="1.0" encoding="utf-8"?>
<!-- Generator: Adobe Illustrator 23.0.0, SVG Export Plug-In . SVG Version: 6.00 Build 0)  -->
<svg version="1.1" id="Capa_1" xmlns="http://www.w3.org/2000/svg" xmlns:xlink="http://www.w3.org/1999/xlink" x="0px" y="0px"
	 viewBox="0 0 2500 857" style="enable-background:new 0 0 2500 857;" xml:space="preserve">
<style type="text/css">
	.st0{fill:#FFFFFF;}
</style>
<title>elastic</title>
<path class="st0" d="M860.4,449.2c0.2-71.5-44.7-135.4-112-159.6C773.7,157.4,687,29.8,554.9,4.5C540,1.6,525,0.2,509.8,0.1
	C431.7,0,358.4,37.5,312.7,100.9c-56.4-43.6-137.5-33.2-181.1,23.3c-17.5,22.6-26.9,50.4-26.9,78.9c0.1,15.4,2.8,30.6,8,45.1
	C24.3,279.8-21.7,377.1,9.9,465.5c17.1,47.8,54.7,85.5,102.4,102.7c-25.6,131.4,60.2,258.7,191.5,284.3
	c93,18.1,188.1-19.6,243.4-96.7c22.4,17.8,50.3,27.6,78.9,27.6c71.3,0,129.1-57.8,129.1-129.1c-0.1-15.4-2.8-30.6-8-45.1
	C814.8,584.9,859.9,521,860.4,449.2z M333.1,126.7c39.6-57.8,105.2-92.4,175.2-92.3c117.2,0.1,212.1,95.2,212,212.3
	c0.2,14-1.2,28.1-4,41.8L526.5,455l-188.4-85.8l-36.7-78.5L333.1,126.7z M156.9,145.6c34.2-44.7,98.1-53.1,142.7-19l-28.4,146.5
	l-129.1-30.5C130.1,210,135.7,173.3,156.9,145.6z M40.2,453c-24.5-74.6,16.1-155,90.8-179.4L272.7,307l33.1,70.9L124.7,541.6
	C84.6,526.3,53.5,493.8,40.2,453z M528.4,730.7c-39.6,58.2-105.4,93-175.8,93.1C234.9,824,139.4,728.7,139.3,611
	c-0.1-14.3,1.2-28.5,4-42.5l185.5-167.3l189.1,86.2l41.8,80L528.4,730.7z M703.7,710.8c-33.9,44.9-97.8,53.7-142.6,19.8l28.4-146.2
	l128.7,30.2C730,647.1,724.5,683.3,703.7,710.8z M729.1,583.8l-141.8-33.1l-37.5-72.4l185.5-162.5c40.1,15.3,71.2,47.8,84.6,88.6
	C844.3,479,803.7,559.3,729.1,583.8z"/>
<path class="st0" d="M1202.9,602l17.1-1.8l1.1,34.9c-38.3,5.7-76.9,8.9-115.6,9.5c-42.5,0-72.7-12.4-90.5-37.1
	c-17.8-24.7-26.5-63.3-26.5-115.3c0-104,41.3-156,124-156c40,0,69.8,11.3,89.5,33.5c19.6,22.2,29.5,57.5,29.5,105.1l-2.5,33.8
	h-195.6c0,32.7,5.8,57.1,17.8,72.7c12,15.6,32.4,23.6,61.8,23.6C1142.8,605.5,1172.9,604.5,1202.9,602L1202.9,602z M1186.9,473.6
	c0-36.4-5.8-62.2-17.5-77.1c-11.6-14.9-30.5-22.5-56.7-22.5s-46.2,8-59.3,23.6c-13.1,15.6-20,41.1-20.4,76H1186.9z M1293.1,639
	V213.6h44.4V639H1293.1z M1617.8,432.1V578c0,14.9,36.7,17.8,36.7,17.8l-2.2,39.3c-31.3,0-57.1,2.5-72.7-12.4
	c-33.6,14.8-69.9,22.4-106.5,22.2c-27.3,0-48-7.6-62.2-23.3c-14.2-15.6-21.5-37.5-21.5-66.5c0-29.1,7.3-50.2,21.8-63.6
	c14.5-13.5,37.5-22.2,68.7-25.1l93.1-8.7v-25.5c0-20-4.4-34.5-13.1-43.3c-8.7-8.7-20.7-13.1-35.6-13.1h-116.7v-39.3h113.8
	c33.5,0,57.8,7.6,73.1,23.3C1609.8,375.4,1617.8,399.4,1617.8,432.1L1617.8,432.1z M1435.3,552.9c0,36.4,14.9,54.5,45.1,54.5
	c27,0.1,53.8-4.5,79.3-13.5l13.5-4.7v-97.8l-87.6,8.4c-17.8,1.5-30.5,6.5-38.5,15.3C1438.9,523.8,1435.3,536.5,1435.3,552.9
	L1435.3,552.9z M1791.3,376.1c-42.9,0-64.7,14.9-64.7,45.1c0,13.8,5.1,23.6,14.9,29.5s32.4,11.6,67.6,17.8
	c35.3,6.2,60,14.5,74.5,25.8c14.5,11.3,21.8,31.6,21.8,62.2s-9.8,52.7-29.5,66.9c-19.6,14.2-48,21.5-85.8,21.5
	c-24.4,0-106.2-9.1-106.2-9.1l2.5-38.5c46.9,4.4,81.1,8,104,8c22.9,0,40.4-3.6,52.4-10.9c12-7.3,18.2-19.6,18.2-36.7
	s-5.1-28.7-15.3-34.9s-32.7-12-67.6-17.5c-34.9-5.5-59.6-13.5-74.2-24.4c-14.5-10.9-21.8-30.5-21.8-59.3c0-28.7,10.2-50.2,30.5-64
	c20.4-13.8,45.8-20.7,76-20.7c24,0,107.6,6.2,107.6,6.2V382C1852.4,379.4,1816.4,376.1,1791.3,376.1z M2120,381.2h-94.2V523
	c0,33.8,2.5,56.4,7.3,66.9c4.7,10.5,16.7,16,35.3,16l52.7-3.6l2.9,36.7c-19.9,3.7-40.1,5.9-60.4,6.5c-30.9,0-52-7.6-64-22.5
	c-12-14.9-17.8-43.6-17.8-85.8v-156h-42.2v-38.5h42.2v-90.9h44v90.5h94.2V381.2L2120,381.2z M2181.8,275.4v-51.3h44.4v51.6
	L2181.8,275.4z M2181.8,639V342.7h44.4V639L2181.8,639L2181.8,639z M2418.9,336.5c13.1,0,35.3,2.5,66.5,7.3l14.2,1.8l-1.8,36
	c-23.2-3-46.5-4.8-69.8-5.5c-33.5,0-56.4,8-68.4,24s-18.2,45.8-18.2,89.1c0,43.3,5.5,73.5,16.7,90.5s34.5,25.5,70.2,25.5l69.8-5.5
	l1.8,36.7c-36.7,5.5-64.4,8.4-82.5,8.4c-46.2,0-78.2-12-95.6-35.6c-17.5-23.6-26.5-63.6-26.5-120s9.5-96,28.4-118.5
	S2374.5,336.5,2418.9,336.5z"/>
</svg>
