<svg xmlns="http://www.w3.org/2000/svg" xmlns:xlink="http://www.w3.org/1999/xlink" width="1900" height="360" version="1.1" style=""><rect id="backgroundrect" width="100%" height="100%" x="0" y="0" fill="none" stroke="none"/>
    <!-- Generator: Sketch 51.3 (57544) - http://www.bohemiancoding.com/sketch -->
    <title>Group 2</title>
    <desc>Created with Sketch.</desc>
    <defs>
        <path d="M169.391,116.137 L169.391,359.795 L190.439,359.795 L190.439,116.137 C202.701,111.802 211.487,100.104 211.487,86.354 C211.487,68.913 197.352,54.774 179.915,54.774 C162.478,54.774 148.343,68.913 148.343,86.354 C148.343,100.104 157.129,111.802 169.391,116.137 Z M249.373,212.982 L249.373,264.034 L299.192,315.027 L280.754,333.465 L245.134,297.845 C236.375,302.752 227.013,306.701 217.187,309.552 L217.187,359.795 L142.643,359.795 L142.643,309.552 C132.817,306.701 123.455,302.752 114.696,297.845 L79.076,333.465 L26.365,280.754 L62.27,244.849 C57.52,236.166 53.692,226.901 50.921,217.187 L0.035,217.187 L0.035,142.643 L50.921,142.643 C53.692,132.929 57.52,123.664 62.27,114.982 L26.365,79.076 L79.076,26.365 L114.696,61.985 C123.455,57.078 132.817,53.129 142.643,50.278 L142.643,0.035 L217.187,0.035 L217.187,50.278 C227.013,53.129 236.375,57.078 245.134,61.985 L280.754,26.365 L333.465,79.076 L297.56,114.982 C302.31,123.664 306.138,132.929 308.909,142.643 L359.795,142.643 L359.795,217.187 L308.909,217.187 C306.138,226.901 302.31,236.166 297.56,244.849 L333.465,280.754 L314.338,299.881 L270.421,254.32 L270.421,212.982 C282.684,208.647 291.469,196.95 291.469,183.199 C291.469,165.758 277.334,151.619 259.897,151.619 C242.46,151.619 228.325,165.758 228.325,183.199 C228.325,196.95 237.111,208.647 249.373,212.982 Z M114.626,179.311 C126.91,174.987 135.714,163.279 135.714,149.514 C135.714,132.073 121.579,117.934 104.142,117.934 C86.706,117.934 72.571,132.073 72.571,149.514 C72.571,163.247 81.335,174.933 93.574,179.281 L92.204,252.906 L46.185,300.483 L61.318,315.61 L113.252,262.62 L114.626,179.311 Z M104.142,164.251 C96.005,164.251 89.409,157.653 89.409,149.514 C89.409,141.375 96.005,134.777 104.142,134.777 C112.28,134.777 118.876,141.375 118.876,149.514 C118.876,157.653 112.28,164.251 104.142,164.251 Z M259.897,197.937 C251.76,197.937 245.164,191.339 245.164,183.199 C245.164,175.06 251.76,168.462 259.897,168.462 C268.034,168.462 274.631,175.06 274.631,183.199 C274.631,191.339 268.034,197.937 259.897,197.937 Z M179.915,101.091 C171.778,101.091 165.181,94.493 165.181,86.354 C165.181,78.215 171.778,71.617 179.915,71.617 C188.052,71.617 194.649,78.215 194.649,86.354 C194.649,94.493 188.052,101.091 179.915,101.091 Z" id="path-1"/>
    </defs>
    
<g class="currentLayer" style=""><title>Layer 1</title><g id="Page-1" stroke="none" stroke-width="1" fill="#ffffff" fill-rule="evenodd" class="" fill-opacity="1">
        <g id="Artboard-2" fill="#ffffff" fill-opacity="1">
            <g id="Group-2" fill="#ffffff" fill-opacity="1">
                <g id="Group-3" fill="#ffffff" fill-opacity="1">
                    <mask id="mask-2" fill="white" transform="translate(121,102) translate(-121,-102) ">
                        <use xlink:href="#path-1" id="svg_1"/>
                    </mask>
                    <g id="Clip-2" fill="#ffffff" fill-opacity="1"/>
                    <polygon id="Fill-1" fill="#ffffff" mask="url(#mask-2)" points="-0.04000091552734375,359.8599853515625 359.8399963378906,359.8599853515625 359.8399963378906,-0.01999664306640625 -0.04000091552734375,-0.01999664306640625 " fill-opacity="1"/>
                </g>
                <g id="Group" fill="#ffffff" fill-opacity="1">
                    <path d="M462.344961513,93.28947386 L500.6581005,93.28947386 L500.6581005,231.845219 L571.6356470000001,231.845219 L571.6356470000001,267.221154 L462.344961513,267.221154 L462.344961513,93.28947386 zM649.981104,93.28947386 L681.663123,93.28947386 L757.307012,267.221154 L714.0819329999999,267.221154 L699.100513,230.371221 L631.561325,230.371221 L617.0711,267.221154 L574.828408,267.221154 L649.981104,93.28947386 zM664.7169269999999,143.896714 L643.595581,197.943281 L686.083869,197.943281 L664.7169269999999,143.896714 zM774.7444029999999,93.28947386 L826.810976,93.28947386 L900.735687,214.157251 L901.226881,214.157251 L901.226881,93.28947386 L939.54002,93.28947386 L939.54002,267.221154 L889.438223,267.221154 L813.548736,143.4053816 L813.057542,143.4053816 L813.057542,267.221154 L774.7444029999999,267.221154 L774.7444029999999,93.28947386 zM974.905994,93.28947386 L1032.3757030000002,93.28947386 C1046.292938,93.28947386 1059.514114,94.84534432 1072.039626,97.95713193 C1084.565137,101.06891949999999 1095.494097,106.1050266 1104.8268309999999,113.0656041 C1114.159565,120.0261817 1121.568336,129.0747967 1127.0533639999999,140.2117208 C1132.538392,151.3486449 1135.280865,164.8601516 1135.280865,180.7466462 C1135.280865,194.83158 1132.620257,207.237599 1127.298961,217.965078 C1121.977665,228.692556 1114.8144889999999,237.700227 1105.809219,244.988361 C1096.803949,252.276495 1086.4071119999999,257.80393000000004 1074.618395,261.570831 C1062.829677,265.33773099999996 1050.468083,267.221154 1037.533241,267.221154 L974.905994,267.221154 L974.905994,93.28947386 zM1013.219133,231.845219 L1033.112494,231.845219 C1041.954032,231.845219 1050.18145,230.944452 1057.794997,229.14289 C1065.408543,227.341329 1071.998665,224.35242 1077.5655590000001,220.176074 C1083.1324530000002,215.999727 1087.512223,210.513236 1090.705001,203.71643699999998 C1093.897779,196.91963800000002 1095.494143,188.608014 1095.494143,178.7813165 C1095.494143,170.2648451 1093.897779,162.8539884 1090.705001,156.5485241 C1087.512223,150.2430597 1083.214318,145.0431768 1077.811156,140.94871940000002 C1072.4079940000001,136.8542621 1066.063467,133.7834651 1058.7773849999999,131.7362364 C1051.491303,129.6890077 1043.836938,128.6654087 1035.814061,128.6654087 L1013.219133,128.6654087 L1013.219133,231.845219 zM1160.8229569999999,93.28947386 L1199.136096,93.28947386 L1199.136096,267.221154 L1160.8229569999999,267.221154 L1160.8229569999999,93.28947386 zM1234.0108770000002,93.28947386 L1286.07745,93.28947386 L1360.002161,214.157251 L1360.493355,214.157251 L1360.493355,93.28947386 L1398.806494,93.28947386 L1398.806494,267.221154 L1348.7046970000001,267.221154 L1272.81521,143.4053816 L1272.324016,143.4053816 L1272.324016,267.221154 L1234.0108770000002,267.221154 L1234.0108770000002,93.28947386 zM1591.60017,254.937843 C1580.30265,260.833862 1568.51411,265.092033 1556.2342,267.712486 C1543.95429,270.332939 1531.42896,271.643146 1518.65785,271.643146 C1505.06808,271.643146 1492.54276,269.51406 1481.0815,265.25582399999996 C1469.62025,260.997588 1459.714603,254.896938 1451.3642610000002,246.953691 C1443.0139199999999,239.010444 1436.505664,229.388613 1431.839296,218.087911 C1427.1729289999998,206.78720800000002 1424.8397810000001,194.176469 1424.8397810000001,180.2553138 C1424.8397810000001,166.3341587 1427.1729289999998,153.7234191 1431.839296,142.4227167 C1436.505664,131.1220144 1443.0139199999999,121.5001839 1451.3642610000002,113.5569365 C1459.714603,105.6136892 1469.62025,99.5130392 1481.0815,95.25480356999999 C1492.54276,90.9965679 1505.06808,88.867482001 1518.65785,88.867482001 C1532.57509,88.867482001 1545.38694,90.54618434 1557.09379,93.9036394 C1568.80064,97.26109445 1579.07468,103.0341928 1587.91622,111.2231075 L1560.90054,140.7030532 C1555.66111,135.2983695 1549.76684,131.20397350000002 1543.21756,128.41974249999998 C1536.66827,125.6355115 1528.48178,124.2434169 1518.65785,124.2434169 C1510.47124,124.2434169 1503.06247,125.6355115 1496.43132,128.41974249999998 C1489.80017,131.20397350000002 1484.11056,135.09364970000001 1479.36232,140.0888877 C1474.61409,145.08412570000002 1470.9711,151.0209998 1468.43326,157.8996882 C1465.89541,164.7783766 1464.6264999999999,172.23017729999998 1464.6264999999999,180.2553138 C1464.6264999999999,188.444229 1465.89541,195.936973 1468.43326,202.733772 C1470.9711,209.530572 1474.61409,215.426502 1479.36232,220.42174 C1484.11056,225.416978 1489.80017,229.306654 1496.43132,232.090885 C1503.06247,234.875116 1510.47124,236.267211 1518.65785,236.267211 C1527.00819,236.267211 1534.2123,235.3255 1540.27039,233.442049 C1546.32848,231.558599 1551.15851,229.634233 1554.76062,227.668893 L1554.76062,199.417278 L1523.56979,199.417278 L1523.56979,164.0413436 L1591.60017,164.0413436 L1591.60017,254.937843 z" id="LANDING" fill="#ffffff" fill-opacity="1"/>
                    <path d="M1737.0482,93.28947386 L1768.73022,93.28947386 L1844.37411,267.221154 L1801.14903,267.221154 L1786.16761,230.371221 L1718.62842,230.371221 L1704.1382,267.221154 L1661.89551,267.221154 L1737.0482,93.28947386 zM1751.78402,143.896714 L1730.66268,197.943281 L1773.15097,197.943281 L1751.78402,143.896714 zM1861.32031,93.28947386 L1899.63345,93.28947386 L1899.63345,267.221154 L1861.32031,267.221154 L1861.32031,93.28947386 z" id="AI" fill="#ffffff" fill-opacity="1"/>
                </g>
            </g>
        </g>
    </g></g></svg>