<?xml version="1.0" encoding="utf-8"?>
<!-- Generator: Adobe Illustrator 23.0.0, SVG Export Plug-In . SVG Version: 6.00 Build 0)  -->
<svg version="1.1" id="Layer_1" xmlns="http://www.w3.org/2000/svg" xmlns:xlink="http://www.w3.org/1999/xlink" x="0px" y="0px"
	 viewBox="0 0 500 213.6" style="enable-background:new 0 0 500 213.6;" xml:space="preserve">
<style type="text/css">
	.st0{fill:#FFFFFF;}
</style>
<title>Artboard 1</title>
<g>
	<g>
		<path class="st0" d="M55.2,130.9c-1,3.5-2,7.1-2.9,10.6l-2.9,11.6c-0.9,3.4-1.5,6.2-1.8,8.2c-0.6,3.4-3.4,6.1-6.8,6.5
			c-3.4,0.6-7,0.3-10.3-0.8c-3.6-1.2-6.9-3.2-9.6-5.9c-2.9-2.9-4.5-6.8-4.4-10.9c0.3-5.7,1.2-11.4,2.7-16.9
			c1.8-7.7,4.4-16.8,7.6-27.1c3.6-11.2,7.5-22.4,11.7-33.4c4-10.3,8.4-20.6,13.1-30.9c1.6-3.4,4.8-5.7,8.5-6.1
			c7.3-1,14.6-0.8,21.8,0.7c3.2,0.7,5.3,3.9,4.5,7.1c-0.1,0.4-0.2,0.8-0.4,1.2c-3.9,8.6-7.5,17.3-10.9,26.1
			c-2.6,6.8-5.1,13.5-7.6,20.4c-0.2,0.4,0.1,0.9,0.5,1c0.2,0.1,0.4,0.1,0.6,0C71.9,90.7,75,89,78,87c5-3.2,9.6-7,13.6-11.4
			c4-4.3,7.4-9.2,9.9-14.6c2.5-5.3,3.7-11.2,3.7-17.1c0.6-6.4-1.8-12.7-6.5-17.1c-5.3-3.8-11.8-5.6-18.3-5.1c-7.8,0-15.5,2-22.2,5.9
			c-6.6,3.7-12.5,8.4-17.5,14C36.1,47,32.3,53,29.5,59.5c-2.4,5-3.7,10.5-4,16c0.1,3.1-2,5.8-4.9,6.5c-2.9,0.9-6,0.7-8.8-0.4
			c-3.2-1.4-5.9-3.6-7.9-6.4c-2.7-3.8-4.1-8.3-3.9-13c0.4-5.9,2.3-11.7,5.4-16.7c4.1-7,9.4-13.2,15.6-18.4
			c7.6-6.4,16.2-11.5,25.5-15.2c11.1-4.4,23-6.6,35-6.4c7.4-0.1,14.9,0.7,22.1,2.3c7,1.6,13.6,4.2,19.8,7.8
			c5.5,3.4,10.2,7.9,13.9,13.2c3.7,5.3,5.6,11.7,5.5,18.2c0,7.2-1.7,14.2-4.9,20.6c-3.3,6.4-7.8,12.1-13.1,16.9
			c-5.8,5.1-12.2,9.5-19.1,12.9c-6.1,3.1-12.5,5.6-19,7.7c-0.4,0.1-0.6,0.4-0.5,0.8c0,3.3,0.4,6.5,0.7,9.6s0.9,7,1.5,10.3
			c0.6,3.3,1.3,6.4,2.1,9.4c1,3.6,2.2,7.2,3.6,10.6c1.1,2.4,2.3,4.8,3.7,7.1c1.2,2.1,2.4,4.2,3.9,6.2c1.3,1.8,2.7,3.6,4.2,5.2
			c1.4,1.5,2.9,2.9,4.5,4.3c1.6,1.2,3.2,2.4,4.9,3.4c4.7,2.9,10.1,4.6,15.6,4.9c1.9,0.1,3.8,0.1,5.6,0c2-0.3,3.9-0.7,5.8-1.2
			c2.1-0.5,4.1-1.1,6.1-1.8c3-1.1,5.9-2.5,8.7-4.1c2.6-1.5,5.9-0.8,7.7,1.6c1.8,2.4,1.4,5.8-0.9,7.7c-3.6,3.1-7.4,6.1-11.3,8.7
			c-2.5,1.7-4.9,3.3-7.5,4.9l-3.9,2.1c-2.5,1.3-5.1,2.4-7.7,3.4c-2.5,0.9-5,1.7-7.6,2.3c-2.5,0.6-5,1-7.5,1.3
			c-2.4,0.2-4.8,0.2-7.3,0c-3.5-0.2-7-0.7-10.4-1.6c-3.3-0.9-6.5-2.2-9.5-3.9c-2-1.1-3.9-2.3-5.8-3.7c-1.5-1.1-3-2.4-4.4-3.7
			c-1.7-1.5-3.4-3.2-4.9-4.9c-1.6-1.9-3-3.8-4.4-5.8c-1.3-2.2-2.6-4.4-3.7-6.7c-1.2-2.3-2.3-4.7-3.3-7.2c-1-2.5-2-4.9-2.8-7.8
			s-1.6-5.5-2.3-8.4s-1.3-5.9-1.7-8.9c-0.4-3-0.8-5.5-1.1-8.3c-0.1-0.4-0.5-0.7-1-0.6c-0.3,0.1-0.5,0.3-0.6,0.6"/>
	</g>
	<path class="st0" d="M500.4,23c0.1,12.2-9.7,22.2-21.9,22.3c-12.2,0.1-22.2-9.7-22.3-21.9C456,11.1,465.8,1.1,478.1,1
		c0.1,0,0.3,0,0.4,0c12.2-0.1,22.1,9.8,22.1,21.9c0,0,0,0,0,0 M395.4,83.1c-0.8,4.5-1.9,8.9-3.3,13.2c-1.6,5.2-3.5,10.4-5.6,15.4
		c-2.3,5-4.8,10-7.5,14.8c-2.2,3.9-4.7,7.7-7.4,11.3c-1.8,2.5-4,4.7-6.5,6.6c-0.7,0.6-1.6,1-2.6,1.1h-0.3c-0.2,0-1-0.6-1.4-3.3
		c-0.3-3.2-0.1-6.3,0.5-9.4c0.9-4.6,2-9.1,3.5-13.5c1.6-5.2,3.5-10.4,5.6-15.4c2.1-5.1,4.6-10.1,7.4-14.8c2.2-3.9,4.8-7.6,7.6-11.2
		c1.9-2.4,4-4.6,6.5-6.5c0.7-0.6,1.6-1,2.6-1.1h0c0,0,1,0.7,1.4,3.3c0.3,3.1,0.1,6.2-0.5,9.3 M296.1,82.8c-0.8,4.5-1.9,8.9-3.3,13.2
		c-1.6,5.3-3.4,10.6-5.5,15.7c-2.3,5-4.8,10-7.5,14.8c-2.2,3.9-4.7,7.7-7.4,11.3c-1.9,2.4-4,4.6-6.5,6.4c-0.7,0.6-1.6,1-2.6,1.1H263
		c0,0-1.1-0.6-1.4-3.3c-0.3-3.2-0.1-6.3,0.5-9.4c0.8-4.5,1.9-8.9,3.3-13.3c1.6-5.2,3.4-10.4,5.5-15.4c2.1-5.1,4.6-10,7.3-14.8
		c2.2-3.8,4.8-7.5,7.5-10.9c1.9-2.4,4-4.6,6.5-6.5c0.7-0.6,1.6-1,2.6-1.1h0.3c0,0,1.1,0.7,1.4,3.3c0.3,3.1,0.1,6.2-0.5,9.3
		 M188.6,83.1c-0.5,4.5-1.4,8.9-2.5,13.3c-1.3,5.2-3,10.3-4.9,15.3c-1.9,5-4.1,9.9-6.6,14.8c-1.9,3.9-4.2,7.6-6.7,11.1
		c-1.7,2.3-3.6,4.3-5.8,6.1c-0.7,0.6-1.5,1-2.4,1.1h-0.3c-0.2,0-1.1-0.7-1.5-3.4c-0.4-3.1-0.4-6.3,0-9.4c0.4-4.4,1.2-8.8,2.3-13.1
		c1.3-5.2,3-10.3,4.9-15.3c1.9-5,4.1-10,6.6-14.8c2-3.9,4.2-7.7,6.8-11.2c1.7-2.5,3.7-4.7,6-6.5c0.7-0.6,1.5-1,2.4-1.1h0
		c0.2,0,1.2,0.7,1.7,3.4c0.5,3.1,0.5,6.3,0,9.4 M495,111.3c-1.2-1.7-3.2-2.7-5.3-2.7c-2,0-3.8,1-4.9,2.6c-1.3,1.9-2.9,4.1-4.9,6.6
		c-2,2.8-4.1,5.5-6.3,8c-2.1,2.2-4.4,4.4-6.7,6.3c-1.2,1.2-2.8,2-4.4,2.2c-0.5,0-1.6,0-1.9-2.8c-0.2-3.8,0.3-7.5,1.3-11.2
		c1.3-5.2,3-10.3,4.9-15.3c3.7-9.9,7.7-19.6,12.1-29.1c1.6-3.7,2.7-6,3.1-7.1c1.3-2.9,0.8-6.3-1.4-8.6c-2.2-2.4-5-4.2-8.2-4.9
		c-3.5-0.8-7.1-0.8-10.6,0c-4,0.9-7.4,3.4-9.3,6.9c-2.8,4.8-5.4,9.7-7.7,14.8c-3.3,7.3-6.3,14.8-9,22.3c-1.7,4.9-3.3,9.9-4.9,14.8
		c-2.4,8.3-7.3,15.8-14.1,21.2c-2.3,2-4.8,3.8-7.3,5.5c-1.2,0.8-2.3,1.5-3.6,2.1c-0.2,0.1-0.4,0-0.5-0.2c-0.1-0.1-0.1-0.3,0-0.4
		c2-2.7,4.1-5.6,6-8.7c4.4-7.1,8.1-14.7,11-22.5c3.1-8,5.3-16.3,6.4-24.7c0.9-6.5,0.5-13.1-0.9-19.4c-1.1-4.9-3.7-9.4-7.4-12.9
		c-3.7-3.2-8.4-5-13.3-4.9c-5.9,0-11.8,1.7-16.8,4.9c-3.3,2.1-6.5,4.5-9.4,7.2c0,0-0.4,0-0.6,0c-0.7-1.1-1.6-2-2.6-2.8
		c-2.5-2-5.5-3.4-8.7-4c-3.3-0.6-6.7-0.4-9.9,0.7c-3.5,1.1-6.3,3.7-7.8,7.1c-3.6,7.8-6.9,15.7-9.9,23.6
		c-4.2,10.2-7.9,20.5-11.2,30.7c-2.8,8.1-8,15.1-14.8,20.2c-1.8,1.3-3.6,2.7-5.5,3.9c-1.2,0.8-2.3,1.5-3.6,2.1
		c-0.2,0.1-0.4,0-0.5-0.2c-0.1-0.1-0.1-0.3,0-0.4c2.1-2.8,4.2-5.7,6-8.7c4.4-7.1,8.1-14.7,11-22.5c3.1-8,5.3-16.3,6.4-24.7
		c0.9-6.5,0.7-13-0.7-19.4c-1.1-4.9-3.7-9.4-7.4-12.9c-3.7-3.2-8.4-5-13.3-4.9c-5.9,0-11.8,1.7-16.8,4.9c-3.3,2.1-6.5,4.5-9.4,7.2
		c0,0-0.4,0-0.6,0c-0.7-1.1-1.6-2-2.6-2.8c-2.5-2-5.5-3.4-8.7-4c-3.3-0.6-6.7-0.4-9.9,0.7c-3.5,1.1-6.4,3.7-7.9,7.1
		c-3.6,7.8-6.9,15.7-9.9,23.6c-3.3,8.5-6.4,17.1-9.4,25.7c-2.1,6.4-5.8,12.1-10.7,16.8c-1.3,1.2-2.6,2.4-3.8,3.4
		c-1.2,1.2-2.8,2-4.4,2.2c-0.6,0-1.6,0-1.9-2.8c-0.2-3.8,0.3-7.5,1.3-11.2c1.3-5.2,3-10.3,4.9-15.3c2.1-5.6,4.3-10.9,6.4-16
		c2.1-5,4.1-9.5,5.7-13.1c1.1-2.3,2.1-4.7,3.1-7.1c1.3-2.9,0.8-6.3-1.4-8.6c-2.2-2.5-5.1-4.2-8.4-4.9c-3.5-0.8-7.1-0.8-10.6,0
		c-3.9,0.9-7.3,3.3-9.3,6.8l-1.4,2.4c-0.1,0.2-0.3,0.3-0.5,0.2c-0.1,0-0.2-0.1-0.2-0.2c-0.4-2-1.1-3.9-2.1-5.6
		c-1.5-2.7-3.7-5-6.5-6.5c-3.2-1.7-6.8-2.6-10.4-2.5c-11.2,0.5-21.8,5.3-29.7,13.3c-9.6,8.7-17.6,22.5-23.7,41.1
		c-2.7,8-4.3,16.3-4.9,24.7c-0.6,6.5,0.1,12.9,1.8,19.2c1.4,4.9,4.2,9.4,8.1,12.7c3.8,3.2,8.6,5,13.5,4.9c3.7,0,7.4-0.7,10.9-2
		c3.2-1.3,6.3-2.9,9-4.9c2.1-1.5,4-3.1,5.8-4.9c0.9-1,2.4-1,3.4-0.1c0.3,0.3,0.5,0.6,0.7,1c0.6,1.8,1.4,3.4,2.4,4.9
		c2.8,3.8,7.3,5.9,12.1,5.6c6.6-0.2,12.9-2.5,18-6.6c2.8-2.1,5.6-4.3,8.2-6.7c0.3-0.3,0.8-0.3,1.1,0.1c0.2,0.2,0.2,0.5,0.2,0.7
		c-1.5,4.9-2.9,9.9-4.2,14.1c-2.1,7.4-3.6,13.8-5,18.7c-1,3.2-1.6,6.5-1.9,9.9c-0.1,4,1.3,7.8,4,10.8c2.4,2.7,5.4,4.7,8.8,5.9
		c2,0.7,4.1,1.1,6.3,1.1c1.1,0,2.2-0.1,3.2-0.3c3.2-0.6,5.8-3.2,6.2-6.5l0,0c0.3-2.3,1-5.4,2-9.3c1-3.9,2.2-8.6,3.6-13.6
		c1.4-5,2.9-10.5,4.9-17c0.9-3,1.8-6.1,2.7-9.3c0.2-0.4,0.7-0.6,1.1-0.4c0.2,0.1,0.3,0.2,0.4,0.4c0.4,0.8,0.9,1.5,1.4,2.2
		c3.5,4.2,8.8,6.4,14.2,6h3.9c9,0,18-1.7,26.4-4.9c7.4-2.9,14.4-6.5,21-11c0.4-0.2,0.9-0.1,1.1,0.2c0.1,0.2,0.2,0.4,0.1,0.7
		c-1.7,5.5-3.3,10.9-4.9,16.4c-1.8,6.3-3.5,12.6-4.9,18.9c-1,3.2-1.6,6.5-1.9,9.9c-0.1,4,1.3,7.8,4,10.8c2.4,2.6,5.5,4.6,8.8,5.8
		c2,0.7,4.1,1.1,6.2,1.1c1.1,0,2.2-0.1,3.3-0.3c3.2-0.6,5.7-3.2,6.2-6.5l0,0c0.3-2.3,1-5.4,2-9.3c1-3.9,2.2-8.6,3.6-13.6
		c1.4-5,3-10.5,4.9-17c0.9-3,1.8-6.1,2.7-9.3c0.2-0.4,0.7-0.6,1.1-0.4c0.2,0.1,0.3,0.2,0.4,0.4c0.4,0.8,0.9,1.5,1.4,2.2
		c3.5,4.2,8.8,6.4,14.2,6h3.9c9,0,18-1.7,26.4-4.9c8.6-3.3,16.8-7.8,24.2-13.2l3.4-2.7c0.3-0.3,0.8-0.2,1.1,0.1
		c0.1,0.1,0.2,0.3,0.2,0.5v0.8c-0.2,4.8,1,9.5,3.5,13.5c2.8,3.8,7.3,5.9,12.1,5.6c6.5-0.3,12.7-2.6,17.7-6.6
		c5.9-4.3,11.3-9.3,16.2-14.8c4.6-5.1,8.9-10.5,12.8-16.2c2.5-3.7,5-7.4,7.5-11.2C496.1,115,496.1,112.9,495,111.3"/>
</g>
</svg>
