<?xml version="1.0" encoding="utf-8"?>
<!-- Generator: Adobe Illustrator 23.0.0, SVG Export Plug-In . SVG Version: 6.00 Build 0)  -->
<svg version="1.1" xmlns="http://www.w3.org/2000/svg" xmlns:xlink="http://www.w3.org/1999/xlink" x="0px" y="0px"
	 viewBox="0 0 1123.1 286" style="enable-background:new 0 0 1123.1 286;" xml:space="preserve">
<style type="text/css">
	.st0{fill:#FFFFFF;stroke:#FFFFFF;stroke-miterlimit:10;}
</style>
<g id="Capa_2">
	<path class="st0" d="M60.5,254.5c3.3,3.3-7,9.4-15.7,9.4c-13.1,0-22.2-9.1-22.3-22.1c0-6.4,3.8-15.1,8.1-18.2
		c5.9-4.2,14-5.6,21.2-3.6c5.1,1.4,10,5.9,8.7,7.9c-0.8,1.3-1.7,1.1-6.1-1.4c-8-4.4-17.1-3.6-22,2c-10.6,12-2.9,31.5,12.4,31.4
		c3,0,9.2-2.5,12.9-5.2C58.9,253.8,59.8,253.8,60.5,254.5z"/>
	<path class="st0" d="M115.9,221.1c-1.7-2.5-2.4-2.7-4.6-1c-2,1.7-20,41.6-19.3,42.8c1.5,2.5,3.8,0.6,6.3-5l2.7-6h24.4l2.8,5.7
		c2.9,5.9,4.9,7.6,5.9,5C134.6,261.2,119.4,226.5,115.9,221.1z M122.7,247.3c-0.9,1-18,0.7-18.6-0.3c-0.3-0.5,1-4.4,3-8.7
		c2-4.4,4-9,4.5-10.3c0.6-1.4,1.3-2,1.8-1.5C115,228.1,123.3,246.8,122.7,247.3z"/>
	<path class="st0" d="M147.1,87.2c9.3,10.9,11.8,34.1,5.2,47.7c-2.9,5.8-9.1,11.9-15.3,15l-5,2.5l-51.8,0.3L28.5,153l-2.5-2.5
		c-3.1-3.1-3.2-7.4-0.5-10.9l2.1-2.6l49.2-0.3c55.5-0.3,54.3-0.2,59.5-8.1c2.4-3.7,2.7-4.9,2.7-13.1c-0.1-12.7-3.2-18.5-12-22.2
		c-2.1-0.9-20.8-4.4-41.5-7.9c-40.5-6.8-45.3-8.2-52.8-15c-5.2-4.6-8-10.5-8.8-18.2c-1.7-16,6.6-27.1,22.6-30.2
		c2.5-0.5,26.8-0.9,54.1-1c48-0.1,49.7,0,52.1,1.9c1.4,1.1,2.8,3.1,3,4.4c0.7,3.6-1.7,8.5-4.7,9.6c-1.6,0.6-21.6,1-51.4,1
		c-33.1,0-49.9,0.4-52.2,1.1c-5.1,1.7-6.9,4.3-6.9,10.1c0,4.3,0.4,5.4,3.3,8.3c4.5,4.5,8.5,5.5,47.7,11.9c18.4,3.1,35.8,6.2,38.5,7
		C136.1,78.1,143.4,82.8,147.1,87.2z"/>
	<path class="st0" d="M193.1,221.9c-3.4-1.6-6.2-2-14.4-2c-7.4,0-10.4,0.4-10.8,1.3c-0.2,0.7-0.3,10.5-0.2,21.7
		c0.3,19.7,0.4,20.5,2.3,20.5c1.8,0,2-0.8,2.3-7.8l0.3-7.7h7.7c12.6-0.1,18.7-4,19.9-12.8C201,229.4,198.3,224.5,193.1,221.9z
		 M179,243.9h-6.5v-20h5.9c3.2,0,7.2,0.3,9,0.6c4.3,0.9,8.1,5,8.1,8.8C195.5,240.2,189.7,243.9,179,243.9z"/>
	<path class="st0" d="M264,221.9c0,1.2-1.6,1.6-7.2,1.8l-7.3,0.3l-0.2,19.7c-0.3,18.9-0.4,19.7-2.3,19.7s-2-0.8-2.3-19.8l-0.2-19.7
		H237c-6.9,0-7.5-0.2-7.5-2c0-2,0.5-2,17.3-1.8C261.3,220.4,264,220.6,264,221.9z"/>
	<path class="st0" d="M316.2,152.4c-1.2,0.3-24.7,0.5-52.2,0.3l-50-0.3l-5.3-2.8c-6.7-3.5-12.4-9.2-15.9-15.9l-2.8-5.3l-0.3-39.6
		c-0.3-38-0.2-39.8,1.8-45.1c2.3-6.3,8.4-13.8,14-17.3c8.3-5.2,9.9-5.4,61.7-5.4l48.2-0.1l2.7,2.4c3.9,3.3,3.9,8.9,0,12.2l-2.7,2.4
		h-47.5c-52.4,0-51.5-0.1-57.2,6.4c-4.2,4.9-4.7,6.9-4.7,21.6v12.5l55.2,0.5c50.3,0.5,55.4,0.7,57.2,2.2c4.3,3.7,3.3,10.9-1.9,13.5
		c-1.9,1-15,1.3-56.7,1.3h-54.3v10.5c0,14.5,1.3,19.8,6,24.5c2.8,2.8,5.2,4.1,8.9,4.9c3.4,0.7,21.2,1.1,50.4,1.1
		c49.6,0,48.9-0.1,50.2,5.9C321.8,146.5,319.3,151.7,316.2,152.4z"/>
	<path class="st0" d="M333,235.9c0,13.7-0.2,16-2.1,19.5c-5.6,10.9-24.9,11.4-31.5,0.9c-2.2-3.6-2.4-5.1-2.7-18.7
		c-0.2-8.1-0.1-15.4,0.2-16.2c0.3-0.8,1.5-1.5,2.6-1.5c1.9,0,2,0.6,2,14.8c0,16.8,1.1,20.4,7.1,23.4c4.1,2.2,7.8,2.3,12.4,0.4
		c6.1-2.6,6.9-5.1,7.5-22.6c0.5-14.7,0.6-15.5,2.5-15.5S333,221.1,333,235.9z"/>
	<path class="st0" d="M393.5,245.9c0-0.3,1.6-1.2,3.6-1.9c9.7-3.5,9.6-18.6-0.1-22.7c-4.6-1.9-26.3-2-27.1-0.1
		c-0.2,0.7-0.3,10.5-0.2,21.7c0.3,19.7,0.4,20.5,2.3,20.5c1.8,0,2-0.8,2.3-8.3l0.3-8.2h6.7l6.7,0.1l6.4,8.4c3.5,4.7,7,8.5,7.8,8.5
		c3.2,0,2.2-3.3-3.1-10.1C396,249.8,393.5,246.3,393.5,245.9z M384.4,241.7l-9.9,0.4v-18.4l9.4,0.4c11.6,0.4,14.9,2.2,15.4,8.4
		c0.2,3.2-0.2,4.4-2.3,6.4C394.6,241.2,393.3,241.4,384.4,241.7z"/>
	<path class="st0" d="M471.2,260.4c0.3,0.9,0.3,1.8,0,2.1c-0.4,0.4-20.7,0.7-30.4,0.4c-1,0-1.3-4.9-1.3-20.8
		c0-11.5,0.3-21.2,0.7-21.6c0.4-0.3,7.5-0.5,15.7-0.4c12.6,0.3,15.1,0.5,15.1,1.8c0,1.2-2.3,1.5-13.2,1.8l-13.3,0.3v14.8l11.8,0.3
		c10.9,0.3,11.7,0.4,11.7,2.3s-0.8,2-11.7,2.3l-11.8,0.3v14.9h13C468.4,258.9,470.7,259.2,471.2,260.4z"/>
	<path class="st0" d="M484,23.4l2.5,2.4v111.8l-2.3,4.4c-1.6,2.9-4,5.4-7.2,7.4c-4.1,2.6-6,3-13,3.3c-6.7,0.3-9.1,0-13.3-1.8
		c-9.3-4-11.2-7-37.6-59.8c-16.5-33-25.4-49.7-27.2-51.1c-3-2.4-11.2-2.9-13.2-0.9c-0.9,0.9-1.2,14.3-1.2,54
		c0,55.8-0.1,57.5-4.5,59.2c-3.9,1.5-8.3,0.6-10.4-2c-2.1-2.6-2.1-3.5-2.1-57.8c0-51.7,0.2-55.4,1.9-59.2c2.2-4.8,7.4-9.4,12.8-11.1
		c5.5-1.8,17.4-0.9,22.9,1.7c2.4,1.2,5.9,3.9,7.7,5.9c1.8,2.1,14.5,26,28.2,53.1c17.7,35.1,25.8,50,27.7,51.4
		c3.1,2.2,11.1,2.7,13,0.8c1-1,1.4-12.7,1.6-55.7l0.2-54.4l2.7-2C476.7,20.2,481,20.3,484,23.4z"/>
	<path class="st0" d="M580,257.9l-3.7-3.8l2.6-4.4c1.4-2.5,2.6-5.4,2.6-6.6c0-3.5-2.8-2.5-5,1.7c-1.1,2.2-2.4,4.2-2.8,4.5
		c-0.5,0.3-3-1.6-5.5-4.2l-4.7-4.8l3.6-1.9c8-4.3,8.5-14.3,0.9-18c-4.1-1.9-7.1-1.9-11.1,0.1c-5.5,2.7-7.2,10.8-3.4,15.7l2,2.5
		l-3.5,2.2c-4.9,3-6.5,5.7-6.5,11.1c0,8.1,5.7,12.6,15,11.7c3.2-0.3,6.4-1.5,9-3.3l4.1-2.8l3.2,3.1c1.8,1.8,3.8,3.2,4.4,3.2
		C584,263.9,583.5,261.4,580,257.9z M558.7,224.5c7-5,13.5,3.8,7.3,9.9c-1.3,1.4-3.3,2.5-4.4,2.5
		C556.8,236.9,554.6,227.3,558.7,224.5z M559.4,259.9c-9.6,0-12.7-10.8-4.6-15.9l3.2-2l5.8,5.7c3.1,3.1,5.7,6.2,5.7,6.8
		C569.5,256.5,563,259.9,559.4,259.9z"/>
	<path class="st0" d="M652,120.9c-1.4,13.6-7.7,23.5-18.3,28.7l-5.7,2.8l-50.5,0.3c-27.8,0.2-51.5,0-52.6-0.2
		c-3.3-0.9-5.6-6.6-4.3-10.5c0.6-1.7,1.9-3.6,2.9-4.1c1.2-0.6,19.8-1,47.7-1c25.2-0.1,47.8-0.5,50.2-0.9c8.5-1.7,13-7.4,13.9-17.6
		c0.9-11.7-3-20.5-10.8-24.5c-2.5-1.3-16-4-40.2-8c-19.9-3.3-39-6.9-42.3-8c-8.6-2.9-15.3-8.3-18.9-15.3c-2.5-5-3-6.9-2.9-13.5
		c0-11.3,3.5-18.1,11.9-23.3c7.1-4.4,12.1-4.7,64.6-4.8l49.7-0.1l2.7,2.4c3.8,3.2,3.8,9-0.1,12.3l-2.6,2.3h-49.2
		c-30.6,0-50.6,0.4-52.9,1c-5.4,1.5-8.1,5.4-7.5,10.7c1.2,10.8,3.6,11.8,50.2,19.6c41.2,6.9,45.5,8.1,53.4,15.2
		C648.6,91.9,653.4,106.9,652,120.9z"/>
	<path class="st0" d="M679.2,219.7c-1.5-1-1.9-1-3.3,0c-1.9,1.2-19.7,41-19.1,42.7c1.1,2.8,2.6,1.6,5.7-4.5l3-6h23.9l2.8,5.7
		c2.7,5.6,5.4,7.5,6.1,4.2C698.6,259.9,680.9,220.8,679.2,219.7z M686.8,247.1c-0.2,0.5-4.4,0.8-9.3,0.8s-9.1-0.3-9.3-0.8
		c-0.3-0.4,1.6-5.3,4.1-11c2.5-5.6,4.8-10.2,5.1-10.2C678.3,225.9,687.3,246.3,686.8,247.1z"/>
	<path class="st0" d="M768.5,241.3c0,11.8-0.4,21.7-0.9,22c-1.9,1.2-3.9-0.9-16.6-17.4c-7.1-9.3-13.3-16.9-13.7-17
		c-0.5,0-0.8,7.7-0.8,17c0,14.7-0.2,17.1-1.6,17.7c-0.9,0.3-2,0-2.5-0.8c-1-1.7-1.2-41.2-0.2-42.3c2.2-2.2,5.6,1,17.8,16.6
		c7.1,9.2,13.3,16.7,13.8,16.8c0.4,0,0.7-7.7,0.7-17c0-16.3,0.1-17,2-17S768.5,220.6,768.5,241.3z"/>
	<path class="st0" d="M763.5,152.9c-48,0-50.1-0.1-55.5-2.1c-7.3-2.7-15.6-10.4-19.2-17.7l-2.8-5.7v-81l2.8-5.5
		c3.4-6.6,7.7-11.3,13.5-14.7c8.8-5.2,9.1-5.2,62-5l49.4,0.2l1.9,2.4c1.9,2.3,2.5,6.5,1.3,9.6c-1.7,4.3-3.8,4.5-53.4,4.5
		c-45,0-47.2,0.1-51,2c-2.1,1.1-5.1,3.6-6.7,5.7c-2.7,3.6-2.8,4-3.1,18.5l-0.3,14.8h110.2l2.4,2.5c4.4,4.3,2.9,11.2-2.9,13.5
		c-1.8,0.6-21.6,1-56.2,1h-53.4v13.6c0,12.3,0.2,14,2.2,17.6c1.4,2.4,4.1,5.1,6.8,6.6l4.5,2.7l48.5,0.3c47.9,0.3,48.5,0.3,50.7,2.4
		c2.9,2.7,3,7.6,0.2,11.2l-2,2.6H763.5z"/>
	<path class="st0" d="M825.3,220.1c-0.6-0.6-1.6-1.2-2.3-1.2s-1.7,0.6-2.3,1.2c-2.1,2.7-19.3,41.9-18.7,42.8c1.5,2.4,3.7,0.6,6.2-5
		l2.6-6H835l2.7,6c2.5,5.8,5.2,7.8,6.3,4.7C844.5,261.4,827.4,222.8,825.3,220.1z M823,247.9c-5.2,0-9.5-0.4-9.5-0.9
		c0-0.9,1.3-4,6.4-15.5c1.5-3.2,3-5.6,3.3-5.3c0.8,0.9,9.3,19.8,9.3,20.9C832.5,247.5,828.2,247.9,823,247.9z"/>
	<path class="st0" d="M906.8,260.3c1,2.7-1.3,3.1-15.2,2.8l-14.1-0.3v-43l2.3,0.3c2.2,0.3,2.2,0.4,2.5,19.5l0.2,19.3h11.9
		C903.6,258.9,906.4,259.2,906.8,260.3z"/>
	<path class="st0" d="M934.1,37.9h-25.6v54.9c0,54,0,54.9-2.1,57.5c-2.8,3.6-8.6,3.6-12,0l-2.4-2.6l-0.3-54.8L891.5,38l-26.6-0.3
		c-26.6-0.3-26.6-0.3-28.5-2.7c-3.4-4.1-2.1-11.3,2.4-13.1c3.5-1.4,120.4-1.2,123,0.2c3.2,1.7,4.6,3.9,4.6,7.3s-1.4,5.6-4.6,7.3
		C960.3,37.5,951.6,37.9,934.1,37.9z"/>
	<path class="st0" d="M967.9,221.9c-0.1,0.8-3.7,6.5-8.2,12.7l-8.1,11.1l-0.3,8.9c-0.3,8-0.5,8.8-2.3,8.8s-2-0.8-2.5-9l-0.5-9
		l-8.2-11.4c-8.7-12-9.8-14.5-6.1-13.9c1.5,0.2,4.3,3.3,8.5,9.3c9.5,13.4,8,13.3,16.4,1.1c5.6-8,7.9-10.5,9.4-10.3
		C967.1,220.3,968,221.1,967.9,221.9z"/>
	<path class="st0" d="M1020.6,240.9l-13.8,17.5l13.6,0.5c12.3,0.5,13.6,0.7,13.6,2.3c0,1.7-1.2,1.8-16.2,1.8c-9,0-16.7-0.1-17.3-0.1
		c-2.5,0-0.1-3.8,13.1-20.6l14.2-17.9l-13.7-0.3c-12.8-0.2-13.6-0.4-13.6-2.2c0-1.9,0.7-2,17-2c15.5,0,17,0.2,17,1.7
		C1034.5,222.6,1028.2,231.3,1020.6,240.9z"/>
	<path class="st0" d="M1087.8,98.1c-6.4-25.7-12.7-49.1-14-51.9c-5.1-10.9-16.9-20.7-28.8-23.8c-11.9-3-25.5-1.2-35.8,4.8
		c-5.6,3.3-13.8,12.2-16.6,18c-3.4,7-26.3,98.4-25.6,101.8c0.8,3.6,4,5.9,8.3,5.9c6.1,0,7.1-2,14.2-30.8l6.5-26.2l36.9,0.2l36.9,0.3
		l6.6,26.2c4.3,16.9,7.3,26.8,8.5,28.2c2.1,2.3,7.4,2.8,10.6,1.1c1-0.5,2.3-2.3,2.9-4C1099.3,145.2,1097.9,138.5,1087.8,98.1z
		 M1033.1,78.9c-17.9,0-32.6-0.2-32.6-0.4c0-1.6,6.5-24.7,7.5-26.6c2.1-4,8.6-9.7,13.5-11.9c5.9-2.7,16.9-2.8,22.6-0.2
		c4.9,2.2,10.7,7.2,13.3,11.4c1.1,1.8,3.1,7.9,4.6,13.7c1.4,5.8,2.8,11.3,3.1,12.2C1065.6,78.8,1063.6,78.9,1033.1,78.9z"/>
	<path class="st0" d="M1084.6,262.9h-16.1v-43h15.5c14.8,0,15.5,0.1,15.5,2c0,1.8-0.8,2-13.2,2.2l-13.3,0.3l-0.3,7.2l-0.3,7.3h11.4
		c11.7,0,14.8,0.9,12.6,3.7c-0.8,0.9-4.3,1.3-12.5,1.3h-11.4v14.9l13.7,0.3c12.2,0.3,13.8,0.5,14.1,2
		C1100.6,262.8,1099.3,262.9,1084.6,262.9z"/>
</g>
<g id="Capa_1">
</g>
</svg>
