<?xml version="1.0" encoding="UTF-8" standalone="no"?>
<svg
   xmlns:dc="http://purl.org/dc/elements/1.1/"
   xmlns:cc="http://creativecommons.org/ns#"
   xmlns:rdf="http://www.w3.org/1999/02/22-rdf-syntax-ns#"
   xmlns:svg="http://www.w3.org/2000/svg"
   xmlns="http://www.w3.org/2000/svg"
   id="svg8"
   version="1.1"
   viewBox="0 0 110 110"
   height="110mm"
   width="110mm">
  <defs
     id="defs2" />
  <metadata
     id="metadata5">
    <rdf:RDF>
      <cc:Work
         rdf:about="">
        <dc:format>image/svg+xml</dc:format>
        <dc:type
           rdf:resource="http://purl.org/dc/dcmitype/StillImage" />
        <dc:title></dc:title>
      </cc:Work>
    </rdf:RDF>
  </metadata>
  <g
     transform="translate(0,-187)"
     id="layer1">
    <path
       id="path830"
       d="m 27.412611,269.28666 c -0.19675,-0.89806 0.22661,-3.23164 0.78069,-4.30309 0.22687,-0.43874 0.97411,-1.20601 1.660518,-1.70507 2.32607,-1.69117 9.45868,-4.96985 15.19502,-6.98478 l 2.30534,-0.80976 1.48582,0.51119 c 3.689163,1.26926 8.242103,1.21837 11.967173,-0.13376 1.17851,-0.42778 1.85323,-0.54691 2.14634,-0.37897 0.23512,0.13472 2.86827,1.15105 5.85145,2.25851 6.37963,2.36836 10.29306,4.18987 11.80668,5.49543 1.19926,1.03441 1.52976,1.92989 1.84239,4.99196 l 0.18234,1.78594 H 55.104192 27.572011 Z m 24.750761,-19.78085 c -5.479333,-1.21817 -9.491853,-6.90154 -10.996613,-15.57569 -0.93486,-5.38901 -0.0793,-9.73013 2.734,-13.87296 2.70237,-3.97943 7.464683,-6.44926 11.615423,-6.024 3.40446,0.3488 6.31957,1.89014 8.99266,4.75479 4.66032,4.99432 5.51093,11.31091 2.6762,19.87319 -2.67568,8.08184 -8.50842,12.29271 -15.02167,10.84467 z"
       style="fill:#ffffff;fill-opacity:1;stroke-width:0.26458335" />
  </g>
</svg>
