<svg xmlns="http://www.w3.org/2000/svg" viewBox="0 0 266.25 106.33"><defs><style>.cls-1{fill:#fff;}</style></defs><title>huge</title><g id="Capa_2" data-name="Capa 2"><g id="Layer_1" data-name="Layer 1"><path class="cls-1" d="M35.44,0V44.2H17.72V0H0V106.12H17.72V61.92H35.44v44.2H53.16V0H35.44"/><path class="cls-1" d="M106.54,0V84.12a4.51,4.51,0,0,1-4.48,4.49h-9a4.51,4.51,0,0,1-4.48-4.49V0H71.1V88.61a17.68,17.68,0,0,0,17.72,17.72h17.72a17.68,17.68,0,0,0,17.72-17.72V0H106.54"/><path class="cls-1" d="M266.25,17.72V0H213.09V106.12h53.16V88.39H230.81V61.92h17.72V44.2H230.81V17.72h35.44"/><path class="cls-1" d="M195.15,26.69v-9A17.68,17.68,0,0,0,177.43,0H159.71A17.68,17.68,0,0,0,142,17.72V88.61a17.68,17.68,0,0,0,17.72,17.72h17.72a17.68,17.68,0,0,0,17.72-17.72V44.41H168.68V62.13h9v22a4.51,4.51,0,0,1-4.48,4.49h-9a4.51,4.51,0,0,1-4.48-4.49V22.21a4.51,4.51,0,0,1,4.48-4.49h9a4.51,4.51,0,0,1,4.48,4.49v4.48h17.51"/></g></g></svg>