<?xml version="1.0" encoding="UTF-8" standalone="no"?>
<svg
   xmlns:dc="http://purl.org/dc/elements/1.1/"
   xmlns:cc="http://creativecommons.org/ns#"
   xmlns:rdf="http://www.w3.org/1999/02/22-rdf-syntax-ns#"
   xmlns:svg="http://www.w3.org/2000/svg"
   xmlns="http://www.w3.org/2000/svg"
   xmlns:xlink="http://www.w3.org/1999/xlink"
   id="svg11"
   version="1.1"
   viewBox="0 0 203 35"
   height="35px"
   width="203px">
  <metadata
     id="metadata15">
    <rdf:RDF>
      <cc:Work
         rdf:about="">
        <dc:format>image/svg+xml</dc:format>
        <dc:type
           rdf:resource="http://purl.org/dc/dcmitype/StillImage" />
        <dc:title></dc:title>
      </cc:Work>
    </rdf:RDF>
  </metadata>
  <!-- Generator: Sketch 51.2 (57519) - http://www.bohemiancoding.com/sketch -->
  <desc
     id="desc2">Created with Sketch.</desc>
  <defs
     id="defs4">
    <clipPath
       id="clipPath25"
       clipPathUnits="userSpaceOnUse">
      <use
         height="100%"
         width="100%"
         id="use27"
         xlink:href="#g21"
         y="0"
         x="0" />
    </clipPath>
  </defs>
  <g
     fill-rule="evenodd"
     fill="none"
     stroke-width="1"
     stroke="none"
     id="Page-1">
    <g
       id="g21">
      <g
         transform="translate(-100,-39)"
         id="home2"
         style="fill:#3c3c3c">
        <g
           transform="translate(100,38)"
           id="Group-8">
          <path
             style="fill:#ffffff"
             id="Combined-Shape"
             d="M 17.859922,35.817822 C 7.9961595,35.817822 0,28.157901 0,18.708911 0,9.2599203 7.9961595,1.6 17.859922,1.6 c 9.863763,0 17.859922,7.6599203 17.859922,17.108911 0,9.44899 -7.996159,17.108911 -17.859922,17.108911 z m -0.03415,-6.939759 c 7.430827,0 13.454703,-5.814157 13.454703,-12.986282 0,-7.1721254 -6.023876,-12.9862818 -13.454703,-12.9862818 -7.430827,0 -13.4547022,5.8141564 -13.4547022,12.9862818 0,7.172125 6.0238752,12.986282 13.4547022,12.986282 z m -0.0683,-2.679709 c -6.676428,0 -12.0887425,-5.075851 -12.0887425,-11.33723 0,-6.2613796 5.4123145,-11.3372304 12.0887425,-11.3372304 6.676428,0 12.088743,5.0758508 12.088743,11.3372304 0,6.261379 -5.412315,11.33723 -12.088743,11.33723 z m -0.03415,-4.603603 c 5.035611,0 9.117781,-3.845341 9.117781,-8.58881 0,-4.7434696 -4.08217,-8.5888111 -9.117781,-8.5888111 -5.035611,0 -9.1177803,3.8453415 -9.1177803,8.5888111 0,4.743469 4.0821693,8.58881 9.1177803,8.58881 z m 0.0683,-2.130025 c -3.979453,0 -7.205437,-3.245468 -7.205437,-7.248956 0,-4.003488 3.225984,-7.2489562 7.205437,-7.2489562 3.979453,0 7.205437,3.2454682 7.205437,7.2489562 0,4.003488 -3.225984,7.248956 -7.205437,7.248956 z m -0.239043,-6.252654 c 1.961437,0 3.551495,-1.661187 3.551495,-3.7103662 0,-2.0491786 -1.590058,-3.7103662 -3.551495,-3.7103662 -1.961436,0 -3.551495,1.6611876 -3.551495,3.7103662 0,2.0491792 1.590059,3.7103662 3.551495,3.7103662 z" />
          <path
             style="fill:#ffffff"
             id="deeplearning.ai"
             d="m 50.403362,25.288 c -1.472008,0 -2.635996,-0.535995 -3.492,-1.608 -0.856004,-1.072005 -1.284,-2.56799 -1.284,-4.488 0,-1.216006 0.231997,-2.287995 0.696,-3.216 0.464002,-0.928005 1.083996,-1.643997 1.86,-2.148 0.776004,-0.504002 1.611995,-0.756 2.508,-0.756 0.624003,0 1.183997,0.111999 1.68,0.336 0.496002,0.224001 1.039997,0.567998 1.632,1.032 l -0.072,-2.016 v -4.56 h 1.728 V 25 h -1.44 l -0.144,-1.416 h -0.072 c -0.496003,0.512003 -1.051997,0.923998 -1.668,1.236 -0.616003,0.312002 -1.259997,0.468 -1.932,0.468 z m 0.384,-1.488 c 0.560003,0 1.091997,-0.135999 1.596,-0.408 0.504002,-0.272001 1.019997,-0.687997 1.548,-1.248 v -6.312 c -0.512003,-0.448002 -1.007998,-0.771999 -1.488,-0.972 -0.480002,-0.200001 -0.975998,-0.3 -1.488,-0.3 -0.656003,0 -1.251998,0.199998 -1.788,0.6 -0.536003,0.400002 -0.959999,0.951996 -1.272,1.656 -0.312002,0.704004 -0.468,1.495996 -0.468,2.376 0,1.440007 0.291997,2.567996 0.876,3.384 0.584003,0.816004 1.411994,1.224 2.484,1.224 z m 18.165333,-5.28 c 0,0.416002 -0.024,0.767999 -0.072,1.056 h -8.04 c 0.08,1.360007 0.499996,2.415996 1.26,3.168 0.760004,0.752004 1.691995,1.128 2.796,1.128 1.024005,0 2.007995,-0.311997 2.952,-0.936 l 0.648,1.152 c -0.576003,0.368002 -1.167997,0.659999 -1.776,0.876 -0.608003,0.216001 -1.287996,0.324 -2.04,0.324 -1.024005,0 -1.955996,-0.243998 -2.796,-0.732 -0.840004,-0.488002 -1.503997,-1.195995 -1.992,-2.124 -0.488002,-0.928005 -0.732,-2.007994 -0.732,-3.24 0,-1.216006 0.243998,-2.287995 0.732,-3.216 0.488003,-0.928005 1.131996,-1.643997 1.932,-2.148 0.800004,-0.504002 1.647996,-0.756 2.544,-0.756 1.440007,0 2.563996,0.483995 3.372,1.452 0.808004,0.968005 1.212,2.299992 1.212,3.996 z m -1.56,-0.216 c 0,-1.232006 -0.263997,-2.175997 -0.792,-2.832 -0.528002,-0.656003 -1.263995,-0.984 -2.208,-0.984 -0.864004,0 -1.631997,0.327997 -2.304,0.984 -0.672003,0.656003 -1.071999,1.599994 -1.2,2.832 z m 13.701333,0.216 c 0,0.416002 -0.024,0.767999 -0.072,1.056 h -8.040001 c 0.08,1.360007 0.499997,2.415996 1.260001,3.168 0.760003,0.752004 1.691994,1.128 2.795999,1.128 1.024006,0 2.007996,-0.311997 2.952,-0.936 l 0.648001,1.152 c -0.576003,0.368002 -1.167997,0.659999 -1.776001,0.876 -0.608003,0.216001 -1.287996,0.324 -2.039999,0.324 -1.024006,0 -1.955996,-0.243998 -2.796001,-0.732 -0.840004,-0.488002 -1.503997,-1.195995 -1.991999,-2.124 -0.488003,-0.928005 -0.732,-2.007994 -0.732,-3.24 0,-1.216006 0.243997,-2.287995 0.732,-3.216 0.488002,-0.928005 1.131996,-1.643997 1.931999,-2.148 0.800004,-0.504002 1.647996,-0.756 2.544001,-0.756 1.440007,0 2.563995,0.483995 3.372,1.452 0.808003,0.968005 1.211999,2.299992 1.211999,3.996 z m -1.559999,-0.216 c 0,-1.232006 -0.263998,-2.175997 -0.792,-2.832 -0.528003,-0.656003 -1.263996,-0.984 -2.208,-0.984 -0.864005,0 -1.631997,0.327997 -2.304,0.984 -0.672004,0.656003 -1.072,1.599994 -1.200001,2.832 z m 4.821333,-4.944 h 1.44 l 0.144,1.392 h 0.072 c 1.360007,-1.120006 2.615994,-1.68 3.768,-1.68 1.488007,0 2.627996,0.531995 3.42,1.596 0.792004,1.064005 1.188,2.507991 1.188,4.332 0,1.280006 -0.231998,2.395995 -0.696,3.348 -0.464002,0.952005 -1.079996,1.679998 -1.848,2.184 -0.768004,0.504002 -1.599996,0.756 -2.496,0.756 -1.040005,0 -2.143994,-0.455995 -3.312,-1.368 l 0.048,2.064 v 4.008 h -1.728 z m 4.704,10.44 c 0.672003,0 1.275997,-0.195998 1.812,-0.588 0.536002,-0.392002 0.955998,-0.947996 1.26,-1.668 0.304001,-0.720004 0.456,-1.559995 0.456,-2.52 0,-1.392007 -0.259998,-2.483996 -0.78,-3.276 -0.520003,-0.792004 -1.331995,-1.188 -2.436,-1.188 -0.976005,0 -2.071994,0.559994 -3.288,1.68 v 6.288 c 0.528002,0.448002 1.047997,0.771999 1.56,0.972 0.512002,0.200001 0.983998,0.3 1.416,0.3 z m 10.773333,1.488 c -0.656003,0 -1.135998,-0.203998 -1.44,-0.612 -0.304001,-0.408002 -0.456,-1.011996 -0.456,-1.812 v -15 h 1.728 v 15.144 c 0,0.272001 0.052,0.475999 0.156,0.612 0.104001,0.136001 0.235995,0.204 0.396005,0.204 0.128,0 0.27199,-0.016 0.432,-0.048 l 0.24,1.344 c -0.30401,0.112001 -0.656,0.168 -1.056005,0.168 z M 113.15003,18.52 c 0,0.416002 -0.024,0.767999 -0.072,1.056 h -8.04 c 0.08,1.360007 0.5,2.415996 1.26,3.168 0.76,0.752004 1.69199,1.128 2.796,1.128 1.024,0 2.00799,-0.311997 2.952,-0.936 l 0.648,1.152 c -0.576,0.368002 -1.168,0.659999 -1.776,0.876 -0.60801,0.216001 -1.288,0.324 -2.04,0.324 -1.02401,0 -1.956,-0.243998 -2.796,-0.732 -0.84001,-0.488002 -1.504,-1.195995 -1.992,-2.124 -0.488,-0.928005 -0.732,-2.007994 -0.732,-3.24 0,-1.216006 0.244,-2.287995 0.732,-3.216 0.488,-0.928005 1.13199,-1.643997 1.932,-2.148 0.8,-0.504002 1.64799,-0.756 2.544,-0.756 1.44001,0 2.56399,0.483995 3.372,1.452 0.808,0.968005 1.212,2.299992 1.212,3.996 z m -1.56,-0.216 c 0,-1.232006 -0.264,-2.175997 -0.792,-2.832 -0.528,-0.656003 -1.264,-0.984 -2.208,-0.984 -0.86401,0 -1.632,0.327997 -2.304,0.984 -0.67201,0.656003 -1.072,1.599994 -1.2,2.832 z m 7.12533,6.984 c -0.992,0 -1.80799,-0.287997 -2.448,-0.864 -0.64,-0.576003 -0.96,-1.383995 -0.96,-2.424 0,-1.264006 0.576,-2.235997 1.728,-2.916 1.15201,-0.680003 2.99199,-1.155999 5.52,-1.428 0,-0.912005 -0.188,-1.659997 -0.564,-2.244 -0.376,-0.584003 -1.01999,-0.876 -1.932,-0.876 -1.104,0 -2.27999,0.423996 -3.528,1.272 l -0.696,-1.2 c 1.53601,-1.024005 3.03999,-1.536 4.512,-1.536 1.34401,0 2.336,0.419996 2.976,1.26 0.64,0.840004 0.96,1.995993 0.96,3.468 V 25 h -1.44 l -0.144,-1.416 h -0.072 c -1.376,1.136006 -2.67999,1.704 -3.912,1.704 z m 0.456,-1.416 c 0.56,0 1.108,-0.131999 1.644,-0.396 0.536,-0.264001 1.116,-0.675997 1.74,-1.236 v -3.408 c -2.00001,0.240001 -3.41999,0.607997 -4.26,1.104 -0.84,0.496002 -1.26,1.151996 -1.26,1.968 0,0.656003 0.2,1.147998 0.6,1.476 0.4,0.328002 0.912,0.492 1.536,0.492 z m 9.26133,-10.512 h 1.44 l 0.144,2.136 h 0.072 c 0.40001,-0.752004 0.888,-1.343998 1.464,-1.776 0.57601,-0.432002 1.192,-0.648 1.84801,-0.648 0.464,0 0.86399,0.08 1.19999,0.24 l -0.336,1.536 c -0.416,-0.128001 -0.78399,-0.192 -1.104,-0.192 -0.544,0 -1.08399,0.223998 -1.62,0.672 -0.536,0.448002 -0.99599,1.143995 -1.38,2.088 V 25 h -1.728 z m 8.49334,0 h 1.44 l 0.144,1.728 h 0.072 c 0.64,-0.640003 1.26799,-1.135998 1.884,-1.488 0.616,-0.352002 1.29199,-0.528 2.028,-0.528 1.216,0 2.11199,0.379996 2.688,1.14 0.576,0.760004 0.864,1.891992 0.864,3.396 V 25 h -1.752 v -7.176 c 0,-1.120006 -0.18,-1.935997 -0.54,-2.448 -0.36,-0.512003 -0.948,-0.768 -1.764,-0.768 -0.57601,0 -1.112,0.147999 -1.608,0.444 -0.496,0.296002 -1.072,0.771997 -1.728,1.428 V 25 h -1.728 z m 13.36533,0 h 1.728 V 25 h -1.728 z m 0.888,-2.496 c -0.352,0 -0.64,-0.111999 -0.864,-0.336 -0.224,-0.224001 -0.336,-0.519998 -0.336,-0.888 0,-0.3520018 0.112,-0.6359989 0.336,-0.852 0.224,-0.2160011 0.512,-0.324 0.864,-0.324 0.352,0 0.64,0.1079989 0.864,0.324 0.224,0.2160011 0.336,0.4999982 0.336,0.852 0,0.368002 -0.112,0.663999 -0.336,0.888 -0.224,0.224001 -0.512,0.336 -0.864,0.336 z m 5.25333,2.496 h 1.44 l 0.144,1.728 h 0.072 c 0.64001,-0.640003 1.268,-1.135998 1.884,-1.488 0.61601,-0.352002 1.292,-0.528 2.028,-0.528 1.21601,0 2.112,0.379996 2.688,1.14 0.57601,0.760004 0.864,1.891992 0.864,3.396 V 25 h -1.752 v -7.176 c 0,-1.120006 -0.17999,-1.935997 -0.54,-2.448 -0.36,-0.512003 -0.94799,-0.768 -1.764,-0.768 -0.576,0 -1.11199,0.147999 -1.60799,0.444 -0.49601,0.296002 -1.072,0.771997 -1.72801,1.428 V 25 h -1.728 z m 17.25334,17.064 c -1.45601,0 -2.62,-0.279997 -3.492,-0.84 -0.87201,-0.560003 -1.308,-1.327995 -1.308,-2.304 0,-0.496002 0.148,-0.975998 0.444,-1.44 0.296,-0.464002 0.716,-0.879998 1.26,-1.248 v -0.096 c -0.304,-0.192001 -0.552,-0.447998 -0.744,-0.768 -0.192,-0.320002 -0.288,-0.695998 -0.288,-1.128 0,-0.448002 0.124,-0.859998 0.372,-1.236 0.248,-0.376002 0.548,-0.683999 0.9,-0.924 v -0.096 c -0.416,-0.336002 -0.768,-0.775997 -1.056,-1.32 -0.288,-0.544003 -0.432,-1.143997 -0.432,-1.8 0,-0.816004 0.192,-1.539997 0.576,-2.172 0.384,-0.632003 0.90399,-1.119998 1.56,-1.464 0.656,-0.344002 1.37599,-0.516 2.16,-0.516 0.528,0 1.064,0.096 1.608,0.288 h 4.032 v 1.368 h -2.472 c 0.304,0.288001 0.552,0.655998 0.744,1.104 0.192,0.448002 0.288,0.919998 0.288,1.416 0,0.800004 -0.184,1.507997 -0.552,2.124 -0.368,0.616003 -0.872,1.091998 -1.512,1.428 -0.64001,0.336002 -1.352,0.504 -2.136,0.504 -0.64001,0 -1.232,-0.135999 -1.776,-0.408 -0.256,0.208001 -0.452,0.419999 -0.588,0.636 -0.136,0.216001 -0.204,0.483998 -0.204,0.804 0,0.416002 0.156,0.739999 0.468,0.972 0.312,0.232001 0.84399,0.348 1.596,0.348 h 2.328 c 1.36,0 2.36799,0.223998 3.024,0.672 0.656,0.448002 0.984,1.143995 0.984,2.088 0,0.704003 -0.24,1.363997 -0.72,1.98 -0.48,0.616003 -1.16,1.107998 -2.04,1.476 -0.88001,0.368002 -1.888,0.552 -3.024,0.552 z m -0.048,-10.32 c 0.72,0 1.332,-0.267997 1.836,-0.804 0.504,-0.536003 0.756,-1.227996 0.756,-2.076 0,-0.864004 -0.248,-1.555997 -0.744,-2.076 -0.496,-0.520003 -1.112,-0.78 -1.848,-0.78 -0.73601,0 -1.356,0.259997 -1.86,0.78 -0.504,0.520003 -0.756,1.211996 -0.756,2.076 0,0.848004 0.252,1.539997 0.756,2.076 0.504,0.536003 1.12399,0.804 1.86,0.804 z m 0.288,9.072 c 0.736,0 1.39599,-0.115999 1.98,-0.348 0.584,-0.232001 1.036,-0.543998 1.356,-0.936 0.32,-0.392002 0.48,-0.803998 0.48,-1.236 0,-0.544003 -0.2,-0.931999 -0.6,-1.164 -0.4,-0.232001 -1.008,-0.348 -1.824,-0.348 h -2.136 c -0.496,0 -0.992,-0.064 -1.488,-0.192 -0.84801,0.592003 -1.272,1.287996 -1.272,2.088 0,0.656003 0.31199,1.175998 0.936,1.56 0.624,0.384002 1.47999,0.576 2.568,0.576 z m 9.06933,-3.888 c -0.368,0 -0.68,-0.131999 -0.936,-0.396 -0.256,-0.264001 -0.384,-0.595998 -0.384,-0.996 0,-0.416002 0.128,-0.755999 0.384,-1.02 0.256,-0.264001 0.568,-0.396 0.936,-0.396 0.368,0 0.68,0.131999 0.936,0.396 0.256,0.264001 0.384,0.603998 0.384,1.02 0,0.400002 -0.128,0.731999 -0.384,0.996 -0.256,0.264001 -0.568,0.396 -0.936,0.396 z m 7.91734,0 c -0.99201,0 -1.808,-0.287997 -2.44801,-0.864 -0.64,-0.576003 -0.96,-1.383995 -0.96,-2.424 0,-1.264006 0.576,-2.235997 1.728,-2.916 1.15201,-0.680003 2.99199,-1.155999 5.52,-1.428 0,-0.912005 -0.18799,-1.659997 -0.564,-2.244 -0.376,-0.584003 -1.01999,-0.876 -1.932,-0.876 -1.104,0 -2.27999,0.423996 -3.528,1.272 l -0.696,-1.2 c 1.53601,-1.024005 3.04,-1.536 4.512,-1.536 1.34401,0 2.336,0.419996 2.976,1.26 0.64001,0.840004 0.96,1.995993 0.96,3.468 V 25 h -1.44 l -0.144,-1.416 h -0.072 c -1.376,1.136006 -2.67999,1.704 -3.91199,1.704 z m 0.45599,-1.416 c 0.56001,0 1.108,-0.131999 1.644,-0.396 0.53601,-0.264001 1.116,-0.675997 1.74,-1.236 v -3.408 c -2,0.240001 -3.41999,0.607997 -4.26,1.104 -0.84,0.496002 -1.26,1.151996 -1.26,1.968 0,0.656003 0.2,1.147998 0.6,1.476 0.40001,0.328002 0.912,0.492 1.536,0.492 z m 9.26134,-10.512 h 1.728 V 25 h -1.728 z m 0.888,-2.496 c -0.352,0 -0.64,-0.111999 -0.864,-0.336 -0.224,-0.224001 -0.336,-0.519998 -0.336,-0.888 0,-0.3520018 0.112,-0.6359989 0.336,-0.852 0.224,-0.2160011 0.512,-0.324 0.864,-0.324 0.352,0 0.64,0.1079989 0.864,0.324 0.224,0.2160011 0.336,0.4999982 0.336,0.852 0,0.368002 -0.112,0.663999 -0.336,0.888 -0.224,0.224001 -0.512,0.336 -0.864,0.336 z" />
        </g>
      </g>
    </g>
  </g>
</svg>
