<?xml version="1.0" encoding="utf-8"?>
<!-- Generator: Adobe Illustrator 23.0.0, SVG Export Plug-In . SVG Version: 6.00 Build 0)  -->
<svg version="1.1" id="Layer_1" xmlns="http://www.w3.org/2000/svg" xmlns:xlink="http://www.w3.org/1999/xlink" x="0px" y="0px"
	 viewBox="0 0 883.6 292" style="enable-background:new 0 0 883.6 292;" xml:space="preserve">
<style type="text/css">
	.st0{fill:#FFFFFF;}
</style>
<polygon class="st0" points="146.8,140.3 136.1,158.9 157.5,158.9 "/>
<path class="st0" d="M238.2,193.3c6.5-13.6,10.2-28.8,10.2-44.8c0-57.2-46.4-103.7-103.7-103.7c-0.1,0-0.2,0-0.2,0L220,176l6.8,11.7
	h-121l6.8-11.7h93.9L131.4,45.6C80.4,52.1,41,95.7,41,148.4c0,20.5,6,39.7,16.3,55.8l73-126.4l0,0l6.8-11.7l60.3,104.4h-13.5
	l-46.9-81L64.8,214.6c19,23,47.7,37.6,79.9,37.6c36.4,0,68.4-18.8,86.9-47.1H76.5l3.4-5.8h-0.1L137,100l6.8,11.7l-47.1,81.6
	L238.2,193.3L238.2,193.3z M146.7,116.8l24.2,42.1h0.1l6.7,11.7h-25.5h-2.5H144h-1.1h-13.5h-0.3h-13.2L146.7,116.8z"/>
<g>
	<path class="st0" d="M283.2,148c0-63.3,48-103.5,106.5-103.5c41.7,0,67.8,21,82.8,44.7l-35.4,19.2c-9-14.1-26.1-26.1-47.4-26.1
		c-36.3,0-62.7,27.9-62.7,65.7s26.4,65.7,62.7,65.7c17.7,0,34.5-7.8,42.6-15.3v-24h-52.8v-37.2h95.4V214
		c-20.4,22.8-48.9,37.8-85.2,37.8C331.2,251.8,283.2,211,283.2,148z"/>
	<path class="st0" d="M629.6,247.9L617.3,214h-85.8l-12.6,33.9h-48.6l77.4-200h53.4l77.1,200H629.6z M574.4,90.4l-31.2,86.1h62.4
		L574.4,90.4z"/>
	<path class="st0" d="M681.8,247.9v-200h93.6c43.5,0,67.2,29.4,67.2,64.5c0,34.8-24,64.5-67.2,64.5h-51V248h-42.6V247.9z
		 M799.1,112.3c0-16.8-12.6-27-29.4-27h-45.3v54h45.3C786.5,139.3,799.1,128.8,799.1,112.3z"/>
</g>
</svg>
