<?xml version="1.0" encoding="UTF-8" standalone="no"?>
<!-- Created with Inkscape (http://www.inkscape.org/) -->

<svg
   xmlns:dc="http://purl.org/dc/elements/1.1/"
   xmlns:cc="http://creativecommons.org/ns#"
   xmlns:rdf="http://www.w3.org/1999/02/22-rdf-syntax-ns#"
   xmlns:svg="http://www.w3.org/2000/svg"
   xmlns="http://www.w3.org/2000/svg"
   xmlns:sodipodi="http://sodipodi.sourceforge.net/DTD/sodipodi-0.dtd"
   xmlns:inkscape="http://www.inkscape.org/namespaces/inkscape"
   version="1.1"
   id="svg2"
   xml:space="preserve"
   width="1212.2987"
   height="494.66666"
   viewBox="0 0 1212.2987 494.66666"
   sodipodi:docname="fluidAtacks.svg"
   inkscape:version="0.92.2 2405546, 2018-03-11"><metadata
     id="metadata8"><rdf:RDF><cc:Work
         rdf:about=""><dc:format>image/svg+xml</dc:format><dc:type
           rdf:resource="http://purl.org/dc/dcmitype/StillImage" /><dc:title></dc:title></cc:Work></rdf:RDF></metadata><defs
     id="defs6"><clipPath
       clipPathUnits="userSpaceOnUse"
       id="clipPath18"><path
         d="M 0,371 H 909.224 V 0 H 0 Z"
         id="path16"
         inkscape:connector-curvature="0" /></clipPath></defs><sodipodi:namedview
     pagecolor="#ffffff"
     bordercolor="#666666"
     borderopacity="1"
     objecttolerance="10"
     gridtolerance="10"
     guidetolerance="10"
     inkscape:pageopacity="0"
     inkscape:pageshadow="2"
     inkscape:window-width="1366"
     inkscape:window-height="713"
     id="namedview4"
     showgrid="false"
     inkscape:zoom="0.24911352"
     inkscape:cx="184.65477"
     inkscape:cy="247.33333"
     inkscape:window-x="0"
     inkscape:window-y="27"
     inkscape:window-maximized="1"
     inkscape:current-layer="g10" /><g
     id="g10"
     inkscape:groupmode="layer"
     inkscape:label="fluidAtacks (1)"
     transform="matrix(1.3333333,0,0,-1.3333333,0,494.66667)"><g
       id="g12"
       style="fill:#ffffff"><g
         id="g14"
         clip-path="url(#clipPath18)"
         style="fill:#ffffff"><g
           id="g20"
           transform="translate(350.8848,313.1707)"
           style="fill:#ffffff"><path
             d="m 0,0 22.291,0.1 0.086,-19.238 -21.645,-0.097 0.317,-70.773 -25.2,-0.113 -0.317,70.773 -13.407,-0.06 -0.086,19.238 13.407,0.06 -0.017,3.848 c -0.045,9.833 2.853,17.647 8.699,23.447 5.842,5.797 14.095,8.72 24.757,8.768 3.769,0.017 7.351,-0.37 10.747,-1.153 3.396,-0.787 6.229,-1.926 8.496,-3.411 L 21.587,13.242 C 18.67,15.26 15.273,16.26 11.396,16.243 3.749,16.209 -0.054,12.024 -0.017,3.687 Z"
             style="fill:#ffffff;fill-opacity:1;fill-rule:nonzero;stroke:none"
             id="path22"
             inkscape:connector-curvature="0" /></g><g
           id="g24"
           transform="translate(391.3424,348.9295)"
           style="fill:#ffffff"><path
             d="m 0,0 25.2,0.113 0.563,-125.587 -25.2,-0.113 z"
             style="fill:#ffffff;fill-opacity:1;fill-rule:nonzero;stroke:none"
             id="path26"
             inkscape:connector-curvature="0" /></g><g
           id="g28"
           transform="translate(527.6898,310.8586)"
           style="fill:#ffffff"><path
             d="m 0,0 0.39,-86.906 -23.908,-0.107 -0.046,10.337 c -3.324,-3.786 -7.297,-6.683 -11.915,-8.694 -4.623,-2.014 -9.628,-3.032 -15.009,-3.056 -11.417,-0.051 -20.478,3.19 -27.183,9.733 -6.708,6.536 -10.089,16.269 -10.147,29.193 l -0.22,49.105 25.198,0.113 0.204,-45.39 c 0.062,-14.003 5.964,-20.973 17.702,-20.921 6.03,0.027 10.869,2.011 14.513,5.961 3.642,3.947 5.447,9.798 5.412,17.552 l -0.192,42.967 z"
             style="fill:#ffffff;fill-opacity:1;fill-rule:nonzero;stroke:none"
             id="path30"
             inkscape:connector-curvature="0" /></g><g
           id="g32"
           transform="translate(552.1631,325.4732)"
           style="fill:#ffffff"><path
             d="m 0,0 c -2.802,2.726 -4.212,6.122 -4.23,10.182 -0.018,4.054 1.361,7.462 4.139,10.216 2.777,2.754 6.387,4.143 10.831,4.163 4.442,0.02 8.066,-1.28 10.868,-3.9 2.801,-2.618 4.211,-5.903 4.229,-9.852 C 25.856,6.533 24.477,2.988 21.7,0.18 18.923,-2.628 15.31,-4.045 10.868,-4.065 6.424,-4.085 2.802,-2.729 0,0"
             style="fill:#ffffff;fill-opacity:1;fill-rule:nonzero;stroke:none"
             id="path34"
             inkscape:connector-curvature="0" /></g><g
           id="g36"
           transform="translate(551.1132,310.9636)"
           style="fill:#ffffff"><path
             d="M 0,0 25.199,0.113 25.588,-86.793 0.39,-86.906 Z"
             style="fill:#ffffff;fill-opacity:1;fill-rule:nonzero;stroke:none"
             id="path38"
             inkscape:connector-curvature="0" /></g><g
           id="g40"
           transform="translate(657.5145,250.4612)"
           style="fill:#ffffff"><path
             d="m 0,0 c -4.179,-4.383 -9.447,-6.587 -15.802,-6.615 -6.46,-0.029 -11.801,2.127 -16.019,6.472 -4.221,4.343 -6.347,10.173 -6.38,17.497 -0.033,7.324 2.041,13.176 6.223,17.556 4.179,4.38 9.5,6.584 15.961,6.613 6.354,0.029 11.642,-2.128 15.86,-6.47 C 4.064,30.711 6.19,24.877 6.222,17.553 6.255,10.229 4.182,4.38 0,0 M 5.369,100.021 5.585,51.799 c -6.279,6.969 -14.963,10.433 -26.056,10.383 -8.185,-0.037 -15.579,-1.904 -22.185,-5.593 -6.607,-3.692 -11.783,-8.937 -15.521,-15.738 -3.738,-6.802 -5.587,-14.674 -5.547,-23.611 0.041,-8.94 1.96,-16.79 5.759,-23.558 3.798,-6.768 9.021,-11.969 15.66,-15.601 6.639,-3.633 14.05,-5.428 22.235,-5.391 11.845,0.053 20.874,3.862 27.088,11.429 l 0.045,-10.016 24.069,0.108 -0.564,125.923 z"
             style="fill:#ffffff;fill-opacity:1;fill-rule:nonzero;stroke:none"
             id="path42"
             inkscape:connector-curvature="0" /></g><g
           id="g44"
           transform="translate(371.43,108.1185)"
           style="fill:#ffffff"><path
             d="m 0,0 c 4.886,3.251 8.552,7.953 11.003,14.103 l -0.071,15.83 -28.754,-0.128 c -8.293,-0.038 -14.29,-1.574 -17.991,-4.604 -3.702,-3.033 -5.541,-7.19 -5.518,-12.465 0.025,-5.491 2.089,-9.817 6.198,-12.975 4.105,-3.16 9.875,-4.722 17.306,-4.688 C -10.829,-4.896 -4.886,-3.254 0,0 m 10.447,66.198 c 5.621,-5.306 8.459,-13.129 8.505,-23.467 l 0.24,-53.469 -7.755,-0.035 L 11.37,4.25 C 8.699,-0.716 4.787,-4.583 -0.37,-7.354 c -5.158,-2.768 -11.345,-4.169 -18.559,-4.201 -9.369,-0.042 -16.784,2.131 -22.241,6.523 -5.46,4.39 -8.203,10.192 -8.235,17.41 -0.032,7 2.446,12.692 7.435,17.075 4.987,4.383 12.974,6.603 23.959,6.652 l 28.915,0.129 -0.031,6.782 c -0.035,7.861 -2.189,13.828 -6.461,17.905 -4.274,4.07 -10.502,6.092 -18.684,6.055 -5.601,-0.025 -10.956,-1.019 -16.061,-2.982 -5.107,-1.96 -9.43,-4.566 -12.969,-7.81 l -4.064,5.796 c 4.182,3.787 9.23,6.745 15.144,8.871 5.913,2.126 12.102,3.205 18.564,3.234 10.444,0.047 18.48,-2.581 24.105,-7.887"
             style="fill:#ffffff;fill-opacity:1;fill-rule:nonzero;stroke:none"
             id="path46"
             inkscape:connector-curvature="0" /></g><g
           id="g48"
           transform="translate(465.7102,103.0478)"
           style="fill:#ffffff"><path
             d="m 0,0 c -2.038,-1.949 -4.589,-3.442 -7.651,-4.476 -3.065,-1.037 -6.269,-1.563 -9.607,-1.578 -7.323,-0.033 -12.985,1.96 -16.987,5.982 -4.003,4.018 -6.02,9.637 -6.053,16.852 l -0.246,55.085 -15.508,-0.069 -0.032,6.946 15.508,0.07 -0.082,18.414 8.077,0.036 0.083,-18.414 26.813,0.12 0.031,-6.947 -26.813,-0.12 0.243,-54.277 c 0.025,-5.49 1.36,-9.661 4.014,-12.5 2.65,-2.843 6.562,-4.251 11.729,-4.228 5.275,0.024 9.632,1.603 13.065,4.741 z"
             style="fill:#ffffff;fill-opacity:1;fill-rule:nonzero;stroke:none"
             id="path50"
             inkscape:connector-curvature="0" /></g><g
           id="g52"
           transform="translate(527.7421,103.3259)"
           style="fill:#ffffff"><path
             d="m 0,0 c -2.038,-1.949 -4.589,-3.442 -7.654,-4.476 -3.065,-1.037 -6.269,-1.563 -9.604,-1.578 -7.324,-0.033 -12.988,1.96 -16.99,5.982 -4.002,4.018 -6.02,9.637 -6.052,16.852 l -0.247,55.085 -15.507,-0.069 -0.031,6.946 15.507,0.07 -0.083,18.414 8.079,0.036 0.083,-18.414 26.814,0.12 0.031,-6.947 -26.814,-0.12 0.243,-54.277 c 0.025,-5.49 1.36,-9.661 4.012,-12.5 2.651,-2.843 6.563,-4.251 11.732,-4.228 5.275,0.024 9.629,1.603 13.062,4.741 z"
             style="fill:#ffffff;fill-opacity:1;fill-rule:nonzero;stroke:none"
             id="path54"
             inkscape:connector-curvature="0" /></g><g
           id="g56"
           transform="translate(591.9271,109.1068)"
           style="fill:#ffffff"><path
             d="m 0,0 c 4.886,3.251 8.552,7.953 11.004,14.103 l -0.071,15.83 -28.754,-0.128 c -8.294,-0.038 -14.289,-1.574 -17.991,-4.604 -3.702,-3.033 -5.542,-7.19 -5.519,-12.465 0.025,-5.491 2.091,-9.817 6.198,-12.975 4.106,-3.16 9.875,-4.722 17.305,-4.688 7,0.031 12.942,1.673 17.828,4.927 m 10.447,66.198 c 5.623,-5.306 8.459,-13.129 8.505,-23.467 l 0.24,-53.469 -7.755,-0.035 L 11.37,4.25 C 8.7,-0.716 4.787,-4.583 -0.37,-7.354 c -5.156,-2.768 -11.345,-4.169 -18.557,-4.201 -9.371,-0.042 -16.786,2.13 -22.243,6.523 -5.46,4.39 -8.203,10.192 -8.235,17.41 -0.032,7 2.448,12.692 7.435,17.075 4.987,4.383 12.975,6.603 23.959,6.652 l 28.916,0.129 -0.03,6.782 c -0.035,7.861 -2.19,13.828 -6.463,17.905 -4.273,4.07 -10.502,6.092 -18.684,6.055 -5.6,-0.025 -10.954,-1.019 -16.061,-2.982 -5.107,-1.96 -9.429,-4.566 -12.967,-7.81 l -4.066,5.796 c 4.182,3.787 9.231,6.745 15.146,8.871 5.911,2.126 12.101,3.205 18.562,3.234 10.444,0.047 18.481,-2.581 24.105,-7.887"
             style="fill:#ffffff;fill-opacity:1;fill-rule:nonzero;stroke:none"
             id="path58"
             inkscape:connector-curvature="0" /></g><g
           id="g60"
           transform="translate(656.0013,103.4171)"
           style="fill:#ffffff"><path
             d="m 0,0 c -6.477,3.63 -11.562,8.695 -15.253,15.195 -3.692,6.5 -5.553,13.841 -5.59,22.027 -0.037,8.291 1.758,15.702 5.391,22.234 3.633,6.533 8.673,11.616 15.117,15.253 6.447,3.636 13.76,5.474 21.946,5.511 6.784,0.03 12.954,-1.261 18.512,-3.876 5.558,-2.614 10.071,-6.443 13.543,-11.487 l -5.96,-4.391 c -3.032,4.188 -6.789,7.322 -11.269,9.401 -4.479,2.08 -9.41,3.109 -14.794,3.085 C 15.074,72.922 9.185,71.414 3.976,68.43 -1.235,65.444 -5.309,61.252 -8.246,55.854 c -2.939,-5.4 -4.39,-11.596 -4.358,-18.596 0.031,-7.002 1.538,-13.185 4.525,-18.556 C -5.094,13.329 -0.983,9.173 4.255,6.236 9.49,3.297 15.392,1.844 21.962,1.874 c 5.384,0.024 10.305,1.097 14.765,3.216 4.461,2.12 8.19,5.287 11.185,9.499 l 5.999,-4.334 C 50.484,5.177 46.006,1.308 40.472,-1.353 34.937,-4.02 28.779,-5.364 21.994,-5.395 13.809,-5.431 6.48,-3.636 0,0"
             style="fill:#ffffff;fill-opacity:1;fill-rule:nonzero;stroke:none"
             id="path62"
             inkscape:connector-curvature="0" /></g><g
           id="g64"
           transform="translate(762.6005,144.1172)"
           style="fill:#ffffff"><path
             d="m 0,0 -21.88,-20.128 0.112,-25.039 -8.079,-0.037 -0.537,119.863 8.079,0.036 0.38,-84.81 53.732,49.513 10.338,0.046 L 5.954,5.196 46.076,-44.863 36.063,-44.908 Z"
             style="fill:#ffffff;fill-opacity:1;fill-rule:nonzero;stroke:none"
             id="path66"
             inkscape:connector-curvature="0" /></g><g
           id="g68"
           transform="translate(827.0851,101.7602)"
           style="fill:#ffffff"><path
             d="m 0,0 c -6.148,2.016 -10.954,4.58 -14.412,7.687 l 3.686,6.48 C -7.269,11.275 -2.816,8.872 2.633,6.959 8.079,5.043 13.764,4.098 19.687,4.125 c 8.507,0.038 14.777,1.467 18.801,4.286 4.027,2.816 6.028,6.703 6.005,11.656 -0.016,3.556 -1.132,6.35 -3.347,8.386 -2.218,2.036 -4.944,3.531 -8.178,4.487 -3.236,0.955 -7.71,1.958 -13.423,3.009 -6.684,1.155 -12.071,2.423 -16.17,3.805 -4.102,1.379 -7.609,3.625 -10.53,6.737 -2.922,3.11 -4.395,7.411 -4.419,12.904 -0.03,6.676 2.715,12.21 8.245,16.595 5.524,4.386 13.403,6.602 23.634,6.648 5.385,0.024 10.719,-0.707 16.004,-2.19 5.281,-1.486 9.598,-3.457 12.95,-5.919 l -3.686,-6.477 c -3.461,2.459 -7.397,4.328 -11.82,5.6 -4.422,1.272 -8.948,1.9 -13.578,1.879 C 12.314,75.496 6.397,74.013 2.427,71.088 -1.547,68.162 -3.52,64.329 -3.499,59.594 c 0.017,-3.771 1.16,-6.702 3.431,-8.791 2.271,-2.089 5.051,-3.639 8.34,-4.648 3.289,-1.008 7.898,-2.092 13.827,-3.248 6.572,-1.156 11.884,-2.398 15.929,-3.725 4.046,-1.329 7.472,-3.494 10.286,-6.495 2.815,-3.004 4.234,-7.146 4.258,-12.421 0.031,-7 -2.851,-12.613 -8.65,-16.84 C 38.126,-0.799 29.951,-2.935 19.398,-2.983 12.613,-3.013 6.148,-2.019 0,0"
             style="fill:#ffffff;fill-opacity:1;fill-rule:nonzero;stroke:none"
             id="path70"
             inkscape:connector-curvature="0" /></g><g
           id="g72"
           transform="translate(261.7483,348.684)"
           style="fill:#ffffff"><path
             d="m 0,0 -44.017,-0.197 c -4.356,-0.02 -7.87,-3.565 -7.85,-7.921 0.019,-4.356 3.565,-7.872 7.921,-7.852 l 36.131,0.162 0.17,-37.965 c 0.02,-4.355 3.565,-7.87 7.921,-7.85 4.356,0.019 7.87,3.565 7.851,7.921 L 7.921,-7.85 C 7.902,-3.494 4.356,0.02 0,0"
             style="fill:#ffffff;fill-opacity:1;fill-rule:nonzero;stroke:none"
             id="path74"
             inkscape:connector-curvature="0" /></g><g
           id="g76"
           transform="translate(113.7773,230.9531)"
           style="fill:#ffffff"><path
             d="m 0,0 44.016,0.197 c 5.229,0.024 9.502,-4.211 9.525,-9.44 l 0.206,-45.85 c 0.023,-5.23 -4.211,-9.504 -9.44,-9.527 -5.229,-0.024 -9.501,4.212 -9.525,9.442 l -0.163,36.367 -34.534,-0.155 c -5.229,-0.023 -9.503,4.212 -9.526,9.441 C -9.465,-4.296 -5.229,-0.023 0,0 m 43.803,47.883 44.016,0.197 c 5.229,0.023 9.503,-4.211 9.526,-9.44 l 0.206,-45.851 c 0.023,-5.229 -4.212,-9.503 -9.441,-9.527 -5.229,-0.023 -9.502,4.213 -9.525,9.442 L 78.422,29.072 43.888,28.917 c -5.229,-0.024 -9.502,4.212 -9.525,9.441 -0.024,5.229 4.211,9.501 9.44,9.525 m -136.789,-7.502 0.004,-0.859 0.636,-142.068 0.157,-35.002 35.003,0.157 142.927,0.64 c 19.252,0.087 34.932,15.909 34.846,35.16 l -0.641,142.927 -0.157,35.003 -177.93,-0.798 C -77.392,75.455 -93.072,59.633 -92.986,40.381"
             style="fill:#ffffff;fill-opacity:1;fill-rule:nonzero;stroke:none"
             id="path78"
             inkscape:connector-curvature="0" /></g><g
           id="g80"
           transform="translate(354.7711,47.5179)"
           style="fill:#ffffff"><path
             d="m 0,0 -7.68,-20.248 h -1.823 l -6.827,17.572 -6.866,-17.572 H -24.98 L -32.659,0 h 1.861 L -24.049,-18.075 -17.145,0 h 1.669 L -8.611,-18.037 -1.784,0 Z"
             style="fill:#ffffff;fill-opacity:1;fill-rule:nonzero;stroke:none"
             id="path82"
             inkscape:connector-curvature="0" /></g><g
           id="g84"
           transform="translate(368.9285,45.0164)"
           style="fill:#ffffff"><path
             d="M 0,0 C -1.138,-0.634 -2.05,-1.526 -2.734,-2.677 -3.42,-3.828 -3.815,-5.128 -3.917,-6.575 h 15.515 c -0.078,1.447 -0.465,2.74 -1.164,3.878 C 9.736,-1.558 8.818,-0.666 7.68,-0.02 6.542,0.627 5.262,0.95 3.84,0.95 2.418,0.95 1.138,0.633 0,0 M 13.46,-8.088 H -3.956 c 0.051,-1.577 0.452,-2.98 1.202,-4.208 0.75,-1.229 1.765,-2.179 3.045,-2.851 1.28,-0.673 2.721,-1.009 4.325,-1.009 1.319,0 2.54,0.239 3.666,0.717 1.124,0.479 2.061,1.184 2.812,2.115 l 1.124,-1.28 c -0.879,-1.061 -1.984,-1.875 -3.316,-2.444 -1.332,-0.569 -2.773,-0.854 -4.325,-0.854 -2.017,0 -3.814,0.44 -5.391,1.319 -1.578,0.88 -2.812,2.095 -3.705,3.647 -0.892,1.551 -1.338,3.322 -1.338,5.314 0,1.964 0.42,3.729 1.261,5.294 0.84,1.564 1.997,2.787 3.471,3.666 1.474,0.879 3.129,1.319 4.965,1.319 1.836,0 3.484,-0.434 4.946,-1.3 1.46,-0.867 2.611,-2.075 3.452,-3.627 0.84,-1.551 1.261,-3.31 1.261,-5.275 z"
             style="fill:#ffffff;fill-opacity:1;fill-rule:nonzero;stroke:none"
             id="path86"
             inkscape:connector-curvature="0" /></g><g
           id="g88"
           transform="translate(427.4985,45.4624)"
           style="fill:#ffffff"><path
             d="m 0,0 c 1.474,-1.474 2.211,-3.595 2.211,-6.361 v -11.831 h -1.94 v 11.675 c 0,2.276 -0.576,4.008 -1.725,5.198 -1.152,1.189 -2.761,1.784 -4.83,1.784 -2.379,0 -4.254,-0.711 -5.624,-2.133 -1.371,-1.422 -2.056,-3.336 -2.056,-5.741 v -10.783 h -1.94 v 28.781 h 1.94 V -2.172 c 0.698,1.396 1.732,2.475 3.103,3.238 1.371,0.763 2.987,1.145 4.849,1.145 C -3.479,2.211 -1.474,1.473 0,0"
             style="fill:#ffffff;fill-opacity:1;fill-rule:nonzero;stroke:none"
             id="path90"
             inkscape:connector-curvature="0" /></g><g
           id="g92"
           transform="translate(454.3199,29.8693)"
           style="fill:#ffffff"><path
             d="M 0,0 C 1.176,0.775 2.062,1.9 2.657,3.374 V 7.175 H -4.247 C -6.239,7.175 -7.68,6.813 -8.572,6.089 -9.464,5.365 -9.91,4.37 -9.91,3.103 c 0,-1.319 0.491,-2.361 1.474,-3.122 0.982,-0.764 2.366,-1.144 4.15,-1.144 1.681,0 3.109,0.387 4.286,1.163 M 2.58,15.884 C 3.924,14.604 4.597,12.723 4.597,10.24 V -2.599 H 2.735 v 3.607 c -0.647,-1.19 -1.59,-2.113 -2.832,-2.773 -1.241,-0.659 -2.728,-0.989 -4.46,-0.989 -2.25,0 -4.028,0.53 -5.334,1.591 -1.306,1.059 -1.959,2.456 -1.959,4.189 0,1.68 0.601,3.044 1.804,4.091 1.202,1.048 3.123,1.571 5.76,1.571 h 6.943 v 1.63 c 0,1.886 -0.511,3.322 -1.532,4.305 -1.022,0.983 -2.515,1.474 -4.48,1.474 -1.345,0 -2.631,-0.233 -3.859,-0.698 -1.229,-0.465 -2.27,-1.086 -3.123,-1.862 l -0.969,1.397 c 1.008,0.904 2.223,1.609 3.646,2.113 1.421,0.504 2.909,0.757 4.46,0.757 2.508,0 4.435,-0.64 5.78,-1.92"
             style="fill:#ffffff;fill-opacity:1;fill-rule:nonzero;stroke:none"
             id="path94"
             inkscape:connector-curvature="0" /></g><g
           id="g96"
           transform="translate(476.2927,28.4337)"
           style="fill:#ffffff"><path
             d="m 0,0 c -1.551,0.88 -2.767,2.101 -3.646,3.666 -0.88,1.564 -1.319,3.329 -1.319,5.294 0,1.991 0.439,3.769 1.319,5.334 0.879,1.564 2.095,2.779 3.646,3.646 1.551,0.866 3.31,1.3 5.275,1.3 1.629,0 3.11,-0.318 4.442,-0.951 1.331,-0.634 2.411,-1.559 3.238,-2.773 L 11.52,14.468 c -0.724,1.009 -1.623,1.765 -2.696,2.269 -1.073,0.505 -2.256,0.757 -3.549,0.757 -1.577,0 -2.993,-0.356 -4.247,-1.067 -1.254,-0.711 -2.237,-1.713 -2.948,-3.006 -0.711,-1.293 -1.067,-2.78 -1.067,-4.461 0,-1.68 0.356,-3.167 1.067,-4.46 0.711,-1.294 1.694,-2.296 2.948,-3.006 1.254,-0.712 2.67,-1.067 4.247,-1.067 1.293,0 2.476,0.252 3.549,0.757 1.073,0.504 1.972,1.26 2.696,2.268 L 12.955,2.405 C 12.128,1.189 11.048,0.266 9.717,-0.368 8.385,-1.002 6.904,-1.319 5.275,-1.319 3.31,-1.319 1.551,-0.88 0,0"
             style="fill:#ffffff;fill-opacity:1;fill-rule:nonzero;stroke:none"
             id="path98"
             inkscape:connector-curvature="0" /></g><g
           id="g100"
           transform="translate(508.5259,38.0921)"
           style="fill:#ffffff"><path
             d="m 0,0 -5.275,-4.81 v -6.012 h -1.94 v 28.781 h 1.94 V -2.405 L 7.68,9.426 h 2.482 L 1.435,1.242 11.016,-10.822 H 8.611 Z"
             style="fill:#ffffff;fill-opacity:1;fill-rule:nonzero;stroke:none"
             id="path102"
             inkscape:connector-curvature="0" /></g><g
           id="g104"
           transform="translate(563.5275,47.5179)"
           style="fill:#ffffff"><path
             d="m 0,0 -10.395,-23.002 c -0.776,-1.784 -1.675,-3.051 -2.696,-3.801 -1.022,-0.749 -2.23,-1.125 -3.627,-1.125 -0.931,0 -1.803,0.156 -2.618,0.466 -0.815,0.31 -1.506,0.763 -2.075,1.357 l 0.969,1.474 c 1.034,-1.06 2.289,-1.59 3.763,-1.59 0.983,0 1.823,0.271 2.521,0.815 0.699,0.543 1.344,1.473 1.94,2.792 l 1.086,2.444 L -20.248,0 h 2.056 L -10.085,-18.114 -1.978,0 Z"
             style="fill:#ffffff;fill-opacity:1;fill-rule:nonzero;stroke:none"
             id="path106"
             inkscape:connector-curvature="0" /></g><g
           id="g108"
           transform="translate(585.8499,29.9466)"
           style="fill:#ffffff"><path
             d="m 0,0 c 1.228,0.724 2.198,1.732 2.909,3.026 0.711,1.292 1.067,2.767 1.067,4.422 0,1.654 -0.356,3.128 -1.067,4.421 -0.711,1.293 -1.681,2.302 -2.909,3.026 -1.229,0.723 -2.618,1.086 -4.17,1.086 -1.551,0 -2.942,-0.363 -4.17,-1.086 -1.228,-0.724 -2.198,-1.733 -2.909,-3.026 -0.711,-1.293 -1.066,-2.767 -1.066,-4.421 0,-1.655 0.355,-3.13 1.066,-4.422 0.711,-1.294 1.681,-2.302 2.909,-3.026 1.228,-0.724 2.619,-1.086 4.17,-1.086 1.552,0 2.941,0.362 4.17,1.086 m -9.348,-1.513 c -1.539,0.88 -2.748,2.101 -3.627,3.666 -0.879,1.564 -1.319,3.329 -1.319,5.295 0,1.964 0.44,3.729 1.319,5.294 0.879,1.564 2.088,2.786 3.627,3.666 1.538,0.879 3.264,1.319 5.178,1.319 1.914,0 3.639,-0.44 5.178,-1.319 1.539,-0.88 2.748,-2.102 3.627,-3.666 C 5.514,11.177 5.954,9.412 5.954,7.448 5.954,5.482 5.514,3.717 4.635,2.153 3.756,0.588 2.547,-0.633 1.008,-1.513 -0.531,-2.392 -2.256,-2.832 -4.17,-2.832 c -1.914,0 -3.64,0.44 -5.178,1.319"
             style="fill:#ffffff;fill-opacity:1;fill-rule:nonzero;stroke:none"
             id="path110"
             inkscape:connector-curvature="0" /></g><g
           id="g112"
           transform="translate(622.1361,47.5179)"
           style="fill:#ffffff"><path
             d="m 0,0 v -20.248 h -1.862 v 4.345 c -0.672,-1.423 -1.668,-2.529 -2.987,-3.316 -1.318,-0.79 -2.87,-1.184 -4.654,-1.184 -2.638,0 -4.707,0.738 -6.206,2.211 -1.5,1.474 -2.25,3.594 -2.25,6.361 V 0 h 1.94 v -11.675 c 0,-2.276 0.581,-4.009 1.745,-5.198 1.164,-1.19 2.805,-1.784 4.926,-1.784 2.276,0 4.079,0.711 5.411,2.133 1.332,1.422 1.998,3.336 1.998,5.741 l 0,10.783 z"
             style="fill:#ffffff;fill-opacity:1;fill-rule:nonzero;stroke:none"
             id="path114"
             inkscape:connector-curvature="0" /></g><g
           id="g116"
           transform="translate(641.7243,46.4897)"
           style="fill:#ffffff"><path
             d="m 0,0 c 1.319,0.789 2.921,1.184 4.809,1.184 v -1.901 l -0.465,0.038 c -2.249,0 -4.009,-0.704 -5.275,-2.113 -1.267,-1.411 -1.901,-3.369 -1.901,-5.877 v -10.55 H -4.771 V 1.028 h 1.862 V -3.394 C -2.289,-1.919 -1.319,-0.789 0,0"
             style="fill:#ffffff;fill-opacity:1;fill-rule:nonzero;stroke:none"
             id="path118"
             inkscape:connector-curvature="0" /></g><g
           id="g120"
           transform="translate(675.8575,27.8525)"
           style="fill:#ffffff"><path
             d="m 0,0 c -1.474,0.49 -2.625,1.111 -3.452,1.861 l 0.892,1.552 c 0.827,-0.698 1.894,-1.28 3.2,-1.746 1.305,-0.465 2.67,-0.698 4.092,-0.698 2.043,0 3.549,0.336 4.519,1.009 0.969,0.672 1.454,1.603 1.454,2.792 0,0.854 -0.265,1.526 -0.795,2.017 C 9.38,7.279 8.727,7.641 7.951,7.873 7.176,8.106 6.102,8.352 4.732,8.611 3.128,8.895 1.835,9.206 0.853,9.542 -0.13,9.878 -0.97,10.42 -1.668,11.17 c -0.698,0.751 -1.047,1.784 -1.047,3.103 0,1.604 0.665,2.93 1.997,3.976 1.332,1.048 3.226,1.572 5.683,1.572 1.293,0 2.572,-0.182 3.84,-0.544 1.267,-0.362 2.301,-0.841 3.103,-1.434 l -0.892,-1.552 c -0.828,0.594 -1.772,1.047 -2.832,1.358 -1.06,0.309 -2.147,0.465 -3.258,0.465 -1.888,0 -3.31,-0.35 -4.267,-1.048 -0.957,-0.698 -1.435,-1.616 -1.435,-2.753 0,-0.906 0.272,-1.61 0.815,-2.114 0.543,-0.504 1.208,-0.88 1.997,-1.125 C 2.824,10.828 3.93,10.563 5.352,10.278 6.93,9.993 8.203,9.69 9.173,9.367 10.143,9.043 10.964,8.52 11.636,7.796 12.309,7.072 12.645,6.076 12.645,4.809 12.645,3.128 11.947,1.784 10.55,0.775 9.154,-0.233 7.188,-0.738 4.654,-0.738 3.025,-0.738 1.474,-0.491 0,0"
             style="fill:#ffffff;fill-opacity:1;fill-rule:nonzero;stroke:none"
             id="path122"
             inkscape:connector-curvature="0" /></g><g
           id="g124"
           transform="translate(712.6091,29.9466)"
           style="fill:#ffffff"><path
             d="m 0,0 c 1.228,0.724 2.198,1.732 2.909,3.026 0.711,1.292 1.067,2.767 1.067,4.422 0,1.654 -0.356,3.128 -1.067,4.421 -0.711,1.293 -1.681,2.302 -2.909,3.026 -1.229,0.723 -2.618,1.086 -4.17,1.086 -1.551,0 -2.942,-0.363 -4.17,-1.086 -1.228,-0.724 -2.197,-1.733 -2.909,-3.026 -0.711,-1.293 -1.066,-2.767 -1.066,-4.421 0,-1.655 0.355,-3.13 1.066,-4.422 0.712,-1.294 1.681,-2.302 2.909,-3.026 1.228,-0.724 2.619,-1.086 4.17,-1.086 1.552,0 2.941,0.362 4.17,1.086 m -9.348,-1.513 c -1.539,0.88 -2.748,2.101 -3.627,3.666 -0.879,1.564 -1.319,3.329 -1.319,5.295 0,1.964 0.44,3.729 1.319,5.294 0.879,1.564 2.088,2.786 3.627,3.666 1.538,0.879 3.264,1.319 5.178,1.319 1.914,0 3.639,-0.44 5.178,-1.319 1.539,-0.88 2.748,-2.102 3.627,-3.666 C 5.514,11.177 5.954,9.412 5.954,7.448 5.954,5.482 5.514,3.717 4.635,2.153 3.756,0.588 2.547,-0.633 1.008,-1.513 -0.531,-2.392 -2.256,-2.832 -4.17,-2.832 c -1.914,0 -3.64,0.44 -5.178,1.319"
             style="fill:#ffffff;fill-opacity:1;fill-rule:nonzero;stroke:none"
             id="path126"
             inkscape:connector-curvature="0" /></g><g
           id="g128"
           transform="translate(733.4577,50.4655)"
           style="fill:#ffffff"><path
             d="M 0,0 V -2.948 H 6.478 V -4.616 H 0.039 v -18.579 h -1.94 v 18.579 h -3.723 v 1.668 h 3.723 v 3.103 c 0,1.707 0.491,3.065 1.474,4.074 0.983,1.008 2.367,1.512 4.151,1.512 0.776,0 1.518,-0.11 2.23,-0.33 C 6.665,5.191 7.253,4.862 7.719,4.422 L 6.943,2.949 C 6.115,3.698 5.068,4.073 3.801,4.073 1.267,4.073 0,2.716 0,0"
             style="fill:#ffffff;fill-opacity:1;fill-rule:nonzero;stroke:none"
             id="path130"
             inkscape:connector-curvature="0" /></g><g
           id="g132"
           transform="translate(760.5316,28.5505)"
           style="fill:#ffffff"><path
             d="m 0,0 c -0.492,-0.465 -1.105,-0.822 -1.843,-1.067 -0.737,-0.245 -1.506,-0.369 -2.308,-0.369 -1.759,0 -3.116,0.485 -4.072,1.455 -0.958,0.97 -1.435,2.321 -1.435,4.053 v 13.227 h -3.724 v 1.668 h 3.724 v 4.422 h 1.939 V 18.967 H -1.28 V 17.299 H -7.719 V 4.266 c 0,-1.318 0.316,-2.321 0.95,-3.005 0.634,-0.686 1.571,-1.028 2.813,-1.028 1.266,0 2.313,0.374 3.141,1.124 z"
             style="fill:#ffffff;fill-opacity:1;fill-rule:nonzero;stroke:none"
             id="path134"
             inkscape:connector-curvature="0" /></g><g
           id="g136"
           transform="translate(801.0653,47.5179)"
           style="fill:#ffffff"><path
             d="m 0,0 -7.68,-20.248 h -1.823 l -6.827,17.572 -6.866,-17.572 H -24.98 L -32.659,0 h 1.861 L -24.049,-18.075 -17.145,0 h 1.669 L -8.611,-18.037 -1.784,0 Z"
             style="fill:#ffffff;fill-opacity:1;fill-rule:nonzero;stroke:none"
             id="path138"
             inkscape:connector-curvature="0" /></g><g
           id="g140"
           transform="translate(821.5648,29.8693)"
           style="fill:#ffffff"><path
             d="M 0,0 C 1.176,0.775 2.062,1.9 2.657,3.374 V 7.175 H -4.247 C -6.239,7.175 -7.68,6.813 -8.572,6.089 -9.464,5.365 -9.91,4.37 -9.91,3.103 c 0,-1.319 0.491,-2.361 1.474,-3.122 0.982,-0.764 2.366,-1.144 4.15,-1.144 1.681,0 3.109,0.387 4.286,1.163 M 2.58,15.884 C 3.924,14.604 4.597,12.723 4.597,10.24 V -2.599 H 2.735 v 3.607 c -0.647,-1.19 -1.59,-2.113 -2.832,-2.773 -1.241,-0.659 -2.728,-0.989 -4.46,-0.989 -2.25,0 -4.028,0.53 -5.334,1.591 -1.306,1.059 -1.959,2.456 -1.959,4.189 0,1.68 0.601,3.044 1.804,4.091 1.202,1.048 3.123,1.571 5.76,1.571 h 6.943 v 1.63 c 0,1.886 -0.511,3.322 -1.532,4.305 -1.022,0.983 -2.515,1.474 -4.48,1.474 -1.345,0 -2.631,-0.233 -3.859,-0.698 -1.229,-0.465 -2.27,-1.086 -3.123,-1.862 l -0.969,1.397 c 1.008,0.904 2.223,1.609 3.646,2.113 1.421,0.504 2.909,0.757 4.46,0.757 2.508,0 4.435,-0.64 5.78,-1.92"
             style="fill:#ffffff;fill-opacity:1;fill-rule:nonzero;stroke:none"
             id="path142"
             inkscape:connector-curvature="0" /></g><g
           id="g144"
           transform="translate(845.5168,46.4897)"
           style="fill:#ffffff"><path
             d="m 0,0 c 1.319,0.789 2.922,1.184 4.809,1.184 v -1.901 l -0.465,0.038 c -2.249,0 -4.008,-0.704 -5.275,-2.113 -1.267,-1.411 -1.901,-3.369 -1.901,-5.877 v -10.55 H -4.771 V 1.028 h 1.862 V -3.394 C -2.289,-1.919 -1.319,-0.789 0,0"
             style="fill:#ffffff;fill-opacity:1;fill-rule:nonzero;stroke:none"
             id="path146"
             inkscape:connector-curvature="0" /></g><g
           id="g148"
           transform="translate(865.7253,45.0164)"
           style="fill:#ffffff"><path
             d="M 0,0 C -1.138,-0.634 -2.05,-1.526 -2.734,-2.677 -3.42,-3.828 -3.815,-5.128 -3.917,-6.575 h 15.515 c -0.078,1.447 -0.465,2.74 -1.164,3.878 C 9.736,-1.558 8.818,-0.666 7.68,-0.02 6.542,0.627 5.262,0.95 3.84,0.95 2.418,0.95 1.138,0.633 0,0 M 13.46,-8.088 H -3.956 c 0.051,-1.577 0.452,-2.98 1.202,-4.208 0.75,-1.229 1.765,-2.179 3.045,-2.851 1.28,-0.673 2.721,-1.009 4.325,-1.009 1.319,0 2.54,0.239 3.666,0.717 1.124,0.479 2.061,1.184 2.812,2.115 l 1.124,-1.28 c -0.879,-1.061 -1.984,-1.875 -3.316,-2.444 -1.332,-0.569 -2.773,-0.854 -4.325,-0.854 -2.017,0 -3.814,0.44 -5.391,1.319 -1.578,0.88 -2.812,2.095 -3.705,3.647 -0.892,1.551 -1.338,3.322 -1.338,5.314 0,1.964 0.42,3.729 1.261,5.294 0.84,1.564 1.997,2.787 3.471,3.666 1.474,0.879 3.129,1.319 4.965,1.319 1.836,0 3.484,-0.434 4.946,-1.3 1.46,-0.867 2.611,-2.075 3.452,-3.627 0.84,-1.551 1.261,-3.31 1.261,-5.275 z"
             style="fill:#ffffff;fill-opacity:1;fill-rule:nonzero;stroke:none"
             id="path150"
             inkscape:connector-curvature="0" /></g></g></g></g></svg>