<svg xmlns="http://www.w3.org/2000/svg" viewBox="0 0 309.87 81.24"><defs><style>.cls-1{fill:#fff;}</style></defs><title>psf</title><g id="Capa_2" data-name="Capa 2"><g id="Layer_1" data-name="Layer 1"><path id="path46" class="cls-1" d="M125.9,41.26q0-15.36-8.76-15.79a16.42,16.42,0,0,0-6.8,1.12,10,10,0,0,0-3.57,1.88V52.92q5.6,3.51,9.94,3.26Q125.91,55.58,125.9,41.26Zm7.2.42c0,5.21-1.22,9.52-3.67,13a13.55,13.55,0,0,1-11.37,6,20.2,20.2,0,0,1-11.29-3.43V79.43l-6.27-2.24V27.88a13.83,13.83,0,0,1,4-3.26,27.13,27.13,0,0,1,13.59-3.35l.09.09a12.48,12.48,0,0,1,11.27,6Q133.1,32.94,133.1,41.68Z"/><path id="path48" class="cls-1" d="M171.39,56.26q0,10.47-2.09,14.5t-8,6.43a30.59,30.59,0,0,1-10.38,2.06l-1-3.94a50,50,0,0,0,8-1.55c3-1,5.12-2.6,6.26-4.71.92-1.72,1.37-5,1.37-9.87V57.55A32.12,32.12,0,0,1,152,60.47a12.39,12.39,0,0,1-8.15-2.92,9.91,9.91,0,0,1-3.95-8.06V23.42l6.27-2.15V47.52A8,8,0,0,0,148.88,54a10.22,10.22,0,0,0,7,2.19,17.58,17.58,0,0,0,9.22-3.34V22.22h6.26Z"/><path id="path50" class="cls-1" d="M195.85,60.29c-.75.07-1.43.09-2.06.09q-5.32,0-8.28-2.53a8.77,8.77,0,0,1-3-7V26.16h-4.29V22.22h4.29V11.75l6.26-2.23v12.7h7v3.94h-7v24.5c0,2.35.63,4,1.89,5A9.56,9.56,0,0,0,195.85,57Z"/><path id="path52" class="cls-1" d="M233.79,59.78h-6.27V35.6a11.49,11.49,0,0,0-1.72-6.35,6.26,6.26,0,0,0-5.52-3q-4.31,0-10.77,4.54v29h-6.27V2l6.27-2V26.33A21.82,21.82,0,0,1,222.63,22a10.44,10.44,0,0,1,8.06,3.34,11.75,11.75,0,0,1,3.1,8.32V59.78Z"/><path id="path54" class="cls-1" d="M267.09,40.27a19.22,19.22,0,0,0-2.24-9.75,9.35,9.35,0,0,0-8.23-5q-10.31.6-10.3,14.75a24.25,24.25,0,0,0,2.16,10.84c1.83,3.69,4.59,5.52,8.26,5.46Q267.09,56.52,267.09,40.27Zm6.86,0q0,8.4-4.29,14a15.46,15.46,0,0,1-13,6.25,15.13,15.13,0,0,1-12.87-6.25q-4.22-5.59-4.21-14A20,20,0,0,1,244.09,27a15.67,15.67,0,0,1,12.61-5.74A15.93,15.93,0,0,1,269.4,27,20,20,0,0,1,274,40.31Z"/><path id="path56" class="cls-1" d="M309.87,59.78H303.6V34.23a8.54,8.54,0,0,0-2.53-6.57,9.18,9.18,0,0,0-6.74-2.27,15.07,15.07,0,0,0-8.49,2.91V59.78h-6.26V27.53a30.66,30.66,0,0,1,9.95-5.14,30.25,30.25,0,0,1,7.55-1.12,19.41,19.41,0,0,1,4.2.43,12.07,12.07,0,0,1,6,3.18,8.39,8.39,0,0,1,2.58,6.17Z"/><path id="path1948" class="cls-1" d="M38.62,2.21a54.38,54.38,0,0,0-9,.76c-8,1.41-9.43,4.37-9.43,9.81V20H39v2.4H13.11c-5.48,0-10.28,3.29-11.78,9.56C-.4,39.1-.48,43.58,1.33,51.08c1.34,5.58,4.54,9.56,10,9.56h6.48V52A12,12,0,0,1,29.61,40.31H48.45a9.49,9.49,0,0,0,9.42-9.58v-18c0-5.11-4.31-8.95-9.42-9.81A59.27,59.27,0,0,0,38.62,2.21ZM28.42,8a3.59,3.59,0,1,1-3.53,3.6A3.57,3.57,0,0,1,28.42,8Z"/><path id="path1950" class="cls-1" d="M60.23,22.36v8.37a12.1,12.1,0,0,1-11.78,12H29.61a9.62,9.62,0,0,0-9.43,9.58V70.22c0,5.11,4.45,8.12,9.43,9.59a31.62,31.62,0,0,0,18.84,0c4.74-1.38,9.42-4.14,9.42-9.59V63H39v-2.4H67.3c5.48,0,7.52-3.82,9.43-9.56,2-5.9,1.89-11.58,0-19.16-1.35-5.46-3.94-9.56-9.43-9.56ZM49.63,67.83a3.6,3.6,0,1,1-3.54,3.58A3.56,3.56,0,0,1,49.63,67.83Z"/></g></g></svg>