<svg xmlns="http://www.w3.org/2000/svg" viewBox="0 0 370 128.54"><defs><style>.cls-1{fill:#fff;}</style></defs><title>Español</title><g id="Capa_3" data-name="Capa 3"><path class="cls-1" d="M64.56,59.72a7.87,7.87,0,0,0-1.35-2.63,6,6,0,0,0-2.14-1.68,6.85,6.85,0,0,0-2.85-.6,7,7,0,0,0-2.87.57A6.09,6.09,0,0,0,53.18,57a7.67,7.67,0,0,0-1.37,2.62,11.5,11.5,0,0,0-.5,3.43,11.27,11.27,0,0,0,.47,3.44,7.52,7.52,0,0,0,1.35,2.63,5.88,5.88,0,0,0,2.15,1.67,6.62,6.62,0,0,0,2.86.6A6.54,6.54,0,0,0,61,70.86a6,6,0,0,0,2.16-1.65,7.86,7.86,0,0,0,1.38-2.62A11.84,11.84,0,0,0,65,63.16,11.6,11.6,0,0,0,64.56,59.72Zm0,0a7.87,7.87,0,0,0-1.35-2.63,6,6,0,0,0-2.14-1.68,6.85,6.85,0,0,0-2.85-.6,7,7,0,0,0-2.87.57A6.09,6.09,0,0,0,53.18,57a7.67,7.67,0,0,0-1.37,2.62,11.5,11.5,0,0,0-.5,3.43,11.27,11.27,0,0,0,.47,3.44,7.52,7.52,0,0,0,1.35,2.63,5.88,5.88,0,0,0,2.15,1.67,6.62,6.62,0,0,0,2.86.6A6.54,6.54,0,0,0,61,70.86a6,6,0,0,0,2.16-1.65,7.86,7.86,0,0,0,1.38-2.62A11.84,11.84,0,0,0,65,63.16,11.6,11.6,0,0,0,64.56,59.72Zm0,0a7.87,7.87,0,0,0-1.35-2.63,6,6,0,0,0-2.14-1.68,6.85,6.85,0,0,0-2.85-.6,7,7,0,0,0-2.87.57A6.09,6.09,0,0,0,53.18,57a7.67,7.67,0,0,0-1.37,2.62,11.5,11.5,0,0,0-.5,3.43,11.27,11.27,0,0,0,.47,3.44,7.52,7.52,0,0,0,1.35,2.63,5.88,5.88,0,0,0,2.15,1.67,6.62,6.62,0,0,0,2.86.6A6.54,6.54,0,0,0,61,70.86a6,6,0,0,0,2.16-1.65,7.86,7.86,0,0,0,1.38-2.62A11.84,11.84,0,0,0,65,63.16,11.6,11.6,0,0,0,64.56,59.72Zm45.11-2.32a3.33,3.33,0,0,0-1.25-1.25,5.22,5.22,0,0,0-1.84-.66,13.11,13.11,0,0,0-2.22-.19c-1.24,0-2.19,0-2.85.08l0,8.16h2.19a18.32,18.32,0,0,0,2.7-.18,6.13,6.13,0,0,0,2-.66,3.23,3.23,0,0,0,1.28-1.26,4.34,4.34,0,0,0,.46-2.07A3.82,3.82,0,0,0,109.67,57.4Zm18.14.05a3.32,3.32,0,0,0-1.21-1.23,5.12,5.12,0,0,0-1.8-.64,11.86,11.86,0,0,0-2.2-.19c-1.24,0-2.19,0-2.85.07l0,7.83h2.07a22.2,22.2,0,0,0,2.7-.13,6.17,6.17,0,0,0,2-.57,3,3,0,0,0,1.28-1.17,4.09,4.09,0,0,0,.46-2A3.85,3.85,0,0,0,127.81,57.45Zm-18.14-.05a3.33,3.33,0,0,0-1.25-1.25,5.22,5.22,0,0,0-1.84-.66,13.11,13.11,0,0,0-2.22-.19c-1.24,0-2.19,0-2.85.08l0,8.16h2.19a18.32,18.32,0,0,0,2.7-.18,6.13,6.13,0,0,0,2-.66,3.23,3.23,0,0,0,1.28-1.26,4.34,4.34,0,0,0,.46-2.07A3.82,3.82,0,0,0,109.67,57.4ZM64.56,59.72a7.87,7.87,0,0,0-1.35-2.63,6,6,0,0,0-2.14-1.68,6.85,6.85,0,0,0-2.85-.6,7,7,0,0,0-2.87.57A6.09,6.09,0,0,0,53.18,57a7.67,7.67,0,0,0-1.37,2.62,11.5,11.5,0,0,0-.5,3.43,11.27,11.27,0,0,0,.47,3.44,7.52,7.52,0,0,0,1.35,2.63,5.88,5.88,0,0,0,2.15,1.67,6.62,6.62,0,0,0,2.86.6A6.54,6.54,0,0,0,61,70.86a6,6,0,0,0,2.16-1.65,7.86,7.86,0,0,0,1.38-2.62A11.84,11.84,0,0,0,65,63.16,11.6,11.6,0,0,0,64.56,59.72Zm63.25-2.27a3.32,3.32,0,0,0-1.21-1.23,5.12,5.12,0,0,0-1.8-.64,11.86,11.86,0,0,0-2.2-.19c-1.24,0-2.19,0-2.85.07l0,7.83h2.07a22.2,22.2,0,0,0,2.7-.13,6.17,6.17,0,0,0,2-.57,3,3,0,0,0,1.28-1.17,4.09,4.09,0,0,0,.46-2A3.85,3.85,0,0,0,127.81,57.45ZM64.56,59.72a7.87,7.87,0,0,0-1.35-2.63,6,6,0,0,0-2.14-1.68,6.85,6.85,0,0,0-2.85-.6,7,7,0,0,0-2.87.57A6.09,6.09,0,0,0,53.18,57a7.67,7.67,0,0,0-1.37,2.62,11.5,11.5,0,0,0-.5,3.43,11.27,11.27,0,0,0,.47,3.44,7.52,7.52,0,0,0,1.35,2.63,5.88,5.88,0,0,0,2.15,1.67,6.62,6.62,0,0,0,2.86.6A6.54,6.54,0,0,0,61,70.86a6,6,0,0,0,2.16-1.65,7.86,7.86,0,0,0,1.38-2.62A11.84,11.84,0,0,0,65,63.16,11.6,11.6,0,0,0,64.56,59.72Zm45.11-2.32a3.33,3.33,0,0,0-1.25-1.25,5.22,5.22,0,0,0-1.84-.66,13.11,13.11,0,0,0-2.22-.19c-1.24,0-2.19,0-2.85.08l0,8.16h2.19a18.32,18.32,0,0,0,2.7-.18,6.13,6.13,0,0,0,2-.66,3.23,3.23,0,0,0,1.28-1.26,4.34,4.34,0,0,0,.46-2.07A3.82,3.82,0,0,0,109.67,57.4Zm18.14.05a3.32,3.32,0,0,0-1.21-1.23,5.12,5.12,0,0,0-1.8-.64,11.86,11.86,0,0,0-2.2-.19c-1.24,0-2.19,0-2.85.07l0,7.83h2.07a22.2,22.2,0,0,0,2.7-.13,6.17,6.17,0,0,0,2-.57,3,3,0,0,0,1.28-1.17,4.09,4.09,0,0,0,.46-2A3.85,3.85,0,0,0,127.81,57.45Zm18,3.73q-.94-2.45-1.95-4.7c-.71,1.49-1.38,3.06-2,4.68s-1.28,3.31-1.9,5l7.74,0C147,64.5,146.4,62.81,145.78,61.18ZM109.67,57.4a3.33,3.33,0,0,0-1.25-1.25,5.22,5.22,0,0,0-1.84-.66,13.11,13.11,0,0,0-2.22-.19c-1.24,0-2.19,0-2.85.08l0,8.16h2.19a18.32,18.32,0,0,0,2.7-.18,6.13,6.13,0,0,0,2-.66,3.23,3.23,0,0,0,1.28-1.26,4.34,4.34,0,0,0,.46-2.07A3.82,3.82,0,0,0,109.67,57.4ZM64.56,59.72a7.87,7.87,0,0,0-1.35-2.63,6,6,0,0,0-2.14-1.68,6.85,6.85,0,0,0-2.85-.6,7,7,0,0,0-2.87.57A6.09,6.09,0,0,0,53.18,57a7.67,7.67,0,0,0-1.37,2.62,11.5,11.5,0,0,0-.5,3.43,11.27,11.27,0,0,0,.47,3.44,7.52,7.52,0,0,0,1.35,2.63,5.88,5.88,0,0,0,2.15,1.67,6.62,6.62,0,0,0,2.86.6A6.54,6.54,0,0,0,61,70.86a6,6,0,0,0,2.16-1.65,7.86,7.86,0,0,0,1.38-2.62A11.84,11.84,0,0,0,65,63.16,11.6,11.6,0,0,0,64.56,59.72Zm63.25-2.27a3.32,3.32,0,0,0-1.21-1.23,5.12,5.12,0,0,0-1.8-.64,11.86,11.86,0,0,0-2.2-.19c-1.24,0-2.19,0-2.85.07l0,7.83h2.07a22.2,22.2,0,0,0,2.7-.13,6.17,6.17,0,0,0,2-.57,3,3,0,0,0,1.28-1.17,4.09,4.09,0,0,0,.46-2A3.85,3.85,0,0,0,127.81,57.45Zm18,3.73q-.94-2.45-1.95-4.7c-.71,1.49-1.38,3.06-2,4.68s-1.28,3.31-1.9,5l7.74,0C147,64.5,146.4,62.81,145.78,61.18ZM64.56,59.72a7.87,7.87,0,0,0-1.35-2.63,6,6,0,0,0-2.14-1.68,6.85,6.85,0,0,0-2.85-.6,7,7,0,0,0-2.87.57A6.09,6.09,0,0,0,53.18,57a7.67,7.67,0,0,0-1.37,2.62,11.5,11.5,0,0,0-.5,3.43,11.27,11.27,0,0,0,.47,3.44,7.52,7.52,0,0,0,1.35,2.63,5.88,5.88,0,0,0,2.15,1.67,6.62,6.62,0,0,0,2.86.6A6.54,6.54,0,0,0,61,70.86a6,6,0,0,0,2.16-1.65,7.86,7.86,0,0,0,1.38-2.62A11.84,11.84,0,0,0,65,63.16,11.6,11.6,0,0,0,64.56,59.72Zm45.11-2.32a3.33,3.33,0,0,0-1.25-1.25,5.22,5.22,0,0,0-1.84-.66,13.11,13.11,0,0,0-2.22-.19c-1.24,0-2.19,0-2.85.08l0,8.16h2.19a18.32,18.32,0,0,0,2.7-.18,6.13,6.13,0,0,0,2-.66,3.23,3.23,0,0,0,1.28-1.26,4.34,4.34,0,0,0,.46-2.07A3.82,3.82,0,0,0,109.67,57.4Zm18.14.05a3.32,3.32,0,0,0-1.21-1.23,5.12,5.12,0,0,0-1.8-.64,11.86,11.86,0,0,0-2.2-.19c-1.24,0-2.19,0-2.85.07l0,7.83h2.07a22.2,22.2,0,0,0,2.7-.13,6.17,6.17,0,0,0,2-.57,3,3,0,0,0,1.28-1.17,4.09,4.09,0,0,0,.46-2A3.85,3.85,0,0,0,127.81,57.45Zm18,3.73q-.94-2.45-1.95-4.7c-.71,1.49-1.38,3.06-2,4.68s-1.28,3.31-1.9,5l7.74,0C147,64.5,146.4,62.81,145.78,61.18ZM109.67,57.4a3.33,3.33,0,0,0-1.25-1.25,5.22,5.22,0,0,0-1.84-.66,13.11,13.11,0,0,0-2.22-.19c-1.24,0-2.19,0-2.85.08l0,8.16h2.19a18.32,18.32,0,0,0,2.7-.18,6.13,6.13,0,0,0,2-.66,3.23,3.23,0,0,0,1.28-1.26,4.34,4.34,0,0,0,.46-2.07A3.82,3.82,0,0,0,109.67,57.4ZM64.56,59.72a7.87,7.87,0,0,0-1.35-2.63,6,6,0,0,0-2.14-1.68,6.85,6.85,0,0,0-2.85-.6,7,7,0,0,0-2.87.57A6.09,6.09,0,0,0,53.18,57a7.67,7.67,0,0,0-1.37,2.62,11.5,11.5,0,0,0-.5,3.43,11.27,11.27,0,0,0,.47,3.44,7.52,7.52,0,0,0,1.35,2.63,5.88,5.88,0,0,0,2.15,1.67,6.62,6.62,0,0,0,2.86.6A6.54,6.54,0,0,0,61,70.86a6,6,0,0,0,2.16-1.65,7.86,7.86,0,0,0,1.38-2.62A11.84,11.84,0,0,0,65,63.16,11.6,11.6,0,0,0,64.56,59.72Zm63.25-2.27a3.32,3.32,0,0,0-1.21-1.23,5.12,5.12,0,0,0-1.8-.64,11.86,11.86,0,0,0-2.2-.19c-1.24,0-2.19,0-2.85.07l0,7.83h2.07a22.2,22.2,0,0,0,2.7-.13,6.17,6.17,0,0,0,2-.57,3,3,0,0,0,1.28-1.17,4.09,4.09,0,0,0,.46-2A3.85,3.85,0,0,0,127.81,57.45Zm18,3.73q-.94-2.45-1.95-4.7c-.71,1.49-1.38,3.06-2,4.68s-1.28,3.31-1.9,5l7.74,0C147,64.5,146.4,62.81,145.78,61.18ZM64.56,59.72a7.87,7.87,0,0,0-1.35-2.63,6,6,0,0,0-2.14-1.68,6.85,6.85,0,0,0-2.85-.6,7,7,0,0,0-2.87.57A6.09,6.09,0,0,0,53.18,57a7.67,7.67,0,0,0-1.37,2.62,11.5,11.5,0,0,0-.5,3.43,11.27,11.27,0,0,0,.47,3.44,7.52,7.52,0,0,0,1.35,2.63,5.88,5.88,0,0,0,2.15,1.67,6.62,6.62,0,0,0,2.86.6A6.54,6.54,0,0,0,61,70.86a6,6,0,0,0,2.16-1.65,7.86,7.86,0,0,0,1.38-2.62A11.84,11.84,0,0,0,65,63.16,11.6,11.6,0,0,0,64.56,59.72Zm45.11-2.32a3.33,3.33,0,0,0-1.25-1.25,5.22,5.22,0,0,0-1.84-.66,13.11,13.11,0,0,0-2.22-.19c-1.24,0-2.19,0-2.85.08l0,8.16h2.19a18.32,18.32,0,0,0,2.7-.18,6.13,6.13,0,0,0,2-.66,3.23,3.23,0,0,0,1.28-1.26,4.34,4.34,0,0,0,.46-2.07A3.82,3.82,0,0,0,109.67,57.4Zm18.14.05a3.32,3.32,0,0,0-1.21-1.23,5.12,5.12,0,0,0-1.8-.64,11.86,11.86,0,0,0-2.2-.19c-1.24,0-2.19,0-2.85.07l0,7.83h2.07a22.2,22.2,0,0,0,2.7-.13,6.17,6.17,0,0,0,2-.57,3,3,0,0,0,1.28-1.17,4.09,4.09,0,0,0,.46-2A3.85,3.85,0,0,0,127.81,57.45Zm18,3.73q-.94-2.45-1.95-4.7c-.71,1.49-1.38,3.06-2,4.68s-1.28,3.31-1.9,5l7.74,0C147,64.5,146.4,62.81,145.78,61.18Zm187.67.89q-.93-2.46-1.94-4.71-1.06,2.25-2,4.69c-.64,1.62-1.27,3.31-1.9,5l7.74,0Q334.39,64.52,333.45,62.07Zm0,0q-.93-2.46-1.94-4.71-1.06,2.25-2,4.69c-.64,1.62-1.27,3.31-1.9,5l7.74,0Q334.39,64.52,333.45,62.07ZM109.67,57.4a3.33,3.33,0,0,0-1.25-1.25,5.22,5.22,0,0,0-1.84-.66,13.11,13.11,0,0,0-2.22-.19c-1.24,0-2.19,0-2.85.08l0,8.16h2.19a18.32,18.32,0,0,0,2.7-.18,6.13,6.13,0,0,0,2-.66,3.23,3.23,0,0,0,1.28-1.26,4.34,4.34,0,0,0,.46-2.07A3.82,3.82,0,0,0,109.67,57.4ZM64.56,59.72a7.87,7.87,0,0,0-1.35-2.63,6,6,0,0,0-2.14-1.68,6.85,6.85,0,0,0-2.85-.6,7,7,0,0,0-2.87.57A6.09,6.09,0,0,0,53.18,57a7.67,7.67,0,0,0-1.37,2.62,11.5,11.5,0,0,0-.5,3.43,11.27,11.27,0,0,0,.47,3.44,7.52,7.52,0,0,0,1.35,2.63,5.88,5.88,0,0,0,2.15,1.67,6.62,6.62,0,0,0,2.86.6A6.54,6.54,0,0,0,61,70.86a6,6,0,0,0,2.16-1.65,7.86,7.86,0,0,0,1.38-2.62A11.84,11.84,0,0,0,65,63.16,11.6,11.6,0,0,0,64.56,59.72Zm63.25-2.27a3.32,3.32,0,0,0-1.21-1.23,5.12,5.12,0,0,0-1.8-.64,11.86,11.86,0,0,0-2.2-.19c-1.24,0-2.19,0-2.85.07l0,7.83h2.07a22.2,22.2,0,0,0,2.7-.13,6.17,6.17,0,0,0,2-.57,3,3,0,0,0,1.28-1.17,4.09,4.09,0,0,0,.46-2A3.85,3.85,0,0,0,127.81,57.45Zm18,3.73q-.94-2.45-1.95-4.7c-.71,1.49-1.38,3.06-2,4.68s-1.28,3.31-1.9,5l7.74,0C147,64.5,146.4,62.81,145.78,61.18ZM64.56,59.72a7.87,7.87,0,0,0-1.35-2.63,6,6,0,0,0-2.14-1.68,6.85,6.85,0,0,0-2.85-.6,7,7,0,0,0-2.87.57A6.09,6.09,0,0,0,53.18,57a7.67,7.67,0,0,0-1.37,2.62,11.5,11.5,0,0,0-.5,3.43,11.27,11.27,0,0,0,.47,3.44,7.52,7.52,0,0,0,1.35,2.63,5.88,5.88,0,0,0,2.15,1.67,6.62,6.62,0,0,0,2.86.6A6.54,6.54,0,0,0,61,70.86a6,6,0,0,0,2.16-1.65,7.86,7.86,0,0,0,1.38-2.62A11.84,11.84,0,0,0,65,63.16,11.6,11.6,0,0,0,64.56,59.72Zm45.11-2.32a3.33,3.33,0,0,0-1.25-1.25,5.22,5.22,0,0,0-1.84-.66,13.11,13.11,0,0,0-2.22-.19c-1.24,0-2.19,0-2.85.08l0,8.16h2.19a18.32,18.32,0,0,0,2.7-.18,6.13,6.13,0,0,0,2-.66,3.23,3.23,0,0,0,1.28-1.26,4.34,4.34,0,0,0,.46-2.07A3.82,3.82,0,0,0,109.67,57.4Zm18.14.05a3.32,3.32,0,0,0-1.21-1.23,5.12,5.12,0,0,0-1.8-.64,11.86,11.86,0,0,0-2.2-.19c-1.24,0-2.19,0-2.85.07l0,7.83h2.07a22.2,22.2,0,0,0,2.7-.13,6.17,6.17,0,0,0,2-.57,3,3,0,0,0,1.28-1.17,4.09,4.09,0,0,0,.46-2A3.85,3.85,0,0,0,127.81,57.45Zm18,3.73q-.94-2.45-1.95-4.7c-.71,1.49-1.38,3.06-2,4.68s-1.28,3.31-1.9,5l7.74,0C147,64.5,146.4,62.81,145.78,61.18Zm147,.69q-.93-2.44-1.94-4.7-1.07,2.25-2,4.68t-1.9,5.05l7.74,0C294,65.19,293.36,63.51,292.74,61.87Zm22.59-3.46q-2-2.13-6.17-2.14c-.82,0-1.45,0-1.9,0s-.77,0-.95.05l-.07,15.9.94.07c.45,0,1.09,0,1.91,0q4.14,0,6.19-2.09a8.21,8.21,0,0,0,2.06-5.92A8.11,8.11,0,0,0,315.33,58.41Zm18.12,3.66q-.93-2.46-1.94-4.71-1.06,2.25-2,4.69c-.64,1.62-1.27,3.31-1.9,5l7.74,0Q334.39,64.52,333.45,62.07Zm0,0q-.93-2.46-1.94-4.71-1.06,2.25-2,4.69c-.64,1.62-1.27,3.31-1.9,5l7.74,0Q334.39,64.52,333.45,62.07Zm-18.12-3.66q-2-2.13-6.17-2.14c-.82,0-1.45,0-1.9,0s-.77,0-.95.05l-.07,15.9.94.07c.45,0,1.09,0,1.91,0q4.14,0,6.19-2.09a8.21,8.21,0,0,0,2.06-5.92A8.11,8.11,0,0,0,315.33,58.41Zm-22.59,3.46q-.93-2.44-1.94-4.7-1.07,2.25-2,4.68t-1.9,5.05l7.74,0C294,65.19,293.36,63.51,292.74,61.87ZM109.67,57.4a3.33,3.33,0,0,0-1.25-1.25,5.22,5.22,0,0,0-1.84-.66,13.11,13.11,0,0,0-2.22-.19c-1.24,0-2.19,0-2.85.08l0,8.16h2.19a18.32,18.32,0,0,0,2.7-.18,6.13,6.13,0,0,0,2-.66,3.23,3.23,0,0,0,1.28-1.26,4.34,4.34,0,0,0,.46-2.07A3.82,3.82,0,0,0,109.67,57.4ZM64.56,59.72a7.87,7.87,0,0,0-1.35-2.63,6,6,0,0,0-2.14-1.68,6.85,6.85,0,0,0-2.85-.6,7,7,0,0,0-2.87.57A6.09,6.09,0,0,0,53.18,57a7.67,7.67,0,0,0-1.37,2.62,11.5,11.5,0,0,0-.5,3.43,11.27,11.27,0,0,0,.47,3.44,7.52,7.52,0,0,0,1.35,2.63,5.88,5.88,0,0,0,2.15,1.67,6.62,6.62,0,0,0,2.86.6A6.54,6.54,0,0,0,61,70.86a6,6,0,0,0,2.16-1.65,7.86,7.86,0,0,0,1.38-2.62A11.84,11.84,0,0,0,65,63.16,11.6,11.6,0,0,0,64.56,59.72Zm63.25-2.27a3.32,3.32,0,0,0-1.21-1.23,5.12,5.12,0,0,0-1.8-.64,11.86,11.86,0,0,0-2.2-.19c-1.24,0-2.19,0-2.85.07l0,7.83h2.07a22.2,22.2,0,0,0,2.7-.13,6.17,6.17,0,0,0,2-.57,3,3,0,0,0,1.28-1.17,4.09,4.09,0,0,0,.46-2A3.85,3.85,0,0,0,127.81,57.45Zm18,3.73q-.94-2.45-1.95-4.7c-.71,1.49-1.38,3.06-2,4.68s-1.28,3.31-1.9,5l7.74,0C147,64.5,146.4,62.81,145.78,61.18ZM64.56,59.72a7.87,7.87,0,0,0-1.35-2.63,6,6,0,0,0-2.14-1.68,6.85,6.85,0,0,0-2.85-.6,7,7,0,0,0-2.87.57A6.09,6.09,0,0,0,53.18,57a7.67,7.67,0,0,0-1.37,2.62,11.5,11.5,0,0,0-.5,3.43,11.27,11.27,0,0,0,.47,3.44,7.52,7.52,0,0,0,1.35,2.63,5.88,5.88,0,0,0,2.15,1.67,6.62,6.62,0,0,0,2.86.6A6.54,6.54,0,0,0,61,70.86a6,6,0,0,0,2.16-1.65,7.86,7.86,0,0,0,1.38-2.62A11.84,11.84,0,0,0,65,63.16,11.6,11.6,0,0,0,64.56,59.72Zm45.11-2.32a3.33,3.33,0,0,0-1.25-1.25,5.22,5.22,0,0,0-1.84-.66,13.11,13.11,0,0,0-2.22-.19c-1.24,0-2.19,0-2.85.08l0,8.16h2.19a18.32,18.32,0,0,0,2.7-.18,6.13,6.13,0,0,0,2-.66,3.23,3.23,0,0,0,1.28-1.26,4.34,4.34,0,0,0,.46-2.07A3.82,3.82,0,0,0,109.67,57.4Zm18.14.05a3.32,3.32,0,0,0-1.21-1.23,5.12,5.12,0,0,0-1.8-.64,11.86,11.86,0,0,0-2.2-.19c-1.24,0-2.19,0-2.85.07l0,7.83h2.07a22.2,22.2,0,0,0,2.7-.13,6.17,6.17,0,0,0,2-.57,3,3,0,0,0,1.28-1.17,4.09,4.09,0,0,0,.46-2A3.85,3.85,0,0,0,127.81,57.45Zm18,3.73q-.94-2.45-1.95-4.7c-.71,1.49-1.38,3.06-2,4.68s-1.28,3.31-1.9,5l7.74,0C147,64.5,146.4,62.81,145.78,61.18Zm129-3a3.25,3.25,0,0,0-1.21-1.23,5.19,5.19,0,0,0-1.79-.64,12.9,12.9,0,0,0-2.21-.19c-1.24,0-2.19,0-2.85.08l0,7.83h2.07a22.06,22.06,0,0,0,2.7-.14,6.11,6.11,0,0,0,2-.56,3,3,0,0,0,1.28-1.18,4.63,4.63,0,0,0,0-4Zm18,3.73q-.93-2.44-1.94-4.7-1.07,2.25-2,4.68t-1.9,5.05l7.74,0C294,65.19,293.36,63.51,292.74,61.87Zm22.59-3.46q-2-2.13-6.17-2.14c-.82,0-1.45,0-1.9,0s-.77,0-.95.05l-.07,15.9.94.07c.45,0,1.09,0,1.91,0q4.14,0,6.19-2.09a8.21,8.21,0,0,0,2.06-5.92A8.11,8.11,0,0,0,315.33,58.41Zm18.12,3.66q-.93-2.46-1.94-4.71-1.06,2.25-2,4.69c-.64,1.62-1.27,3.31-1.9,5l7.74,0Q334.39,64.52,333.45,62.07Zm0,0q-.93-2.46-1.94-4.71-1.06,2.25-2,4.69c-.64,1.62-1.27,3.31-1.9,5l7.74,0Q334.39,64.52,333.45,62.07Zm-18.12-3.66q-2-2.13-6.17-2.14c-.82,0-1.45,0-1.9,0s-.77,0-.95.05l-.07,15.9.94.07c.45,0,1.09,0,1.91,0q4.14,0,6.19-2.09a8.21,8.21,0,0,0,2.06-5.92A8.11,8.11,0,0,0,315.33,58.41Zm-22.59,3.46q-.93-2.44-1.94-4.7-1.07,2.25-2,4.68t-1.9,5.05l7.74,0C294,65.19,293.36,63.51,292.74,61.87Zm-18-3.73a3.25,3.25,0,0,0-1.21-1.23,5.19,5.19,0,0,0-1.79-.64,12.9,12.9,0,0,0-2.21-.19c-1.24,0-2.19,0-2.85.08l0,7.83h2.07a22.06,22.06,0,0,0,2.7-.14,6.11,6.11,0,0,0,2-.56,3,3,0,0,0,1.28-1.18,4.63,4.63,0,0,0,0-4Zm-165.1-.74a3.33,3.33,0,0,0-1.25-1.25,5.22,5.22,0,0,0-1.84-.66,13.11,13.11,0,0,0-2.22-.19c-1.24,0-2.19,0-2.85.08l0,8.16h2.19a18.32,18.32,0,0,0,2.7-.18,6.13,6.13,0,0,0,2-.66,3.23,3.23,0,0,0,1.28-1.26,4.34,4.34,0,0,0,.46-2.07A3.82,3.82,0,0,0,109.67,57.4ZM64.56,59.72a7.87,7.87,0,0,0-1.35-2.63,6,6,0,0,0-2.14-1.68,6.85,6.85,0,0,0-2.85-.6,7,7,0,0,0-2.87.57A6.09,6.09,0,0,0,53.18,57a7.67,7.67,0,0,0-1.37,2.62,11.5,11.5,0,0,0-.5,3.43,11.27,11.27,0,0,0,.47,3.44,7.52,7.52,0,0,0,1.35,2.63,5.88,5.88,0,0,0,2.15,1.67,6.62,6.62,0,0,0,2.86.6A6.54,6.54,0,0,0,61,70.86a6,6,0,0,0,2.16-1.65,7.86,7.86,0,0,0,1.38-2.62A11.84,11.84,0,0,0,65,63.16,11.6,11.6,0,0,0,64.56,59.72Zm63.25-2.27a3.32,3.32,0,0,0-1.21-1.23,5.12,5.12,0,0,0-1.8-.64,11.86,11.86,0,0,0-2.2-.19c-1.24,0-2.19,0-2.85.07l0,7.83h2.07a22.2,22.2,0,0,0,2.7-.13,6.17,6.17,0,0,0,2-.57,3,3,0,0,0,1.28-1.17,4.09,4.09,0,0,0,.46-2A3.85,3.85,0,0,0,127.81,57.45Zm18,3.73q-.94-2.45-1.95-4.7c-.71,1.49-1.38,3.06-2,4.68s-1.28,3.31-1.9,5l7.74,0C147,64.5,146.4,62.81,145.78,61.18ZM359.65,110v-.06a10.45,10.45,0,0,1,10.45-10.45V89.68a10.45,10.45,0,0,1-10.45-10.39v-.06a10.46,10.46,0,0,1,10.45-10.46V59a10.47,10.47,0,0,1-10.47-10.41v0a10.45,10.45,0,0,1,10.46-10.45V28.3a10.45,10.45,0,0,1-10.45-10.39v-.06A10.44,10.44,0,0,1,370.05,7.4V-.18L185-.11-.1,0V7.54H.1A10.44,10.44,0,0,1,10.55,18,10.46,10.46,0,0,1,.11,28.44H-.08v9.8H.11A10.44,10.44,0,0,1,10.56,48.66,10.45,10.45,0,0,1,.11,59.12H-.08v9.81H.12A10.45,10.45,0,0,1,10.58,79.35,10.47,10.47,0,0,1,.13,89.81H-.06v9.81H.13A10.44,10.44,0,0,1,10.58,110,10.44,10.44,0,0,1,.13,120.5H-.06v8.23L185,128.66l185.1-.07v-8.23A10.43,10.43,0,0,1,359.65,110ZM201.35,20.6l1.38-4.24,1.38,4.24h4.46L205,23.23l1.37,4.24-3.6-2.62-3.61,2.62,1.38-4.24-3.61-2.62Zm-17.16,0,.81-2.49.57-1.76L187,20.61h4.46l-3.61,2.63,1.38,4.25-3.61-2.63-.57.41-3,2.21,1.38-4.23-3.61-2.63Zm-17.15,0,1.38-4.25,1.38,4.24h4.46l-3.61,2.63L172,27.48l-3.61-2.62-3.61,2.62,1.38-4.24-3.61-2.62Zm18,20.8,78.83,0v1.4l-78.83,0-76.75,0V41.45Zm59.75,14.72,0-2.52,16,.08v2.52l-6.54,0-.08,18.27-2.91,0,.08-18.27Zm-3-2.53-.1,20.79h-2.43c-.44-.75-.94-1.58-1.51-2.5S236.5,70,235.84,69s-1.33-2-2-3-1.4-2-2.1-3-1.37-1.86-2-2.7-1.26-1.58-1.82-2.23l-.07,16.23h-2.85l.1-20.79h2.3q1.41,1.5,3,3.51c1.07,1.33,2.12,2.71,3.16,4.12s2,2.81,2.95,4.17,1.71,2.58,2.34,3.64l.08-15.39Zm-22.25,8.56V64.6l-8.7,0,0,7.2,10.53,0V74.3l-13.44-.06.1-20.79,12.68.06V56l-9.78,0,0,6.18Zm-35.08,8.42a3.87,3.87,0,0,0,.62.53,5,5,0,0,0,3,.9,5.67,5.67,0,0,0,2-.34,4,4,0,0,0,1.58-1.06,4.75,4.75,0,0,0,1-1.84A8.78,8.78,0,0,0,193,66.1l.06-12.72H196l-.06,13a11.22,11.22,0,0,1-.48,3.24A7,7,0,0,1,194,72.27,6.59,6.59,0,0,1,191.49,74a9,9,0,0,1-3.52.62,9.65,9.65,0,0,1-3-.45,3.49,3.49,0,0,1-.57-.2A6.64,6.64,0,0,1,182,72.21a7.06,7.06,0,0,1-1.42-2.6,10.9,10.9,0,0,1-.44-3.24l.06-13.05h2.91L183,66.05A6.34,6.34,0,0,0,184.38,70.59ZM161.26,55.75l0-2.52,16,.07,0,2.52-6.54,0-.08,18.27h-2.91l.08-18.27ZM153.53,74h-3.18c-.34-.9-.65-1.79-.95-2.66s-.6-1.76-.91-2.66l-9.42-.05-1.92,5.31-3,0c.81-2.19,1.57-4.23,2.28-6.09s1.4-3.64,2.08-5.32,1.35-3.28,2-4.8,1.36-3,2.09-4.54h2.67q1.06,2.26,2.05,4.56t2,4.82c.66,1.69,1.34,3.46,2,5.34S152.74,71.78,153.53,74Zm-25.36-7.24c.49.65,1,1.37,1.5,2.17s1,1.62,1.54,2.48a27.1,27.1,0,0,1,1.29,2.49h-3.18c-.4-.76-.83-1.54-1.29-2.32s-.94-1.53-1.42-2.24-1-1.38-1.41-2-.89-1.16-1.27-1.63c-.26,0-.53,0-.8,0h-.82l-2.61,0,0,8.13h-2.91l.1-20.49a15.44,15.44,0,0,1,2.74-.39c1-.07,1.94-.1,2.78-.09q4.38,0,6.67,1.68a5.67,5.67,0,0,1,2.27,4.93A5.78,5.78,0,0,1,130.2,63,6.53,6.53,0,0,1,127,65.16C127.28,65.56,127.68,66.09,128.17,66.74ZM45.56,73a10.36,10.36,0,0,1-1.35.43c-.54.13-1.17.25-1.89.35A18.88,18.88,0,0,1,40,73.9a10.86,10.86,0,0,1-4-.74A8.58,8.58,0,0,1,32.91,71a9.61,9.61,0,0,1-2-3.41A14.12,14.12,0,0,1,30.25,63a12.58,12.58,0,0,1,.82-4.63A9.91,9.91,0,0,1,33.23,55a9,9,0,0,1,3.16-2.09,10.23,10.23,0,0,1,3.84-.7,13.55,13.55,0,0,1,4.12.62,8.7,8.7,0,0,1,1.25.48c.32.17.54.29.66.37L45.4,56a4.91,4.91,0,0,0-.77-.39c-.34-.14-.73-.28-1.16-.43a10.38,10.38,0,0,0-1.41-.35,8.82,8.82,0,0,0-1.54-.14,7.25,7.25,0,0,0-3,.56,6,6,0,0,0-2.26,1.64,7.57,7.57,0,0,0-1.44,2.61A11.66,11.66,0,0,0,33.34,63a12,12,0,0,0,.42,3.39A7.44,7.44,0,0,0,35.05,69a5.86,5.86,0,0,0,2.17,1.7,7.2,7.2,0,0,0,3,.62,11.19,11.19,0,0,0,3.33-.41,13.36,13.36,0,0,0,2-.74l.74,2.41A4.47,4.47,0,0,1,45.56,73Zm21.73-5.1a9.67,9.67,0,0,1-2.16,3.39,8.7,8.7,0,0,1-3.14,2,10.24,10.24,0,0,1-3.8.67,10.53,10.53,0,0,1-3.85-.71,8.82,8.82,0,0,1-3.17-2.06A9.88,9.88,0,0,1,49,67.79a14.35,14.35,0,0,1,0-9.42A9.49,9.49,0,0,1,51.25,55a8.77,8.77,0,0,1,3.18-2,10.82,10.82,0,0,1,3.86-.68,10.59,10.59,0,0,1,3.79.71A9,9,0,0,1,65.21,55a10,10,0,0,1,2.13,3.42,14.35,14.35,0,0,1,0,9.42ZM91.1,73.69c-.09-2.8-.19-5.58-.32-8.33s-.29-5.3-.5-7.67q-.3.51-.81,1.47c-.33.64-.69,1.36-1.07,2.17S87.61,63,87.17,63.9s-.84,1.8-1.22,2.65L84.87,69c-.33.74-.6,1.35-.8,1.83l-2.34,0c-.2-.48-.46-1.09-.79-1.83l-1.06-2.4c-.37-.87-.77-1.75-1.2-2.67l-1.2-2.58c-.38-.81-.73-1.54-1.06-2.18s-.58-1.13-.78-1.48c-.23,2.36-.43,4.92-.58,7.67s-.28,5.52-.4,8.32H71.81c.09-1.8.19-3.62.3-5.45s.23-3.63.37-5.39.28-3.5.44-5.18.33-3.27.52-4.77l2.55,0c.54.88,1.11,1.92,1.72,3.13s1.23,2.46,1.85,3.77,1.21,2.62,1.78,3.94l1.57,3.59,1.61-3.58c.59-1.3,1.19-2.61,1.82-3.92S87.59,57.2,88.21,56s1.21-2.23,1.76-3.11h2.55Q93.5,63,94,73.7ZM103.77,66h-2.31l0,7.71-2.91,0,.1-20.49a17.53,17.53,0,0,1,2.74-.39c1-.06,1.94-.09,2.78-.09a11.54,11.54,0,0,1,6.73,1.7,5.67,5.67,0,0,1,2.33,5,6.82,6.82,0,0,1-.66,3.07,5.4,5.4,0,0,1-1.87,2.07,8.71,8.71,0,0,1-3,1.14A20.33,20.33,0,0,1,103.77,66Zm68.29,47.32-3.61-2.62-3.61,2.63,1.38-4.25-3.61-2.62h4.47l1.36-4.24,1.39,4.25h4.46l-3.61,2.62Zm17.16,0-3.61-2.62-.61.44-3,2.18,1.37-4.24-3.6-2.62h4.46l.77-2.38.6-1.85L187,106.5h4.46l-3.61,2.61Zm17.15,0-3.61-2.62-3.61,2.63,1.38-4.25-3.61-2.62h4.46l1.37-4.24,1.39,4.24h4.46L205,109.11ZM185,89.34l-76.73,0V88L185,88l78.84,0v1.39Zm91.29-14.78c-.4-.76-.83-1.53-1.3-2.31s-.94-1.53-1.41-2.25-.95-1.38-1.42-2-.89-1.16-1.27-1.62c-.26,0-.52,0-.79,0h-3.44l0,8.13-2.91,0L263.81,54a17.66,17.66,0,0,1,2.75-.39c1-.07,1.94-.1,2.77-.09,2.92,0,5.15.57,6.67,1.68a6.36,6.36,0,0,1,1.16,8.46,6.39,6.39,0,0,1-3.23,2.18c.31.4.72.93,1.2,1.58s1,1.38,1.51,2.17,1,1.62,1.53,2.48a22.12,22.12,0,0,1,1.29,2.5Zm21,.1c-.33-.9-.65-1.79-.94-2.66l-.92-2.66-9.42,0-1.92,5.3-3,0,2.28-6.09c.71-1.87,1.41-3.64,2.08-5.32s1.35-3.27,2-4.8,1.37-3,2.09-4.54l2.67,0q1.08,2.25,2,4.55t2,4.83c.67,1.68,1.34,3.46,2,5.33s1.44,3.91,2.23,6.12Zm22.26-5.61a8.67,8.67,0,0,1-2.38,3.29,10.14,10.14,0,0,1-3.67,1.93,16.22,16.22,0,0,1-4.69.63c-.84,0-1.76-.05-2.77-.12a17.37,17.37,0,0,1-2.74-.42l.09-20.16a15.56,15.56,0,0,1,2.75-.39c1-.07,1.93-.1,2.77-.1a16.42,16.42,0,0,1,4.68.67,10,10,0,0,1,3.65,2,8.7,8.7,0,0,1,2.36,3.31,12.08,12.08,0,0,1,.81,4.7A11.83,11.83,0,0,1,319.57,69.05ZM338,74.85c-.33-.9-.65-1.79-.94-2.66l-.92-2.66-9.42,0-1.92,5.3h-3l2.28-6.1c.71-1.87,1.41-3.64,2.08-5.31s1.35-3.28,2-4.81,1.37-3,2.09-4.54l2.67,0Q334,56.29,335,58.59c.65,1.54,1.31,3.14,2,4.83s1.34,3.46,2,5.33,1.43,3.91,2.22,6.12Zm-6.51-17.49q-1.06,2.25-2,4.69c-.64,1.62-1.27,3.31-1.9,5l7.74,0q-.94-2.61-1.88-5.06T331.51,57.36Zm-22.35-1.09c-.82,0-1.45,0-1.9,0s-.77,0-.95.05l-.07,15.9.94.07c.45,0,1.09,0,1.91,0q4.14,0,6.19-2.09a8.21,8.21,0,0,0,2.06-5.92,8.11,8.11,0,0,0-2-5.93Q313.31,56.28,309.16,56.27Zm-18.36.9q-1.07,2.25-2,4.68t-1.9,5.05l7.74,0c-.63-1.75-1.26-3.43-1.88-5.07S291.47,58.67,290.8,57.17Zm-16.05,4.95a4.63,4.63,0,0,0,0-4,3.25,3.25,0,0,0-1.21-1.23,5.19,5.19,0,0,0-1.79-.64,12.9,12.9,0,0,0-2.21-.19c-1.24,0-2.19,0-2.85.08l0,7.83h2.07a22.06,22.06,0,0,0,2.7-.14,6.11,6.11,0,0,0,2-.56A3,3,0,0,0,274.75,62.12ZM143.83,56.48c-.71,1.49-1.38,3.06-2,4.68s-1.28,3.31-1.9,5l7.74,0c-.64-1.75-1.26-3.44-1.88-5.07S144.5,58,143.83,56.48Zm-17.23-.26a5.12,5.12,0,0,0-1.8-.64,11.86,11.86,0,0,0-2.2-.19c-1.24,0-2.19,0-2.85.07l0,7.83h2.07a22.2,22.2,0,0,0,2.7-.13,6.17,6.17,0,0,0,2-.57,3,3,0,0,0,1.28-1.17,4.09,4.09,0,0,0,.46-2,3.85,3.85,0,0,0-.44-1.95A3.32,3.32,0,0,0,126.6,56.22Zm-18.18-.07a5.22,5.22,0,0,0-1.84-.66,13.11,13.11,0,0,0-2.22-.19c-1.24,0-2.19,0-2.85.08l0,8.16h2.19a18.32,18.32,0,0,0,2.7-.18,6.13,6.13,0,0,0,2-.66,3.23,3.23,0,0,0,1.28-1.26,4.34,4.34,0,0,0,.46-2.07,3.82,3.82,0,0,0-.46-2A3.33,3.33,0,0,0,108.42,56.15Zm-45.21.94a6,6,0,0,0-2.14-1.68,6.85,6.85,0,0,0-2.85-.6,7,7,0,0,0-2.87.57A6.09,6.09,0,0,0,53.18,57a7.67,7.67,0,0,0-1.37,2.62,11.5,11.5,0,0,0-.5,3.43,11.27,11.27,0,0,0,.47,3.44,7.52,7.52,0,0,0,1.35,2.63,5.88,5.88,0,0,0,2.15,1.67,6.62,6.62,0,0,0,2.86.6A6.54,6.54,0,0,0,61,70.86a6,6,0,0,0,2.16-1.65,7.86,7.86,0,0,0,1.38-2.62A11.84,11.84,0,0,0,65,63.16a11.6,11.6,0,0,0-.46-3.44A7.87,7.87,0,0,0,63.21,57.09Zm82.57,4.09q-.94-2.45-1.95-4.7c-.71,1.49-1.38,3.06-2,4.68s-1.28,3.31-1.9,5l7.74,0C147,64.5,146.4,62.81,145.78,61.18Zm-18-3.73a3.32,3.32,0,0,0-1.21-1.23,5.12,5.12,0,0,0-1.8-.64,11.86,11.86,0,0,0-2.2-.19c-1.24,0-2.19,0-2.85.07l0,7.83h2.07a22.2,22.2,0,0,0,2.7-.13,6.17,6.17,0,0,0,2-.57,3,3,0,0,0,1.28-1.17,4.09,4.09,0,0,0,.46-2A3.85,3.85,0,0,0,127.81,57.45ZM64.56,59.72a7.87,7.87,0,0,0-1.35-2.63,6,6,0,0,0-2.14-1.68,6.85,6.85,0,0,0-2.85-.6,7,7,0,0,0-2.87.57A6.09,6.09,0,0,0,53.18,57a7.67,7.67,0,0,0-1.37,2.62,11.5,11.5,0,0,0-.5,3.43,11.27,11.27,0,0,0,.47,3.44,7.52,7.52,0,0,0,1.35,2.63,5.88,5.88,0,0,0,2.15,1.67,6.62,6.62,0,0,0,2.86.6A6.54,6.54,0,0,0,61,70.86a6,6,0,0,0,2.16-1.65,7.86,7.86,0,0,0,1.38-2.62A11.84,11.84,0,0,0,65,63.16,11.6,11.6,0,0,0,64.56,59.72Zm45.11-2.32a3.33,3.33,0,0,0-1.25-1.25,5.22,5.22,0,0,0-1.84-.66,13.11,13.11,0,0,0-2.22-.19c-1.24,0-2.19,0-2.85.08l0,8.16h2.19a18.32,18.32,0,0,0,2.7-.18,6.13,6.13,0,0,0,2-.66,3.23,3.23,0,0,0,1.28-1.26,4.34,4.34,0,0,0,.46-2.07A3.82,3.82,0,0,0,109.67,57.4Zm165.1.74a3.25,3.25,0,0,0-1.21-1.23,5.19,5.19,0,0,0-1.79-.64,12.9,12.9,0,0,0-2.21-.19c-1.24,0-2.19,0-2.85.08l0,7.83h2.07a22.06,22.06,0,0,0,2.7-.14,6.11,6.11,0,0,0,2-.56,3,3,0,0,0,1.28-1.18,4.63,4.63,0,0,0,0-4Zm18,3.73q-.93-2.44-1.94-4.7-1.07,2.25-2,4.68t-1.9,5.05l7.74,0C294,65.19,293.36,63.51,292.74,61.87Zm22.59-3.46q-2-2.13-6.17-2.14c-.82,0-1.45,0-1.9,0s-.77,0-.95.05l-.07,15.9.94.07c.45,0,1.09,0,1.91,0q4.14,0,6.19-2.09a8.21,8.21,0,0,0,2.06-5.92A8.11,8.11,0,0,0,315.33,58.41Zm18.12,3.66q-.93-2.46-1.94-4.71-1.06,2.25-2,4.69c-.64,1.62-1.27,3.31-1.9,5l7.74,0Q334.39,64.52,333.45,62.07Zm0,0q-.93-2.46-1.94-4.71-1.06,2.25-2,4.69c-.64,1.62-1.27,3.31-1.9,5l7.74,0Q334.39,64.52,333.45,62.07Zm-18.12-3.66q-2-2.13-6.17-2.14c-.82,0-1.45,0-1.9,0s-.77,0-.95.05l-.07,15.9.94.07c.45,0,1.09,0,1.91,0q4.14,0,6.19-2.09a8.21,8.21,0,0,0,2.06-5.92A8.11,8.11,0,0,0,315.33,58.41Zm-22.59,3.46q-.93-2.44-1.94-4.7-1.07,2.25-2,4.68t-1.9,5.05l7.74,0C294,65.19,293.36,63.51,292.74,61.87Zm-18-3.73a3.25,3.25,0,0,0-1.21-1.23,5.19,5.19,0,0,0-1.79-.64,12.9,12.9,0,0,0-2.21-.19c-1.24,0-2.19,0-2.85.08l0,7.83h2.07a22.06,22.06,0,0,0,2.7-.14,6.11,6.11,0,0,0,2-.56,3,3,0,0,0,1.28-1.18,4.63,4.63,0,0,0,0-4Zm-129,3q-.94-2.45-1.95-4.7c-.71,1.49-1.38,3.06-2,4.68s-1.28,3.31-1.9,5l7.74,0C147,64.5,146.4,62.81,145.78,61.18Zm-18-3.73a3.32,3.32,0,0,0-1.21-1.23,5.12,5.12,0,0,0-1.8-.64,11.86,11.86,0,0,0-2.2-.19c-1.24,0-2.19,0-2.85.07l0,7.83h2.07a22.2,22.2,0,0,0,2.7-.13,6.17,6.17,0,0,0,2-.57,3,3,0,0,0,1.28-1.17,4.09,4.09,0,0,0,.46-2A3.85,3.85,0,0,0,127.81,57.45Zm-18.14-.05a3.33,3.33,0,0,0-1.25-1.25,5.22,5.22,0,0,0-1.84-.66,13.11,13.11,0,0,0-2.22-.19c-1.24,0-2.19,0-2.85.08l0,8.16h2.19a18.32,18.32,0,0,0,2.7-.18,6.13,6.13,0,0,0,2-.66,3.23,3.23,0,0,0,1.28-1.26,4.34,4.34,0,0,0,.46-2.07A3.82,3.82,0,0,0,109.67,57.4ZM64.56,59.72a7.87,7.87,0,0,0-1.35-2.63,6,6,0,0,0-2.14-1.68,6.85,6.85,0,0,0-2.85-.6,7,7,0,0,0-2.87.57A6.09,6.09,0,0,0,53.18,57a7.67,7.67,0,0,0-1.37,2.62,11.5,11.5,0,0,0-.5,3.43,11.27,11.27,0,0,0,.47,3.44,7.52,7.52,0,0,0,1.35,2.63,5.88,5.88,0,0,0,2.15,1.67,6.62,6.62,0,0,0,2.86.6A6.54,6.54,0,0,0,61,70.86a6,6,0,0,0,2.16-1.65,7.86,7.86,0,0,0,1.38-2.62A11.84,11.84,0,0,0,65,63.16,11.6,11.6,0,0,0,64.56,59.72Zm81.22,1.46q-.94-2.45-1.95-4.7c-.71,1.49-1.38,3.06-2,4.68s-1.28,3.31-1.9,5l7.74,0C147,64.5,146.4,62.81,145.78,61.18Zm-18-3.73a3.32,3.32,0,0,0-1.21-1.23,5.12,5.12,0,0,0-1.8-.64,11.86,11.86,0,0,0-2.2-.19c-1.24,0-2.19,0-2.85.07l0,7.83h2.07a22.2,22.2,0,0,0,2.7-.13,6.17,6.17,0,0,0,2-.57,3,3,0,0,0,1.28-1.17,4.09,4.09,0,0,0,.46-2A3.85,3.85,0,0,0,127.81,57.45ZM64.56,59.72a7.87,7.87,0,0,0-1.35-2.63,6,6,0,0,0-2.14-1.68,6.85,6.85,0,0,0-2.85-.6,7,7,0,0,0-2.87.57A6.09,6.09,0,0,0,53.18,57a7.67,7.67,0,0,0-1.37,2.62,11.5,11.5,0,0,0-.5,3.43,11.27,11.27,0,0,0,.47,3.44,7.52,7.52,0,0,0,1.35,2.63,5.88,5.88,0,0,0,2.15,1.67,6.62,6.62,0,0,0,2.86.6A6.54,6.54,0,0,0,61,70.86a6,6,0,0,0,2.16-1.65,7.86,7.86,0,0,0,1.38-2.62A11.84,11.84,0,0,0,65,63.16,11.6,11.6,0,0,0,64.56,59.72Zm45.11-2.32a3.33,3.33,0,0,0-1.25-1.25,5.22,5.22,0,0,0-1.84-.66,13.11,13.11,0,0,0-2.22-.19c-1.24,0-2.19,0-2.85.08l0,8.16h2.19a18.32,18.32,0,0,0,2.7-.18,6.13,6.13,0,0,0,2-.66,3.23,3.23,0,0,0,1.28-1.26,4.34,4.34,0,0,0,.46-2.07A3.82,3.82,0,0,0,109.67,57.4Zm205.66,1q-2-2.13-6.17-2.14c-.82,0-1.45,0-1.9,0s-.77,0-.95.05l-.07,15.9.94.07c.45,0,1.09,0,1.91,0q4.14,0,6.19-2.09a8.21,8.21,0,0,0,2.06-5.92A8.11,8.11,0,0,0,315.33,58.41Zm18.12,3.66q-.93-2.46-1.94-4.71-1.06,2.25-2,4.69c-.64,1.62-1.27,3.31-1.9,5l7.74,0Q334.39,64.52,333.45,62.07Zm0,0q-.93-2.46-1.94-4.71-1.06,2.25-2,4.69c-.64,1.62-1.27,3.31-1.9,5l7.74,0Q334.39,64.52,333.45,62.07Zm-18.12-3.66q-2-2.13-6.17-2.14c-.82,0-1.45,0-1.9,0s-.77,0-.95.05l-.07,15.9.94.07c.45,0,1.09,0,1.91,0q4.14,0,6.19-2.09a8.21,8.21,0,0,0,2.06-5.92A8.11,8.11,0,0,0,315.33,58.41ZM145.78,61.18q-.94-2.45-1.95-4.7c-.71,1.49-1.38,3.06-2,4.68s-1.28,3.31-1.9,5l7.74,0C147,64.5,146.4,62.81,145.78,61.18Zm-18-3.73a3.32,3.32,0,0,0-1.21-1.23,5.12,5.12,0,0,0-1.8-.64,11.86,11.86,0,0,0-2.2-.19c-1.24,0-2.19,0-2.85.07l0,7.83h2.07a22.2,22.2,0,0,0,2.7-.13,6.17,6.17,0,0,0,2-.57,3,3,0,0,0,1.28-1.17,4.09,4.09,0,0,0,.46-2A3.85,3.85,0,0,0,127.81,57.45Zm-18.14-.05a3.33,3.33,0,0,0-1.25-1.25,5.22,5.22,0,0,0-1.84-.66,13.11,13.11,0,0,0-2.22-.19c-1.24,0-2.19,0-2.85.08l0,8.16h2.19a18.32,18.32,0,0,0,2.7-.18,6.13,6.13,0,0,0,2-.66,3.23,3.23,0,0,0,1.28-1.26,4.34,4.34,0,0,0,.46-2.07A3.82,3.82,0,0,0,109.67,57.4ZM64.56,59.72a7.87,7.87,0,0,0-1.35-2.63,6,6,0,0,0-2.14-1.68,6.85,6.85,0,0,0-2.85-.6,7,7,0,0,0-2.87.57A6.09,6.09,0,0,0,53.18,57a7.67,7.67,0,0,0-1.37,2.62,11.5,11.5,0,0,0-.5,3.43,11.27,11.27,0,0,0,.47,3.44,7.52,7.52,0,0,0,1.35,2.63,5.88,5.88,0,0,0,2.15,1.67,6.62,6.62,0,0,0,2.86.6A6.54,6.54,0,0,0,61,70.86a6,6,0,0,0,2.16-1.65,7.86,7.86,0,0,0,1.38-2.62A11.84,11.84,0,0,0,65,63.16,11.6,11.6,0,0,0,64.56,59.72Zm81.22,1.46q-.94-2.45-1.95-4.7c-.71,1.49-1.38,3.06-2,4.68s-1.28,3.31-1.9,5l7.74,0C147,64.5,146.4,62.81,145.78,61.18Zm-18-3.73a3.32,3.32,0,0,0-1.21-1.23,5.12,5.12,0,0,0-1.8-.64,11.86,11.86,0,0,0-2.2-.19c-1.24,0-2.19,0-2.85.07l0,7.83h2.07a22.2,22.2,0,0,0,2.7-.13,6.17,6.17,0,0,0,2-.57,3,3,0,0,0,1.28-1.17,4.09,4.09,0,0,0,.46-2A3.85,3.85,0,0,0,127.81,57.45ZM64.56,59.72a7.87,7.87,0,0,0-1.35-2.63,6,6,0,0,0-2.14-1.68,6.85,6.85,0,0,0-2.85-.6,7,7,0,0,0-2.87.57A6.09,6.09,0,0,0,53.18,57a7.67,7.67,0,0,0-1.37,2.62,11.5,11.5,0,0,0-.5,3.43,11.27,11.27,0,0,0,.47,3.44,7.52,7.52,0,0,0,1.35,2.63,5.88,5.88,0,0,0,2.15,1.67,6.62,6.62,0,0,0,2.86.6A6.54,6.54,0,0,0,61,70.86a6,6,0,0,0,2.16-1.65,7.86,7.86,0,0,0,1.38-2.62A11.84,11.84,0,0,0,65,63.16,11.6,11.6,0,0,0,64.56,59.72Zm45.11-2.32a3.33,3.33,0,0,0-1.25-1.25,5.22,5.22,0,0,0-1.84-.66,13.11,13.11,0,0,0-2.22-.19c-1.24,0-2.19,0-2.85.08l0,8.16h2.19a18.32,18.32,0,0,0,2.7-.18,6.13,6.13,0,0,0,2-.66,3.23,3.23,0,0,0,1.28-1.26,4.34,4.34,0,0,0,.46-2.07A3.82,3.82,0,0,0,109.67,57.4Zm36.11,3.78q-.94-2.45-1.95-4.7c-.71,1.49-1.38,3.06-2,4.68s-1.28,3.31-1.9,5l7.74,0C147,64.5,146.4,62.81,145.78,61.18Zm-18-3.73a3.32,3.32,0,0,0-1.21-1.23,5.12,5.12,0,0,0-1.8-.64,11.86,11.86,0,0,0-2.2-.19c-1.24,0-2.19,0-2.85.07l0,7.83h2.07a22.2,22.2,0,0,0,2.7-.13,6.17,6.17,0,0,0,2-.57,3,3,0,0,0,1.28-1.17,4.09,4.09,0,0,0,.46-2A3.85,3.85,0,0,0,127.81,57.45Zm-18.14-.05a3.33,3.33,0,0,0-1.25-1.25,5.22,5.22,0,0,0-1.84-.66,13.11,13.11,0,0,0-2.22-.19c-1.24,0-2.19,0-2.85.08l0,8.16h2.19a18.32,18.32,0,0,0,2.7-.18,6.13,6.13,0,0,0,2-.66,3.23,3.23,0,0,0,1.28-1.26,4.34,4.34,0,0,0,.46-2.07A3.82,3.82,0,0,0,109.67,57.4ZM64.56,59.72a7.87,7.87,0,0,0-1.35-2.63,6,6,0,0,0-2.14-1.68,6.85,6.85,0,0,0-2.85-.6,7,7,0,0,0-2.87.57A6.09,6.09,0,0,0,53.18,57a7.67,7.67,0,0,0-1.37,2.62,11.5,11.5,0,0,0-.5,3.43,11.27,11.27,0,0,0,.47,3.44,7.52,7.52,0,0,0,1.35,2.63,5.88,5.88,0,0,0,2.15,1.67,6.62,6.62,0,0,0,2.86.6A6.54,6.54,0,0,0,61,70.86a6,6,0,0,0,2.16-1.65,7.86,7.86,0,0,0,1.38-2.62A11.84,11.84,0,0,0,65,63.16,11.6,11.6,0,0,0,64.56,59.72Zm81.22,1.46q-.94-2.45-1.95-4.7c-.71,1.49-1.38,3.06-2,4.68s-1.28,3.31-1.9,5l7.74,0C147,64.5,146.4,62.81,145.78,61.18Zm-18-3.73a3.32,3.32,0,0,0-1.21-1.23,5.12,5.12,0,0,0-1.8-.64,11.86,11.86,0,0,0-2.2-.19c-1.24,0-2.19,0-2.85.07l0,7.83h2.07a22.2,22.2,0,0,0,2.7-.13,6.17,6.17,0,0,0,2-.57,3,3,0,0,0,1.28-1.17,4.09,4.09,0,0,0,.46-2A3.85,3.85,0,0,0,127.81,57.45ZM64.56,59.72a7.87,7.87,0,0,0-1.35-2.63,6,6,0,0,0-2.14-1.68,6.85,6.85,0,0,0-2.85-.6,7,7,0,0,0-2.87.57A6.09,6.09,0,0,0,53.18,57a7.67,7.67,0,0,0-1.37,2.62,11.5,11.5,0,0,0-.5,3.43,11.27,11.27,0,0,0,.47,3.44,7.52,7.52,0,0,0,1.35,2.63,5.88,5.88,0,0,0,2.15,1.67,6.62,6.62,0,0,0,2.86.6A6.54,6.54,0,0,0,61,70.86a6,6,0,0,0,2.16-1.65,7.86,7.86,0,0,0,1.38-2.62A11.84,11.84,0,0,0,65,63.16,11.6,11.6,0,0,0,64.56,59.72Zm45.11-2.32a3.33,3.33,0,0,0-1.25-1.25,5.22,5.22,0,0,0-1.84-.66,13.11,13.11,0,0,0-2.22-.19c-1.24,0-2.19,0-2.85.08l0,8.16h2.19a18.32,18.32,0,0,0,2.7-.18,6.13,6.13,0,0,0,2-.66,3.23,3.23,0,0,0,1.28-1.26,4.34,4.34,0,0,0,.46-2.07A3.82,3.82,0,0,0,109.67,57.4Zm36.11,3.78q-.94-2.45-1.95-4.7c-.71,1.49-1.38,3.06-2,4.68s-1.28,3.31-1.9,5l7.74,0C147,64.5,146.4,62.81,145.78,61.18Zm-18-3.73a3.32,3.32,0,0,0-1.21-1.23,5.12,5.12,0,0,0-1.8-.64,11.86,11.86,0,0,0-2.2-.19c-1.24,0-2.19,0-2.85.07l0,7.83h2.07a22.2,22.2,0,0,0,2.7-.13,6.17,6.17,0,0,0,2-.57,3,3,0,0,0,1.28-1.17,4.09,4.09,0,0,0,.46-2A3.85,3.85,0,0,0,127.81,57.45Zm-18.14-.05a3.33,3.33,0,0,0-1.25-1.25,5.22,5.22,0,0,0-1.84-.66,13.11,13.11,0,0,0-2.22-.19c-1.24,0-2.19,0-2.85.08l0,8.16h2.19a18.32,18.32,0,0,0,2.7-.18,6.13,6.13,0,0,0,2-.66,3.23,3.23,0,0,0,1.28-1.26,4.34,4.34,0,0,0,.46-2.07A3.82,3.82,0,0,0,109.67,57.4ZM64.56,59.72a7.87,7.87,0,0,0-1.35-2.63,6,6,0,0,0-2.14-1.68,6.85,6.85,0,0,0-2.85-.6,7,7,0,0,0-2.87.57A6.09,6.09,0,0,0,53.18,57a7.67,7.67,0,0,0-1.37,2.62,11.5,11.5,0,0,0-.5,3.43,11.27,11.27,0,0,0,.47,3.44,7.52,7.52,0,0,0,1.35,2.63,5.88,5.88,0,0,0,2.15,1.67,6.62,6.62,0,0,0,2.86.6A6.54,6.54,0,0,0,61,70.86a6,6,0,0,0,2.16-1.65,7.86,7.86,0,0,0,1.38-2.62A11.84,11.84,0,0,0,65,63.16,11.6,11.6,0,0,0,64.56,59.72Zm81.22,1.46q-.94-2.45-1.95-4.7c-.71,1.49-1.38,3.06-2,4.68s-1.28,3.31-1.9,5l7.74,0C147,64.5,146.4,62.81,145.78,61.18Zm-18-3.73a3.32,3.32,0,0,0-1.21-1.23,5.12,5.12,0,0,0-1.8-.64,11.86,11.86,0,0,0-2.2-.19c-1.24,0-2.19,0-2.85.07l0,7.83h2.07a22.2,22.2,0,0,0,2.7-.13,6.17,6.17,0,0,0,2-.57,3,3,0,0,0,1.28-1.17,4.09,4.09,0,0,0,.46-2A3.85,3.85,0,0,0,127.81,57.45ZM64.56,59.72a7.87,7.87,0,0,0-1.35-2.63,6,6,0,0,0-2.14-1.68,6.85,6.85,0,0,0-2.85-.6,7,7,0,0,0-2.87.57A6.09,6.09,0,0,0,53.18,57a7.67,7.67,0,0,0-1.37,2.62,11.5,11.5,0,0,0-.5,3.43,11.27,11.27,0,0,0,.47,3.44,7.52,7.52,0,0,0,1.35,2.63,5.88,5.88,0,0,0,2.15,1.67,6.62,6.62,0,0,0,2.86.6A6.54,6.54,0,0,0,61,70.86a6,6,0,0,0,2.16-1.65,7.86,7.86,0,0,0,1.38-2.62A11.84,11.84,0,0,0,65,63.16,11.6,11.6,0,0,0,64.56,59.72Zm45.11-2.32a3.33,3.33,0,0,0-1.25-1.25,5.22,5.22,0,0,0-1.84-.66,13.11,13.11,0,0,0-2.22-.19c-1.24,0-2.19,0-2.85.08l0,8.16h2.19a18.32,18.32,0,0,0,2.7-.18,6.13,6.13,0,0,0,2-.66,3.23,3.23,0,0,0,1.28-1.26,4.34,4.34,0,0,0,.46-2.07A3.82,3.82,0,0,0,109.67,57.4Zm36.11,3.78q-.94-2.45-1.95-4.7c-.71,1.49-1.38,3.06-2,4.68s-1.28,3.31-1.9,5l7.74,0C147,64.5,146.4,62.81,145.78,61.18Zm-18-3.73a3.32,3.32,0,0,0-1.21-1.23,5.12,5.12,0,0,0-1.8-.64,11.86,11.86,0,0,0-2.2-.19c-1.24,0-2.19,0-2.85.07l0,7.83h2.07a22.2,22.2,0,0,0,2.7-.13,6.17,6.17,0,0,0,2-.57,3,3,0,0,0,1.28-1.17,4.09,4.09,0,0,0,.46-2A3.85,3.85,0,0,0,127.81,57.45Zm-18.14-.05a3.33,3.33,0,0,0-1.25-1.25,5.22,5.22,0,0,0-1.84-.66,13.11,13.11,0,0,0-2.22-.19c-1.24,0-2.19,0-2.85.08l0,8.16h2.19a18.32,18.32,0,0,0,2.7-.18,6.13,6.13,0,0,0,2-.66,3.23,3.23,0,0,0,1.28-1.26,4.34,4.34,0,0,0,.46-2.07A3.82,3.82,0,0,0,109.67,57.4ZM64.56,59.72a7.87,7.87,0,0,0-1.35-2.63,6,6,0,0,0-2.14-1.68,6.85,6.85,0,0,0-2.85-.6,7,7,0,0,0-2.87.57A6.09,6.09,0,0,0,53.18,57a7.67,7.67,0,0,0-1.37,2.62,11.5,11.5,0,0,0-.5,3.43,11.27,11.27,0,0,0,.47,3.44,7.52,7.52,0,0,0,1.35,2.63,5.88,5.88,0,0,0,2.15,1.67,6.62,6.62,0,0,0,2.86.6A6.54,6.54,0,0,0,61,70.86a6,6,0,0,0,2.16-1.65,7.86,7.86,0,0,0,1.38-2.62A11.84,11.84,0,0,0,65,63.16,11.6,11.6,0,0,0,64.56,59.72Zm0,0a7.87,7.87,0,0,0-1.35-2.63,6,6,0,0,0-2.14-1.68,6.85,6.85,0,0,0-2.85-.6,7,7,0,0,0-2.87.57A6.09,6.09,0,0,0,53.18,57a7.67,7.67,0,0,0-1.37,2.62,11.5,11.5,0,0,0-.5,3.43,11.27,11.27,0,0,0,.47,3.44,7.52,7.52,0,0,0,1.35,2.63,5.88,5.88,0,0,0,2.15,1.67,6.62,6.62,0,0,0,2.86.6A6.54,6.54,0,0,0,61,70.86a6,6,0,0,0,2.16-1.65,7.86,7.86,0,0,0,1.38-2.62A11.84,11.84,0,0,0,65,63.16,11.6,11.6,0,0,0,64.56,59.72Zm45.11-2.32a3.33,3.33,0,0,0-1.25-1.25,5.22,5.22,0,0,0-1.84-.66,13.11,13.11,0,0,0-2.22-.19c-1.24,0-2.19,0-2.85.08l0,8.16h2.19a18.32,18.32,0,0,0,2.7-.18,6.13,6.13,0,0,0,2-.66,3.23,3.23,0,0,0,1.28-1.26,4.34,4.34,0,0,0,.46-2.07A3.82,3.82,0,0,0,109.67,57.4Zm0,0a3.33,3.33,0,0,0-1.25-1.25,5.22,5.22,0,0,0-1.84-.66,13.11,13.11,0,0,0-2.22-.19c-1.24,0-2.19,0-2.85.08l0,8.16h2.19a18.32,18.32,0,0,0,2.7-.18,6.13,6.13,0,0,0,2-.66,3.23,3.23,0,0,0,1.28-1.26,4.34,4.34,0,0,0,.46-2.07A3.82,3.82,0,0,0,109.67,57.4ZM64.56,59.72a7.87,7.87,0,0,0-1.35-2.63,6,6,0,0,0-2.14-1.68,6.85,6.85,0,0,0-2.85-.6,7,7,0,0,0-2.87.57A6.09,6.09,0,0,0,53.18,57a7.67,7.67,0,0,0-1.37,2.62,11.5,11.5,0,0,0-.5,3.43,11.27,11.27,0,0,0,.47,3.44,7.52,7.52,0,0,0,1.35,2.63,5.88,5.88,0,0,0,2.15,1.67,6.62,6.62,0,0,0,2.86.6A6.54,6.54,0,0,0,61,70.86a6,6,0,0,0,2.16-1.65,7.86,7.86,0,0,0,1.38-2.62A11.84,11.84,0,0,0,65,63.16,11.6,11.6,0,0,0,64.56,59.72Zm0,0a7.87,7.87,0,0,0-1.35-2.63,6,6,0,0,0-2.14-1.68,6.85,6.85,0,0,0-2.85-.6,7,7,0,0,0-2.87.57A6.09,6.09,0,0,0,53.18,57a7.67,7.67,0,0,0-1.37,2.62,11.5,11.5,0,0,0-.5,3.43,11.27,11.27,0,0,0,.47,3.44,7.52,7.52,0,0,0,1.35,2.63,5.88,5.88,0,0,0,2.15,1.67,6.62,6.62,0,0,0,2.86.6A6.54,6.54,0,0,0,61,70.86a6,6,0,0,0,2.16-1.65,7.86,7.86,0,0,0,1.38-2.62A11.84,11.84,0,0,0,65,63.16,11.6,11.6,0,0,0,64.56,59.72Zm0,0a7.87,7.87,0,0,0-1.35-2.63,6,6,0,0,0-2.14-1.68,6.85,6.85,0,0,0-2.85-.6,7,7,0,0,0-2.87.57A6.09,6.09,0,0,0,53.18,57a7.67,7.67,0,0,0-1.37,2.62,11.5,11.5,0,0,0-.5,3.43,11.27,11.27,0,0,0,.47,3.44,7.52,7.52,0,0,0,1.35,2.63,5.88,5.88,0,0,0,2.15,1.67,6.62,6.62,0,0,0,2.86.6A6.54,6.54,0,0,0,61,70.86a6,6,0,0,0,2.16-1.65,7.86,7.86,0,0,0,1.38-2.62A11.84,11.84,0,0,0,65,63.16,11.6,11.6,0,0,0,64.56,59.72Z"/></g></svg>