<svg id="Layer_1" data-name="Layer 1" xmlns="http://www.w3.org/2000/svg" viewBox="0 0 370 128.54"><defs><style>.cls-1{fill:#fff;}</style></defs><title>Inglés</title><g id="_Grupo_" data-name="&lt;Grupo&gt;"><path class="cls-1" d="M70.91,61.78a3.25,3.25,0,0,0-1.16-1A6.56,6.56,0,0,0,68,60.23a12.73,12.73,0,0,0-2.1-.18c-.74,0-1.32,0-1.74,0s-.8.06-1.14.1V66.6h3.06a12.08,12.08,0,0,0,2-.15,4.83,4.83,0,0,0,1.67-.54,3,3,0,0,0,1.1-1,2.77,2.77,0,0,0,.4-1.58A2.56,2.56,0,0,0,70.91,61.78Zm1,9a2.94,2.94,0,0,0-1.12-1.12,5.21,5.21,0,0,0-1.76-.59,12.21,12.21,0,0,0-2.28-.19H63.05v7.32l.78,0,.92,0c.35,0,.75,0,1.21,0a19,19,0,0,0,2.45-.16,7,7,0,0,0,2-.59,3.52,3.52,0,0,0,1.39-1.17,3.15,3.15,0,0,0,.52-1.89A3.46,3.46,0,0,0,72,70.83Zm0,0a2.94,2.94,0,0,0-1.12-1.12,5.21,5.21,0,0,0-1.76-.59,12.21,12.21,0,0,0-2.28-.19H63.05v7.32l.78,0,.92,0c.35,0,.75,0,1.21,0a19,19,0,0,0,2.45-.16,7,7,0,0,0,2-.59,3.52,3.52,0,0,0,1.39-1.17,3.15,3.15,0,0,0,.52-1.89A3.46,3.46,0,0,0,72,70.83Zm-1-9a3.25,3.25,0,0,0-1.16-1A6.56,6.56,0,0,0,68,60.23a12.73,12.73,0,0,0-2.1-.18c-.74,0-1.32,0-1.74,0s-.8.06-1.14.1V66.6h3.06a12.08,12.08,0,0,0,2-.15,4.83,4.83,0,0,0,1.67-.54,3,3,0,0,0,1.1-1,2.77,2.77,0,0,0,.4-1.58A2.56,2.56,0,0,0,70.91,61.78Zm0,0a3.25,3.25,0,0,0-1.16-1A6.56,6.56,0,0,0,68,60.23a12.73,12.73,0,0,0-2.1-.18c-.74,0-1.32,0-1.74,0s-.8.06-1.14.1V66.6h3.06a12.08,12.08,0,0,0,2-.15,4.83,4.83,0,0,0,1.67-.54,3,3,0,0,0,1.1-1,2.77,2.77,0,0,0,.4-1.58A2.56,2.56,0,0,0,70.91,61.78Zm1,9a2.94,2.94,0,0,0-1.12-1.12,5.21,5.21,0,0,0-1.76-.59,12.21,12.21,0,0,0-2.28-.19H63.05v7.32l.78,0,.92,0c.35,0,.75,0,1.21,0a19,19,0,0,0,2.45-.16,7,7,0,0,0,2-.59,3.52,3.52,0,0,0,1.39-1.17,3.15,3.15,0,0,0,.52-1.89A3.46,3.46,0,0,0,72,70.83Zm0,0a2.94,2.94,0,0,0-1.12-1.12,5.21,5.21,0,0,0-1.76-.59,12.21,12.21,0,0,0-2.28-.19H63.05v7.32l.78,0,.92,0c.35,0,.75,0,1.21,0a19,19,0,0,0,2.45-.16,7,7,0,0,0,2-.59,3.52,3.52,0,0,0,1.39-1.17,3.15,3.15,0,0,0,.52-1.89A3.46,3.46,0,0,0,72,70.83Zm-1-9a3.25,3.25,0,0,0-1.16-1A6.56,6.56,0,0,0,68,60.23a12.73,12.73,0,0,0-2.1-.18c-.74,0-1.32,0-1.74,0s-.8.06-1.14.1V66.6h3.06a12.08,12.08,0,0,0,2-.15,4.83,4.83,0,0,0,1.67-.54,3,3,0,0,0,1.1-1,2.77,2.77,0,0,0,.4-1.58A2.56,2.56,0,0,0,70.91,61.78Zm0,0a3.25,3.25,0,0,0-1.16-1A6.56,6.56,0,0,0,68,60.23a12.73,12.73,0,0,0-2.1-.18c-.74,0-1.32,0-1.74,0s-.8.06-1.14.1V66.6h3.06a12.08,12.08,0,0,0,2-.15,4.83,4.83,0,0,0,1.67-.54,3,3,0,0,0,1.1-1,2.77,2.77,0,0,0,.4-1.58A2.56,2.56,0,0,0,70.91,61.78Zm1,9a2.94,2.94,0,0,0-1.12-1.12,5.21,5.21,0,0,0-1.76-.59,12.21,12.21,0,0,0-2.28-.19H63.05v7.32l.78,0,.92,0c.35,0,.75,0,1.21,0a19,19,0,0,0,2.45-.16,7,7,0,0,0,2-.59,3.52,3.52,0,0,0,1.39-1.17,3.15,3.15,0,0,0,.52-1.89A3.46,3.46,0,0,0,72,70.83Zm0,0a2.94,2.94,0,0,0-1.12-1.12,5.21,5.21,0,0,0-1.76-.59,12.21,12.21,0,0,0-2.28-.19H63.05v7.32l.78,0,.92,0c.35,0,.75,0,1.21,0a19,19,0,0,0,2.45-.16,7,7,0,0,0,2-.59,3.52,3.52,0,0,0,1.39-1.17,3.15,3.15,0,0,0,.52-1.89A3.46,3.46,0,0,0,72,70.83Zm-1-9a3.25,3.25,0,0,0-1.16-1A6.56,6.56,0,0,0,68,60.23a12.73,12.73,0,0,0-2.1-.18c-.74,0-1.32,0-1.74,0s-.8.06-1.14.1V66.6h3.06a12.08,12.08,0,0,0,2-.15,4.83,4.83,0,0,0,1.67-.54,3,3,0,0,0,1.1-1,2.77,2.77,0,0,0,.4-1.58A2.56,2.56,0,0,0,70.91,61.78Zm0,0a3.25,3.25,0,0,0-1.16-1A6.56,6.56,0,0,0,68,60.23a12.73,12.73,0,0,0-2.1-.18c-.74,0-1.32,0-1.74,0s-.8.06-1.14.1V66.6h3.06a12.08,12.08,0,0,0,2-.15,4.83,4.83,0,0,0,1.67-.54,3,3,0,0,0,1.1-1,2.77,2.77,0,0,0,.4-1.58A2.56,2.56,0,0,0,70.91,61.78Zm1,9a2.94,2.94,0,0,0-1.12-1.12,5.21,5.21,0,0,0-1.76-.59,12.21,12.21,0,0,0-2.28-.19H63.05v7.32l.78,0,.92,0c.35,0,.75,0,1.21,0a19,19,0,0,0,2.45-.16,7,7,0,0,0,2-.59,3.52,3.52,0,0,0,1.39-1.17,3.15,3.15,0,0,0,.52-1.89A3.46,3.46,0,0,0,72,70.83ZM281.71,64.7a7.71,7.71,0,0,0-1.36-2.63,6.13,6.13,0,0,0-2.15-1.66,6.54,6.54,0,0,0-2.85-.58,6.62,6.62,0,0,0-2.86.58,6,6,0,0,0-2.16,1.66A7.81,7.81,0,0,0,269,64.7a11.84,11.84,0,0,0-.48,3.43,11.57,11.57,0,0,0,.49,3.44,7.4,7.4,0,0,0,1.36,2.62,6.05,6.05,0,0,0,2.16,1.67,7,7,0,0,0,2.87.59,6.88,6.88,0,0,0,2.85-.59,5.82,5.82,0,0,0,2.14-1.67,7.85,7.85,0,0,0,1.37-2.62,11.63,11.63,0,0,0,.47-3.44A10.86,10.86,0,0,0,281.71,64.7Zm0,0a7.71,7.71,0,0,0-1.36-2.63,6.13,6.13,0,0,0-2.15-1.66,6.54,6.54,0,0,0-2.85-.58,6.62,6.62,0,0,0-2.86.58,6,6,0,0,0-2.16,1.66A7.81,7.81,0,0,0,269,64.7a11.84,11.84,0,0,0-.48,3.43,11.57,11.57,0,0,0,.49,3.44,7.4,7.4,0,0,0,1.36,2.62,6.05,6.05,0,0,0,2.16,1.67,7,7,0,0,0,2.87.59,6.88,6.88,0,0,0,2.85-.59,5.82,5.82,0,0,0,2.14-1.67,7.85,7.85,0,0,0,1.37-2.62,11.63,11.63,0,0,0,.47-3.44A10.86,10.86,0,0,0,281.71,64.7ZM72,70.83a2.94,2.94,0,0,0-1.12-1.12,5.21,5.21,0,0,0-1.76-.59,12.21,12.21,0,0,0-2.28-.19H63.05v7.32l.78,0,.92,0c.35,0,.75,0,1.21,0a19,19,0,0,0,2.45-.16,7,7,0,0,0,2-.59,3.52,3.52,0,0,0,1.39-1.17,3.15,3.15,0,0,0,.52-1.89A3.46,3.46,0,0,0,72,70.83Zm-1-9a3.25,3.25,0,0,0-1.16-1A6.56,6.56,0,0,0,68,60.23a12.73,12.73,0,0,0-2.1-.18c-.74,0-1.32,0-1.74,0s-.8.06-1.14.1V66.6h3.06a12.08,12.08,0,0,0,2-.15,4.83,4.83,0,0,0,1.67-.54,3,3,0,0,0,1.1-1,2.77,2.77,0,0,0,.4-1.58A2.56,2.56,0,0,0,70.91,61.78Zm0,0a3.25,3.25,0,0,0-1.16-1A6.56,6.56,0,0,0,68,60.23a12.73,12.73,0,0,0-2.1-.18c-.74,0-1.32,0-1.74,0s-.8.06-1.14.1V66.6h3.06a12.08,12.08,0,0,0,2-.15,4.83,4.83,0,0,0,1.67-.54,3,3,0,0,0,1.1-1,2.77,2.77,0,0,0,.4-1.58A2.56,2.56,0,0,0,70.91,61.78Zm1,9a2.94,2.94,0,0,0-1.12-1.12,5.21,5.21,0,0,0-1.76-.59,12.21,12.21,0,0,0-2.28-.19H63.05v7.32l.78,0,.92,0c.35,0,.75,0,1.21,0a19,19,0,0,0,2.45-.16,7,7,0,0,0,2-.59,3.52,3.52,0,0,0,1.39-1.17,3.15,3.15,0,0,0,.52-1.89A3.46,3.46,0,0,0,72,70.83ZM281.71,64.7a7.71,7.71,0,0,0-1.36-2.63,6.13,6.13,0,0,0-2.15-1.66,6.54,6.54,0,0,0-2.85-.58,6.62,6.62,0,0,0-2.86.58,6,6,0,0,0-2.16,1.66A7.81,7.81,0,0,0,269,64.7a11.84,11.84,0,0,0-.48,3.43,11.57,11.57,0,0,0,.49,3.44,7.4,7.4,0,0,0,1.36,2.62,6.05,6.05,0,0,0,2.16,1.67,7,7,0,0,0,2.87.59,6.88,6.88,0,0,0,2.85-.59,5.82,5.82,0,0,0,2.14-1.67,7.85,7.85,0,0,0,1.37-2.62,11.63,11.63,0,0,0,.47-3.44A10.86,10.86,0,0,0,281.71,64.7Zm0,0a7.71,7.71,0,0,0-1.36-2.63,6.13,6.13,0,0,0-2.15-1.66,6.54,6.54,0,0,0-2.85-.58,6.62,6.62,0,0,0-2.86.58,6,6,0,0,0-2.16,1.66A7.81,7.81,0,0,0,269,64.7a11.84,11.84,0,0,0-.48,3.43,11.57,11.57,0,0,0,.49,3.44,7.4,7.4,0,0,0,1.36,2.62,6.05,6.05,0,0,0,2.16,1.67,7,7,0,0,0,2.87.59,6.88,6.88,0,0,0,2.85-.59,5.82,5.82,0,0,0,2.14-1.67,7.85,7.85,0,0,0,1.37-2.62,11.63,11.63,0,0,0,.47-3.44A10.86,10.86,0,0,0,281.71,64.7ZM72,70.83a2.94,2.94,0,0,0-1.12-1.12,5.21,5.21,0,0,0-1.76-.59,12.21,12.21,0,0,0-2.28-.19H63.05v7.32l.78,0,.92,0c.35,0,.75,0,1.21,0a19,19,0,0,0,2.45-.16,7,7,0,0,0,2-.59,3.52,3.52,0,0,0,1.39-1.17,3.15,3.15,0,0,0,.52-1.89A3.46,3.46,0,0,0,72,70.83Zm-1-9a3.25,3.25,0,0,0-1.16-1A6.56,6.56,0,0,0,68,60.23a12.73,12.73,0,0,0-2.1-.18c-.74,0-1.32,0-1.74,0s-.8.06-1.14.1V66.6h3.06a12.08,12.08,0,0,0,2-.15,4.83,4.83,0,0,0,1.67-.54,3,3,0,0,0,1.1-1,2.77,2.77,0,0,0,.4-1.58A2.56,2.56,0,0,0,70.91,61.78Zm0,0a3.25,3.25,0,0,0-1.16-1A6.56,6.56,0,0,0,68,60.23a12.73,12.73,0,0,0-2.1-.18c-.74,0-1.32,0-1.74,0s-.8.06-1.14.1V66.6h3.06a12.08,12.08,0,0,0,2-.15,4.83,4.83,0,0,0,1.67-.54,3,3,0,0,0,1.1-1,2.77,2.77,0,0,0,.4-1.58A2.56,2.56,0,0,0,70.91,61.78Zm1,9a2.94,2.94,0,0,0-1.12-1.12,5.21,5.21,0,0,0-1.76-.59,12.21,12.21,0,0,0-2.28-.19H63.05v7.32l.78,0,.92,0c.35,0,.75,0,1.21,0a19,19,0,0,0,2.45-.16,7,7,0,0,0,2-.59,3.52,3.52,0,0,0,1.39-1.17,3.15,3.15,0,0,0,.52-1.89A3.46,3.46,0,0,0,72,70.83ZM281.71,64.7a7.71,7.71,0,0,0-1.36-2.63,6.13,6.13,0,0,0-2.15-1.66,6.54,6.54,0,0,0-2.85-.58,6.62,6.62,0,0,0-2.86.58,6,6,0,0,0-2.16,1.66A7.81,7.81,0,0,0,269,64.7a11.84,11.84,0,0,0-.48,3.43,11.57,11.57,0,0,0,.49,3.44,7.4,7.4,0,0,0,1.36,2.62,6.05,6.05,0,0,0,2.16,1.67,7,7,0,0,0,2.87.59,6.88,6.88,0,0,0,2.85-.59,5.82,5.82,0,0,0,2.14-1.67,7.85,7.85,0,0,0,1.37-2.62,11.63,11.63,0,0,0,.47-3.44A10.86,10.86,0,0,0,281.71,64.7Zm0,0a7.71,7.71,0,0,0-1.36-2.63,6.13,6.13,0,0,0-2.15-1.66,6.54,6.54,0,0,0-2.85-.58,6.62,6.62,0,0,0-2.86.58,6,6,0,0,0-2.16,1.66A7.81,7.81,0,0,0,269,64.7a11.84,11.84,0,0,0-.48,3.43,11.57,11.57,0,0,0,.49,3.44,7.4,7.4,0,0,0,1.36,2.62,6.05,6.05,0,0,0,2.16,1.67,7,7,0,0,0,2.87.59,6.88,6.88,0,0,0,2.85-.59,5.82,5.82,0,0,0,2.14-1.67,7.85,7.85,0,0,0,1.37-2.62,11.63,11.63,0,0,0,.47-3.44A10.86,10.86,0,0,0,281.71,64.7ZM72,70.83a2.94,2.94,0,0,0-1.12-1.12,5.21,5.21,0,0,0-1.76-.59,12.21,12.21,0,0,0-2.28-.19H63.05v7.32l.78,0,.92,0c.35,0,.75,0,1.21,0a19,19,0,0,0,2.45-.16,7,7,0,0,0,2-.59,3.52,3.52,0,0,0,1.39-1.17,3.15,3.15,0,0,0,.52-1.89A3.46,3.46,0,0,0,72,70.83Zm-3.81-4.39a4.83,4.83,0,0,0,1.67-.54,3,3,0,0,0,1.1-1,2.77,2.77,0,0,0,.4-1.58,2.56,2.56,0,0,0-.41-1.52,3.25,3.25,0,0,0-1.16-1A6.56,6.56,0,0,0,68,60.23a12.73,12.73,0,0,0-2.1-.18c-.74,0-1.32,0-1.74,0s-.8.06-1.14.1V66.6h3.06A12.08,12.08,0,0,0,68.15,66.44Zm301.9-59V-.18L-.1,0V7.54H.1A10.44,10.44,0,0,1,10.55,18,10.46,10.46,0,0,1,.11,28.44H-.08v9.8H.11A10.44,10.44,0,0,1,10.56,48.66,10.45,10.45,0,0,1,.11,59.12H-.08v9.81H.12A10.45,10.45,0,0,1,10.58,79.35,10.47,10.47,0,0,1,.13,89.81H-.06v9.81H.13A10.44,10.44,0,0,1,10.58,110,10.44,10.44,0,0,1,.13,120.5H-.06v8.23l370.15-.13v-8.23A10.43,10.43,0,0,1,359.65,110v-.06a10.45,10.45,0,0,1,10.45-10.45V89.68a10.45,10.45,0,0,1-10.45-10.39v-.06a10.46,10.46,0,0,1,10.45-10.46V59a10.47,10.47,0,0,1-10.47-10.41v0a10.45,10.45,0,0,1,10.46-10.45V28.3a10.45,10.45,0,0,1-10.45-10.39v-.06A10.44,10.44,0,0,1,370.05,7.4ZM201.35,20.6l1.38-4.24,1.38,4.24h4.46L205,23.23l1.37,4.24-3.6-2.62-3.61,2.62,1.38-4.24-3.61-2.62Zm-17.16,0,1.38-4.25L187,20.61h4.46l-3.61,2.63,1.38,4.25-3.61-2.63L182,27.47l1.38-4.23-3.61-2.63Zm-17.15,0,1.38-4.25,1.38,4.24h4.46l-3.61,2.63L172,27.48l-3.61-2.62-3.61,2.62,1.38-4.24-3.61-2.62Zm-94,56.61c-1.53,1-4,1.58-7.28,1.57-.42,0-.87,0-1.36,0s-1,0-1.47-.08l-1.46-.15a9.4,9.4,0,0,1-1.32-.25V58.13a11.25,11.25,0,0,1,1.32-.23c.48-.07,1-.12,1.46-.15s1-.08,1.45-.1l1.35,0a19.8,19.8,0,0,1,3.37.28,8.51,8.51,0,0,1,2.73.9,5.14,5.14,0,0,1,1.82,1.7,4.85,4.85,0,0,1,.66,2.58,4.58,4.58,0,0,1-.81,2.8,4.9,4.9,0,0,1-2.16,1.65,6.18,6.18,0,0,1,2.91,1.7,4.69,4.69,0,0,1,1.08,3.3A5.32,5.32,0,0,1,73.06,77.23Zm22-6.36a11.24,11.24,0,0,1-.46,3.25,6.89,6.89,0,0,1-1.45,2.58,6.69,6.69,0,0,1-2.45,1.74,9.2,9.2,0,0,1-3.53.63,9.1,9.1,0,0,1-3.54-.64,6.67,6.67,0,0,1-2.46-1.71,7,7,0,0,1-1.42-2.6,10.62,10.62,0,0,1-.47-3.24v-13h2.91V70.55c0,2.08.46,3.59,1.38,4.52a4.82,4.82,0,0,0,3.6,1.42,5.73,5.73,0,0,0,2-.36,3.82,3.82,0,0,0,1.57-1,5,5,0,0,0,1-1.85,8.89,8.89,0,0,0,.36-2.69V57.82h2.91ZM108,78.61h-2.91V70.26q-2.07-3.2-3.9-6.32T97.7,57.82h3.42c.76,1.64,1.6,3.31,2.55,5s1.91,3.32,2.91,4.88c1-1.56,1.94-3.18,2.88-4.88s1.8-3.36,2.58-5h3.24c-1.08,2-2.23,4-3.45,6.11s-2.51,4.17-3.87,6.29Zm64.1,34.75-3.61-2.62-3.61,2.63,1.38-4.25-3.61-2.62h4.47l1.36-4.24,1.39,4.25h4.46l-3.61,2.62Zm17.16,0-3.61-2.62L182,113.36l1.37-4.24-3.6-2.62h4.46l1.37-4.23L187,106.5h4.46l-3.61,2.61Zm17.15,0-3.61-2.62-3.61,2.63,1.38-4.25-3.61-2.62h4.46l1.37-4.24,1.39,4.24h4.46L205,109.11Zm57.48-24-155.58.06V88l155.57-.06Zm-141-29V57.81h16v2.52h-6.54V78.6h-2.91V60.33Zm19,18.27V57.81h2.91V78.59Zm10.76-7A7.29,7.29,0,0,0,154,74.2a6,6,0,0,0,2.18,1.69,7.17,7.17,0,0,0,3,.6,11.16,11.16,0,0,0,3.33-.42,16.15,16.15,0,0,0,2-.75l.75,2.4a4.28,4.28,0,0,1-.75.37,10.22,10.22,0,0,1-1.35.44,17.19,17.19,0,0,1-4.22.51,10.71,10.71,0,0,1-4-.72,8.57,8.57,0,0,1-3.09-2.1,9.69,9.69,0,0,1-2-3.4,14.37,14.37,0,0,1-.7-4.64,12.38,12.38,0,0,1,.8-4.63,9.54,9.54,0,0,1,2.14-3.4A8.92,8.92,0,0,1,155.24,58a10.24,10.24,0,0,1,3.84-.72,13.66,13.66,0,0,1,2.32.18,12.67,12.67,0,0,1,1.8.42,8.63,8.63,0,0,1,1.24.47c.32.17.54.29.66.37l-.84,2.39a4.74,4.74,0,0,0-.78-.38c-.34-.14-.72-.28-1.15-.43s-.9-.24-1.41-.34a8.81,8.81,0,0,0-1.54-.13,7.5,7.5,0,0,0-3,.57,6.11,6.11,0,0,0-2.24,1.65,7.37,7.37,0,0,0-1.43,2.62,11.07,11.07,0,0,0-.49,3.47A12,12,0,0,0,152.68,71.57Zm21.12-6.84c.85-.82,1.67-1.65,2.5-2.5s1.59-1.65,2.32-2.41,1.34-1.45,1.85-2H184c-.63.68-1.32,1.44-2.1,2.26s-1.6,1.68-2.45,2.56l-2.53,2.56c-.84.84-1.64,1.63-2.37,2.34a29.4,29.4,0,0,1,2.73,2.22q1.44,1.32,2.82,2.82c.92,1,1.78,2,2.6,3.06a27.06,27.06,0,0,1,2,3h-3.42a28.22,28.22,0,0,0-2.07-2.83c-.78-1-1.6-1.86-2.47-2.73s-1.75-1.68-2.65-2.42a23,23,0,0,0-2.59-1.88v9.87h-2.91V57.79h2.91V67C172.2,66.31,173,65.57,173.8,64.73Zm25.27,1.73v2.43h-8.7v7.2H200.9v2.49H187.46V57.79h12.69v2.49h-9.78v6.18Zm3.41-6.16V57.78h16V60.3h-6.54V78.57H209V60.3Zm28,11.44a3.81,3.81,0,0,0-1.1-1.17,7.33,7.33,0,0,0-1.57-.86c-.59-.24-1.21-.47-1.87-.72a17.69,17.69,0,0,1-2.16-.88A7.84,7.84,0,0,1,222,66.94a5,5,0,0,1-1.18-1.6,5.28,5.28,0,0,1-.43-2.25,5.22,5.22,0,0,1,1.85-4.26,7.82,7.82,0,0,1,5.14-1.54,14.48,14.48,0,0,1,3.43.4,8.41,8.41,0,0,1,2.26.89L232.18,61a7.74,7.74,0,0,0-1.87-.76,10.43,10.43,0,0,0-2.89-.38,7.61,7.61,0,0,0-1.57.18,3.8,3.8,0,0,0-1.26.55,2.64,2.64,0,0,0-.85.91,2.58,2.58,0,0,0-.32,1.3,3,3,0,0,0,.33,1.41,3.2,3.2,0,0,0,.94,1,7.92,7.92,0,0,0,1.39.79c.53.25,1.11.48,1.75.72.91.37,1.73.72,2.48,1.09a8,8,0,0,1,2,1.28,5.15,5.15,0,0,1,1.26,1.79,6.07,6.07,0,0,1,.46,2.5,4.92,4.92,0,0,1-2,4.2A9.31,9.31,0,0,1,226.37,79a15.64,15.64,0,0,1-2.26-.17,16.47,16.47,0,0,1-1.85-.39,12.65,12.65,0,0,1-1.4-.47c-.39-.18-.69-.32-.91-.44l.87-2.4a14.14,14.14,0,0,0,2.1.87,11.39,11.39,0,0,0,3.45.48q4.56,0,4.56-3.13A3.2,3.2,0,0,0,230.52,71.74Zm13.91,6.82V57.77h2.31c.94,1,2,2.17,3,3.5s2.13,2.7,3.18,4.11,2,2.79,3,4.16,1.72,2.56,2.36,3.63V57.77h2.85V78.55h-2.43c-.44-.73-.94-1.57-1.52-2.49s-1.18-1.87-1.84-2.86-1.34-2-2.06-3-1.42-2-2.11-3-1.38-1.84-2.05-2.69-1.27-1.57-1.83-2.22V78.55Zm19.4-35.77-155.58.05V41.45l155.59-.06ZM284.5,72.84a9.94,9.94,0,0,1-2.15,3.41,9,9,0,0,1-3.14,2.06,10.58,10.58,0,0,1-3.79.69,11,11,0,0,1-3.86-.69,9.18,9.18,0,0,1-3.18-2.06,9.7,9.7,0,0,1-2.15-3.4,14.18,14.18,0,0,1,0-9.42A9.71,9.71,0,0,1,268.38,60,8.79,8.79,0,0,1,271.56,58a10.57,10.57,0,0,1,3.86-.69,10.24,10.24,0,0,1,3.79.69A8.68,8.68,0,0,1,282.34,60a9.94,9.94,0,0,1,2.15,3.4,14.52,14.52,0,0,1,0,9.42Zm26.79-4c-.82,3.39-1.74,6.63-2.78,9.68H305.6c-.88-2.16-1.74-4.39-2.58-6.66s-1.68-4.76-2.53-7.44q-1.25,4-2.54,7.43t-2.58,6.67h-2.91a98.56,98.56,0,0,1-2.8-9.69q-1.23-5.1-2.28-11.1h3.06c.29,1.56.57,3.12.87,4.68s.62,3.07.94,4.54.64,2.88,1,4.22.65,2.57,1,3.72c.8-2.1,1.64-4.41,2.55-6.92s1.74-5.1,2.51-7.78h2.52c.79,2.69,1.64,5.28,2.56,7.79s1.78,4.81,2.58,6.92c.32-1.12.63-2.35,1-3.7s.63-2.74.95-4.21.6-3,.9-4.57.6-3.13.87-4.69h3Q312.49,63.74,311.29,68.85Zm-30.94-6.78a6.13,6.13,0,0,0-2.15-1.66,6.54,6.54,0,0,0-2.85-.58,6.62,6.62,0,0,0-2.86.58,6,6,0,0,0-2.16,1.66A7.81,7.81,0,0,0,269,64.7a11.84,11.84,0,0,0-.48,3.43,11.57,11.57,0,0,0,.49,3.44,7.4,7.4,0,0,0,1.36,2.62,6.05,6.05,0,0,0,2.16,1.67,7,7,0,0,0,2.87.59,6.88,6.88,0,0,0,2.85-.59,5.82,5.82,0,0,0,2.14-1.67,7.85,7.85,0,0,0,1.37-2.62,11.63,11.63,0,0,0,.47-3.44,10.86,10.86,0,0,0-.48-3.43A7.71,7.71,0,0,0,280.35,62.07ZM70.84,69.71a5.21,5.21,0,0,0-1.76-.59,12.21,12.21,0,0,0-2.28-.19H63.05v7.32l.78,0,.92,0c.35,0,.75,0,1.21,0a19,19,0,0,0,2.45-.16,7,7,0,0,0,2-.59,3.52,3.52,0,0,0,1.39-1.17,3.15,3.15,0,0,0,.52-1.89A3.46,3.46,0,0,0,72,70.83,2.94,2.94,0,0,0,70.84,69.71Zm-2.69-3.27a4.83,4.83,0,0,0,1.67-.54,3,3,0,0,0,1.1-1,2.77,2.77,0,0,0,.4-1.58,2.56,2.56,0,0,0-.41-1.52,3.25,3.25,0,0,0-1.16-1A6.56,6.56,0,0,0,68,60.23a12.73,12.73,0,0,0-2.1-.18c-.74,0-1.32,0-1.74,0s-.8.06-1.14.1V66.6h3.06A12.08,12.08,0,0,0,68.15,66.44Zm2.76-4.66a3.25,3.25,0,0,0-1.16-1A6.56,6.56,0,0,0,68,60.23a12.73,12.73,0,0,0-2.1-.18c-.74,0-1.32,0-1.74,0s-.8.06-1.14.1V66.6h3.06a12.08,12.08,0,0,0,2-.15,4.83,4.83,0,0,0,1.67-.54,3,3,0,0,0,1.1-1,2.77,2.77,0,0,0,.4-1.58A2.56,2.56,0,0,0,70.91,61.78Zm1,9a2.94,2.94,0,0,0-1.12-1.12,5.21,5.21,0,0,0-1.76-.59,12.21,12.21,0,0,0-2.28-.19H63.05v7.32l.78,0,.92,0c.35,0,.75,0,1.21,0a19,19,0,0,0,2.45-.16,7,7,0,0,0,2-.59,3.52,3.52,0,0,0,1.39-1.17,3.15,3.15,0,0,0,.52-1.89A3.46,3.46,0,0,0,72,70.83ZM281.71,64.7a7.71,7.71,0,0,0-1.36-2.63,6.13,6.13,0,0,0-2.15-1.66,6.54,6.54,0,0,0-2.85-.58,6.62,6.62,0,0,0-2.86.58,6,6,0,0,0-2.16,1.66A7.81,7.81,0,0,0,269,64.7a11.84,11.84,0,0,0-.48,3.43,11.57,11.57,0,0,0,.49,3.44,7.4,7.4,0,0,0,1.36,2.62,6.05,6.05,0,0,0,2.16,1.67,7,7,0,0,0,2.87.59,6.88,6.88,0,0,0,2.85-.59,5.82,5.82,0,0,0,2.14-1.67,7.85,7.85,0,0,0,1.37-2.62,11.63,11.63,0,0,0,.47-3.44A10.86,10.86,0,0,0,281.71,64.7Zm0,0a7.71,7.71,0,0,0-1.36-2.63,6.13,6.13,0,0,0-2.15-1.66,6.54,6.54,0,0,0-2.85-.58,6.62,6.62,0,0,0-2.86.58,6,6,0,0,0-2.16,1.66A7.81,7.81,0,0,0,269,64.7a11.84,11.84,0,0,0-.48,3.43,11.57,11.57,0,0,0,.49,3.44,7.4,7.4,0,0,0,1.36,2.62,6.05,6.05,0,0,0,2.16,1.67,7,7,0,0,0,2.87.59,6.88,6.88,0,0,0,2.85-.59,5.82,5.82,0,0,0,2.14-1.67,7.85,7.85,0,0,0,1.37-2.62,11.63,11.63,0,0,0,.47-3.44A10.86,10.86,0,0,0,281.71,64.7ZM72,70.83a2.94,2.94,0,0,0-1.12-1.12,5.21,5.21,0,0,0-1.76-.59,12.21,12.21,0,0,0-2.28-.19H63.05v7.32l.78,0,.92,0c.35,0,.75,0,1.21,0a19,19,0,0,0,2.45-.16,7,7,0,0,0,2-.59,3.52,3.52,0,0,0,1.39-1.17,3.15,3.15,0,0,0,.52-1.89A3.46,3.46,0,0,0,72,70.83Zm-1-9a3.25,3.25,0,0,0-1.16-1A6.56,6.56,0,0,0,68,60.23a12.73,12.73,0,0,0-2.1-.18c-.74,0-1.32,0-1.74,0s-.8.06-1.14.1V66.6h3.06a12.08,12.08,0,0,0,2-.15,4.83,4.83,0,0,0,1.67-.54,3,3,0,0,0,1.1-1,2.77,2.77,0,0,0,.4-1.58A2.56,2.56,0,0,0,70.91,61.78Zm0,0a3.25,3.25,0,0,0-1.16-1A6.56,6.56,0,0,0,68,60.23a12.73,12.73,0,0,0-2.1-.18c-.74,0-1.32,0-1.74,0s-.8.06-1.14.1V66.6h3.06a12.08,12.08,0,0,0,2-.15,4.83,4.83,0,0,0,1.67-.54,3,3,0,0,0,1.1-1,2.77,2.77,0,0,0,.4-1.58A2.56,2.56,0,0,0,70.91,61.78Zm1,9a2.94,2.94,0,0,0-1.12-1.12,5.21,5.21,0,0,0-1.76-.59,12.21,12.21,0,0,0-2.28-.19H63.05v7.32l.78,0,.92,0c.35,0,.75,0,1.21,0a19,19,0,0,0,2.45-.16,7,7,0,0,0,2-.59,3.52,3.52,0,0,0,1.39-1.17,3.15,3.15,0,0,0,.52-1.89A3.46,3.46,0,0,0,72,70.83ZM281.71,64.7a7.71,7.71,0,0,0-1.36-2.63,6.13,6.13,0,0,0-2.15-1.66,6.54,6.54,0,0,0-2.85-.58,6.62,6.62,0,0,0-2.86.58,6,6,0,0,0-2.16,1.66A7.81,7.81,0,0,0,269,64.7a11.84,11.84,0,0,0-.48,3.43,11.57,11.57,0,0,0,.49,3.44,7.4,7.4,0,0,0,1.36,2.62,6.05,6.05,0,0,0,2.16,1.67,7,7,0,0,0,2.87.59,6.88,6.88,0,0,0,2.85-.59,5.82,5.82,0,0,0,2.14-1.67,7.85,7.85,0,0,0,1.37-2.62,11.63,11.63,0,0,0,.47-3.44A10.86,10.86,0,0,0,281.71,64.7Zm0,0a7.71,7.71,0,0,0-1.36-2.63,6.13,6.13,0,0,0-2.15-1.66,6.54,6.54,0,0,0-2.85-.58,6.62,6.62,0,0,0-2.86.58,6,6,0,0,0-2.16,1.66A7.81,7.81,0,0,0,269,64.7a11.84,11.84,0,0,0-.48,3.43,11.57,11.57,0,0,0,.49,3.44,7.4,7.4,0,0,0,1.36,2.62,6.05,6.05,0,0,0,2.16,1.67,7,7,0,0,0,2.87.59,6.88,6.88,0,0,0,2.85-.59,5.82,5.82,0,0,0,2.14-1.67,7.85,7.85,0,0,0,1.37-2.62,11.63,11.63,0,0,0,.47-3.44A10.86,10.86,0,0,0,281.71,64.7ZM72,70.83a2.94,2.94,0,0,0-1.12-1.12,5.21,5.21,0,0,0-1.76-.59,12.21,12.21,0,0,0-2.28-.19H63.05v7.32l.78,0,.92,0c.35,0,.75,0,1.21,0a19,19,0,0,0,2.45-.16,7,7,0,0,0,2-.59,3.52,3.52,0,0,0,1.39-1.17,3.15,3.15,0,0,0,.52-1.89A3.46,3.46,0,0,0,72,70.83Zm-1-9a3.25,3.25,0,0,0-1.16-1A6.56,6.56,0,0,0,68,60.23a12.73,12.73,0,0,0-2.1-.18c-.74,0-1.32,0-1.74,0s-.8.06-1.14.1V66.6h3.06a12.08,12.08,0,0,0,2-.15,4.83,4.83,0,0,0,1.67-.54,3,3,0,0,0,1.1-1,2.77,2.77,0,0,0,.4-1.58A2.56,2.56,0,0,0,70.91,61.78Zm0,0a3.25,3.25,0,0,0-1.16-1A6.56,6.56,0,0,0,68,60.23a12.73,12.73,0,0,0-2.1-.18c-.74,0-1.32,0-1.74,0s-.8.06-1.14.1V66.6h3.06a12.08,12.08,0,0,0,2-.15,4.83,4.83,0,0,0,1.67-.54,3,3,0,0,0,1.1-1,2.77,2.77,0,0,0,.4-1.58A2.56,2.56,0,0,0,70.91,61.78Zm1,9a2.94,2.94,0,0,0-1.12-1.12,5.21,5.21,0,0,0-1.76-.59,12.21,12.21,0,0,0-2.28-.19H63.05v7.32l.78,0,.92,0c.35,0,.75,0,1.21,0a19,19,0,0,0,2.45-.16,7,7,0,0,0,2-.59,3.52,3.52,0,0,0,1.39-1.17,3.15,3.15,0,0,0,.52-1.89A3.46,3.46,0,0,0,72,70.83ZM281.71,64.7a7.71,7.71,0,0,0-1.36-2.63,6.13,6.13,0,0,0-2.15-1.66,6.54,6.54,0,0,0-2.85-.58,6.62,6.62,0,0,0-2.86.58,6,6,0,0,0-2.16,1.66A7.81,7.81,0,0,0,269,64.7a11.84,11.84,0,0,0-.48,3.43,11.57,11.57,0,0,0,.49,3.44,7.4,7.4,0,0,0,1.36,2.62,6.05,6.05,0,0,0,2.16,1.67,7,7,0,0,0,2.87.59,6.88,6.88,0,0,0,2.85-.59,5.82,5.82,0,0,0,2.14-1.67,7.85,7.85,0,0,0,1.37-2.62,11.63,11.63,0,0,0,.47-3.44A10.86,10.86,0,0,0,281.71,64.7Zm0,0a7.71,7.71,0,0,0-1.36-2.63,6.13,6.13,0,0,0-2.15-1.66,6.54,6.54,0,0,0-2.85-.58,6.62,6.62,0,0,0-2.86.58,6,6,0,0,0-2.16,1.66A7.81,7.81,0,0,0,269,64.7a11.84,11.84,0,0,0-.48,3.43,11.57,11.57,0,0,0,.49,3.44,7.4,7.4,0,0,0,1.36,2.62,6.05,6.05,0,0,0,2.16,1.67,7,7,0,0,0,2.87.59,6.88,6.88,0,0,0,2.85-.59,5.82,5.82,0,0,0,2.14-1.67,7.85,7.85,0,0,0,1.37-2.62,11.63,11.63,0,0,0,.47-3.44A10.86,10.86,0,0,0,281.71,64.7ZM72,70.83a2.94,2.94,0,0,0-1.12-1.12,5.21,5.21,0,0,0-1.76-.59,12.21,12.21,0,0,0-2.28-.19H63.05v7.32l.78,0,.92,0c.35,0,.75,0,1.21,0a19,19,0,0,0,2.45-.16,7,7,0,0,0,2-.59,3.52,3.52,0,0,0,1.39-1.17,3.15,3.15,0,0,0,.52-1.89A3.46,3.46,0,0,0,72,70.83Zm-1-9a3.25,3.25,0,0,0-1.16-1A6.56,6.56,0,0,0,68,60.23a12.73,12.73,0,0,0-2.1-.18c-.74,0-1.32,0-1.74,0s-.8.06-1.14.1V66.6h3.06a12.08,12.08,0,0,0,2-.15,4.83,4.83,0,0,0,1.67-.54,3,3,0,0,0,1.1-1,2.77,2.77,0,0,0,.4-1.58A2.56,2.56,0,0,0,70.91,61.78Zm0,0a3.25,3.25,0,0,0-1.16-1A6.56,6.56,0,0,0,68,60.23a12.73,12.73,0,0,0-2.1-.18c-.74,0-1.32,0-1.74,0s-.8.06-1.14.1V66.6h3.06a12.08,12.08,0,0,0,2-.15,4.83,4.83,0,0,0,1.67-.54,3,3,0,0,0,1.1-1,2.77,2.77,0,0,0,.4-1.58A2.56,2.56,0,0,0,70.91,61.78Zm1,9a2.94,2.94,0,0,0-1.12-1.12,5.21,5.21,0,0,0-1.76-.59,12.21,12.21,0,0,0-2.28-.19H63.05v7.32l.78,0,.92,0c.35,0,.75,0,1.21,0a19,19,0,0,0,2.45-.16,7,7,0,0,0,2-.59,3.52,3.52,0,0,0,1.39-1.17,3.15,3.15,0,0,0,.52-1.89A3.46,3.46,0,0,0,72,70.83Zm0,0a2.94,2.94,0,0,0-1.12-1.12,5.21,5.21,0,0,0-1.76-.59,12.21,12.21,0,0,0-2.28-.19H63.05v7.32l.78,0,.92,0c.35,0,.75,0,1.21,0a19,19,0,0,0,2.45-.16,7,7,0,0,0,2-.59,3.52,3.52,0,0,0,1.39-1.17,3.15,3.15,0,0,0,.52-1.89A3.46,3.46,0,0,0,72,70.83Zm-1-9a3.25,3.25,0,0,0-1.16-1A6.56,6.56,0,0,0,68,60.23a12.73,12.73,0,0,0-2.1-.18c-.74,0-1.32,0-1.74,0s-.8.06-1.14.1V66.6h3.06a12.08,12.08,0,0,0,2-.15,4.83,4.83,0,0,0,1.67-.54,3,3,0,0,0,1.1-1,2.77,2.77,0,0,0,.4-1.58A2.56,2.56,0,0,0,70.91,61.78Zm0,0a3.25,3.25,0,0,0-1.16-1A6.56,6.56,0,0,0,68,60.23a12.73,12.73,0,0,0-2.1-.18c-.74,0-1.32,0-1.74,0s-.8.06-1.14.1V66.6h3.06a12.08,12.08,0,0,0,2-.15,4.83,4.83,0,0,0,1.67-.54,3,3,0,0,0,1.1-1,2.77,2.77,0,0,0,.4-1.58A2.56,2.56,0,0,0,70.91,61.78Zm1,9a2.94,2.94,0,0,0-1.12-1.12,5.21,5.21,0,0,0-1.76-.59,12.21,12.21,0,0,0-2.28-.19H63.05v7.32l.78,0,.92,0c.35,0,.75,0,1.21,0a19,19,0,0,0,2.45-.16,7,7,0,0,0,2-.59,3.52,3.52,0,0,0,1.39-1.17,3.15,3.15,0,0,0,.52-1.89A3.46,3.46,0,0,0,72,70.83Zm0,0a2.94,2.94,0,0,0-1.12-1.12,5.21,5.21,0,0,0-1.76-.59,12.21,12.21,0,0,0-2.28-.19H63.05v7.32l.78,0,.92,0c.35,0,.75,0,1.21,0a19,19,0,0,0,2.45-.16,7,7,0,0,0,2-.59,3.52,3.52,0,0,0,1.39-1.17,3.15,3.15,0,0,0,.52-1.89A3.46,3.46,0,0,0,72,70.83Zm-1-9a3.25,3.25,0,0,0-1.16-1A6.56,6.56,0,0,0,68,60.23a12.73,12.73,0,0,0-2.1-.18c-.74,0-1.32,0-1.74,0s-.8.06-1.14.1V66.6h3.06a12.08,12.08,0,0,0,2-.15,4.83,4.83,0,0,0,1.67-.54,3,3,0,0,0,1.1-1,2.77,2.77,0,0,0,.4-1.58A2.56,2.56,0,0,0,70.91,61.78Zm0,0a3.25,3.25,0,0,0-1.16-1A6.56,6.56,0,0,0,68,60.23a12.73,12.73,0,0,0-2.1-.18c-.74,0-1.32,0-1.74,0s-.8.06-1.14.1V66.6h3.06a12.08,12.08,0,0,0,2-.15,4.83,4.83,0,0,0,1.67-.54,3,3,0,0,0,1.1-1,2.77,2.77,0,0,0,.4-1.58A2.56,2.56,0,0,0,70.91,61.78Zm1,9a2.94,2.94,0,0,0-1.12-1.12,5.21,5.21,0,0,0-1.76-.59,12.21,12.21,0,0,0-2.28-.19H63.05v7.32l.78,0,.92,0c.35,0,.75,0,1.21,0a19,19,0,0,0,2.45-.16,7,7,0,0,0,2-.59,3.52,3.52,0,0,0,1.39-1.17,3.15,3.15,0,0,0,.52-1.89A3.46,3.46,0,0,0,72,70.83Zm0,0a2.94,2.94,0,0,0-1.12-1.12,5.21,5.21,0,0,0-1.76-.59,12.21,12.21,0,0,0-2.28-.19H63.05v7.32l.78,0,.92,0c.35,0,.75,0,1.21,0a19,19,0,0,0,2.45-.16,7,7,0,0,0,2-.59,3.52,3.52,0,0,0,1.39-1.17,3.15,3.15,0,0,0,.52-1.89A3.46,3.46,0,0,0,72,70.83Zm-1-9a3.25,3.25,0,0,0-1.16-1A6.56,6.56,0,0,0,68,60.23a12.73,12.73,0,0,0-2.1-.18c-.74,0-1.32,0-1.74,0s-.8.06-1.14.1V66.6h3.06a12.08,12.08,0,0,0,2-.15,4.83,4.83,0,0,0,1.67-.54,3,3,0,0,0,1.1-1,2.77,2.77,0,0,0,.4-1.58A2.56,2.56,0,0,0,70.91,61.78Z"/></g></svg>