<svg xmlns="http://www.w3.org/2000/svg" xmlns:xlink="http://www.w3.org/1999/xlink" viewBox="0 0 1550 802.03"><defs><style>.cls-1{isolation:isolate;}.cls-2{opacity:0.59;}.cls-101,.cls-103,.cls-105,.cls-107,.cls-109,.cls-11,.cls-110,.cls-111,.cls-112,.cls-113,.cls-114,.cls-115,.cls-116,.cls-117,.cls-118,.cls-119,.cls-120,.cls-121,.cls-122,.cls-123,.cls-124,.cls-125,.cls-126,.cls-127,.cls-128,.cls-129,.cls-13,.cls-130,.cls-131,.cls-132,.cls-133,.cls-134,.cls-135,.cls-136,.cls-137,.cls-138,.cls-139,.cls-140,.cls-141,.cls-142,.cls-143,.cls-144,.cls-145,.cls-146,.cls-147,.cls-148,.cls-149,.cls-15,.cls-150,.cls-151,.cls-152,.cls-153,.cls-154,.cls-155,.cls-156,.cls-157,.cls-159,.cls-160,.cls-161,.cls-162,.cls-17,.cls-19,.cls-21,.cls-23,.cls-25,.cls-27,.cls-28,.cls-3,.cls-30,.cls-32,.cls-34,.cls-36,.cls-38,.cls-40,.cls-42,.cls-44,.cls-46,.cls-48,.cls-5,.cls-50,.cls-52,.cls-54,.cls-56,.cls-58,.cls-60,.cls-62,.cls-64,.cls-66,.cls-67,.cls-68,.cls-69,.cls-7,.cls-71,.cls-73,.cls-75,.cls-77,.cls-79,.cls-81,.cls-83,.cls-85,.cls-87,.cls-89,.cls-9,.cls-91,.cls-93,.cls-95,.cls-97,.cls-99{mix-blend-mode:screen;}.cls-3{fill:url(#radial-gradient);}.cls-4{opacity:0.79;}.cls-5{fill:url(#radial-gradient-2);}.cls-6{opacity:0.62;}.cls-7{fill:url(#radial-gradient-3);}.cls-8{opacity:0.2;}.cls-9{fill:url(#radial-gradient-4);}.cls-10{opacity:0.18;}.cls-11{fill:url(#radial-gradient-5);}.cls-12{opacity:0.1;}.cls-13{fill:url(#radial-gradient-6);}.cls-14{opacity:0.13;}.cls-15{fill:url(#radial-gradient-7);}.cls-16{opacity:0.09;}.cls-17{fill:url(#radial-gradient-8);}.cls-18{opacity:0.24;}.cls-19{fill:url(#radial-gradient-9);}.cls-20{opacity:0.15;}.cls-21{fill:url(#radial-gradient-10);}.cls-22{opacity:0.22;}.cls-23{fill:url(#radial-gradient-11);}.cls-24{opacity:0.18;}.cls-25{fill:url(#radial-gradient-12);}.cls-26{opacity:0.55;}.cls-27{fill:url(#radial-gradient-13);}.cls-28{fill:url(#radial-gradient-14);}.cls-29{opacity:0.08;}.cls-30{fill:url(#radial-gradient-15);}.cls-31{opacity:0.18;}.cls-32{fill:url(#radial-gradient-16);}.cls-33{opacity:0.32;}.cls-34{fill:url(#radial-gradient-17);}.cls-35{opacity:0.3;}.cls-36{fill:url(#radial-gradient-18);}.cls-37{opacity:0.14;}.cls-38{fill:url(#radial-gradient-19);}.cls-39{opacity:0.13;}.cls-40{fill:url(#radial-gradient-20);}.cls-41{opacity:0.2;}.cls-42{fill:url(#radial-gradient-21);}.cls-43{opacity:0.22;}.cls-44{fill:url(#radial-gradient-22);}.cls-45{opacity:0.21;}.cls-46{fill:url(#radial-gradient-23);}.cls-47{opacity:0.7;}.cls-48{fill:url(#radial-gradient-24);}.cls-49{opacity:0.84;}.cls-50{fill:url(#radial-gradient-25);}.cls-51{opacity:0.23;}.cls-52{fill:url(#radial-gradient-26);}.cls-53{opacity:0.53;}.cls-54{fill:url(#radial-gradient-27);}.cls-55{opacity:0.31;}.cls-56{fill:url(#radial-gradient-28);}.cls-57{opacity:0.4;}.cls-58{fill:url(#radial-gradient-29);}.cls-59{opacity:0.32;}.cls-60{fill:url(#radial-gradient-30);}.cls-61{opacity:0.28;}.cls-62{fill:url(#radial-gradient-31);}.cls-63{opacity:0.54;}.cls-64{fill:url(#radial-gradient-32);}.cls-65{opacity:0.28;}.cls-66{fill:url(#radial-gradient-33);}.cls-67{fill:url(#radial-gradient-34);}.cls-68{fill:url(#radial-gradient-35);}.cls-69{fill:url(#radial-gradient-36);}.cls-70{opacity:0.64;}.cls-71{fill:url(#radial-gradient-37);}.cls-72{opacity:0.42;}.cls-73{fill:url(#radial-gradient-38);}.cls-74{opacity:0.44;}.cls-75{fill:url(#radial-gradient-39);}.cls-76{opacity:0.42;}.cls-77{fill:url(#radial-gradient-40);}.cls-78{opacity:0.49;}.cls-79{fill:url(#radial-gradient-41);}.cls-80{opacity:0.58;}.cls-81{fill:url(#radial-gradient-42);}.cls-82{opacity:0.22;}.cls-83{fill:url(#radial-gradient-43);}.cls-84{opacity:0.55;}.cls-85{fill:url(#radial-gradient-44);}.cls-86{opacity:0.05;}.cls-87{fill:url(#radial-gradient-45);}.cls-88{opacity:0.1;}.cls-89{fill:url(#radial-gradient-46);}.cls-90{opacity:0.35;}.cls-91{fill:url(#radial-gradient-47);}.cls-92{opacity:0.07;}.cls-93{fill:url(#radial-gradient-48);}.cls-94{opacity:0.07;}.cls-95{fill:url(#radial-gradient-49);}.cls-96{opacity:0.43;}.cls-97{fill:url(#radial-gradient-50);}.cls-98{opacity:0.78;}.cls-99{fill:url(#radial-gradient-51);}.cls-100{opacity:0.78;}.cls-101{fill:url(#radial-gradient-52);}.cls-102{opacity:0.64;}.cls-103{fill:url(#radial-gradient-53);}.cls-104{opacity:0.52;}.cls-105{fill:url(#radial-gradient-54);}.cls-106{opacity:0.99;}.cls-107{fill:url(#radial-gradient-55);}.cls-108{opacity:0.63;}.cls-109{fill:url(#radial-gradient-56);}.cls-110{fill:url(#radial-gradient-88);}.cls-111{fill:url(#radial-gradient-89);}.cls-112{fill:url(#radial-gradient-90);}.cls-113{fill:url(#radial-gradient-91);}.cls-114{fill:url(#radial-gradient-92);}.cls-115{fill:url(#radial-gradient-94);}.cls-116{fill:url(#radial-gradient-95);}.cls-117{fill:url(#radial-gradient-96);}.cls-118{fill:url(#radial-gradient-97);}.cls-119{fill:url(#radial-gradient-98);}.cls-120{fill:url(#radial-gradient-99);}.cls-121{fill:url(#radial-gradient-100);}.cls-122{fill:url(#radial-gradient-101);}.cls-123{fill:url(#radial-gradient-102);}.cls-124{fill:url(#radial-gradient-103);}.cls-125{fill:url(#radial-gradient-104);}.cls-126{fill:url(#radial-gradient-105);}.cls-127{fill:url(#radial-gradient-106);}.cls-128{fill:url(#radial-gradient-107);}.cls-129{fill:url(#radial-gradient-108);}.cls-130{fill:url(#radial-gradient-122);}.cls-131{fill:url(#radial-gradient-123);}.cls-132{fill:url(#radial-gradient-124);}.cls-133{fill:url(#radial-gradient-127);}.cls-134{fill:url(#radial-gradient-128);}.cls-135{fill:url(#radial-gradient-129);}.cls-136{fill:url(#radial-gradient-130);}.cls-137{fill:url(#radial-gradient-131);}.cls-138{fill:url(#radial-gradient-132);}.cls-139{fill:url(#radial-gradient-133);}.cls-140{fill:url(#radial-gradient-134);}.cls-141{fill:url(#radial-gradient-135);}.cls-142{fill:url(#radial-gradient-136);}.cls-143{fill:url(#radial-gradient-137);}.cls-144{fill:url(#radial-gradient-138);}.cls-145{fill:url(#radial-gradient-148);}.cls-146{fill:url(#radial-gradient-150);}.cls-147{fill:url(#radial-gradient-151);}.cls-148{fill:url(#radial-gradient-152);}.cls-149{fill:url(#radial-gradient-153);}.cls-150{fill:url(#radial-gradient-154);}.cls-151{fill:url(#radial-gradient-155);}.cls-152{fill:url(#radial-gradient-156);}.cls-153{fill:url(#radial-gradient-157);}.cls-154{fill:url(#radial-gradient-158);}.cls-155{fill:url(#radial-gradient-159);}.cls-156{fill:url(#radial-gradient-160);}.cls-157{fill:url(#radial-gradient-161);}.cls-158{mix-blend-mode:color-dodge;fill:url(#radial-gradient-162);}.cls-159{fill:url(#radial-gradient-163);}.cls-160{fill:url(#radial-gradient-164);}.cls-161{fill:url(#radial-gradient-165);}.cls-162{fill:url(#radial-gradient-166);}</style><radialGradient id="radial-gradient" cx="7045.68" cy="-16176.63" r="1.66" gradientTransform="translate(5740.02 -9268.04) rotate(180) scale(0.74 0.58)" gradientUnits="userSpaceOnUse"><stop offset="0.21" stop-color="#fffffc"/><stop offset="1" stop-color="#fff" stop-opacity="0"/></radialGradient><radialGradient id="radial-gradient-2" cx="7007.06" cy="-16154.07" r="1.65" gradientTransform="translate(5695.97 -9319.16) rotate(180) scale(0.74 0.58)" xlink:href="#radial-gradient"/><radialGradient id="radial-gradient-3" cx="7231.39" cy="-16236.83" r="1.65" gradientTransform="translate(5685.45 -9228.97) rotate(180) scale(0.74 0.58)" xlink:href="#radial-gradient"/><radialGradient id="radial-gradient-4" cx="7156.26" cy="-16285.18" r="1.66" gradientTransform="translate(5665.5 -9210.81) rotate(180) scale(0.74 0.58)" xlink:href="#radial-gradient"/><radialGradient id="radial-gradient-5" cx="7115.8" cy="-16319.37" r="1.65" gradientTransform="translate(5692.77 -9192.79) rotate(180) scale(0.74 0.58)" xlink:href="#radial-gradient"/><radialGradient id="radial-gradient-6" cx="7166" cy="-16332.21" r="1.65" gradientTransform="translate(5658.93 -9186.01) rotate(180) scale(0.74 0.58)" xlink:href="#radial-gradient"/><radialGradient id="radial-gradient-7" cx="7133.45" cy="-16309.24" r="1.65" gradientTransform="translate(5680.87 -9198.13) rotate(180) scale(0.74 0.58)" xlink:href="#radial-gradient"/><radialGradient id="radial-gradient-8" cx="7175.27" cy="-16300.6" r="1.65" gradientTransform="translate(5652.68 -9202.68) rotate(180) scale(0.74 0.58)" xlink:href="#radial-gradient"/><radialGradient id="radial-gradient-9" cx="6286.72" cy="-15854.02" r="1.66" gradientTransform="translate(5608.36 -9840.68) rotate(180) scale(0.81 0.63)" xlink:href="#radial-gradient"/><radialGradient id="radial-gradient-10" cx="7136.87" cy="-16326.28" r="1.65" gradientTransform="translate(5678.56 -9189.14) rotate(180) scale(0.74 0.58)" xlink:href="#radial-gradient"/><radialGradient id="radial-gradient-11" cx="5111.25" cy="-15161.59" r="1.65" gradientTransform="translate(5390.42 -11086.01) rotate(180) scale(0.95 0.74)" xlink:href="#radial-gradient"/><radialGradient id="radial-gradient-12" cx="7028.85" cy="-16234.21" r="1.66" gradientTransform="translate(5677.33 -9279.15) rotate(180) scale(0.74 0.58)" xlink:href="#radial-gradient"/><radialGradient id="radial-gradient-13" cx="5599.59" cy="-15392.17" r="1.66" gradientTransform="translate(5473.62 -10567.26) rotate(180) scale(0.89 0.69)" xlink:href="#radial-gradient"/><radialGradient id="radial-gradient-14" cx="7138.06" cy="-16213.18" r="1.65" gradientTransform="translate(5677.76 -9248.77) rotate(180) scale(0.74 0.58)" xlink:href="#radial-gradient"/><radialGradient id="radial-gradient-15" cx="7214.8" cy="-16341.04" r="1.65" gradientTransform="translate(5626.05 -9181.36) rotate(180) scale(0.74 0.58)" xlink:href="#radial-gradient"/><radialGradient id="radial-gradient-16" cx="7272.1" cy="-16320.04" r="1.65" gradientTransform="translate(5587.43 -9192.43) rotate(180) scale(0.74 0.58)" xlink:href="#radial-gradient"/><radialGradient id="radial-gradient-17" cx="7284.45" cy="-16296.23" r="1.65" gradientTransform="translate(5579.1 -9204.98) rotate(180) scale(0.74 0.58)" xlink:href="#radial-gradient"/><radialGradient id="radial-gradient-18" cx="7034.08" cy="-16146.73" r="1.65" gradientTransform="translate(5513.29 -9414.45) rotate(180) scale(0.76 0.59)" xlink:href="#radial-gradient"/><radialGradient id="radial-gradient-19" cx="4932.43" cy="-14944.53" r="1.65" gradientTransform="translate(5096.39 -11598.95) rotate(180) scale(1.01 0.79)" xlink:href="#radial-gradient"/><radialGradient id="radial-gradient-20" cx="2752.78" cy="-13691.23" r="1.65" gradientTransform="translate(4269.47 -16105.92) rotate(180) scale(1.52 1.19)" xlink:href="#radial-gradient"/><radialGradient id="radial-gradient-21" cx="3607.44" cy="-14171.07" r="1.65" gradientTransform="translate(4651.24 -13923.13) rotate(180) scale(1.27 0.99)" xlink:href="#radial-gradient"/><radialGradient id="radial-gradient-22" cx="4402.24" cy="-14632.18" r="1.65" gradientTransform="translate(4923.52 -12422.74) rotate(180) scale(1.1 0.86)" xlink:href="#radial-gradient"/><radialGradient id="radial-gradient-23" cx="4898.65" cy="-14923.25" r="1.65" gradientTransform="translate(5068.81 -11664.05) rotate(180) scale(1.02 0.8)" xlink:href="#radial-gradient"/><radialGradient id="radial-gradient-24" cx="6429.36" cy="-15777.6" r="1.65" gradientTransform="translate(5347.99 -9980.94) rotate(180) scale(0.83 0.65)" xlink:href="#radial-gradient"/><radialGradient id="radial-gradient-25" cx="6872.21" cy="-15985.67" r="1.65" gradientTransform="translate(5398.91 -9633.64) rotate(180) scale(0.78 0.61)" xlink:href="#radial-gradient"/><radialGradient id="radial-gradient-26" cx="2136.62" cy="-13707.29" r="1.65" gradientTransform="translate(4239.4 -16222.6) rotate(180) scale(1.53 1.2)" xlink:href="#radial-gradient"/><radialGradient id="radial-gradient-27" cx="4660.19" cy="-15363.05" r="1.65" gradientTransform="translate(5197.13 -10805.41) rotate(180) scale(0.92 0.72)" xlink:href="#radial-gradient"/><radialGradient id="radial-gradient-28" cx="4446.71" cy="-14590.23" r="1.65" gradientTransform="translate(4919.91 -12419.83) rotate(180) scale(1.1 0.86)" xlink:href="#radial-gradient"/><radialGradient id="radial-gradient-29" cx="4946.37" cy="-14854.73" r="1.65" gradientTransform="translate(5066.05 -11679) rotate(180) scale(1.01 0.79)" xlink:href="#radial-gradient"/><radialGradient id="radial-gradient-30" cx="5421.53" cy="-15794.13" r="1.65" gradientTransform="translate(5368.54 -9961.28) rotate(180) scale(0.81 0.64)" xlink:href="#radial-gradient"/><radialGradient id="radial-gradient-31" cx="6182.43" cy="-16260.77" r="1.65" gradientTransform="translate(5493.12 -9274.1) rotate(180) scale(0.74 0.58)" xlink:href="#radial-gradient"/><radialGradient id="radial-gradient-32" cx="7330.28" cy="-16261.31" r="1.66" gradientTransform="translate(5512.46 -9291.24) rotate(180) scale(0.74 0.58)" xlink:href="#radial-gradient"/><radialGradient id="radial-gradient-33" cx="7181.58" cy="-16367.47" r="1.65" gradientTransform="translate(5503.6 -9298.5) rotate(180) scale(0.74 0.58)" xlink:href="#radial-gradient"/><radialGradient id="radial-gradient-34" cx="7115.25" cy="-16366.46" r="1.65" gradientTransform="translate(5548.29 -9299.04) rotate(180) scale(0.74 0.58)" xlink:href="#radial-gradient"/><radialGradient id="radial-gradient-35" cx="7311.22" cy="-16541.09" r="1.65" gradientTransform="translate(5584.6 -9314.97) rotate(180) scale(0.74 0.58)" xlink:href="#radial-gradient"/><radialGradient id="radial-gradient-36" cx="7215.81" cy="-16148.27" r="1.65" gradientTransform="translate(5625.36 -9283) rotate(180) scale(0.74 0.58)" xlink:href="#radial-gradient"/><radialGradient id="radial-gradient-37" cx="7126.28" cy="-16159.48" r="1.65" gradientTransform="translate(5685.7 -9277.1) rotate(180) scale(0.74 0.58)" xlink:href="#radial-gradient"/><radialGradient id="radial-gradient-38" cx="7064" cy="-16144.16" r="1.66" gradientTransform="translate(5727.67 -9285.17) rotate(180) scale(0.74 0.58)" xlink:href="#radial-gradient"/><radialGradient id="radial-gradient-39" cx="4409.11" cy="-14715.72" r="1.65" gradientTransform="translate(5215.04 -12091.67) rotate(180) scale(1.06 0.83)" xlink:href="#radial-gradient"/><radialGradient id="radial-gradient-40" cx="2771.01" cy="-13977.9" r="1.65" gradientTransform="translate(4740.43 -14606.64) rotate(180) scale(1.35 1.05)" xlink:href="#radial-gradient"/><radialGradient id="radial-gradient-41" cx="1714.74" cy="-13328.42" r="1.65" gradientTransform="translate(4037.46 -18415.93) rotate(180) scale(1.78 1.39)" xlink:href="#radial-gradient"/><radialGradient id="radial-gradient-42" cx="2299.93" cy="-13705.13" r="1.65" gradientTransform="translate(4474.13 -16029.44) rotate(180) scale(1.51 1.18)" xlink:href="#radial-gradient"/><radialGradient id="radial-gradient-43" cx="1436.76" cy="-13131.39" r="1.65" gradientTransform="translate(3717.28 -19989.05) rotate(180) scale(1.96 1.53)" xlink:href="#radial-gradient"/><radialGradient id="radial-gradient-44" cx="1369.14" cy="-13109.76" r="1.65" gradientTransform="translate(3657.16 -20335.63) rotate(180) scale(2 1.57)" xlink:href="#radial-gradient"/><radialGradient id="radial-gradient-45" cx="4930.76" cy="-15270.57" r="1.65" gradientTransform="translate(5318.51 -10816.36) rotate(180) scale(0.92 0.72)" xlink:href="#radial-gradient"/><radialGradient id="radial-gradient-46" cx="3036.23" cy="-14105.83" r="1.65" gradientTransform="translate(4755.11 -14086.45) rotate(180) scale(1.29 1.01)" xlink:href="#radial-gradient"/><radialGradient id="radial-gradient-47" cx="4124.81" cy="-14749.65" r="1.65" gradientTransform="translate(5151.72 -11939.46) rotate(180) scale(1.04 0.82)" xlink:href="#radial-gradient"/><radialGradient id="radial-gradient-48" cx="3843.51" cy="-14628.17" r="1.65" gradientTransform="translate(5042.67 -12397.5) rotate(180) scale(1.1 0.86)" xlink:href="#radial-gradient"/><radialGradient id="radial-gradient-49" cx="3477.08" cy="-14377.71" r="1.65" gradientTransform="translate(4923.9 -13109.4) rotate(180) scale(1.18 0.92)" xlink:href="#radial-gradient"/><radialGradient id="radial-gradient-50" cx="5699.39" cy="-15670.17" r="1.65" gradientTransform="translate(5491.94 -9994) rotate(180) scale(0.82 0.64)" xlink:href="#radial-gradient"/><radialGradient id="radial-gradient-51" cx="6615.52" cy="-16295.79" r="1.65" gradientTransform="translate(5570.2 -9190.69) rotate(180) scale(0.74 0.58)" xlink:href="#radial-gradient"/><radialGradient id="radial-gradient-52" cx="5411.83" cy="-15517.32" r="1.65" gradientTransform="translate(5349.92 -10340.9) rotate(180) scale(0.86 0.68)" xlink:href="#radial-gradient"/><radialGradient id="radial-gradient-53" cx="4587.93" cy="-14992.74" r="1.65" gradientTransform="translate(5161.82 -11375.82) rotate(180) scale(0.98 0.77)" xlink:href="#radial-gradient"/><radialGradient id="radial-gradient-54" cx="5320.56" cy="-15429.72" r="1.65" gradientTransform="translate(5333.46 -10461.27) rotate(180) scale(0.88 0.68)" xlink:href="#radial-gradient"/><radialGradient id="radial-gradient-55" cx="1702.47" cy="-13226.46" r="1.65" gradientTransform="translate(3742.3 -19049.72) rotate(180) scale(1.85 1.45)" xlink:href="#radial-gradient"/><radialGradient id="radial-gradient-56" cx="6422.45" cy="-16281.65" r="1.65" gradientTransform="translate(5481.04 -9283.63) rotate(180) scale(0.74 0.58)" xlink:href="#radial-gradient"/><radialGradient id="radial-gradient-88" cx="7210.54" cy="-16278.32" r="1.66" gradientTransform="translate(5512.46 -9291.24) rotate(180) scale(0.74 0.58)" xlink:href="#radial-gradient"/><radialGradient id="radial-gradient-89" cx="7223.7" cy="-16264.53" r="1.65" gradientTransform="translate(5503.6 -9298.5) rotate(180) scale(0.74 0.58)" xlink:href="#radial-gradient"/><radialGradient id="radial-gradient-90" cx="7157.37" cy="-16263.51" r="1.65" gradientTransform="translate(5548.29 -9299.04) rotate(180) scale(0.74 0.58)" xlink:href="#radial-gradient"/><radialGradient id="radial-gradient-91" cx="7103.51" cy="-16233.31" r="1.65" gradientTransform="translate(5584.6 -9314.97) rotate(180) scale(0.74 0.58)" xlink:href="#radial-gradient"/><radialGradient id="radial-gradient-92" cx="7043.02" cy="-16293.94" r="1.65" gradientTransform="translate(5625.36 -9283) rotate(180) scale(0.74 0.58)" xlink:href="#radial-gradient"/><radialGradient id="radial-gradient-94" cx="5918.99" cy="-16154.07" r="1.65" gradientTransform="translate(5695.97 -9319.16) rotate(180) scale(0.74 0.58)" xlink:href="#radial-gradient"/><radialGradient id="radial-gradient-95" cx="6132.37" cy="-16236.83" r="1.65" gradientTransform="translate(5685.45 -9228.97) rotate(180) scale(0.74 0.58)" xlink:href="#radial-gradient"/><radialGradient id="radial-gradient-96" cx="6057.24" cy="-16285.18" r="1.66" gradientTransform="translate(5665.5 -9210.81) rotate(180) scale(0.74 0.58)" xlink:href="#radial-gradient"/><radialGradient id="radial-gradient-97" cx="6016.78" cy="-16319.37" r="1.65" gradientTransform="translate(5692.77 -9192.79) rotate(180) scale(0.74 0.58)" xlink:href="#radial-gradient"/><radialGradient id="radial-gradient-98" cx="6066.98" cy="-16332.21" r="1.65" gradientTransform="translate(5658.93 -9186.01) rotate(180) scale(0.74 0.58)" xlink:href="#radial-gradient"/><radialGradient id="radial-gradient-99" cx="6034.43" cy="-16309.24" r="1.65" gradientTransform="translate(5680.87 -9198.13) rotate(180) scale(0.74 0.58)" xlink:href="#radial-gradient"/><radialGradient id="radial-gradient-100" cx="6076.25" cy="-16300.6" r="1.65" gradientTransform="translate(5652.68 -9202.68) rotate(180) scale(0.74 0.58)" xlink:href="#radial-gradient"/><radialGradient id="radial-gradient-101" cx="5286.96" cy="-15854.02" r="1.66" gradientTransform="translate(5608.36 -9840.68) rotate(180) scale(0.81 0.63)" xlink:href="#radial-gradient"/><radialGradient id="radial-gradient-102" cx="6037.85" cy="-16326.28" r="1.65" gradientTransform="translate(5678.56 -9189.14) rotate(180) scale(0.74 0.58)" xlink:href="#radial-gradient"/><radialGradient id="radial-gradient-103" cx="5941.37" cy="-16234.21" r="1.66" gradientTransform="translate(5677.33 -9279.15) rotate(180) scale(0.74 0.58)" xlink:href="#radial-gradient"/><radialGradient id="radial-gradient-104" cx="4688.55" cy="-15392.17" r="1.66" gradientTransform="translate(5473.62 -10567.26) rotate(180) scale(0.89 0.69)" xlink:href="#radial-gradient"/><radialGradient id="radial-gradient-105" cx="6039.04" cy="-16213.18" r="1.65" gradientTransform="translate(5677.76 -9248.77) rotate(180) scale(0.74 0.58)" xlink:href="#radial-gradient"/><radialGradient id="radial-gradient-106" cx="6115.78" cy="-16341.04" r="1.65" gradientTransform="translate(5626.05 -9181.36) rotate(180) scale(0.74 0.58)" xlink:href="#radial-gradient"/><radialGradient id="radial-gradient-107" cx="6016.23" cy="-16366.46" r="1.65" gradientTransform="translate(5548.29 -9299.04) rotate(180) scale(0.74 0.58)" xlink:href="#radial-gradient"/><radialGradient id="radial-gradient-108" cx="6027.26" cy="-16159.48" r="1.65" gradientTransform="translate(5685.7 -9277.1) rotate(180) scale(0.74 0.58)" xlink:href="#radial-gradient"/><radialGradient id="radial-gradient-122" cx="6058.35" cy="-16263.51" r="1.65" gradientTransform="translate(5548.29 -9299.04) rotate(180) scale(0.74 0.58)" xlink:href="#radial-gradient"/><radialGradient id="radial-gradient-123" cx="6004.48" cy="-16233.31" r="1.65" gradientTransform="translate(5584.6 -9314.97) rotate(180) scale(0.74 0.58)" xlink:href="#radial-gradient"/><radialGradient id="radial-gradient-124" cx="5944" cy="-16293.94" r="1.65" gradientTransform="translate(5625.36 -9283) rotate(180) scale(0.74 0.58)" xlink:href="#radial-gradient"/><radialGradient id="radial-gradient-127" cx="4409.11" cy="-14715.72" r="1.65" gradientTransform="translate(5215.04 -12091.67) rotate(180) scale(1.06 0.83)" xlink:href="#radial-gradient"/><radialGradient id="radial-gradient-128" cx="5663.13" cy="-16154.07" r="1.65" gradientTransform="translate(5695.97 -9319.16) rotate(180) scale(0.74 0.58)" xlink:href="#radial-gradient"/><radialGradient id="radial-gradient-129" cx="5798.81" cy="-16285.18" r="1.66" gradientTransform="translate(5665.5 -9210.81) rotate(180) scale(0.74 0.58)" xlink:href="#radial-gradient"/><radialGradient id="radial-gradient-130" cx="5758.34" cy="-16319.37" r="1.65" gradientTransform="translate(5692.77 -9192.79) rotate(180) scale(0.74 0.58)" xlink:href="#radial-gradient"/><radialGradient id="radial-gradient-131" cx="5776" cy="-16309.24" r="1.65" gradientTransform="translate(5680.87 -9198.13) rotate(180) scale(0.74 0.58)" xlink:href="#radial-gradient"/><radialGradient id="radial-gradient-132" cx="5051.87" cy="-15854.02" r="1.66" gradientTransform="translate(5608.36 -9840.68) rotate(180) scale(0.81 0.63)" xlink:href="#radial-gradient"/><radialGradient id="radial-gradient-133" cx="5779.42" cy="-16326.28" r="1.65" gradientTransform="translate(5678.56 -9189.14) rotate(180) scale(0.74 0.58)" xlink:href="#radial-gradient"/><radialGradient id="radial-gradient-134" cx="4059.62" cy="-15161.59" r="1.65" gradientTransform="translate(5390.42 -11086.01) rotate(180) scale(0.95 0.74)" xlink:href="#radial-gradient"/><radialGradient id="radial-gradient-135" cx="5685.65" cy="-16234.21" r="1.66" gradientTransform="translate(5677.33 -9279.15) rotate(180) scale(0.74 0.58)" xlink:href="#radial-gradient"/><radialGradient id="radial-gradient-136" cx="5780.61" cy="-16213.18" r="1.65" gradientTransform="translate(5677.76 -9248.77) rotate(180) scale(0.74 0.58)" xlink:href="#radial-gradient"/><radialGradient id="radial-gradient-137" cx="5768.83" cy="-16159.48" r="1.65" gradientTransform="translate(5685.7 -9277.1) rotate(180) scale(0.74 0.58)" xlink:href="#radial-gradient"/><radialGradient id="radial-gradient-138" cx="3467.51" cy="-14715.72" r="1.65" gradientTransform="translate(5215.04 -12091.67) rotate(180) scale(1.06 0.83)" xlink:href="#radial-gradient"/><radialGradient id="radial-gradient-148" cx="5685.57" cy="-16293.94" r="1.65" gradientTransform="translate(5625.36 -9283) rotate(180) scale(0.74 0.58)" xlink:href="#radial-gradient"/><radialGradient id="radial-gradient-150" cx="3467.51" cy="-14715.72" r="1.65" gradientTransform="translate(5215.04 -12091.67) rotate(180) scale(1.06 0.83)" xlink:href="#radial-gradient"/><radialGradient id="radial-gradient-151" cx="968.97" cy="262.35" r="1.41" gradientTransform="translate(0 -1837.89) scale(1 8.01)" gradientUnits="userSpaceOnUse"><stop offset="0" stop-color="#fff"/><stop offset="0.11" stop-color="#e9cdde"/><stop offset="0.26" stop-color="#ca89b1"/><stop offset="0.4" stop-color="#b45790"/><stop offset="0.5" stop-color="#a6387c"/><stop offset="0.55" stop-color="#a12d74"/><stop offset="0.63" stop-color="#83255e"/><stop offset="0.89" stop-color="#250a1b"/><stop offset="1"/></radialGradient><radialGradient id="radial-gradient-152" cx="10294.02" cy="2993.95" r="1.41" gradientTransform="translate(24937.37 -10031.67) rotate(90) scale(1 8.01)" xlink:href="#radial-gradient-151"/><radialGradient id="radial-gradient-153" cx="968.97" cy="261.87" r="20.6" gradientTransform="translate(0 10.17) scale(1 0.96)" gradientUnits="userSpaceOnUse"><stop offset="0.09" stop-color="#a12d74"/><stop offset="0.11" stop-color="#9b2b70" stop-opacity="0.96"/><stop offset="0.26" stop-color="#6c1e4e" stop-opacity="0.67"/><stop offset="0.42" stop-color="#451332" stop-opacity="0.43"/><stop offset="0.57" stop-color="#270b1c" stop-opacity="0.24"/><stop offset="0.71" stop-color="#11050d" stop-opacity="0.11"/><stop offset="0.86" stop-color="#040103" stop-opacity="0.03"/><stop offset="0.99" stop-opacity="0"/></radialGradient><radialGradient id="radial-gradient-154" cx="2317.42" cy="-8800.93" r="1.19" gradientTransform="matrix(0.09, -1, 7.97, 0.73, 70549.31, 9510.17)" xlink:href="#radial-gradient-151"/><radialGradient id="radial-gradient-155" cx="1231.12" cy="1645.27" r="1.19" gradientTransform="matrix(1, 0.09, -0.73, 7.97, 582.84, -12487.34)" xlink:href="#radial-gradient-151"/><radialGradient id="radial-gradient-156" cx="2317.42" cy="-8801.34" r="17.38" gradientTransform="matrix(0.09, -1, 0.96, 0.09, 8812.05, 3824.99)" xlink:href="#radial-gradient-153"/><radialGradient id="radial-gradient-157" cx="-18531.52" cy="-6175.09" r="17.38" gradientTransform="matrix(0.02, -0.17, 1.76, 0.16, 11774, -1404.83)" xlink:href="#radial-gradient-153"/><radialGradient id="radial-gradient-158" cx="176.85" cy="-5116.36" r="1.19" gradientTransform="translate(32371.72 26963.17) rotate(-50.05) scale(1 8.01)" xlink:href="#radial-gradient-151"/><radialGradient id="radial-gradient-159" cx="4915.35" cy="3785.05" r="1.19" gradientTransform="translate(16769.71 -25860.92) rotate(39.95) scale(1 8.01)" xlink:href="#radial-gradient-151"/><radialGradient id="radial-gradient-160" cx="176.85" cy="-5116.76" r="17.38" gradientTransform="matrix(0.64, -0.77, 0.74, 0.62, 4738.42, 3820.69)" xlink:href="#radial-gradient-153"/><radialGradient id="radial-gradient-161" cx="-31083.74" cy="-4174.25" r="17.39" gradientTransform="matrix(0.11, -0.13, 1.36, 1.14, 10149.87, 1205.7)" xlink:href="#radial-gradient-153"/><radialGradient id="radial-gradient-162" cx="346.71" cy="500.99" r="3.52" gradientUnits="userSpaceOnUse"><stop offset="0" stop-color="#fff"/><stop offset="1" stop-opacity="0"/></radialGradient><radialGradient id="radial-gradient-163" cx="8469.67" cy="-10085.5" r="1.19" gradientTransform="translate(62933.81 -51252.58) rotate(-135.57) scale(1 8.01)" xlink:href="#radial-gradient-151"/><radialGradient id="radial-gradient-164" cx="-54.15" cy="-4507.4" r="1.19" gradientTransform="translate(26165.05 25698.6) rotate(-45.57) scale(1 8.01)" xlink:href="#radial-gradient-151"/><radialGradient id="radial-gradient-165" cx="8469.67" cy="-10085.9" r="17.38" gradientTransform="matrix(-0.71, -0.7, 0.67, -0.69, 13194.04, -518.16)" xlink:href="#radial-gradient-153"/><radialGradient id="radial-gradient-166" cx="17529.16" cy="-6871.62" r="17.38" gradientTransform="matrix(-0.12, -0.12, 1.24, -1.26, 11011.31, -6117.25)" xlink:href="#radial-gradient-153"/></defs><title>Code meteors</title><g class="cls-1"><g id="Layer_1" data-name="Layer 1"><g class="cls-2"><path class="cls-3" d="M558.82,36.75a1.26,1.26,0,1,1,1.23,1A1.12,1.12,0,0,1,558.82,36.75Z"/></g><g class="cls-4"><path class="cls-5" d="M491.3,66.35a1.27,1.27,0,1,1,1.23,1A1.11,1.11,0,0,1,491.3,66.35Z"/></g><g class="cls-6"><path class="cls-7" d="M367.72,110.45a1.25,1.25,0,1,1,1.22,1A1.1,1.1,0,0,1,367.72,110.45Z"/></g><g class="cls-8"><path class="cls-9" d="M403,156.43a1.27,1.27,0,1,1,1.22.94A1.12,1.12,0,0,1,403,156.43Z"/></g><g class="cls-10"><path class="cls-11" d="M460,194.11a1.25,1.25,0,1,1,1.21.95A1.11,1.11,0,0,1,460,194.11Z"/></g><g class="cls-12"><path class="cls-13" d="M389.27,208.28a1.26,1.26,0,1,1,1.23.95A1.11,1.11,0,0,1,389.27,208.28Z"/></g><g class="cls-14"><path class="cls-15" d="M435.14,183a1.26,1.26,0,1,1,1.22,1A1.11,1.11,0,0,1,435.14,183Z"/></g><g class="cls-16"><path class="cls-17" d="M376.21,173.42a1.25,1.25,0,0,1,2.43,0,1.25,1.25,0,0,1-2.43,0Z"/></g><g class="cls-18"><path class="cls-19" d="M526.09,185.4a1.39,1.39,0,1,1,1.34,1A1.23,1.23,0,0,1,526.09,185.4Z"/></g><g class="cls-20"><path class="cls-21" d="M430.32,201.73a1.25,1.25,0,1,1,1.22,1A1.1,1.1,0,0,1,430.32,201.73Z"/></g><g class="cls-22"><path class="cls-23" d="M538.27,170a1.62,1.62,0,1,1,1.57,1.23A1.43,1.43,0,0,1,538.27,170Z"/></g><g class="cls-24"><path class="cls-25" d="M453.67,159.41a1.26,1.26,0,1,1,1.22,1A1.11,1.11,0,0,1,453.67,159.41Z"/></g><g class="cls-26"><path class="cls-27" d="M505.87,113.36a1.51,1.51,0,1,1,1.47,1.16A1.34,1.34,0,0,1,505.87,113.36Z"/></g><path class="cls-28" d="M428.64,77.05a1.25,1.25,0,1,1,1.22,1A1.1,1.1,0,0,1,428.64,77.05Z"/><g class="cls-29"><path class="cls-30" d="M320.51,218a1.25,1.25,0,0,1,2.43,0,1.25,1.25,0,0,1-2.43,0Z"/></g><g class="cls-31"><path class="cls-32" d="M239.77,194.87a1.26,1.26,0,1,1,1.22.94A1.11,1.11,0,0,1,239.77,194.87Z"/></g><g class="cls-33"><path class="cls-34" d="M222.36,168.62a1.26,1.26,0,1,1,1.21.94A1.1,1.1,0,0,1,222.36,168.62Z"/></g><g class="cls-35"><path class="cls-36" d="M166.83,184.78a1.13,1.13,0,0,1,1.25-1,1,1,0,1,1,0,2A1.13,1.13,0,0,1,166.83,184.78Z"/></g><g class="cls-37"><path class="cls-38" d="M120.86,189.3a1.72,1.72,0,1,1,1.67,1.3A1.52,1.52,0,0,1,120.86,189.3Z"/></g><g class="cls-39"><path class="cls-40" d="M86.87,159.26a2.58,2.58,0,1,1,2.51,2A2.29,2.29,0,0,1,86.87,159.26Z"/></g><g class="cls-41"><path class="cls-42" d="M63.37,170a2.17,2.17,0,1,1,2.1,1.64A1.91,1.91,0,0,1,63.37,170Z"/></g><g class="cls-43"><path class="cls-44" d="M70.43,191.66a1.88,1.88,0,0,1,3.64,0,1.87,1.87,0,0,1-3.64,0Z"/></g><g class="cls-45"><path class="cls-46" d="M89.12,201.42a1.73,1.73,0,0,1,3.36,0,1.73,1.73,0,0,1-3.36,0Z"/></g><g class="cls-47"><path class="cls-48" d="M39.18,209.81a1.41,1.41,0,1,1,1.37,1.07A1.25,1.25,0,0,1,39.18,209.81Z"/></g><g class="cls-49"><path class="cls-50" d="M8.42,173.57a1.18,1.18,0,0,1,1.3-1,1,1,0,1,1,0,2A1.18,1.18,0,0,1,8.42,173.57Z"/></g><g class="cls-51"><path class="cls-52" d="M967.2,189.14a2.6,2.6,0,1,1,2.53,2A2.3,2.3,0,0,1,967.2,189.14Z"/></g><g class="cls-53"><path class="cls-54" d="M927.82,202.21a1.55,1.55,0,1,1,1.51,1.19A1.38,1.38,0,0,1,927.82,202.21Z"/></g><g class="cls-55"><path class="cls-56" d="M43.61,94.22a1.87,1.87,0,1,1,1.82,1.41A1.66,1.66,0,0,1,43.61,94.22Z"/></g><g class="cls-57"><path class="cls-58" d="M65.08,66.63a1.72,1.72,0,1,1,1.67,1.31A1.52,1.52,0,0,1,65.08,66.63Z"/></g><g class="cls-59"><path class="cls-60" d="M950.28,105.89a1.38,1.38,0,1,1,1.34,1.06A1.22,1.22,0,0,1,950.28,105.89Z"/></g><g class="cls-61"><path class="cls-62" d="M946.58,79.09a1.12,1.12,0,0,1,1.22-1,1,1,0,1,1,0,1.9A1.12,1.12,0,0,1,946.58,79.09Z"/></g><g class="cls-63"><path class="cls-64" d="M122,62.27a1.25,1.25,0,1,1,1.22.95A1.12,1.12,0,0,1,122,62.27Z"/></g><g class="cls-65"><path class="cls-66" d="M222.49,116.06a1.25,1.25,0,1,1,1.22,1A1.1,1.1,0,0,1,222.49,116.06Z"/></g><path class="cls-67" d="M316,114.94a1.25,1.25,0,1,1,1.21,1A1.1,1.1,0,0,1,316,114.94Z"/><path class="cls-68" d="M208.18,199.46a1.25,1.25,0,1,1,1.22,1A1.12,1.12,0,0,1,208.18,199.46Z"/><path class="cls-69" d="M319.08,5.48a1.26,1.26,0,0,1,2.44,0,1.26,1.26,0,0,1-2.44,0Z"/><g class="cls-70"><path class="cls-71" d="M445.24,17.83a1.26,1.26,0,0,1,2.44,0,1.26,1.26,0,0,1-2.44,0Z"/></g><g class="cls-72"><path class="cls-73" d="M533,1a1.26,1.26,0,0,1,2.44,0A1.26,1.26,0,0,1,533,1Z"/></g><g class="cls-74"><path class="cls-75" d="M540.08,112.07a1.8,1.8,0,1,1,1.75,1.38A1.59,1.59,0,0,1,540.08,112.07Z"/></g><g class="cls-76"><path class="cls-77" d="M1004.54,127.45a2.29,2.29,0,1,1,2.23,1.75A2,2,0,0,1,1004.54,127.45Z"/></g><g class="cls-78"><path class="cls-79" d="M978.84,167.89c0-1.28,1.32-2.31,2.95-2.31s2.94,1,2.94,2.31-1.31,2.3-2.94,2.3S978.84,169.16,978.84,167.89Z"/></g><g class="cls-80"><path class="cls-81" d="M994.36,181a2.58,2.58,0,1,1,2.5,1.95A2.28,2.28,0,0,1,994.36,181Z"/></g><g class="cls-82"><path class="cls-83" d="M898.86,140.06c0-1.4,1.45-2.54,3.23-2.54s3.24,1.14,3.24,2.54-1.45,2.53-3.24,2.53S898.86,141.46,898.86,140.06Z"/></g><g class="cls-84"><path class="cls-85" d="M913.37,194.25c0-1.43,1.49-2.59,3.31-2.59s3.32,1.16,3.32,2.59-1.49,2.59-3.32,2.59S913.37,195.69,913.37,194.25Z"/></g><g class="cls-86"><path class="cls-87" d="M788.08,155.54a1.57,1.57,0,1,1,1.52,1.19A1.38,1.38,0,0,1,788.08,155.54Z"/></g><g class="cls-88"><path class="cls-89" d="M840.19,135.05a2.19,2.19,0,1,1,2.13,1.67A1.94,1.94,0,0,1,840.19,135.05Z"/></g><g class="cls-90"><path class="cls-91" d="M850.71,87.4a1.77,1.77,0,1,1,1.72,1.35A1.57,1.57,0,0,1,850.71,87.4Z"/></g><g class="cls-92"><path class="cls-93" d="M813.75,188.58a1.88,1.88,0,1,1,1.83,1.42A1.67,1.67,0,0,1,813.75,188.58Z"/></g><g class="cls-94"><path class="cls-95" d="M825.61,142.54a2,2,0,1,1,1.95,1.52A1.77,1.77,0,0,1,825.61,142.54Z"/></g><g class="cls-96"><path class="cls-97" d="M821.08,49a1.39,1.39,0,1,1,1.35,1.06A1.23,1.23,0,0,1,821.08,49Z"/></g><g class="cls-98"><path class="cls-99" d="M705.25,182.65a1.26,1.26,0,1,1,1.22.94A1.11,1.11,0,0,1,705.25,182.65Z"/></g><g class="cls-100"><path class="cls-101" d="M672.67,147.25a1.47,1.47,0,1,1,1.43,1.12A1.3,1.3,0,0,1,672.67,147.25Z"/></g><g class="cls-102"><path class="cls-103" d="M664.49,117.61a1.67,1.67,0,1,1,1.62,1.27A1.48,1.48,0,0,1,664.49,117.61Z"/></g><g class="cls-104"><path class="cls-105" d="M675.46,105a1.49,1.49,0,0,1,2.89,0,1.49,1.49,0,0,1-2.89,0Z"/></g><g class="cls-106"><path class="cls-107" d="M589,96.9c0-1.32,1.37-2.39,3.06-2.39s3.06,1.07,3.06,2.39-1.37,2.39-3.06,2.39S589,98.22,589,96.9Z"/></g><g class="cls-108"><path class="cls-109" d="M758,81.58a1.26,1.26,0,1,1,1.21.94A1.11,1.11,0,0,1,758,81.58Z"/></g><g class="cls-2"><path class="cls-3" d="M558.82,36.75a1.26,1.26,0,1,1,1.23,1A1.12,1.12,0,0,1,558.82,36.75Z"/></g><g class="cls-4"><path class="cls-5" d="M491.3,66.35a1.27,1.27,0,1,1,1.23,1A1.11,1.11,0,0,1,491.3,66.35Z"/></g><g class="cls-6"><path class="cls-7" d="M367.72,110.45a1.25,1.25,0,1,1,1.22,1A1.1,1.1,0,0,1,367.72,110.45Z"/></g><g class="cls-8"><path class="cls-9" d="M403,156.43a1.27,1.27,0,1,1,1.22.94A1.12,1.12,0,0,1,403,156.43Z"/></g><g class="cls-10"><path class="cls-11" d="M460,194.11a1.25,1.25,0,1,1,1.21.95A1.11,1.11,0,0,1,460,194.11Z"/></g><g class="cls-12"><path class="cls-13" d="M389.27,208.28a1.26,1.26,0,1,1,1.23.95A1.11,1.11,0,0,1,389.27,208.28Z"/></g><g class="cls-14"><path class="cls-15" d="M435.14,183a1.26,1.26,0,1,1,1.22,1A1.11,1.11,0,0,1,435.14,183Z"/></g><g class="cls-16"><path class="cls-17" d="M376.21,173.42a1.25,1.25,0,0,1,2.43,0,1.25,1.25,0,0,1-2.43,0Z"/></g><g class="cls-18"><path class="cls-19" d="M526.09,185.4a1.39,1.39,0,1,1,1.34,1A1.23,1.23,0,0,1,526.09,185.4Z"/></g><g class="cls-20"><path class="cls-21" d="M430.32,201.73a1.25,1.25,0,1,1,1.22,1A1.1,1.1,0,0,1,430.32,201.73Z"/></g><g class="cls-22"><path class="cls-23" d="M538.27,170a1.62,1.62,0,1,1,1.57,1.23A1.43,1.43,0,0,1,538.27,170Z"/></g><g class="cls-24"><path class="cls-25" d="M453.67,159.41a1.26,1.26,0,1,1,1.22,1A1.11,1.11,0,0,1,453.67,159.41Z"/></g><g class="cls-26"><path class="cls-27" d="M505.87,113.36a1.51,1.51,0,1,1,1.47,1.16A1.34,1.34,0,0,1,505.87,113.36Z"/></g><path class="cls-28" d="M428.64,77.05a1.25,1.25,0,1,1,1.22,1A1.1,1.1,0,0,1,428.64,77.05Z"/><g class="cls-29"><path class="cls-30" d="M320.51,218a1.25,1.25,0,0,1,2.43,0,1.25,1.25,0,0,1-2.43,0Z"/></g><g class="cls-31"><path class="cls-32" d="M239.77,194.87a1.26,1.26,0,1,1,1.22.94A1.11,1.11,0,0,1,239.77,194.87Z"/></g><g class="cls-33"><path class="cls-34" d="M222.36,168.62a1.26,1.26,0,1,1,1.21.94A1.1,1.1,0,0,1,222.36,168.62Z"/></g><g class="cls-35"><path class="cls-36" d="M166.83,184.78a1.13,1.13,0,0,1,1.25-1,1,1,0,1,1,0,2A1.13,1.13,0,0,1,166.83,184.78Z"/></g><g class="cls-37"><path class="cls-38" d="M120.86,189.3a1.72,1.72,0,1,1,1.67,1.3A1.52,1.52,0,0,1,120.86,189.3Z"/></g><g class="cls-39"><path class="cls-40" d="M86.87,159.26a2.58,2.58,0,1,1,2.51,2A2.29,2.29,0,0,1,86.87,159.26Z"/></g><g class="cls-41"><path class="cls-42" d="M63.37,170a2.17,2.17,0,1,1,2.1,1.64A1.91,1.91,0,0,1,63.37,170Z"/></g><g class="cls-43"><path class="cls-44" d="M70.43,191.66a1.88,1.88,0,0,1,3.64,0,1.87,1.87,0,0,1-3.64,0Z"/></g><g class="cls-45"><path class="cls-46" d="M89.12,201.42a1.73,1.73,0,0,1,3.36,0,1.73,1.73,0,0,1-3.36,0Z"/></g><g class="cls-47"><path class="cls-48" d="M39.18,209.81a1.41,1.41,0,1,1,1.37,1.07A1.25,1.25,0,0,1,39.18,209.81Z"/></g><g class="cls-49"><path class="cls-50" d="M8.42,173.57a1.18,1.18,0,0,1,1.3-1,1,1,0,1,1,0,2A1.18,1.18,0,0,1,8.42,173.57Z"/></g><g class="cls-51"><path class="cls-52" d="M967.2,189.14a2.6,2.6,0,1,1,2.53,2A2.3,2.3,0,0,1,967.2,189.14Z"/></g><g class="cls-53"><path class="cls-54" d="M927.82,202.21a1.55,1.55,0,1,1,1.51,1.19A1.38,1.38,0,0,1,927.82,202.21Z"/></g><g class="cls-55"><path class="cls-56" d="M43.61,94.22a1.87,1.87,0,1,1,1.82,1.41A1.66,1.66,0,0,1,43.61,94.22Z"/></g><g class="cls-57"><path class="cls-58" d="M65.08,66.63a1.72,1.72,0,1,1,1.67,1.31A1.52,1.52,0,0,1,65.08,66.63Z"/></g><g class="cls-59"><path class="cls-60" d="M950.28,105.89a1.38,1.38,0,1,1,1.34,1.06A1.22,1.22,0,0,1,950.28,105.89Z"/></g><g class="cls-61"><path class="cls-62" d="M946.58,79.09a1.12,1.12,0,0,1,1.22-1,1,1,0,1,1,0,1.9A1.12,1.12,0,0,1,946.58,79.09Z"/></g><g class="cls-63"><path class="cls-110" d="M210.05,72.05a1.26,1.26,0,1,1,1.22,1A1.11,1.11,0,0,1,210.05,72.05Z"/></g><g class="cls-65"><path class="cls-111" d="M191.52,56.85a1.25,1.25,0,0,1,2.43,0,1.25,1.25,0,0,1-2.43,0Z"/></g><path class="cls-112" d="M285,55.72a1.25,1.25,0,1,1,1.22,1A1.1,1.1,0,0,1,285,55.72Z"/><path class="cls-113" d="M360.89,22.43a1.25,1.25,0,0,1,2.43,0,1.25,1.25,0,0,1-2.43,0Z"/><path class="cls-114" d="M446.12,89.26a1.25,1.25,0,1,1,1.22,1A1.1,1.1,0,0,1,446.12,89.26Z"/><g class="cls-70"><path class="cls-71" d="M445.24,17.83a1.26,1.26,0,0,1,2.44,0,1.26,1.26,0,0,1-2.44,0Z"/></g><g class="cls-4"><path class="cls-115" d="M1299.3,66.35a1.27,1.27,0,1,1,1.23,1A1.11,1.11,0,0,1,1299.3,66.35Z"/></g><g class="cls-6"><path class="cls-116" d="M1175.72,110.45a1.25,1.25,0,1,1,1.22,1A1.1,1.1,0,0,1,1175.72,110.45Z"/></g><g class="cls-8"><path class="cls-117" d="M1211,156.43a1.27,1.27,0,1,1,1.22.94A1.12,1.12,0,0,1,1211,156.43Z"/></g><g class="cls-10"><path class="cls-118" d="M1268,194.11a1.25,1.25,0,1,1,1.21.95A1.11,1.11,0,0,1,1268,194.11Z"/></g><g class="cls-12"><path class="cls-119" d="M1197.27,208.28a1.26,1.26,0,1,1,1.23.95A1.11,1.11,0,0,1,1197.27,208.28Z"/></g><g class="cls-14"><path class="cls-120" d="M1243.14,183a1.26,1.26,0,1,1,1.22,1A1.11,1.11,0,0,1,1243.14,183Z"/></g><g class="cls-16"><path class="cls-121" d="M1184.21,173.42a1.25,1.25,0,0,1,2.43,0,1.25,1.25,0,0,1-2.43,0Z"/></g><g class="cls-18"><path class="cls-122" d="M1334.09,185.4a1.39,1.39,0,1,1,1.34,1A1.23,1.23,0,0,1,1334.09,185.4Z"/></g><g class="cls-20"><path class="cls-123" d="M1238.32,201.73a1.25,1.25,0,1,1,1.22,1A1.1,1.1,0,0,1,1238.32,201.73Z"/></g><g class="cls-24"><path class="cls-124" d="M1261.67,159.41a1.26,1.26,0,1,1,1.22,1A1.11,1.11,0,0,1,1261.67,159.41Z"/></g><g class="cls-26"><path class="cls-125" d="M1313.87,113.36a1.51,1.51,0,1,1,1.47,1.16A1.34,1.34,0,0,1,1313.87,113.36Z"/></g><path class="cls-126" d="M1236.64,77.05a1.25,1.25,0,1,1,1.22,1A1.1,1.1,0,0,1,1236.64,77.05Z"/><g class="cls-29"><path class="cls-127" d="M1128.51,218a1.25,1.25,0,0,1,2.43,0,1.25,1.25,0,0,1-2.43,0Z"/></g><path class="cls-128" d="M1124,114.94a1.25,1.25,0,1,1,1.21,1A1.1,1.1,0,0,1,1124,114.94Z"/><g class="cls-70"><path class="cls-129" d="M1253.24,17.83a1.26,1.26,0,0,1,2.44,0,1.26,1.26,0,0,1-2.44,0Z"/></g><g class="cls-4"><path class="cls-115" d="M1299.3,66.35a1.27,1.27,0,1,1,1.23,1A1.11,1.11,0,0,1,1299.3,66.35Z"/></g><g class="cls-6"><path class="cls-116" d="M1175.72,110.45a1.25,1.25,0,1,1,1.22,1A1.1,1.1,0,0,1,1175.72,110.45Z"/></g><g class="cls-8"><path class="cls-117" d="M1211,156.43a1.27,1.27,0,1,1,1.22.94A1.12,1.12,0,0,1,1211,156.43Z"/></g><g class="cls-10"><path class="cls-118" d="M1268,194.11a1.25,1.25,0,1,1,1.21.95A1.11,1.11,0,0,1,1268,194.11Z"/></g><g class="cls-12"><path class="cls-119" d="M1197.27,208.28a1.26,1.26,0,1,1,1.23.95A1.11,1.11,0,0,1,1197.27,208.28Z"/></g><g class="cls-14"><path class="cls-120" d="M1243.14,183a1.26,1.26,0,1,1,1.22,1A1.11,1.11,0,0,1,1243.14,183Z"/></g><g class="cls-16"><path class="cls-121" d="M1184.21,173.42a1.25,1.25,0,0,1,2.43,0,1.25,1.25,0,0,1-2.43,0Z"/></g><g class="cls-18"><path class="cls-122" d="M1334.09,185.4a1.39,1.39,0,1,1,1.34,1A1.23,1.23,0,0,1,1334.09,185.4Z"/></g><g class="cls-20"><path class="cls-123" d="M1238.32,201.73a1.25,1.25,0,1,1,1.22,1A1.1,1.1,0,0,1,1238.32,201.73Z"/></g><g class="cls-24"><path class="cls-124" d="M1261.67,159.41a1.26,1.26,0,1,1,1.22,1A1.11,1.11,0,0,1,1261.67,159.41Z"/></g><g class="cls-26"><path class="cls-125" d="M1313.87,113.36a1.51,1.51,0,1,1,1.47,1.16A1.34,1.34,0,0,1,1313.87,113.36Z"/></g><path class="cls-126" d="M1236.64,77.05a1.25,1.25,0,1,1,1.22,1A1.1,1.1,0,0,1,1236.64,77.05Z"/><g class="cls-29"><path class="cls-127" d="M1128.51,218a1.25,1.25,0,0,1,2.43,0,1.25,1.25,0,0,1-2.43,0Z"/></g><path class="cls-130" d="M1093,55.72a1.25,1.25,0,1,1,1.22,1A1.1,1.1,0,0,1,1093,55.72Z"/><path class="cls-131" d="M1168.89,22.43a1.25,1.25,0,0,1,2.43,0,1.25,1.25,0,0,1-2.43,0Z"/><path class="cls-132" d="M1254.12,89.26a1.25,1.25,0,1,1,1.22,1A1.1,1.1,0,0,1,1254.12,89.26Z"/><g class="cls-70"><path class="cls-129" d="M1253.24,17.83a1.26,1.26,0,0,1,2.44,0,1.26,1.26,0,0,1-2.44,0Z"/></g><g class="cls-72"><path class="cls-73" d="M533,1a1.26,1.26,0,0,1,2.44,0A1.26,1.26,0,0,1,533,1Z"/></g><g class="cls-74"><path class="cls-133" d="M540.08,112.07a1.8,1.8,0,1,1,1.75,1.38A1.59,1.59,0,0,1,540.08,112.07Z"/></g><g class="cls-4"><path class="cls-134" d="M1489.3,66.35a1.27,1.27,0,1,1,1.23,1A1.11,1.11,0,0,1,1489.3,66.35Z"/></g><g class="cls-8"><path class="cls-135" d="M1401,156.43a1.27,1.27,0,1,1,1.22.94A1.12,1.12,0,0,1,1401,156.43Z"/></g><g class="cls-10"><path class="cls-136" d="M1458,194.11a1.25,1.25,0,1,1,1.21.95A1.11,1.11,0,0,1,1458,194.11Z"/></g><g class="cls-14"><path class="cls-137" d="M1433.14,183a1.26,1.26,0,1,1,1.22,1A1.11,1.11,0,0,1,1433.14,183Z"/></g><g class="cls-18"><path class="cls-138" d="M1524.09,185.4a1.39,1.39,0,1,1,1.34,1A1.23,1.23,0,0,1,1524.09,185.4Z"/></g><g class="cls-20"><path class="cls-139" d="M1428.32,201.73a1.25,1.25,0,1,1,1.22,1A1.1,1.1,0,0,1,1428.32,201.73Z"/></g><g class="cls-22"><path class="cls-140" d="M1536.27,170a1.62,1.62,0,1,1,1.57,1.23A1.43,1.43,0,0,1,1536.27,170Z"/></g><g class="cls-24"><path class="cls-141" d="M1451.67,159.41a1.26,1.26,0,1,1,1.22,1A1.11,1.11,0,0,1,1451.67,159.41Z"/></g><path class="cls-142" d="M1426.64,77.05a1.25,1.25,0,1,1,1.22,1A1.1,1.1,0,0,1,1426.64,77.05Z"/><g class="cls-70"><path class="cls-143" d="M1443.24,17.83a1.26,1.26,0,0,1,2.44,0,1.26,1.26,0,0,1-2.44,0Z"/></g><g class="cls-74"><path class="cls-144" d="M1538.08,112.07a1.8,1.8,0,1,1,1.75,1.38A1.59,1.59,0,0,1,1538.08,112.07Z"/></g><g class="cls-4"><path class="cls-134" d="M1489.3,66.35a1.27,1.27,0,1,1,1.23,1A1.11,1.11,0,0,1,1489.3,66.35Z"/></g><g class="cls-8"><path class="cls-135" d="M1401,156.43a1.27,1.27,0,1,1,1.22.94A1.12,1.12,0,0,1,1401,156.43Z"/></g><g class="cls-10"><path class="cls-136" d="M1458,194.11a1.25,1.25,0,1,1,1.21.95A1.11,1.11,0,0,1,1458,194.11Z"/></g><g class="cls-14"><path class="cls-137" d="M1433.14,183a1.26,1.26,0,1,1,1.22,1A1.11,1.11,0,0,1,1433.14,183Z"/></g><g class="cls-18"><path class="cls-138" d="M1524.09,185.4a1.39,1.39,0,1,1,1.34,1A1.23,1.23,0,0,1,1524.09,185.4Z"/></g><g class="cls-20"><path class="cls-139" d="M1428.32,201.73a1.25,1.25,0,1,1,1.22,1A1.1,1.1,0,0,1,1428.32,201.73Z"/></g><g class="cls-22"><path class="cls-140" d="M1536.27,170a1.62,1.62,0,1,1,1.57,1.23A1.43,1.43,0,0,1,1536.27,170Z"/></g><g class="cls-24"><path class="cls-141" d="M1451.67,159.41a1.26,1.26,0,1,1,1.22,1A1.11,1.11,0,0,1,1451.67,159.41Z"/></g><path class="cls-142" d="M1426.64,77.05a1.25,1.25,0,1,1,1.22,1A1.1,1.1,0,0,1,1426.64,77.05Z"/><path class="cls-145" d="M1444.12,89.26a1.25,1.25,0,1,1,1.22,1A1.1,1.1,0,0,1,1444.12,89.26Z"/><g class="cls-70"><path class="cls-143" d="M1443.24,17.83a1.26,1.26,0,0,1,2.44,0,1.26,1.26,0,0,1-2.44,0Z"/></g><g class="cls-74"><path class="cls-146" d="M1538.08,112.07a1.8,1.8,0,1,1,1.75,1.38A1.59,1.59,0,0,1,1538.08,112.07Z"/></g><path class="cls-147" d="M970.69,262.35c0,7.16-.77,13-1.72,13s-1.71-5.81-1.71-13,.76-13,1.71-13S970.69,255.18,970.69,262.35Z"/><path class="cls-148" d="M969,264.06c-7.17,0-13-.77-13-1.71s5.8-1.72,13-1.72,13,.77,13,1.72S976.14,264.06,969,264.06Z"/><circle class="cls-149" cx="968.97" cy="261.87" r="21.99"/><path class="cls-150" d="M601.11,740.16c6,.55,10.84,1.64,10.77,2.44s-5,1-11,.44-10.84-1.65-10.77-2.45S595.09,739.6,601.11,740.16Z"/><path class="cls-151" d="M602.41,741.73c-.55,6-1.64,10.84-2.44,10.77s-1-5-.43-11,1.64-10.84,2.44-10.77S603,735.71,602.41,741.73Z"/><path class="cls-152" d="M602.28,723.08a18.56,18.56,0,1,1-20.19,16.78A18.57,18.57,0,0,1,602.28,723.08Z"/><path class="cls-153" d="M601.71,738.65c18.79,1.73,33.9,4.55,33.74,6.29s-15.53,1.75-34.32,0-33.9-4.55-33.74-6.29S582.91,736.92,601.71,738.65Z"/><path class="cls-154" d="M1082.56,526.38c4.63,3.89,8,7.53,7.46,8.14s-4.69-2-9.32-5.92-8-7.53-7.46-8.14S1077.92,522.5,1082.56,526.38Z"/><path class="cls-155" d="M1082.74,528.42c-3.88,4.64-7.53,8-8.14,7.47s2-4.69,5.92-9.33,7.53-8,8.14-7.46S1086.62,523.78,1082.74,528.42Z"/><path class="cls-156" d="M1093.24,513a18.56,18.56,0,1,1-26.15,2.32A18.57,18.57,0,0,1,1093.24,513Z"/><path class="cls-157" d="M1083.91,525.48c14.47,12.12,25.29,23,24.16,24.37s-13.76-7.39-28.23-19.51-25.29-23-24.17-24.37S1069.44,513.37,1083.91,525.48Z"/><path class="cls-158" d="M355,501a8.24,8.24,0,1,1-8.24-8.24A8.25,8.25,0,0,1,355,501Z"/><path class="cls-159" d="M358.2,473.54c4.24-4.32,8.13-7.36,8.7-6.8s-2.4,4.51-6.63,8.83-8.13,7.36-8.7,6.8S354,477.86,358.2,473.54Z"/><path class="cls-160" d="M360.25,473.52c4.32,4.24,7.36,8.13,6.8,8.7s-4.51-2.4-8.83-6.63-7.36-8.13-6.8-8.7S355.93,469.29,360.25,473.52Z"/><path class="cls-161" d="M345.7,461.85A18.56,18.56,0,1,1,346,488.1,18.57,18.57,0,0,1,345.7,461.85Z"/><path class="cls-162" d="M357.41,472.13c13.22-13.48,24.94-23.41,26.19-22.19s-8.45,13.15-21.66,26.62S337,500,335.75,498.75,344.2,485.6,357.41,472.13Z"/></g></g></svg>