<svg xmlns="http://www.w3.org/2000/svg" viewBox="0 0 315.96 125.29"><defs><style>.cls-1{fill:#fff;}</style></defs><title>ibm</title><g id="Capa_2" data-name="Capa 2"><g id="Layer_1" data-name="Layer 1"><g id="layer1"><path id="path1242" class="cls-1" d="M0,8H61.45V0H0Z"/><path id="path1244" class="cls-1" d="M0,24.76H61.45v-8H0Z"/><path id="path1246" class="cls-1" d="M17.55,33.54H43.9v8H17.55Z"/><path id="path1248" class="cls-1" d="M17.55,50.31H43.9v8H17.55Z"/><path id="path1250" class="cls-1" d="M17.55,67H43.9v8H17.55Z"/><path id="path1252" class="cls-1" d="M17.55,83.79H43.9v8H17.55Z"/><path id="path1254" class="cls-1" d="M0,108.55H61.45v-8H0Z"/><path id="path1256" class="cls-1" d="M0,125.28H61.45v-8H0Z"/><path id="path1266" class="cls-1" d="M70.19,16.8H164.9a41.82,41.82,0,0,1,2.72,8H70.19v-8"/><path id="path1268" class="cls-1" d="M87.78,33.54h26.3v8H87.78Z"/><path id="path1272" class="cls-1" d="M140.41,33.54h28.07a35.33,35.33,0,0,1-1.19,8H140.41v-8"/><path id="path1276" class="cls-1" d="M87.78,67h67.64c2.1,1.46,5.58,5.64,7.29,8H87.78V67"/><path id="path1278" class="cls-1" d="M87.78,83.79h26.3v8H87.78Z"/><path id="path1282" class="cls-1" d="M140.41,83.79h26.72a38.07,38.07,0,0,1,1.52,8H140.41v-8"/><path id="path1286" class="cls-1" d="M70.19,100.56h97.35a29.36,29.36,0,0,1-2.46,8H70.19v-8"/><path id="path1290" class="cls-1" d="M70.19,117.32h88c-7.8,6.54-14.69,8-26.77,8H70.19v-8"/><path id="path1294" class="cls-1" d="M175.53,0h50.18l2.65,8H175.53Z"/><path id="path1298" class="cls-1" d="M175.53,16.8h55.73l2.63,8H175.53Z"/><path id="path1302" class="cls-1" d="M193.07,33.54h43.76l2.65,8H193.07Z"/><path id="path1306" class="cls-1" d="M249.11,50.31h49.28v8H272.07v-7l-2.42,7H246.48Z"/><path id="path1310" class="cls-1" d="M245,58.27H221.82l-2.41-7.06v7.06H193.07v-8h49.32Z"/><path id="path1312" class="cls-1" d="M193.07,67H219.4v8H193.07Z"/><path id="path1314" class="cls-1" d="M193.07,83.79H219.4v8H193.07Z"/><path id="path1316" class="cls-1" d="M175.53,100.56H219.4v8H175.53Z"/><path id="path1318" class="cls-1" d="M175.53,117.32H219.4v8H175.53Z"/><path id="path1322" class="cls-1" d="M265.82,0h50.12V8h-52.8Z"/><path id="path1326" class="cls-1" d="M260.25,16.8h55.69v8H257.6Z"/><path id="path1330" class="cls-1" d="M254.68,33.54h43.71v8H252Z"/><path id="path1332" class="cls-1" d="M272.07,67h26.32v8H272.07Z"/><path id="path1334" class="cls-1" d="M272.07,83.79h26.32v8H272.07Z"/><path id="path1336" class="cls-1" d="M272.07,100.56H316v8H272.07Z"/><path id="path1338" class="cls-1" d="M272.07,117.32H316v8H272.07Z"/><path id="path1342" class="cls-1" d="M224.79,67h41.93L264,75H227.52Z"/><path id="path1346" class="cls-1" d="M230.47,83.79H261l-2.71,8H233.18Z"/><path id="path1350" class="cls-1" d="M236.14,100.56h19.21l-2.71,8H238.86Z"/><path id="path1354" class="cls-1" d="M241.82,117.32h7.88l-2.73,8h-2.44Z"/><path id="path1358" class="cls-1" d="M87.78,58.28h67.64a46.41,46.41,0,0,0,7.87-8H87.78v8"/><path id="path1362" class="cls-1" d="M70.19,8h88c-7.8-6.54-14.69-8-26.77-8H70.19V8"/></g></g></g></svg>