<svg xmlns="http://www.w3.org/2000/svg" viewBox="0 0 236.33 58.42"><defs><style>.cls-1{fill:#fff;}</style></defs><title>stack</title><g id="Capa_2" data-name="Capa 2"><g id="Layer_1" data-name="Layer 1"><path class="cls-1" d="M53.51,28.71l-2.69-.23c-2.11-.17-2.93-1-2.93-2.46,0-1.7,1.29-2.76,3.75-2.76a7.15,7.15,0,0,1,4.46,1.33L57.7,23a9.45,9.45,0,0,0-6-1.8c-3.58,0-6.16,1.83-6.16,4.9,0,2.76,1.73,4.22,5,4.5l2.76.24c1.94.17,2.8,1,2.8,2.45,0,2-1.71,3-4.47,3a6.85,6.85,0,0,1-5.21-1.94l-1.63,1.64a9.23,9.23,0,0,0,6.88,2.41c4,0,6.81-1.87,6.81-5.11S56.44,29,53.51,28.71Zm21-7.52c-2.68,0-4.38.53-5.86,2.4,0,0,1.61,1.61,1.61,1.61,1-1.39,2.07-1.9,4.22-1.9,3.07,0,4.29,1.22,4.29,3.68v1.6h-5c-3.75,0-5.79,1.91-5.79,4.83a4.83,4.83,0,0,0,1.26,3.41c1.06,1.09,2.42,1.53,4.74,1.53a5.88,5.88,0,0,0,4.83-1.8v1.6H81.2V26.77C81.2,23.13,79,21.19,74.48,21.19Zm4.26,11a3.88,3.88,0,0,1-.85,2.9,4.9,4.9,0,0,1-3.75,1.12c-2.65,0-3.85-.92-3.85-2.86s1.23-3,3.75-3h4.7ZM90.8,23.37a4.59,4.59,0,0,1,3.85,1.87s1.64-1.6,1.63-1.61a6.61,6.61,0,0,0-5.48-2.44c-4.22,0-7.42,2.86-7.42,8.58s3.2,8.58,7.42,8.58a6.64,6.64,0,0,0,5.52-2.48l-1.67-1.6a4.65,4.65,0,0,1-3.85,1.9,4.53,4.53,0,0,1-3.88-1.9,7.16,7.16,0,0,1-1.09-4.5,7.16,7.16,0,0,1,1.09-4.5A4.53,4.53,0,0,1,90.8,23.37Zm21-2h-3.06l-7.6,7.4V13.9H98.71V38.15h2.45V32l3-3,5.62,9.1h3l-7-10.8Zm11.52-.87a7.14,7.14,0,0,0-5.39,2.15c-1.58,1.64-2,3.62-2,6.77s.4,5.16,2,6.8a7.13,7.13,0,0,0,5.39,2.14,7.23,7.23,0,0,0,5.43-2.14c1.58-1.64,2-3.62,2-6.8s-.4-5.13-2-6.77A7.24,7.24,0,0,0,123.33,20.49Zm2,13.17a2.79,2.79,0,0,1-2,.77,2.68,2.68,0,0,1-2-.77c-.9-.9-1-2.44-1-4.25s.1-3.32,1-4.23a2.68,2.68,0,0,1,2-.77,2.79,2.79,0,0,1,2,.77c.9.91,1,2.42,1,4.23S126.28,32.76,125.38,33.66Zm17-13-3.52,10.79-3.55-10.79h-4.59l6.43,17.46h3.42l6.4-17.46Zm12-.2c-4.52,0-7.61,3.22-7.61,8.92,0,7.07,4,8.94,8.08,8.94a8.34,8.34,0,0,0,6.64-2.74L158.8,33a4.87,4.87,0,0,1-4,1.64A3.61,3.61,0,0,1,151,30.78H162V28.84C162,24,159.2,20.49,154.34,20.49ZM151,27.8a4.93,4.93,0,0,1,.41-1.88,3.25,3.25,0,0,1,5.83,0,4.75,4.75,0,0,1,.4,1.88Zm17.36-5.43V20.69h-4.26V38.15h4.36V27.63a2.91,2.91,0,0,1,5.11-2.19l3.3-3.31a5.3,5.3,0,0,0-4.12-1.64A5.88,5.88,0,0,0,168.38,22.37Zm9.86-3.5V38.14h4.36V24.37h3.21V21.05H182.6V19.14a1.39,1.39,0,0,1,1.54-1.57h1.67V13.88h-2.48A4.76,4.76,0,0,0,178.24,18.87Zm25.51,1.62a7.18,7.18,0,0,0-5.4,2.15c-1.57,1.64-2,3.62-2,6.77s.4,5.16,2,6.8a7.92,7.92,0,0,0,10.83,0c1.57-1.64,2-3.62,2-6.8s-.41-5.13-2-6.77A7.24,7.24,0,0,0,203.75,20.49Zm2,13.17a2.75,2.75,0,0,1-2,.77,2.68,2.68,0,0,1-2-.77c-.91-.9-1-2.44-1-4.25s.1-3.32,1-4.23a2.68,2.68,0,0,1,2-.77,2.75,2.75,0,0,1,2,.77c.91.91,1,2.42,1,4.23S206.7,32.76,205.79,33.66Zm26-13-2.82,10.79-3.58-10.79h-3.19L218.6,31.48l-2.81-10.79h-4.63l5.36,17.46h3.59l3.65-11,3.65,11H231l5.33-17.46Zm-39.5,12.2v-19h-4.36V33.16a4.74,4.74,0,0,0,5.1,5h2.48V34.47h-1.68C192.68,34.47,192.24,33.93,192.24,32.89ZM65.25,24l2.27-2.27H62.88V16.25H60.42v17.4c0,2.49,1.43,4.5,4.29,4.5h1.74V36H65.16c-1.57,0-2.28-.92-2.28-2.46V24Z"/><polygon class="cls-1" points="33.11 42.28 33.11 29.85 37.25 29.85 37.25 46.42 0 46.42 0 29.85 4.14 29.85 4.14 42.28 33.11 42.28"/><path class="cls-1" d="M8.7,28.71,29,33l.86-4L9.55,24.66ZM11.38,19l18.77,8.74L31.9,24,13.13,15.25Zm5.2-9.21L32.49,23.05l2.65-3.18L19.23,6.61ZM26.85,0,23.52,2.47,35.88,19.09l3.33-2.47ZM8.29,38.14H29V34H8.29Z"/><path class="cls-1" d="M47.21,50.87a2.2,2.2,0,0,0,2.27,2.5,2.64,2.64,0,0,0,2.16-.92l1.15,1.08a4.22,4.22,0,0,1-3.35,1.39c-2.23,0-4-1.18-4-4.58,0-2.88,1.5-4.55,3.78-4.55S53,47.55,53,50.08v.79ZM51,48.41a1.83,1.83,0,0,0-1.76-1.13,1.86,1.86,0,0,0-1.77,1.13,2.78,2.78,0,0,0-.23,1.21h4A2.77,2.77,0,0,0,51,48.41Z"/><path class="cls-1" d="M59.87,54.81V49.38a1.74,1.74,0,0,0-1.8-2,1.78,1.78,0,0,0-1.85,2v5.43H54.43V45.89h1.76v.9a3.19,3.19,0,0,1,2.37-1,3.07,3.07,0,0,1,2.2.81,3.24,3.24,0,0,1,.9,2.51v5.7Z"/><path class="cls-1" d="M68.68,50.87A2.2,2.2,0,0,0,71,53.37a2.66,2.66,0,0,0,2.17-.92l1.14,1.08a4.2,4.2,0,0,1-3.34,1.39c-2.24,0-4-1.18-4-4.58,0-2.88,1.49-4.55,3.78-4.55s3.78,1.76,3.78,4.29v.79Zm3.77-2.46a1.84,1.84,0,0,0-1.76-1.13,1.87,1.87,0,0,0-1.78,1.13,2.93,2.93,0,0,0-.23,1.21h4A2.77,2.77,0,0,0,72.45,48.41Z"/><path class="cls-1" d="M79.63,54.92a4.92,4.92,0,0,1-3.75-1.29l1.18-1.18a3.47,3.47,0,0,0,2.57.94c1.09,0,2-.39,2-1.23,0-.6-.33-1-1.2-1.06L79,51c-1.67-.14-2.64-.9-2.64-2.47,0-1.74,1.49-2.72,3.36-2.72a4.9,4.9,0,0,1,3.31,1l-1.13,1.14a3.38,3.38,0,0,0-2.2-.65c-1.07,0-1.62.48-1.62,1.15s.28.93,1.24,1l1.4.12c1.67.14,2.66.93,2.66,2.51C83.34,54,81.76,54.92,79.63,54.92Z"/><path class="cls-1" d="M90.89,54.13a3.08,3.08,0,0,1-2.17.79,2.79,2.79,0,0,1-2.34-1v4.52H84.59V45.89h1.76v1a2.73,2.73,0,0,1,2.35-1.05,3.13,3.13,0,0,1,2.19.79c.89.9,1,2.41,1,3.76S91.78,53.23,90.89,54.13Zm-2.64-6.74c-1.62,0-1.87,1.37-1.87,3s.25,3,1.87,3,1.84-1.39,1.84-3S89.87,47.39,88.25,47.39Z"/><path class="cls-1" d="M98.34,54.81V54a2.93,2.93,0,0,1-2.37.92,3.15,3.15,0,0,1-2.39-.81,2.74,2.74,0,0,1-.71-1.92c0-1.49,1-2.57,3.08-2.57h2.36V49c0-1.13-.57-1.67-2-1.67a2.1,2.1,0,0,0-2,.86l-1.18-1.11a3.69,3.69,0,0,1,3.21-1.28c2.44,0,3.67,1,3.67,3.06v6Zm0-3.94h-2.1c-1,0-1.6.48-1.6,1.29s.51,1.26,1.64,1.26a2.12,2.12,0,0,0,1.67-.51,1.79,1.79,0,0,0,.39-1.32Z"/><path class="cls-1" d="M106.93,54.81V49.38c0-1.39-.79-2-1.79-2a1.77,1.77,0,0,0-1.85,2v5.43h-1.8V45.89h1.76v.9a3.2,3.2,0,0,1,2.38-1,3.11,3.11,0,0,1,2.2.81,3.28,3.28,0,0,1,.9,2.51v5.7Zm-.67-10.35a2.46,2.46,0,0,1-1.32-.4,1.87,1.87,0,0,0-1-.34c-.3,0-.53,0-1,.53l-.85-.83a2.42,2.42,0,0,1,1.83-1,2.34,2.34,0,0,1,1.32.42,1.79,1.79,0,0,0,1,.33,1.39,1.39,0,0,0,1-.54l.84.82A2.42,2.42,0,0,1,106.26,44.46Z"/><path class="cls-1" d="M116.11,53.86a3.6,3.6,0,0,1-2.67,1.06,3.56,3.56,0,0,1-2.66-1.06,4.72,4.72,0,0,1-1.06-3.52,4.71,4.71,0,0,1,1.06-3.5,3.56,3.56,0,0,1,2.66-1.05,3.6,3.6,0,0,1,2.67,1.05,4.71,4.71,0,0,1,1.06,3.5A4.72,4.72,0,0,1,116.11,53.86Zm-1.35-6a1.82,1.82,0,0,0-1.32-.51,1.78,1.78,0,0,0-1.31.51,3.47,3.47,0,0,0-.61,2.44,3.49,3.49,0,0,0,.61,2.45,1.83,1.83,0,0,0,1.31.53,1.88,1.88,0,0,0,1.32-.53,3.49,3.49,0,0,0,.61-2.45A3.47,3.47,0,0,0,114.76,47.9Z"/><path class="cls-1" d="M120.63,54.81a2.27,2.27,0,0,1-2.45-2.46V42.29H120v10c0,.69.24,1,1,1h.8v1.53Z"/></g></g></svg>