<?xml version="1.0" encoding="utf-8"?>
<!-- Generator: Adobe Illustrator 23.0.0, SVG Export Plug-In . SVG Version: 6.00 Build 0)  -->
<svg version="1.1" id="Capa_1" xmlns="http://www.w3.org/2000/svg" xmlns:xlink="http://www.w3.org/1999/xlink" x="0px" y="0px"
	 viewBox="0 0 1075.4 269.6" style="enable-background:new 0 0 1075.4 269.6;" xml:space="preserve">
<style type="text/css">
	.st0{fill:#FFFFFF;}
	.st1{fill-rule:evenodd;clip-rule:evenodd;fill:#FFFFFF;}
</style>
<title>avanet</title>
<g id="avanet">
	
		<image style="overflow:visible;opacity:0.15;enable-background:new    ;" width="366" height="108" xlink:href="51FDFC6E.png"  transform="matrix(0.2378 0 0 0.2378 7.2778 2.2685)">
	</image>
	<path class="st0" d="M84.5,13.8l0.1,0.1c1,0.8,4.4,4.2,5.9,5.9C88.7,17.6,86.7,15.6,84.5,13.8z M82.8,12.4c0,0,0.1,0,0.1,0
		c-2.8-2.2-5.7-4-8.9-5.6C77.1,8.4,80.1,10.3,82.8,12.4z M70.7,5.4c-0.9-0.4-1.9-0.7-2.9-1.1C68.8,4.7,69.8,5.1,70.7,5.4L70.7,5.4z
		 M10.7,21.6l0.3-0.4c-0.4,0.5-0.8,1-1.2,1.5L10.7,21.6z M9.1,23.8c0.3-0.4,0.5-0.8,0.8-1.1C9.6,23.1,9.3,23.5,9.1,23.8L9.1,23.8z"
		/>
	<path class="st0" d="M89.6,62.1c-5,21.1-26.2,34.2-47.4,29.2S8.1,65.1,13.1,43.9S39.3,9.7,60.4,14.7c0,0,0,0,0,0
		C81.6,19.8,94.6,41,89.6,62.1z M254.5,89.3c-21,5.7-42.6-6.8-48.2-27.8c-5.7-21,6.8-42.6,27.8-48.2c21-5.7,42.6,6.8,48.2,27.8
		c0,0,0,0,0,0C287.9,62.1,275.5,83.7,254.5,89.3C254.5,89.3,254.5,89.3,254.5,89.3z M282.2,41.1c-5.6-21-27.2-33.4-48.2-27.8
		c-21,5.6-33.4,27.2-27.8,48.2c5.6,21,27.2,33.4,48.2,27.8C275.4,83.7,287.9,62.2,282.2,41.1C282.2,41.2,282.2,41.2,282.2,41.1z
		 M249,103.2c4.3-0.7,8.5-1.9,12.5-3.6c-1.6,0.6-7.1,2-8.6,2.3C251.7,102.3,250.4,102.7,249,103.2z M60.5,14.7
		c-21.1-5-42.3,8-47.4,29.1c-5,21.1,8,42.3,29.1,47.4s42.3-8,47.4-29.1c0,0,0,0,0,0C94.6,41,81.6,19.8,60.5,14.7z M82.9,12.5
		c0.5,0.4,1.1,0.8,1.6,1.3C84.1,13.2,83.5,12.8,82.9,12.5z M15.2,16.5l-0.6,0.7C22.9,8.7,33.8,3.4,45.5,2
		C34.1,3.3,23.4,8.3,15.2,16.5L15.2,16.5z M9.2,82.2c-0.7-1-1.3-2-2-3.1C7.8,80.2,8.4,81.2,9.2,82.2z M6.3,77.5
		c-0.4-0.8-0.8-1.6-1.2-2.3C5.4,76,5.8,76.8,6.3,77.5L6.3,77.5z M5.1,75.2c-0.7-1.6-1.4-3.2-2-4.8C3.6,72,4.3,73.6,5.1,75.2
		L5.1,75.2z M4.5,32.2c0-0.1,0.1-0.1,0.1-0.2C4.5,32,4.5,32.1,4.5,32.2L4.5,32.2z M0.7,44.4c-0.2,1-0.3,2.1-0.4,3.1
		C0.4,46.5,0.6,45.4,0.7,44.4z M0.7,44.4v-0.2V44.4z M4.4,32.2c-1.7,3.8-2.9,7.9-3.7,12c0.2-1,0.4-2.1,0.6-3.1
		C2.1,38,3.2,35,4.4,32.2L4.4,32.2z M4.5,32C5,31,5.4,30.1,5.9,29.2C5.4,30.1,5,31,4.5,32L4.5,32z"/>
	<path class="st0" d="M277.6,16.4C263.9,2.5,243.5-2.3,225,3.8H225c-7.5,2.5-14.3,6.7-19.9,12.2c-1.2,1.2-2.4,2.5-3.4,3.8
		c-2.3,2.7-4.8,5.1-7.5,7.3c-1.9,1.3-3.9,2.7-5.3,3.6c-45.9,28.7-82.2,4.1-97.7-10.3c-0.1-0.1-0.2-0.2-0.3-0.3l-0.3-0.3
		c-1.5-1.6-4.9-5-5.9-5.9l-0.1-0.1l0,0c-0.5-0.4-1-0.9-1.6-1.3l0,0c0,0-0.1,0-0.1,0c-2.7-2.1-5.7-4-8.8-5.5l-1.4-0.6l-1.9-0.8l0,0
		c-0.9-0.4-1.9-0.7-2.9-1.1l-0.3-0.1l-1-0.3l-1.1-0.3c-0.4-0.1-0.7-0.2-1.1-0.3l-1.1-0.3h-0.1c-1-0.2-1.9-0.4-2.9-0.6l-1.1-0.2
		l-2.3-0.3c-0.8-0.1-1.5-0.1-2.3-0.2c-2.2-0.1-4.4-0.1-6.6,0L46.8,2l-1.3,0.1c-11.7,1.3-22.6,6.6-30.9,15c-0.1,0-0.1,0.1-0.1,0.1
		l-0.8,0.8c-0.3,0.3-0.6,0.6-0.8,0.9c-0.6,0.7-1.2,1.4-1.8,2.2l-0.3,0.4l-0.8,1.1c-0.3,0.4-0.5,0.8-0.8,1.1l0,0
		c-0.3,0.4-0.6,0.9-0.9,1.3S7.7,26,7.4,26.5s-0.5,0.8-0.7,1.2c0,0.1-0.1,0.1-0.1,0.2c-0.2,0.4-0.5,0.9-0.7,1.3
		c-3,5.7-4.9,11.9-5.6,18.4c-0.1,0.8-0.2,1.7-0.2,2.5c0,0.5,0,1-0.1,1.5s0,1,0,1.4c0,0.8,0,1.6,0.1,2.5c0,0.4,0,0.8,0.1,1.2l0.1,1.1
		c0.2,2,0.5,4,0.9,6l0.2,0.8c0.1,0.4,0.2,0.8,0.3,1.2c0.2,0.7,0.4,1.3,0.6,2c0.1,0.4,0.3,0.8,0.4,1.3s0.3,0.8,0.4,1.3
		c0.6,1.7,1.3,3.3,2,4.8l0,0c0.4,0.8,0.8,1.6,1.2,2.3c0.3,0.5,0.6,1.1,0.9,1.6c0.6,1.1,1.3,2.1,2,3.1c0.3,0.5,0.7,1,1.1,1.5l0.6,0.8
		c0.4,0.5,0.9,1.1,1.3,1.6l0.8,1c0.6,0.6,1.2,1.3,1.8,1.9c1.2,1.3,2.5,2.4,3.9,3.6l1,0.8c0.7,0.5,1.4,1,2.1,1.5l1.1,0.7
		c0.4,0.3,0.9,0.6,1.3,0.9c0.6,0.4,1.3,0.8,1.9,1.1l1.1,0.6l1.1,0.6l1.1,0.5l1.2,0.5l0.3,0.1c0.7,0.3,1.4,0.6,2,0.8l0,0
		c0.8,0.3,1.5,0.6,2.3,0.8l1.3,0.4c0.6,0.2,1.2,0.3,1.8,0.5l1,0.3c1.3,0.3,4.5,1,4.8,1.1c71,21.6,61.2,82.3,59.3,91.7
		c-0.1,0.3-0.1,0.6-0.2,0.8c-11.1,26.1,1.1,56.2,27.2,67.3s56.2-1.1,67.3-27.2c4.5-10.5,5.3-22.3,2.3-33.3
		c-0.4-1.7-4.6-19.8-4.7-21.5c-2-50.7,32.5-70.9,53.4-78.5l0,0c1.4-0.5,2.7-0.9,3.9-1.3c1.5-0.3,7-1.7,8.6-2.3h0.1
		c26-11.3,37.9-41.5,26.6-67.5c-2.5-5.8-6.1-11.2-10.6-15.7L277.6,16.4z M13.1,43.9c5-21.1,26.2-34.2,47.4-29.2S94.7,41,89.6,62.1
		c-5,21.1-26.2,34.2-47.4,29.2c0,0,0,0,0,0C21.1,86.2,8.1,65,13.1,43.9z M186.6,206.9c5.6,21-6.8,42.6-27.8,48.2
		s-42.6-6.8-48.2-27.8c-5.6-21,6.8-42.6,27.8-48.2c0,0,0,0,0,0C159.3,173.5,180.9,185.9,186.6,206.9L186.6,206.9z M152.7,161.8
		c-1.4-0.3-2.7-0.7-4-1.2c-2.1-0.9-4.4-1.9-5.9-2.6c-41.5-20.4-46.3-55.4-44.3-78.1C147,43.6,187,72.5,198,82.1
		C202.8,132.5,170.1,154,152.7,161.8L152.7,161.8z M254.5,89.3c-21,5.7-42.6-6.8-48.2-27.8c-5.7-21,6.8-42.6,27.8-48.2
		c21-5.7,42.6,6.8,48.2,27.8c0,0,0,0,0,0C287.9,62.1,275.5,83.7,254.5,89.3L254.5,89.3z"/>
	<path class="st0" d="M293.8,38C286.5,10.7,258.4-5.6,231,1.8c-2,0.5-4,1.2-6,2c26.9-9,56,5.6,65,32.5c8.4,25.3-3.9,52.8-28.4,63.4
		h0.1c1.8-0.4,2.2-0.8,2.2-0.8C287.7,88.9,300.5,62.9,293.8,38z"/>
	<path class="st1" d="M430,269.6h-30.7v-99.2h-38.5v99.1H330c-0.2-2.8-0.5-5.4-0.5-8c0-69.4,0.5-138.7-0.2-208.1
		c-0.5-49.1,49.1-60.8,78.4-44.1c13.9,7.9,22,20.5,22.1,35.9C430.3,119.5,430,194,430,269.6z M398.7,140.3c0-30.8,0.6-61.1-0.3-91.3
		c-0.4-13-11.8-19.7-24.1-16.6c-8.3,2.1-13.5,9.9-13.6,21.6c-0.1,27-0.1,53.9,0,80.9c0.2,1.9,0.5,3.7,1,5.5H398.7z"/>
	<path class="st1" d="M674.3,170.3h-38.5v99.2h-31.1c-0.1-3-0.4-5.7-0.4-8.3c0-69.4,0.5-138.7-0.2-208.1
		C603.7,4.8,652-7.4,681.8,8.8c14.1,7.6,22.5,20.2,22.7,35.5c0.7,74.8,0.3,149.6,0.3,225.1h-30.5V170.3z M673.7,140.3
		c0-30.5,0.4-59.8-0.2-89.2c-0.2-13.7-9.4-20.8-22.2-19.1c-9.8,1.3-15.7,9-15.7,21.7c-0.2,27.3-0.1,54.6,0,81.9
		c0.2,1.6,0.5,3.2,1,4.7H673.7z"/>
	<path class="st1" d="M842.3,269.6h-31.1v-11.8c0-66.3,0-132.7,0-199c0.1-4.7-0.4-9.5-1.5-14.1c-2.3-8.6-8.4-12.8-17.4-12.8
		s-15.3,3.9-17.7,12.5c-1.2,4.6-1.7,9.3-1.6,14.1c-0.1,66-0.1,132-0.1,197.9v12.9h-30.6c-0.2-2.8-0.6-5.8-0.6-8.7
		c0-69.1,0-138.1,0-207.2c0-20,6.4-36.6,25.2-45.5c19.1-9.1,38.3-8.4,56.4,3.4c12,7.9,18.7,19.8,18.8,33.6
		C842.6,119.4,842.3,193.9,842.3,269.6z"/>
	<path class="st1" d="M567.4,6.4c0,60.6,1.6,120.5-0.7,180.2c-1.2,30-16,56.8-36.3,79.5c-9.1,10.2-17,10.5-26,0.5
		c-21-23.4-36-50.9-36.9-82.3c-1.8-57.7-0.6-115.5-0.6-173.3c0-1.3,0.3-2.7,0.5-4.7h30.7v12c0,51.9,0,103.9,0,155.8
		c0.1,18.5,4.6,36.6,13.1,53c0.9,1.8,2,3.6,3.1,5.2c1.1,1.2,2.3,2.3,3.6,3.4c12.7-18.8,18.3-39.2,18.4-61
		c0.3-52,0.1-103.9,0.1-155.8V6.4H567.4z"/>
	<path class="st1" d="M911,35.5v87.2h43.9v29.8h-43.6v88.4h49.3v28.3h-80.8V6.1h80.7v29.4H911z"/>
	<path class="st1" d="M1010.9,35.2h-33.1V6.4h97.6v28.7H1043v234.4h-32L1010.9,35.2z"/>
</g>
</svg>
