<?xml version="1.0" encoding="UTF-8" standalone="no"?>
<!-- Generator: Adobe Illustrator 23.0.0, SVG Export Plug-In . SVG Version: 6.00 Build 0)  -->

<svg
   xmlns:dc="http://purl.org/dc/elements/1.1/"
   xmlns:cc="http://creativecommons.org/ns#"
   xmlns:rdf="http://www.w3.org/1999/02/22-rdf-syntax-ns#"
   xmlns:svg="http://www.w3.org/2000/svg"
   xmlns="http://www.w3.org/2000/svg"
   xmlns:sodipodi="http://sodipodi.sourceforge.net/DTD/sodipodi-0.dtd"
   xmlns:inkscape="http://www.inkscape.org/namespaces/inkscape"
   version="1.1"
   id="Capa_1"
   x="0px"
   y="0px"
   viewBox="0 0 2048 1603"
   style="enable-background:new 0 0 2048 1603;"
   xml:space="preserve"
   sodipodi:docname="monadical.svg"
   inkscape:version="0.92.2 2405546, 2018-03-11"><metadata
   id="metadata67"><rdf:RDF><cc:Work
       rdf:about=""><dc:format>image/svg+xml</dc:format><dc:type
         rdf:resource="http://purl.org/dc/dcmitype/StillImage" /></cc:Work></rdf:RDF></metadata><defs
   id="defs65" /><sodipodi:namedview
   pagecolor="#ffffff"
   bordercolor="#666666"
   borderopacity="1"
   objecttolerance="10"
   gridtolerance="10"
   guidetolerance="10"
   inkscape:pageopacity="0"
   inkscape:pageshadow="2"
   inkscape:window-width="1366"
   inkscape:window-height="713"
   id="namedview63"
   showgrid="false"
   inkscape:zoom="0.12304688"
   inkscape:cx="170.66667"
   inkscape:cy="801.5"
   inkscape:window-x="0"
   inkscape:window-y="27"
   inkscape:window-maximized="1"
   inkscape:current-layer="Capa_1" />
<g
   id="g30"
   style="fill:#ffffff">
	<g
   id="g20"
   style="fill:#ffffff">
		<path
   d="M324,1573.8V1427c0-18-3.8-31.5-11.5-40.5c-7.7-9-19.6-13.5-35.8-13.5c-21.3,0-37,6.1-47.2,18.3    c-10.2,12.2-15.2,31-15.2,56.4v126.1H180V1427c0-18-3.8-31.5-11.5-40.5c-7.7-9-19.7-13.5-36-13.5c-21.4,0-37.1,6.4-47.1,19.3    c-10,12.8-14.9,33.9-14.9,63.1v118.4H36.3v-225.7h27.8l5.6,30.9h1.6c6.5-11,15.6-19.6,27.3-25.7c11.7-6.2,24.9-9.3,39.4-9.3    c35.3,0,58.4,12.8,69.2,38.3h1.6c6.7-11.8,16.5-21.1,29.2-28c12.8-6.9,27.3-10.3,43.7-10.3c25.5,0,44.7,6.6,57.4,19.7    c12.7,13.1,19.1,34.1,19.1,62.9v147.3H324z"
   id="path2"
   style="fill:#ffffff" />
		<path
   d="M623.5,1460.8c0,36.8-9.3,65.5-27.8,86.2c-18.5,20.7-44.1,31-76.8,31c-20.2,0-38.1-4.7-53.8-14.2    c-15.7-9.5-27.7-23.1-36.3-40.8c-8.5-17.7-12.8-38.4-12.8-62.2c0-36.8,9.2-65.5,27.6-86c18.4-20.5,43.9-30.8,76.6-30.8    c31.6,0,56.7,10.5,75.3,31.5C614.2,1396.5,623.5,1424.9,623.5,1460.8z M451.5,1460.8c0,28.8,5.8,50.8,17.3,65.9    c11.5,15.1,28.5,22.7,50.9,22.7c22.4,0,39.4-7.5,51-22.6c11.6-15,17.4-37,17.4-66c0-28.7-5.8-50.5-17.4-65.4    c-11.6-14.9-28.7-22.3-51.4-22.3c-22.4,0-39.3,7.3-50.7,22C457.2,1409.7,451.5,1431.6,451.5,1460.8z"
   id="path4"
   style="fill:#ffffff" />
		<path
   d="M837.9,1573.8v-146c0-18.4-4.2-32.1-12.6-41.2c-8.4-9.1-21.5-13.6-39.3-13.6c-23.6,0-40.9,6.4-51.9,19.2    c-11,12.8-16.5,33.9-16.5,63.2v118.4h-34.2v-225.7h27.8l5.6,30.9h1.6c7-11.1,16.8-19.7,29.5-25.8c12.6-6.1,26.7-9.2,42.2-9.2    c27.2,0,47.6,6.6,61.4,19.7c13.7,13.1,20.6,34.1,20.6,62.9v147.3H837.9z"
   id="path6"
   style="fill:#ffffff" />
		<path
   d="M1081.2,1573.8l-6.8-32.1h-1.6c-11.3,14.1-22.5,23.7-33.7,28.7c-11.2,5-25.2,7.5-41.9,7.5c-22.4,0-39.9-5.8-52.6-17.3    c-12.7-11.5-19.1-27.9-19.1-49.2c0-45.6,36.5-69.5,109.4-71.7l38.3-1.2v-14c0-17.7-3.8-30.8-11.4-39.2s-19.8-12.7-36.6-12.7    c-18.8,0-40.1,5.8-63.9,17.3l-10.5-26.2c11.1-6,23.3-10.8,36.6-14.2c13.3-3.4,26.5-5.1,39.9-5.1c26.9,0,46.9,6,59.8,17.9    s19.5,31.1,19.5,57.5v154.1H1081.2z M1003.9,1549.7c21.3,0,38-5.8,50.2-17.5c12.2-11.7,18.2-28,18.2-49v-20.4l-34.2,1.4    c-27.2,1-46.8,5.2-58.8,12.7c-12,7.5-18,19.1-18,34.9c0,12.4,3.7,21.8,11.2,28.2C980,1546.5,990.5,1549.7,1003.9,1549.7z"
   id="path8"
   style="fill:#ffffff" />
		<path
   d="M1330.6,1543.6h-1.9c-15.8,22.9-39.4,34.4-70.9,34.4c-29.5,0-52.5-10.1-68.9-30.3c-16.4-20.2-24.6-48.9-24.6-86.1    c0-37.2,8.2-66.1,24.7-86.7c16.5-20.6,39.4-30.9,68.8-30.9c30.6,0,54.1,11.1,70.4,33.4h2.7l-1.4-16.3l-0.8-15.9v-91.9h34.2v320.5    h-27.8L1330.6,1543.6z M1262.2,1549.3c23.3,0,40.3-6.3,50.8-19.1c10.5-12.7,15.8-33.2,15.8-61.5v-7.2c0-32-5.3-54.8-16-68.5    c-10.6-13.7-27.6-20.5-51-20.5c-20,0-35.4,7.8-46,23.4c-10.6,15.6-16,37.6-16,66c0,28.8,5.3,50.6,15.9,65.3    C1226.2,1542,1241.7,1549.3,1262.2,1549.3z"
   id="path10"
   style="fill:#ffffff" />
		<path
   d="M1432.5,1286.9c0-7.8,1.9-13.6,5.8-17.2c3.8-3.6,8.7-5.5,14.4-5.5c5.5,0,10.2,1.9,14.2,5.6c4,3.7,6,9.4,6,17.1    c0,7.7-2,13.4-6,17.2c-4,3.8-8.7,5.7-14.2,5.7c-5.8,0-10.6-1.9-14.4-5.7C1434.5,1300.3,1432.5,1294.6,1432.5,1286.9z     M1469.6,1573.8h-34.2v-225.7h34.2V1573.8z"
   id="path12"
   style="fill:#ffffff" />
		<path
   d="M1632.3,1578c-32.7,0-58-10.1-75.9-30.2c-17.9-20.1-26.9-48.6-26.9-85.4c0-37.8,9.1-66.9,27.3-87.5    c18.2-20.6,44.1-30.9,77.8-30.9c10.8,0,21.7,1.2,32.5,3.5c10.8,2.3,19.4,5.1,25.5,8.2l-10.5,29c-7.6-3-15.8-5.5-24.7-7.5    c-8.9-2-16.8-3-23.7-3c-45.9,0-68.8,29.2-68.8,87.7c0,27.7,5.6,49,16.8,63.9c11.2,14.8,27.8,22.2,49.7,22.2    c18.8,0,38.1-4,57.9-12.2v30.3C1674.3,1574,1655.3,1578,1632.3,1578z"
   id="path14"
   style="fill:#ffffff" />
		<path
   d="M1881.8,1573.8l-6.8-32.1h-1.6c-11.3,14.1-22.5,23.7-33.7,28.7c-11.2,5-25.2,7.5-41.9,7.5c-22.4,0-39.9-5.8-52.6-17.3    c-12.7-11.5-19.1-27.9-19.1-49.2c0-45.6,36.5-69.5,109.4-71.7l38.3-1.2v-14c0-17.7-3.8-30.8-11.4-39.2s-19.8-12.7-36.6-12.7    c-18.8,0-40.1,5.8-63.9,17.3l-10.5-26.2c11.1-6,23.3-10.8,36.6-14.2c13.3-3.4,26.5-5.1,39.9-5.1c26.9,0,46.9,6,59.8,17.9    s19.5,31.1,19.5,57.5v154.1H1881.8z M1804.5,1549.7c21.3,0,38-5.8,50.2-17.5c12.2-11.7,18.2-28,18.2-49v-20.4l-34.2,1.4    c-27.2,1-46.8,5.2-58.8,12.7c-12,7.5-18,19.1-18,34.9c0,12.4,3.7,21.8,11.2,28.2C1780.6,1546.5,1791.1,1549.7,1804.5,1549.7z"
   id="path16"
   style="fill:#ffffff" />
		<path
   d="M2011.7,1573.8h-34.2v-320.5h34.2V1573.8z"
   id="path18"
   style="fill:#ffffff" />
	</g>
	<g
   id="g28"
   style="fill:#ffffff">
		<polygon
   points="892.9,47.9 348.2,1001.8 425,1108 892.9,296.6 1227.4,805.1 1374.3,805.1   "
   id="polygon22"
   style="fill:#ffffff" />
		<polygon
   points="1702.1,1010.8 1620.7,1139.6 463.5,1139.6 892.9,382.4 976.5,504.5 700.9,1010.8   "
   id="polygon24"
   style="fill:#ffffff" />
		<path
   d="M1702.1,961.1c-308.9,0-617.8,0-926.7,0c19.6-36.2,39.2-72.3,58.8-108.5l634.3-0.2L931.3,29.8H1076L1702.1,961.1z"
   id="path26"
   style="fill:#ffffff" />
	</g>
</g>
<g
   id="g32">
</g>
<g
   id="g34">
</g>
<g
   id="g36">
</g>
<g
   id="g38">
</g>
<g
   id="g40">
</g>
<g
   id="g42">
</g>
<g
   id="g44">
</g>
<g
   id="g46">
</g>
<g
   id="g48">
</g>
<g
   id="g50">
</g>
<g
   id="g52">
</g>
<g
   id="g54">
</g>
<g
   id="g56">
</g>
<g
   id="g58">
</g>
<g
   id="g60">
</g>
</svg>