<?xml version="1.0" encoding="utf-8"?>
<!-- Generator: Adobe Illustrator 22.0.0, SVG Export Plug-In . SVG Version: 6.00 Build 0)  -->
<svg version="1.1" id="Layer_1" xmlns="http://www.w3.org/2000/svg" xmlns:xlink="http://www.w3.org/1999/xlink" x="0px" y="0px"
   viewBox="0 0 784 919.9" style="enable-background:new 0 0 784 919.9;" xml:space="preserve">
<style type="text/css">
  .st0{opacity:0.5;}
  .st1{fill:none;}
  .st2{opacity:0.8;fill:none;}
  .st3{fill:url(#SVGID_1_);}
  .st4{opacity:0.3;fill:url(#SVGID_2_);}
</style>
<g class="st0">
  <g>
    <path class="st1" d="M390.4,706.8C210.8,706,65.9,547.1,66.8,351.8C67.7,156.7,214.1-0.9,393.6,0
      c179.7,0.9,324.7,159.7,323.6,354.8C716.4,550.1,570,707.6,390.4,706.8z"/>
    <path class="st1" d="M393.8,411.5c-66.8-0.3-120.6-62.9-120.1-139.7c0.4-76.9,54.7-138.9,121.3-138.6
      c66.4,0.3,120.2,62.9,119.8,139.7C514.6,349.8,460.4,411.8,393.8,411.5z"/>
  </g>
</g>
<circle class="st1" cx="392" cy="526.2" r="392"/>
<circle class="st2" cx="392" cy="532.1" r="387.8"/>
<linearGradient id="SVGID_1_" gradientUnits="userSpaceOnUse" x1="391.9999" y1="877.4406" x2="391.9999" y2="173.2761">
  <stop  offset="0" style="stop-color:#000000"/>
  <stop  offset="0.308" style="stop-color:#000202"/>
  <stop  offset="0.4557" style="stop-color:#00070A"/>
  <stop  offset="0.5693" style="stop-color:#001017"/>
  <stop  offset="0.6654" style="stop-color:#001D29"/>
  <stop  offset="0.7505" style="stop-color:#002E41"/>
  <stop  offset="0.8279" style="stop-color:#00435F"/>
  <stop  offset="0.8993" style="stop-color:#005C82"/>
  <stop  offset="0.9643" style="stop-color:#0077AA"/>
  <stop  offset="0.9879" style="stop-color:#0083BA"/>
</linearGradient>
<path class="st3" d="M645.1,770.3C509.6,910,286.5,913.5,146.6,778.2C6.8,642.9,3.4,420,138.8,280.4
  c135.5-139.7,358.7-143.2,498.5-7.9C777.2,407.8,780.7,630.7,645.1,770.3z"/>
<linearGradient id="SVGID_2_" gradientUnits="userSpaceOnUse" x1="404.989" y1="853.639" x2="404.989" y2="173.222">
  <stop  offset="0" style="stop-color:#004F9B"/>
  <stop  offset="2.993661e-02" style="stop-color:#00529E"/>
  <stop  offset="0.4574" style="stop-color:#007BC1"/>
  <stop  offset="0.7954" style="stop-color:#0094D7"/>
  <stop  offset="1" style="stop-color:#009DDF"/>
</linearGradient>
<path class="st4" d="M559,216.5c-0.9-0.5-1.8-1-2.6-1.4l-2.4-1.4l1.4,0.7l0.3,0.1l0.1,0l3.7,2c0.1,0,0.1,0.1,0.5,0.2
  c0.4,0.3,0.8,0.5,1.3,0.8l0,0C560.4,217.2,559.7,216.9,559,216.5 M546.1,209.7l-3.5-1.7c0.7,0.3,1.5,0.7,2.2,1
  c0.4,0.2,0.6,0.3,0.8,0.4c1.3,0.6,2.6,1.3,3.9,1.9C548.3,210.8,547.2,210.3,546.1,209.7 M539.1,206.3l-2.5-1.2l-1.7-0.7
  c-1.7-0.8-3.4-1.5-5.2-2.3c-0.4-0.2-0.9-0.4-1.3-0.6c1.5,0.6,3,1.3,3.6,1.6l-0.7-0.3c0.6,0.3,1.2,0.5,1.8,0.8l0.6,0.2
  c0.5,0.2,1,0.4,1.5,0.7l-0.2-0.1c1.2,0.5,2.3,1,3.3,1.5l0.3,0.1l3.9,2C541.5,207.5,540.3,206.9,539.1,206.3 M731.2,436.3
  c-0.4-1.8-0.8-3.5-1.3-5.3l1.5,5c0,0.1,0,0.2,0,0.3c0,0.1-0.1,0.2-0.1,0.4L731.2,436.3 M727.7,423.7l-1.8-6.4
  c-1.1-3.5-2.6-7.6-4.1-11.6l-1.2-3.5l-3.4-8.7c3.9,8.9,5.3,13.2,8.7,23.8l2.6,8.7L727.7,423.7 M596,239.7c-4.4-3.2-8.9-6.2-13.5-9.2
  l-0.4-0.3C586.8,233.2,591.5,236.4,596,239.7C596.1,239.7,596,239.7,596,239.7 M579,228.2c-0.1-0.1-0.3-0.2-0.4-0.3v0
  c-0.3-0.2-0.3-0.2-0.3-0.2l-0.1-0.1c0.9,0.6,1.7,1.1,2.6,1.6l1.3,0.9C581,229.5,580,228.8,579,228.2 M580.7,229.2L580.7,229.2
  L580.7,229.2C580.7,229.3,580.7,229.2,580.7,229.2 M579.7,228.7c5.5,3.5,11,7.2,16.3,11C590.8,236,584.7,232.1,579.7,228.7
   M741.6,494.8l0,0.4v0L741.6,494.8 M742.2,502.6l0,0.2v0.1C742.2,502.7,742.2,502.6,742.2,502.6 M742.1,502.1L742.1,502.1
  c0-0.4-0.1-0.8-0.1-1.2v-0.2c0,0.6,0.1,1.3,0.1,1.8L742.1,502.1 M741.9,499.1c0-0.2,0-0.3,0-0.5c0-0.5-0.1-1.1-0.1-1.6
  c0.1,0.8,0.1,1.6,0.2,2.5L741.9,499.1 M741.7,496.1c0,0.3,0,0.6,0.1,0.9C741.7,496.7,741.7,496.4,741.7,496.1 M739.2,475.3l-0.4-3.5
  l0.7,4.9v0c0.2,1,0.3,2.1,0.4,3.1c0,0.1,0,0.2,0,0.3C739.7,478.4,739.4,476.8,739.2,475.3 M731.3,436.6c0.1-0.2,0.1-0.4,0.1-0.6
  c0.3,1.4,0.6,2.8,0.9,4.2L731.3,436.6 M155.6,260.5c-2.6,2.2-5.1,4.5-7.6,6.8C150.6,264.8,152.9,262.8,155.6,260.5 M254.4,252.1
  c0.3-0.5,0.7-0.9,1-1.4c0.5-0.8,1-1.7,1.5-2.5l-2.2-0.3l-3.5,1.5l-1.7,3.5c1,0,2.1-0.1,3.1-0.1L254.4,252.1 M248.7,247.6l0.3-0.2
  l0.8-1.4c-0.6,0.3-1.1,0.7-1.7,1c-0.3,0.1-0.3,0.1-1.1,0.3c-0.4,0.1-0.9,0.3-3,1.3c-0.5,0.2-1,0.5-1.5,0.7c0.2,0.3,0,0.8,0.4,1
  c0.1,0.1,0.8,0,1.1-0.1C246.1,249.6,247.8,248.3,248.7,247.6 M309.9,198.4l3.2-0.7l0-1.6l-3.2-0.1c-0.8,0-1.6,0.1-2.4,0.1l-2.5,1.9
  l-1.6,1.5l3.6,0.1L309.9,198.4 M571.4,223.7c-1.2-0.7-2.4-1.4-3.5-2.1l-0.6-0.2c0.7,0.4,1.5,0.9,2.2,1.3c1.6,0.9,3.1,1.9,4.6,2.8
  l0.3,0.1c-0.5-0.4-1-0.6-1.5-1l0.1,0C571.9,224,571.9,224,571.4,223.7 M555.3,214.3c-1.2-0.7-2.4-1.3-3.7-1.9c0.6,0.4,1.3,0.7,2,1
  c-0.7-0.4-1.4-0.7-2.1-1.1l-0.2-0.1c0.5,0.3,0.9,0.5,1.4,0.7l-0.4-0.2c-2.9-1.5-5.9-3-7.4-3.8l0.1,0.1c-2.3-1.1-4.4-2.2-6.2-3
  l15.3,7.6l1.4,0.7L555.3,214.3 M559.3,216.5c-0.3-0.2-0.7-0.4-1-0.5l-0.5-0.3l-2.1-1.1L559.3,216.5L559.3,216.5 M453.9,180.4
  l-0.5-0.1L453.9,180.4L453.9,180.4 M738.5,470.7c-1.9-11.9-4.3-23.6-7.3-35.1c-0.7-0.8-2.7-1.7-6.3-2.6c-4.6-1.1-11.4-2.2-20.3-3.3
  c0,0,0.7,5.3,0.3,6.5l-0.1,0.5l-0.1,0.4l-0.2,0c-0.4,0-0.8,0.2-1.1,0.4l-0.3,0l-0.2,0.1l-0.2,0.2l-0.5,0.4l-0.5-0.5l-0.4-0.6
  c-0.5-0.4-0.6-0.5-0.6-0.5c0,0-1.6-0.4-2.2-0.9l-0.3,0l-0.3,0l0,0.6c1.4,1.2,1.4,1.2,2.2,1.5c0.6,0.6,0.7,1,0.7,1.4l0.1,0.7
  c0.2,0.5,0.6,1.1,0.8,1.6c0.1,0.5,0.3,1.1,0.4,1.6l0.1,0.5l0.1,0.7c0.5,2.8,2.1,5.3,3.1,7.9c1.3,3,1.4,3.1,2.2,4.2
  c0.3,0.1,0.5,0.1,0.7,0.2l0.6-0.1c0.3-0.9,0-1.8,0.2-2.6l0.5,0.9c6.5,15.9,6.5,15.9,6.8,18.3c0.1,0.5,0.1,0.7,0.1,0.9
  c0.1,6.6,4.2,11.9,5.7,18c0.8,3.4-0.5,7,1,10.4c1.5,3.1,2.4,5.8,2.9,8l0.2,0.9l3.6,23.7c-0.1,3.9-0.3,7.4-0.5,10.8
  c0,1.7,0.7,4.5,1.1,5.2c0.4,0.1,0.9,0.1,1.3,0c0.7-1.5,0.7-3.3,1.5-4.8c0.9-0.3,1.3-0.2,1.8-0.1l0.1,0l0.1,0.6
  c0.2-0.6,0.5-1.3,0.7-1.9c0.4-2.1,0.9-4.4,2.9-5.5c0.1-0.6,0.3-1.5,0.4-2.1c0.2-1.5,1.7-7.1,1.8-7.1l0.7,0.6
  c0.1-4.2,0.2-6.6,0.2-6.7l0.3,0.3c0-1.7,0-3.4,0-5.2c-0.2-11.3-0.9-21.9-2-32.4l0,0.7c-0.2-1.7-0.4-3.5-0.7-5.2
  c-0.3-2.3-0.5-4.2-0.8-6.2c-0.1-0.6-0.2-1.2-0.3-1.8c0.2,2.6,0.2,2.6,1,10.1l-0.4-0.5l-0.1-0.1c-0.1-0.4-0.3-0.9-0.4-1.2l-0.2-0.2
  c0,1.1-0.1,2.2,0,3.4c-0.9-1.4-1.3-5-1.1-5.8l0-0.6c0.2-0.4,0.2-0.4,0.2-0.4c0.1,0.4,0.3,0.8,0.6,1.1c0.2-0.7,0.2-0.9-0.2-2.6
  l-0.1-0.1l-0.3,0.1c-0.5-0.7-0.5-1.6-1.4-2c-0.2-0.3-0.3-0.3-0.4-0.4c-0.3-1.9-0.6-3.9-0.9-5.8c-1.8-7.2-5.4-14-5.5-21.6
  c0.5,0.2,1.6,0.5,4.1,10.6c1.6,6.6,3.1,9.6,3.7,10.7l0.2,0.2l0.1,0.1l0.1-0.6c0-0.3,0-0.3,0-0.3c0.2,0.7,0.2,0.7,0.5,2L738.5,470.7
   M731.1,435.6c-12.3-46.8-34.1-89.9-63.1-126.9l8.5,11.3c10.7,14.9,10.7,14.9,28.4,46.5c8.3,16.4,8.3,16.4,21,50.9l5.5,18.7
  L731.1,435.6 M599.7,273.7c0.9,0.1,1.8,0.1,2.6,0.2l-0.6-0.2l-0.3,0l-0.1,0c-0.2-0.1-0.4-0.2-1-0.6l-0.6-0.8l-0.2-0.1l-0.3,0l-0.3,0
  l-0.2,0.2l0,0.2l0.5,0.7l0.2,0.1L599.7,273.7 M539.2,214.9c-1.3-0.8-2.6-1.6-3.9-2.4l-0.1-0.1l0,0l0,0.1h0l-0.6-0.1l0.5,0.3
  c1.1,0.7,2.2,1.4,3.3,2C538.6,214.8,538.9,214.9,539.2,214.9 M602.3,273.9c17.3,1.4,29.8,2.9,36.3,4.5c2.5,0.6,3.9,1.2,4.5,1.8
  l-1.7-1.8c-26.4-24.7-26.4-24.7-41.1-35.7l-19.6-13.6l-0.1,0c-1-0.6-4.5-2.8-6.8-4.3c1.4,0.9,1.6,1,3.2,2.1v0l1.3,0.9l0.2,0.2
  c2.7,2.4,6.5,3.3,8.5,6.5l0.1,0.2c-2.4-1.5-4.7-3-7.1-4.6l0.5,0c-1-0.6-2-1.3-2.9-1.9c-1-0.6-1-0.6-1.5-0.8
  c-0.9-0.6-1.8-1.1-2.7-1.7l-0.3,0c-1.1-0.7-1.1-0.7-1.7-0.9c-0.3,0-0.4,0-0.5-0.1c0.4,0.4,1.1,0.8,1.8,1.3c0.4,0.1,0.8,0.3,1.1,0.5
  c1.9,1.2,3.7,2.4,5.6,3.7c3.3,2.3,3.3,2.3,3.7,2.5c0.5,0.3,1,0.6,2.8,1.7c0.3,0.2,0.5,0.4,0.6,0.4c1.4,1.2,2.9,2.2,4.4,3.2
  c-0.4-0.2-0.8-0.4-1.2-0.5c-0.7-0.5-1-0.7-1.3-0.9c-0.3-0.2-0.7-0.5-1.1-0.7l-0.5,0.3c1.2,1.2,2.3,2.5,3.5,3.6v0.3
  c2.3,1.7,4.8,3.2,7,5.1l-0.1-0.1c-0.7-0.1-1-0.2-1.8-0.6l-0.3,0c-1.1-0.5-2.9-1.3-5.9-3.4c1.7,2.3,2.2,2.5,4.1,3.5
  c0.8,0.7,0.8,0.7,1.4,1.1c0.4,0.3,0.5,0.3,0.6,0.3c0.9,0.1,2.1,0.8,3.4,2c-0.1,0.3-0.5,0.3-0.9,0.2l0.5,0.5
  c-2.6-0.4-7.9-4.8-9.9-6.4c-0.7-0.3-0.9-0.4-1.2-0.4l-2.7-2.2c-4.6-3.7-10-5.9-14.7-9.3c2,0.7,8.7,4.1,8.7,4.1
  c1,0.2,1.6,0.3,2.1,0.4c1.1,0.5,2.2,1.1,3.3,1.5c0.3,0,0.4,0.1,0.4,0.1l0.2,0c-0.1-0.3-0.1-0.8-0.2-1.2c-6.3-6.1-16.9-10.7-19-11.5
  c-1.1-0.6-1.1-0.6-2.2-1.1c-1.4-0.7-1.5-0.7-2.3-0.9c-0.3,0.2-0.3,0.2-0.4,0.2c-1.2-0.6-2.5-1.2-3.7-1.8l-0.7-0.1
  c1.2,0.7,1.2,0.7,2.1,1.4c-0.3,0-0.4,0-0.5,0c-0.7-0.4-0.7-0.4-2.8-1.7c-0.3-0.2-0.5-0.3-0.6-0.4c-1.2-0.5-1.2-0.5-3.5-1.9l-0.7-0.1
  l0.5,0.5c-0.2,0-0.2,0-3.6-1.2c-0.7-0.4-1.1-0.5-1.4-0.8l0.6,0c-0.5-0.3-1.1-0.8-1.6-1.1c-4-2.1-6.4-2.5-6.4-2.5
  c0.9,0.5,1.8,1.1,2.6,1.6c-1.1-0.3-1.7-0.7-2.3-1c-0.3-0.2-0.7-0.5-1-0.7c-0.6-0.4-0.9-0.6-1.1-0.7c-0.6-0.1-1.2-0.1-1.9-0.2
  c2.5,1.5,2.5,1.5,3.3,2c0.5,0.3,0.8,0.5,1.1,0.7l0.6,0.3l-0.2,0.1c-2.2-1.5-2.4-1.6-3.9-2.3c-0.6-0.1-0.7-0.2-0.9-0.2l-2.2-1.3
  l-0.6-0.1l0.1,0.1l0.4,0.4l-0.5,0.3c0.7,0.6,1.4,1,2.1,1.6l-0.1,0.3c-0.4-0.1-1.1-0.3-2.3-1.2c-0.7-0.4-1-0.4-1.4-0.5l-0.3,0.5
  c0.8,1,2.4,1.8,4.6,2.4c0.7,0.4,1.3,0.8,2,1.2l-0.6,0c-0.9-0.4-2-0.5-2.9-0.8c-0.3,0-0.5-0.1-0.8-0.1c2.9,1.9,3,2,3.7,2.6
  c-2.6-1-5.1-2.5-7.6-3.6c0,0.4,0.5,0.8,1,1.1c0.4,0.2,3.9,2.3,4.6,3.5c-0.8,0.2-0.8,0.2-3.2-1.5l0.4,0.5l-0.4,0.4
  c0.3,0.3,0.8,0.7,1.2,1c0.8,0.5,1.8,0.7,2.6,1.3c0.5,0.4,0.7,0.5,1,0.7l0.4,0.4c-1.6-0.4-5.8-2.9-5.9-3c0.2,0.6,0.9,1.2,1.7,1.7
  c-0.4,0-0.8,0-1.2,0c0.1,0.3,0.1,0.3,1.8,1.5c-0.3,0.2-0.8,0.3-1.1,0.4c0.2,0.3,0.4,0.7,0.5,1l-0.2,0.1c0.2,0.4,0.6,0.8,0.9,1.2
  l-0.4,0l0.3,0.5c0.4,0.2,0.7,0.2,1,0.3c-0.1-0.3,0-0.8,0.1-1.1l0.6,0l-0.1-0.6c0.3-0.2,0.6-0.6,0.8-0.9c1.8,0.1,2.2,0.4,3.1,1.3
  c-0.4-0.1-0.8-0.1-1.2-0.1l0.4,0.4l-0.6,0.1c0.5,1.2,3.3,3.8,3.7,4.1l-0.6,0.1c0,0.1,4.6,7.7,5.6,8.5l-0.7-0.6
  c-0.3,1.3-0.3,1.3-0.1,1.7c-0.3,0.2-0.7,0.5-0.9,0.8c0.3,0.3,0.7,0.8,0.9,1.1l0.6,0.2c0.7-0.1,1-0.1,1.4-0.1
  c0.9,1.1,0.9,1.1,1.3,1.4c-0.1,0.3-0.2,0.8-0.3,1.2l-0.6,0.1c0.2,1,0.1,1.1-0.3,1.6c0.3,0.6,0.3,0.6,0.9,1.6l-0.4,0.5
  c-0.4-0.2-1-0.5-1.5-0.7c-0.6-0.1-0.9-0.1-1.2-0.1l0.9,1.2c0.4,0.3,0.8,0.7,1.2,1l-0.2,0.6l-0.6,0.2c-0.3,0-0.3,0-0.3,0h-0.1h0h0h0
  l0,0h0l0,0c-0.5,0.6-0.5,0.6-0.7,1.6h-0.6l-0.1,0.6c0.7,0.8,2.1,2.4-0.1,2.3c-0.2,0.3-0.4,0.8-0.4,1.1c1.5,1.5,1.5,1.5,1.7,1.9
  l-0.4,0.5c0.6,1.4,1.9,2.1,2.8,3.3c0,0.4-0.2,0.4-0.4,0.4l0.2,0.6c0.4,0.7,0.8,1.2,1.1,1.7c0.5,0,1.1,0.1,1.6,0.1
  c1.7-0.3,2.2,1.5,2.3,1.5l-0.3,0.5c0.3,0.5,0.7,1.1,1,1.6l-0.5,0.3c0.7,1.6,0.7,1.6,3.7,2c0.8,1.2,0.8,1.2,1.1,1.8l-0.2,0.6
  c3.6,0.2,7.1,0.4,10.5,0.6c-0.1-0.7-0.2-1.3-0.4-2l0.5-0.3l0.6,0.2c0.1-0.8-0.3-1.4-0.7-1.9c2.3,0.3,4.7,4,4.8,4
  c6,0.5,11.6,0.9,16.8,1.2l0.1-0.6l0.6-0.1c-0.2-1.5-1.5-4-1.5-4c-0.3-0.4-0.6-0.7-0.8-0.9c-1-1.1-1.3-1.4-3.4-1.2
  c-1.6-1.7-3.9-2.6-5.2-4.5c-1.7-2-3.5-4-5.2-6c0-2.1-2.2-3.1-2.6-5l0.6-0.1c0.1-0.6,0.2-1-0.7-2.2c0.3-0.2,0.7-0.3,1.1-0.3
  c-0.6-1.3-0.6-1.3-1.3-2.1l0.1-0.6l0.6-0.1c-0.4-3.6-4.2-3.7-5.9-5.9l0.2-0.6c-0.8-1.1-1.9-2.1-2.4-2.5c0.3-0.1,0.8-0.2,1.2-0.1
  c0.3,0.1,0.3,0.1,0.3,0.1l0,0h0h0l0,0h0h0h0c0.7,0.4,1.7,1.1,3.2,2l-0.2-0.6c0.8,0,0.8,0,3.7,1.9c1.1,0.9,1.9,1.6,2.7,2.3
  c-0.4,0-0.7-0.1-1.1-0.1c3.8,3.4,4.2,3.7,4.4,5c-0.4-0.1-0.9-0.2-1.2-0.4l-0.4,0.4c4.6,7.8,4.6,7.8,9.3,12.3c0.6,0.6,0.8,0.9,1,1.1
  c0,0,7.7,5.9,11.3,7.2l0.2,0c0.1-0.4,0.1-0.9,0.1-1.3c0.8-0.2,1.6,0.5,2.5,0.3c-0.1-0.3-0.2-0.8-0.2-1.1c1.1-0.3,2.2-0.2,3.2,0
  l-0.1-0.6c0.4-0.1,0.5-0.1,0.5-0.1c0.9,0.6,1.7,1.5,2.7,2c0.6,0.1,1.2,0.1,1.9,0.2l0.9,0.8l0.3,0.5c-0.3,0.1-0.3,0.1-1.7,0
  c0,0.9,0,0.9,1.6,4.1c-1.6-0.2-2.5-1.5-3.9-2l-0.4,0.5c-0.7,0-0.7,0-1.8-0.4l-0.4,0.4l0.1,0.6c-0.4-0.1-0.8-0.3-1.2-0.5l-0.5,0.3
  c0.7,1.3,1.3,2.2,1.3,2.2L602.3,273.9 M567.2,271.6c-3.4-0.2-6.9-0.4-10.5-0.6l0,0.1c0.1,0.5,0.1,0.5,0.2,0.7
  c0.2,0.3,0.6,0.5,0.8,0.8l0.4,0.6c1.9,0.1,1.9,0.1,2,0.1l0.5,0.4c0.2,0.2,0.2,0.2,1.6,1.3l0.9-0.4c0.8,0.2,1.4,0.8,2.3,0.7
  c0,0,0.9-0.2,0.7-0.9l0.1-0.4c0.7,0,0.7,0,0.9-0.1l0.2-0.6c0-0.3-0.3-0.6-0.3-0.9L567.2,271.6 M588.7,272.9
  c-5.2-0.4-10.8-0.7-16.6-1.1c0.9,1.2,2.4,1.7,3.3,2.9l0.3,0.4l0.1,0.9c0.2,0.2,1.4,1.7,2.5,2.4c2.1,1.1,2.1,1.1,2.7,1.9l0.6,0.8
  l0.6,0.8c1.5,1.9,3,2.9,4,3.4c0.2,0.1,0.8,0.4,1.3,1.3c0.4,0.6,0.4,1.4,0.8,2.1l0.3,0.4c0.4,0.6,0.9,1.1,1.4,1.7
  c1.4,0.1,2.8,0.2,4.1,0.3c-1.7-2.9-1.7-2.9-1.4-3.7c0.1-0.1,0.1-0.1,0.6,0l0.6,0.1c0.6,0.2,1,0.8,1.7,0.7c0.2-0.4-0.3-0.8,0.1-1.2
  c0.1-0.2,0.3-0.1,1-0.1c-0.5-0.8-1.1-1.7-1.7-2.5c0.7,0,1.4,0.1,2.2,0.1c-0.8-1.3-0.8-1.3-1.5-2c-0.3,0-0.7-0.1-1-0.1
  c-1,0.3-1.5-0.7-2.2-0.9c-0.2-0.5-0.3-0.9-0.4-1.4c-0.8-2.2-2.6-3.7-3.4-5.9l0.2-0.2l-0.1-0.7L588.7,272.9 M731.1,435.6
  c-12.3-46.8-34.1-89.9-63.1-126.9c-7.3-8.6-17.1-20.2-24.9-28.5c-0.6-0.6-2.1-1.2-4.5-1.8c-6.5-1.6-19-3.1-36.3-4.5
  c-0.8-0.1-1.7-0.1-2.6-0.2c0.6,0.2,0.6,0.2,0.6,0.2l0,0h0.1l0,0h0h0h0h0l0.8,0.6c-0.6,0.1-1.3,0.4-1.8,0.8c1.3,2.1,2.6,2.3,4.3,2.6
  c0.2-0.5,0.2-1.4-0.1-2c3,0.4,7.2,5.2,7.2,5.3c-0.6,1.2-0.6,1.2,0.5,2.8c0.2,0.7-0.1,0.7-0.4,0.7c-0.5-0.2-0.5-0.2-3.9-3l-0.5,0
  c-0.4-0.5-0.9-1.1-1.3-1.6c-0.3,0-0.7-0.1-1-0.1c3.2,7.8,4.5,11,8.1,14.4l0.3,0.8c-4.4-1.1-4.4-1.1-4.9-1c0.3,2.1,2.4,2.9,3.4,4.4
  l-0.4,0.2c-2-1.3-3.8-2.7-5.7-4c-0.4,0.2-0.4,0.2-2.4,4.1c-0.6,0-1.5-0.1-2.1,0c-2.3,2.7-4.8-1.6-5.6-2.9c-0.4,0-0.8-0.1-1.2-0.1
  c0,0.3-0.1,0.7-0.2,1c-0.3,0-0.8-0.1-1.1-0.1c-0.9-0.2-1.3-0.2-1.7-0.2c-0.3,0-0.7,0.1-1,0.1c0.3,0.6,0.7,1.4,1,1.9
  c-0.1,0.7-0.5,0.6-0.9,0.6c-1.7-0.4-1.8-0.5-3.2-2.4l-0.7-0.1c-0.4,0-0.8,0-1.3-0.1c-0.3-0.5-0.6-1-0.9-1.5l-0.7-0.9
  c0.6-0.8,1.4-0.7,2.2-0.7c1.4,0.4,2.6,1.2,3.9,1.7l0.7-0.8c-1.1-2.4-3.6-6.7-3.6-6.7c-0.8-0.7-1.2-0.7-1.6-0.7
  c-0.6,0.2-1.3,0.5-1.9,0.7c0.1,0.3,0.2,0.7,0.3,0.9c-0.2,0.7-0.3,0.7-0.4,0.7c-0.6-0.3-1.8-0.9-1.8-3.3c-0.4-0.6-0.7-1.1-1-1.5
  c-4.5,0.6-3.4-5.7-6.9-6.7c-0.1,0.2-0.1,0.2,0.5,3c-0.5,0.3-1.2,0.7-1.7,0.9c0.3,0.5,0.7,1.2,1.1,1.6c0.2,0.3,0.3,0.4,0.4,0.6
  c0,0.3-0.1,0.7-0.1,1l-0.8,0.7c0.3,1.1,0.3,1.1,6.1,7.8c0.2,0.3,0.3,0.6,0.5,0.9c0.2,0.6,0.6,1.3,0.8,1.9c0.9,1.2,2,2.2,2.9,3.3
  c0.5,0.8,0.8,1.4,1.1,2c-0.3,0-0.7,0-1-0.1c-0.6,0.1-1.5,0.3-2.2,0.3l-0.8,0c-1.2-0.3-1.5-0.4-4-0.4c0,0.3-0.1,0.7-0.1,1
  c-0.5,0.3-1.2,0.8-1.6,1.3c0.3,1.8,0.3,1.8-0.6,2.7l-0.9-0.7c-0.4,0-0.6-0.1-0.9-0.1l-0.7,0c-0.3,0-0.7,0.1-1,0.1
  c-0.1,0.5,0.1,1.1,0.4,1.6l1.8,0.9c0.4,1,0.9,1.9,1.4,2.9c-1.9-0.1-2.2,0.5-4.2,4c-0.3,0-0.6,0-0.8,0c-0.6,0-1.4,0-2-0.1
  c0.3,1.8,1.1,3.6,1.8,5.5c-1.9-0.1-2.3-0.1-4,0.5c0.3,0.9,0.6,1.9,1,2.8c-0.9,0-1.9-0.1-2.9-0.1c-0.6-0.3-0.6-0.3-2.8-0.6
  c-0.9-0.5-1-0.9-1.2-1.2c-0.4-0.5-1.2-0.8-1.9-0.9c-0.1,1,0.2,2,0.5,2.9l0.9,0.4c0.2,0.7,0.6,1.5,0.8,2.2l0.7,0.9
  c0.2,0.4,0.3,0.8,0.4,1.2c-5.3,0.4-7.8-2-7.8-2.1c-4,1.5-4,1.5-4.3,2c0.1,0.3,0.2,0.7,0.3,1c0.9,0.7,1.1,0.7,1.4,0.7
  c1.9,2.1,3.7,2.1,4.4,2c0.6,0,0.9,0,1.1,0c2,1.5,3.9,3,5.9,4.5c0.8,1.9,1.4,3.6,1.9,5.3c3.8,4.4,10.1,11.7,6.2,15.9
  c0,0.3,0,0.7,0.1,1c-1.9,1.5-1.9,1.5-2.9,1.6c-0.3,0-0.6,0-0.9,0c-2.7-1.2-5.9-1.5-8.4-3.5c-3.3-0.3-5.9-0.4-8.5-0.4
  c-3.6-0.5-3.6-0.5-4.2-0.9c-1-0.5-1.1-0.5-1.3-0.5l-0.8,0.6c0.1,0.3,0.2,0.7,0.2,1c-1.7,0.8-3.2,0.8-4.7,0.7l-0.2,1
  c2.7,3.2,1.7,8.1,4.7,11.2c0.5,2.2,0.9,4.2,1.3,6.2c0,0.3,0,0.7,0,1c-3.1,3.1-1.5,5.7,0.1,8.2l0.7,0.8c0.4,0.9,0.4,1.2,0.5,1.6
  c0.1,0.4,0.1,0.7,0.2,1.1c-0.8,1.4-0.8,1.8,0.1,4.9c1,0.4,1.9,0.4,2.8,0.5c2.7-0.6,5.1,1.4,7.8,0.8c0.5,0.5,0.5,0.5,3.9,2.2
  c1.1,1.3,1.7,3,3.1,4c0.1-0.4,0.3-0.8,0.4-1.2l-1-0.3c12.1-7.4,21.8-10.8,21.9-10.8c-0.3-1.1-0.5-2.3-0.8-3.5
  c-2.8-4.4-2.8-4.4-2-9.1c0.1-0.6,0.2-1.4,0.3-2c0.7,0,1.5,0,2.1,0c0.4-0.5,0.7-1.2,0.9-1.8c0.5-0.3,1.3-0.5,1.9-0.5l0.2-0.9
  c2.2-0.2,4.9-0.4,4.9-0.4c0.3-1.1,0-2.1-0.3-3.2l-0.3-1c-1.7-4-1.6-6.1-1.6-6.1c1.6-1,1.6-1,5-0.3h0h0.1h0l0.1,0h0.1h0.1l0,0h0.1
  c3.4,1.8,3.4,1.8,4.1,1.9c1.2,0.1,1.5,0.1,1.9,0.1c0.3,0,0.7-0.1,1-0.1c0.1-3,0.1-3,0.4-4.1c1.1-0.1,1.4-0.1,1.6-0.1
  c0.7,0.1,2.3,0.2,3.2-3c5.5,1.6,6.7,7.8,11.1,10.5c1.5,0.9,1.5,0.9,2.5,2.6c7.2,5.1,20.6,14.6,22,22.6c-3,0.6-3,0.6-3.3,2.2
  c-2.8,0.7-5.4-0.3-8.1-0.4c0.1,0.4,0.4,0.9,0.5,1.3c2.7,1.6,4.2,4.6,7.3,5.7c1.4,0.1,2.8,0.2,4.2,0.3c-0.4-1.3-0.7-2.7-1.1-4
  c1.1-0.7,1.6-2.1,2.8-2.7c-0.2-1.4-0.4-2.8-0.6-4.2c0.4-0.4,1.1-0.9,1.6-1c0.2-0.5,0.2-1.3,0.1-1.9c-0.4-1-0.6-1.4-0.7-1.8
  c-1.3,0-1.7,0-2.2,0c-0.8-0.6-1-1-1.1-1.4c-0.1-0.3-0.1-0.7-0.2-0.9c0.7-0.6,1.6-0.5,2.5-0.4c2.1,1,2.6,1.6,3.3,2.5
  c0.2-2.2-1.3-3.8-2-5.7c-4.8-1.5-8.4-6.6-8.4-6.6c-2.8-0.2-4.3-2.8-6.8-3.6c-1-3.1-4-4.6-5.7-7.1c-0.3-0.1-0.6-0.1-0.8-0.2
  c-2-3.7-2-3.7-4.3-3.6c-0.5-0.9-0.9-1.7-1.2-2.6l0.3-1c0.3-0.9,0.3-1,0.2-1.2c-1.7-3.2-1.7-3.2-1.7-3.5c3.3-0.5,16.2,12.7,16.4,12.8
  c1.5,1.6,1.6,1.6,3.6,2c0.2,0.4,0.5,0.8,0.7,1.2c2.3,2.8,6.2,3.5,8.4,6.6c3.3,4.8,4.2,10.7,7.2,15.6c0.6,0,1.4,0.2,2,0.3
  c1.2,1.8,1.6,3.2,2.1,4.6c-0.5,0-1-0.1-1.6-0.1c-0.1-0.3-0.2-0.7-0.3-1c-0.3-0.1-0.7-0.2-1-0.3c-0.1,1.7,1.5,3.5,3.9,5.9
  c0.2-0.4,0.5-0.9,0.7-1.2c3,1.5,2.8,4.8,4.5,7.1c0.9,0.4,1.4,0.5,1.8,0.5c0.3,0,0.7,0,1,0c0.4-2.5,0.4-2.5,0.2-2.9
  c-0.1-0.5-0.2-0.9-0.4-1.2c-0.3-0.5-0.6-1.3-0.6-1.9l0.8-0.6c0.4,0.4,1,0.9,1.4,1.4c0.7,0,0.9,0.1,1.1,0.1c0.4-1.4,0.4-1.4-0.6-4.2
  c0.3,0,0.7,0.1,1,0.1l0.3-0.9c-1.6-2.3-1.7-2.3-2.9-2.7c0.7,1.9,0.7,1.9,1,3.2c-0.7-0.1-2.4-0.4-8.4-9.6c-0.3-1-0.5-1.4-0.6-1.7
  c0-0.3,0.1-0.7,0.1-1l0.8,0.6c1.5,1.5,1.5,1.5,2.5,1.7c0.6,0,0.8,0,1,0.1l0.6,0c0.1-1.2,0.1-1.2-1.2-2.5c0-0.3,0-0.8,0-1.1
  c2.6-1.5,4,1.5,6.1,1.9c1.3,2.2,1.3,2.2,1.7,2.6c0.4,0.5,0.9,1.3,1.1,1.9l-0.7,0.7c0.9,3,3.9,4.7,4.4,7.9c0.3,0.6,0.5,1.4,0.7,2
  c0.1,0.5,0.2,0.8,0.3,1.1c0.4,0.9,0.4,0.9,1.7,2.9l0.4,0.6l0.4,0.3l0.4,0.6l0.5,0.6l0.4,0.4c0.4,0.6,0.6,1.6,0.6,2.3l0,0.5l0.1,0.7
  c0.6,1.9,0.6,1.9,1.1,3.2l0.4,0.6l0.4,0.4c0.1-0.5,0.2-1.2,0.1-1.7l-0.2-1.4c-0.2-0.7-0.5-1.5-0.7-2.2c-0.1-0.3-0.2-0.7-0.3-1
  c0-0.6,0.1-0.6,0.3-0.6l0.3,0.1l0.4,0.5l0.3,0.5l0.4,0.5c0.4,0.5,0.9,1.2,1.3,1.7l0.5,0.7l0.4,0.6l0.4,0.3l0.2,0
  c0.5,0.1,1.1,0.3,1.4,0.7c0.7,0.2,0.8,0.2,0.9,0.2l0.2-0.3l0.2-0.4l-0.2-0.5l-0.1-0.6c-0.7-1.8-0.7-1.8-0.7-2.8l0-0.5l0.2-0.5
  c0.6,0,1.4,0.3,1.8,0.7c0.3,0.5,0.7,1.1,1.1,1.6c0.4,0.5,0.9,1.1,1.3,1.6l0.3,0.6l0.3,0.4l0.3,0.2l0.4,0.3c1.1,0.1,2.1,0.2,3.1,0.3
  c-0.2-0.6-0.4-1.3-0.6-1.9l-0.2-0.7c-0.2-0.6-0.5-1.5-0.6-2.1l0.6,0.2l0.2-0.1l0.3,0.1c0.4,0.2,0.4,0.2,1.9,1.9
  c0.6,0.2,0.6,0.2,0.7,0.2l0.2-0.3l-0.1-0.5l0.1-0.4l0.2,0.2c0.2,0.4,0.5,1,0.8,1.4l0.2,0.5c0.6,2,0.6,2,0.9,3.6
  c0.4,3.4,1.3,5.3,1.6,6l0.2,0.6c0.7,1.4,0.7,1.4,0.9,3.2l-0.1,0.4l0,0.6c0.2,0.6,0.3,1.4,0.4,1.9v0.5c-0.1,3.2-0.1,3.2-0.3,3.6
  l-0.1,0.4l-0.1,0.5l0.1,0.6c8.9,1.6,15.8,2.7,20.4,3.9C728.4,433.9,730.5,434.8,731.1,435.6 M742.2,502.9l-0.5-6.8V496
  c0-0.4,0-0.8-0.1-1.2l0-0.1c-0.6-6.3-1.3-11.5-1.3-11.5l-0.1-0.1c0.3,2.2,0.3,2.7,0.4,3.8c1.1,10.5,1.8,21.1,2,31.8l0.1,0.2v-2.3
  c-0.1-1.9-0.2-3.7-0.1-5.6l0,0c0,0.5,0,1,0.1,1.5C742.7,512.3,742.5,508.2,742.2,502.9 M739.5,476.7l-0.7-4.9
  c-2.1-10.7-4.8-25.1-7.4-35.8l-0.2-0.4c3,11.5,5.5,23.2,7.3,35.1c0.3,1.9,0.5,3.8,0.9,5.7L739.5,476.7L739.5,476.7 M520.2,271
  l-0.1-0.2l-1,0.5c-0.4,0.3-0.3,0.8-0.7,1l-0.6,0.2l-0.1,0.1l0.1,0.7c-0.1,0.5-0.5,0.8-0.5,1.3c0,0.4,0.3,0.7,0.4,1.1l0.9,0.4
  l0.5-0.4c0-0.1,0-0.1,0.1-0.5l0.1-0.5v-0.4l0.2-0.1c0.6,0,1.2,0.1,1.2-0.1l-0.1-0.3l-0.2-0.4l0.1-0.8l0-0.2
  C520.5,271.7,520.4,271.3,520.2,271 M565.3,307.8c-0.3-0.6-0.5-1.2-0.9-1.8c-1.7-1-2.7-2.8-4.3-3.8l-0.6,0.3c0.3,0.5,0.3,0.5,0,2.1
  c-0.7,0.4-0.7,0.4-3.8-4.9c-0.7,0-1.4-0.1-2.1-0.1c-0.8-2.1-1.4-3.3-1.4-3.3c-0.9-1.1-2.5-1.4-3.5-2.4l-0.8-0.2
  c-0.6-1.2-2.3-1.5-2.8-2.8c-0.3-0.8-2.8-3.4-4.3-3.4c-2.4-0.1-4.6-0.9-3.4-2.8c-0.2-0.6-0.2-0.6-0.2-0.8c0.8,0,0.8,0,1.3-0.1
  c-0.1-0.3-0.3-0.6-0.5-1c-0.5-0.9,0.6-1.7,0.3-2.6c-0.6-1.1-1.1-2.2-1.7-3.3c-2.3-0.1-4.5-0.2-6.8-0.5c-0.1-0.7-0.1-0.7,0.3-1
  c0-0.8-0.7-1.2-0.7-2c0,0,0.7-1.3,0.8-1.6c-0.7-0.6-0.8-0.7-1.4-0.8l-0.7,0c-0.3,0-0.7,0-1.2,0c-0.2,0.1-0.7,0.3-3-0.1l-0.2,0.2
  c0.5,0.9,0.5,2,0.8,3.1c0.3,1,1,1.8,1.4,2.8c-1.3,0.1-2.4-0.8-3.7-0.9c-2-0.2,0.2,2.7,0.3,2.8c0.7,0.9,2,0.4,2.8,1.3v0.6
  c0.1,0.3,0.3,0.6,0.5,1c0.1,0.8,1.2,1.3,0.8,2.3c-2,0.5-2,0.5-0.9,2.4c0.5,0,1,0,1.7,0c0.1-0.2,0.3-0.4,2.6,1.4c0.5,0,1,0,1.5,0.1
  c-0.4-1-0.4-1-0.4-1.7c0,0,3.2,3,2.9,4.3c-1.9,0.1-0.9,1.1,0.2,2.2c1.3,0.1,2.5,0.1,3.7,0.1l0-0.8c2.5,1.3,3.1,4.5,5.7,5.7
  c0.4,1.8,0.4,1.8,0.8,2.2c1.1,1.2,1.2,1.6,0.7,2.2l-2.3-0.1c-0.7-0.2-1.4-0.7-2.2-0.7l-0.5,0l-0.6,0c-0.1,0.2-0.1,0.2-0.2,0.9
  l-0.1,0.9c-0.4-0.1-0.9-0.1-1.3-0.1l0.2,0.9c1.5,0.8,4.4-0.1,4.6,2.4c-0.3,0-0.5,0-0.8,0c-0.5,0.6-0.5,0.6-0.4,1.3
  c-0.3,0.2-0.3,0.3-1,0.3l-0.1,0h-0.1h-0.1l-0.1,0h-0.1h-0.1h-0.1h-0.1c0.8,3.7,2.4,2.6,3.1,2.2c0.3-0.2,6.2,0.8,6.2,0.8
  c0.3,0.1,1.1,1.3,0.4,1.8c-1.1,0.9-2.6-0.1-3.7,0.7c-0.1,0.3,0,0.6-0.1,0.9c-0.6,0-0.6,0-2.2,0.3c0.7,1.8,0.7,1.8,0.8,2.7
  c-0.8,0.9-1,1-1.9,1.3c1.3,0.7,1.3,0.7,3.2,0.1l0.7-0.6l-0.1-0.7c0.7,0,1.3,0.5,2,0.7c0.8,0,1.6,0.1,2.4,0.1c-0.7-2-0.7-2.1-0.5-2.4
  c6,1.1,5.9,0.2,5.8-1l0.2-0.2c1.5,0.2,2.3,1.5,3.7,1.7l0.5,0c1-0.4,2,0.3,2.9-0.2c0.5-0.2,0.4-0.7,0.3-1.4c0.7-0.3,1.5,0.2,2.1-0.4
  c-0.3-1.4-1.6-2.1-2.3-3.2l-0.2-0.6c-0.2-0.4-0.2-0.4-0.1-0.8c0.4-0.1,0.9-0.1,1.3-0.1c0,0-0.2-1-0.4-1.8
  C564.4,307.7,564.9,307.8,565.3,307.8 M521.9,293.6L521.9,293.6l-0.4,0L521.9,293.6 M532.8,294.7c-0.3-1.2-1.5-1.6-2.2-2.5
  c-0.3-0.5-0.4-1.2-0.9-1.7c-0.1-0.1-0.4-0.4-1-0.7c-0.3-0.1-0.6,0.1-0.9-0.1c-0.3-0.2-0.6-0.5-0.9-0.6l-0.4,0
  c-0.6,0-1.5,0.5-1.6,0.6l0,0.8l-0.6,0.4c-0.9-0.5-1.6-1.4-2.6-1.8c-0.5-0.2-1.2,0.1-1.8,0.1c0.6,1.4,0.9,2.9,1.6,4.3l-0.3,0l-0.2,0
  l-0.5,0.4c-0.3,0.1-0.6-0.1-0.9,0l-0.3,0.2c-0.3,0.2-0.7,0.5-1.1,0.3c-0.9-0.5-0.9-0.5-1.6-0.4c0.8,2,1.5,4.1,2.2,6.1
  c1.2,0.2,1.2,0.2,2.7,0.1c0.3,0.9,0.7,1.8,1,2.7c-0.6,0.1-1.3,0-1.9,0.1c-0.8,1.3,0.6,2.4,0.4,3.6c-0.7,0.4-1,0.5-0.3,1.8
  c0.5,0.9,2.1,1.4,2.1,1.4c0.7,0.2,1.2-0.5,1.9-0.5c0,0,0.9,0,1.9,0.6c0.7,0,1.4-1,1.4-1.1c0-0.1,0-0.1-0.2-1
  c-0.1-0.4,0.4-0.4,0.5-0.7c2.3,0.1,4.6,0.2,6.8,0.2c-0.2-0.4-0.3-0.8-0.5-1.3c-0.3-0.7-1.2-1.1-1.3-2c0.8-0.6,0.8-0.6,0.7-1.2
  c-0.2-0.7-0.6-2.2-2.1-5.2c-0.2-0.6-0.5-1.1-0.7-1.7C532.8,296.1,532.9,295.4,532.8,294.7 M690.2,703.8c0.2-0.3,0.4-0.7,0.6-1
  c7.2-12.6,7.1-13.2,6.8-14.9c-1,1.8-1,1.8-8.4,12.9c-2.6,0.2-1.9,3.2-3.5,4.1c-2.3-0.6-2.3-0.6-8.5,8.4c-2.7,3.9-3.6,9.1-7.6,12.2
  l-0.2-0.2c-2.6,2.9-4.9,6.1-7.4,9.1c-0.2,0.3-0.5,0.6-0.7,0.9c-1,1.5-1.9,3.1-3,4.6c-0.4,0.6-0.9,1.2-1.4,1.8
  c-1.2,1.7-2.6,3.4-3.8,5.2l0.2,0.3c0.4,0.1,0.8,0,1.1,0.1c-0.8,1.3-0.8,1.3-0.8,1.6l0.3,0.2v0.4c5.9-1.5,30.7-37.1,30.9-37.4
  c0.4-0.6,0.8-1.3,1.2-1.9c0.4-0.7,0.7-1.3,1.1-2c0.2-0.3,0.4-0.7,0.6-1C688.5,706,689.5,704.9,690.2,703.8 M737,564.9
  c0.2-1.5,0.3-3.1-1-4.2c-0.3,0.6-0.6,1.4-0.8,2c-0.6,0.2-1.5,0.4-2.2,0.6c-0.2,0-0.4-0.1-2.3,0.2c-0.4-0.4-0.9-1.1-1.3-1.5
  c-0.1-7-0.1-7-0.6-8.6c0-15.1-9.8-28.2-8.7-43.5c-0.1-0.8-0.1-1.6-0.1-3.1c0-0.4-5.7-45.4-23.9-70.4c-0.2,0-0.3,0-1.5,0.4
  c-0.4,0.5-0.9,1.1-1.2,1.6l-0.5-0.1c-9.4-4.1-17.1-11.7-27.8-12.9c0.9,4.5,2.2,9,2.7,13.6c-0.6,0.1-1.3,0.3-1.9,0.4
  c-0.4,0-0.9-0.1-2.4-0.1c-1.9-1.8-3.1-4.5-5.8-5.5c-2.3-0.2-4.7-0.3-7.2-0.8c-0.6-1.2-0.8-3-1.7-4c-4.2-5-11.1-5-16.1-8.6
  c-5.6-4-1.7-11.9-6.6-16.1c-0.1-0.6-0.1-1.5-0.2-2.1c1-0.5,2.2-1.7,2.6-2.8c-2.9-2-2.9-2-5.6-3.1c-4.5,1.2-4.5,1.2-12.3,1.6
  c-0.7,0.9-2,1.9-3.1,2.4c-4.6-4-4.6-4-13-2.5c-0.3,0.6-0.7,1.3-1,1.9c-2.8-0.1-5.7-0.3-9,1.2c0,1.2-0.4,2.8-0.9,3.8
  c-2.5,0.6-5.3-0.2-7.7,1.2c-0.3,0-0.6,0-2-0.3c-0.6-0.1-1.5-0.3-2.2-0.5c0,0,0,0-1.5,0c-4.8,0.1-5.8-0.8-7.7-2.5
  c-0.6-0.3-1.4-0.8-2.1-1.2c-1.8,3.1-0.3,6.7-1.3,9.9c-3.4,0.2-3.4,0.2-6.2-0.1c0.4,3,0.8,6.1,1.2,9.1c-2.4-0.1-4.8-0.2-7.3,0.9
  c0,5-0.5,10.1-0.3,15.1c0.1,1.3,0.2,2.6,0.3,4c-2-0.1-4-0.1-6,0.8c-0.3,6.8-5.3,8.6-8.2,9.1c-1.9,0.3-10.6,21.7-10.7,21.9
  c-0.6,0-1.4-0.1-1.9-0.1c0,0,0,0-1.9,0.4c-0.6,0.3-1.3,0.8-1.9,1.2c0.8,11.8-0.8,12.4-5.4,14.1c-0.2,0.6-0.5,1.3-0.7,1.9
  c0,1.4,0,2.8,1.2,4.4c8.3,1.5,8.3,1.5,9.1,3.1c-2.2,4.5-2.2,4.5-2.2,19.5c0,0.8,0,1.6-0.1,2.4c0,1.8,0,1.8-4.3,6.2
  c0.2,2.9,1.3,5.6,1.8,8.4c0,0.8-0.1,1.6-0.1,4.3c0,0.1,8.4,14.5,16.4,18.8c-0.4,3.4-1.4,12.7,11.2,13.6c8.5,16.6,9,17.6,16.9,16.6
  c0.7-1.1,1.4-2.7,1.8-3.9c2.6-1.1,5.3,0.2,7.9-0.5c0.4,0,0.8,0,1.2,0c1.8,0,1.8,0,6.1,0.1c1.6,2.4,1.6,2.4,12.5,2.4
  c3.3-6.8,6.2-6.1,12.4-4.8c0.3,0,0.6,0,1.2-0.1c0.1-0.1,5.3-5.5,9.7-1.8c0.7,9.2,0.7,9.2,4.4,10.8c4.9,0.2,9.6,0.5,14.2,0.8
  c-0.4,2.4-0.8,4.7-1.2,7.4c-1.8,4.7-1.8,4.7-6.8,21.5c-1.1,0.3-2.4,1.3-2.9,2.2c0.6,1,1.8,2.1,2.9,2.5c1.3,3.1,0,7,3,9.6
  c-1,9.7,4.3,19.6-0.8,29.2c-0.2,0.7-0.5,1.4-1.2,3.8c-0.2,1.2,0.1,3,0.7,4.1L611,694.6c-9.2,6.3-7.3,27.2-7.2,27.4
  c-3.1,5.9-3.4,8.6-3.5,9.8c-1.8,3.2-3.6,6.3-5.8,9.8c-0.1,0.2-10.7,27.5-12.2,31.7c-0.2,0.3-0.5,0.5-1.1,1.3
  c-3.4,1.7-3.4,1.7-4.2,4.3c0.3,0,0.6,0-0.1,1.3c-0.4,0.5-1,1.1-1.4,1.6c0.1,0.6,0.2,1.4,0.3,2c1.5,0.1,3,0.2,5.7,0
  c1.2-0.5,2.8-1,4-1.3c1.8,0.2,3.5,0.3,6.4-0.5c16.4-15.5,37-25.6,53.2-41.2l37.3-45.8c0.5-1,1.1-2,2.4-4.5c0.5-1.1,1.2-2.6,1.5-3.7
  c2-4,4-8.1,5.9-12.7c0.8-7.5,5.3-13.8,6.8-21.1c0.1-0.4,0.3-0.7,0.6-1.5c6.1-14.1,16.5-25.6,22.5-39.7
  C734.5,583.4,734.5,583.4,737,564.9 M416.4,647.7c0-0.1-0.5-11.5-6.1-14c-1.8,0-3.6,0-5.4-0.1c-8.5-2.6-8.5-2.6-9.3-7.6
  c-5.4-3.4-5.4-3.4-9.1-2.3c-2.3,0-4.6,0-7.5-0.1c-7.3-2.9-7.3-2.9-9.4-2.1c0,0.6,0,1.4,0,2c-1.5,0.9-2.4,1.4-6-0.5
  c-0.1-0.5-0.1-1.2-0.1-1.6c0.8-0.5,1.9-1.2,2.8-1.8c-2.3-1.8-7-5.1-13.3-6.2c-0.4,0-0.8,0-2.6-0.7c-2.8-1.4-3.2-1.6-6.6-1.1
  c0.1,1.8,0.1,3.6,0.2,5.3c-1.6,0-3.2,0-4.8,0c0-0.7,0-1.5,0.1-3.1c0.6-0.7,1.4-1.8,2-2.5c0.4-0.3,1-0.7,1.4-1.1
  c-0.3-0.5-0.6-1.1-0.9-1.5c0,0-3.1-1-6.4-2.2h-1.3c-0.3,0-0.7,0-2.5,0.3c0.2,3.8,0.3,5.6-4.5,4.8c0-0.8-0.1-1.5,0-2.9l-0.1-1.7
  c2,0.1,2.6,0.1,4.8-0.9c1.3-6.5,0.2-9.1-0.3-10.1c-1,0-2.3,0-3.3,0c-0.1-2.1-0.2-4.1-0.8-7.2c-0.5-2.1-1.8-3.9-2.5-5.9
  c-5.9-1.4-6.5-3-7-4.6c-8.6-3.4-8.6-3.4-9.2-3.7c-2.9-1.4-5.7,0.5-8.6,0.3c-0.6,0-1.2,0-2,0c-13.8-2.7-13.8-8.3-13.8-10.6
  c-5.4-2.9-5.4-2.9-7.2-4c0-0.4,0-0.8-1.6-1.4c-2.7-1.8-2.7-2-2.6-5.4c-0.4,0-0.7,0-2,0.2c-1.7,0.5-3.2,1.2-4.9,1.6
  c-1.3-1.3-1.3-1.3-1.6-4.7c0.5-0.2,1.2-0.3,1.7-0.5c0.1-0.5,0.2-1.1,0.3-1.6c-2.5-1.4-2.5-1.4-4.6-1.8l-2.4,2.1
  c-0.2,0-0.4,0-1.4-0.4c-0.9-0.3-2.2-0.6-3.1-0.6c-1.5,1.7-1.8,4.1-3.1,5.8c-0.5,0-1.3,0-1.8,0c-2.5-4-2.5-4.1-6.3-4.8
  c-1.8,0-3.6,0.1-6-0.2c-0.9-0.3-2.2-0.7-3.2-0.9c0-1.2-0.1-2.4-1.5-3.5c-2.6-0.7-4.6-2.6-7.2-3.3c-0.4,0.3-1,0.7-1.4,0.9
  c0,0.2,0,0.2-6.2,6.8c1.3,6.8,1.3,6.8,1.4,8.6c-0.4,0.3-0.9,0.8-1.2,1.1c-1.7-2.9-6.7-12.7,1.4-19.4l-0.5-1.2c-0.8,0-1.5,0-2.8,0.2
  c-3,1-3,1.3-2.7,5c-1.9,0-3.8,0.1-5.7,0.1c-6.8,4.7-6.8,4.7-10.4,4.7c0.1,2.3,0.2,4.6,0.1,7.2c-1.3,1.4-1.3,1.4-4.4,2.4
  c0,4.8-6.8,7.5-4.2,13.2c0.5,0.1,1.1,0.2,1.6,0.3c0.3,4.8,6.3,10.1,1,14.4c-0.6,8.8-0.6,8.8-3.6,9.3c0.3,1.2,0.7,2.8,1,4
  c-0.8,0.6-1.7,1.4-2.4,2c0,0.7-0.1,1.7-0.1,2.4c-3.3,1.2-3.4,2.7-2.8,6.9c-1.2,0-2.5,0.1-3.6,0.6c0.9,3.3,0.7,6.8,1.9,10
  c1.6,0.5,3.2-0.1,4.7,0.2c0.1,0.7,0.3,1.5,0.4,2.3c-0.2,0.5-0.5,1-0.7,1.5c-0.9,0.3-2.1,0.9-2.7,1.6c0.5,3.4-2,7,0.6,10.2
  c0.1,0.4,0.1,0.7,0.3,1.4c2.1,9.8,13.9,12,16.6,21.2c0.2,0.8,0.4,1.6,0.7,2.6c2.5,3.2,3.1,7.5,6.2,10.3c6,5.5,5.8,18.7,17.1,17.2
  c10.5-1.4,11.2,13.1,20.9,12.9c1,3.4,2,6.9,3.1,10.5c0.1,1,0.4,2.3,0.8,3.2l0,0.5c0.1,0.3,0.2,0.6,0.7,1.9c0.2,0.4,0.5,1,0.7,1.4
  c0,0.2,0.1,0.3,0.1,1.7c0.1,1,0.5,2.3,0.9,3.3l-0.1,0.3c0.1,0.4,0.2,0.8,1,1.9c0.2,0.5,0.4,1.1,0.6,1.6l0.2,0.5
  c0.1,0.3,0.2,0.6,0.2,2.4c0.4,1,1.1,2.1,1.7,2.9c0.1,0.3,0.2,0.6,0.3,0.9c0.1,0.3,0.2,0.6,0.3,1c0.5,3.2-0.3,6.6,1,9.8
  c1,2.9,1,2.9,2.3,13.1c0.1,0.2,0.2,0.4,0.8,1.4c6.7,11,8.9,14.7,7.4,19.9c0.2,0.5,0.5,1,1.4,2.3c0.2,0.4,0.5,1,0.7,1.5
  c0.9,1.2,0.9,1.2,0.7,7.1c4,3.8,4.5,9.8,8.6,13.5c2.8,2.5,2.1,7.3,6,9c0.6,0,1.1,0,1.7,0l-3.9-6.1c0.7,0,1.4,0,2.2,0
  c0.4,0.7,0.9,1.4,1.4,2.1c-0.1,0.5-0.2,1.1-0.2,1.6c0.8,1.2,1.7,2.4,2.6,3.7c0,0.2,0,0.2,4.3,6.9c-0.9-0.5-2.1-1.3-3-1.9l-0.5-0.6
  c-0.3-0.4-0.8-0.9-1.1-1.3c0.1,0.1,0.2,0.2-0.5,0.3c0.5,0.6,1,1.3,2,2c2.7,1.8,2.7,1.8,4.7,4.2c-1.5-0.5-2.8-1.6-4.3-2.1
  c0.5,0.6,1.1,1.2,1.1,1.9c0.1,0.5,0.2,1.1,0.2,1.6c3.2,2,7.1,2.8,9.6,5.8c-0.9,0.2-2,0.8-2.6,1.5c0.1,0.1,0.2,0.2,1.4,1.2
  c0.8,0.6,1.8,1.3,2.6,1.8c0.1,0.1,0.2,0.2,1,1.5c1.9,1,3.5,2.5,5.4,3.6l-0.2,0.5l1.2,0.5c0.2,0,0.5,0,1.6,0.4
  c0.5,0.8,1.7,1.6,2.5,1.8l0.4,0.4l12,6.4c0.2,0.2,0.3,0.3,0.9,0.7c2.1,0.7,2.2,0.7,4.8,1.2c0.1,0,0.2,0,1.7,0.4c0.9,0,1.8,0,3.3-0.2
  c0.2-0.3,0.5-0.7,0.8-1c-1.8-0.9-2.1-1.1-4.7-1.3c-0.3-0.3-0.7-0.7-2.4-1.1c0,0-2.4-1.7-5.2-4c-0.2-0.2-0.3-0.3-1.3-1.1
  c-1.2-1.2-2.5-2.1-3.7-3.3c-0.2-0.2-0.3-0.4-1.2-1c-0.5-0.6-1-1.1-1.5-1.7c-0.3-0.4-0.7-0.9-1-1.3c0.8,0,1.5,0,2-0.4
  c-0.7-0.7-1.5-1.8-1.9-2.6c0.4-0.3,0.9-0.7,1.3-1c-0.4-1-0.9-2.4-1.3-3.4c0.3-0.4,0.6-0.9,0.9-1.3c-0.3-0.4-0.6-0.8-2-1.3
  c-0.5-0.1-1.1-0.2-1.6-0.3c-5.1-3.4-5.1-3.4-5.7-4.2c-0.1-0.2-0.2-0.4-0.5-1.7c0.3-0.4,0.7-0.9,1-1.3c1.1,0,2.2,0,3.3,0
  c-0.7-1.2-1.5-2.3-2.1-4.6c-0.2-1.6-0.9-3.1-0.7-4.7c0.5,0,1.2,0.1,1.7,0.2c0.1-0.5,0.2-1.1,0.2-1.6c-0.1-0.2-0.3-0.4-1.3-1.4h0h0
  l0,0h-0.1h0H311h0l-0.2,0.1c-0.4,0.3-1,0.6-1.4,0.8c-1-0.7-1-0.7-3.1-3.7c-0.4-0.7-0.7-1.4-1.1-2.1c0.4,0,0.7,0,1.3,0
  c1,0.4,2.3,1,3.2,1.6c1.3,0,2.6,0,3.9-0.1c-0.2-0.4-0.6-1-0.8-1.4c-0.1-0.2-0.2-0.5-0.7-1.7c0.2-1.8,0.2-1.8-1.7-4.4
  c-0.3-0.6-0.5-1.1-0.7-1.7c1,0,2.1,0,3.8-0.2c0.5,0,0.9,0,2.4-0.1c0.4-0.2,1.1-0.4,1.5-0.6c1.1,0,2.3,0,3.8,0.1
  c0.5,0.1,1.1,0.2,1.6,0.3c0-2.9,2.2-4.7,3.2-7.2l0.3-1.5c-0.3-0.8-0.5-1.6-0.7-2.4c-0.2,0-0.5,0-1.6-0.2c-0.1-0.5-0.3-1-0.7-2.2
  c-1.8-2.2-4.9-2.9-6.4-5.4c1,0,2,0,3.3,0c11,2.5,13.5,3.2,14.4-0.8c2.8-13.6,5.4-15,6.4-15.6c0.4,0.9,0.5,2.2,0.3,3.1
  c0.5,0.1,1.1,0.2,1.6,0.3c1.5-2,3.7-7.4,3.7-7.4c0.3-2.9,4.3-3,4.7-5.8c0.6-4.1-3.9-7.4-2.1-11.7c0,0,6.2-7.4,9.1-9.4
  c1.6,0,3.1,0,5.2-0.1c1.4-1.1,1.4-1.1,3.6-3.4c3.9,0,7.8,0,11.7-0.3c0.1-0.9,0.6-2.2,1.1-2.9c1.8-0.8,3.9-4.4,4.3-6.3
  c0.9-0.5,2-1.2,2.8-1.9c0.3-3.9,0.4-4.1,1.9-6.9c1.1-0.6,1.1-0.6,2.7-9.1c0-0.3,0-0.7,0.6-2.3c1.7-3.3,1.7-5.5,1.8-6.5
  c0-0.5,0-1-0.2-2.5c-0.1-0.5-0.2-1.1-0.3-1.6c0-0.8,0.1-1.5-0.2-3.3c0-2.1,0.1-4.2,1.3-6.5c1-0.3,1-0.3,7.4-8.5
  c2.3-0.2,2.7-0.6,4.3-2.3l7.7-10.6C416.3,649.8,416.3,649.8,416.4,647.7 M249.1,503.1l0.3-0.2c-0.6-0.6-1.7-0.2-2.1-1.2
  c-0.5-1.2,0.2-2.3,0.1-3.5c-4.1,1-4.2,1.1-6.5,1.1c-0.7,0-1.4,0-2.1,0c-1.1-0.2-2-1.1-3.2-1.2c-0.3,0-0.7,0-1.1,0
  c-0.9,0.3-1.3,1.5-2.2,1.8l-3.6,0.1c-1.5,0-2-1.8-3.3-2.1c-1.6-0.4-2.5-2.2-4.3-2.3l-7.3-0.3c-1.2,0-1.2,0-3.9,0.7
  c-0.1,2.4-0.1,4.9-0.2,7.3c2,2.6,3.3,4,4,4.2c0.6,0,1.3,0,2.2,0c1.8,0.1,1.8,0.1,3.3-1.9c0.7-0.9,3.3-1.3,3.3-1.3
  c1.2,0,2.3,0.7,3.5,0.6c1.2,0,2.3-0.7,3.5-0.6c3.7,0.1,7.6-0.8,8.1-1.1c0.9-0.4,1.3-0.4,2.1,0c0.9,0.4,4.6,0.8,5.4,0.9
  c0.8,0,1.5,0,2.2,0C248,504.1,248.4,503.5,249.1,503.1 M194,506.6l0.2-0.4c-0.2-0.8,0.3-1.7-0.4-2.4c-0.5-0.5-1.1-0.2-1.7-0.4
  c-0.7-0.3-1.1-0.9-1.7-1.2l-0.5-0.1c-1.9,0-3.7,0.1-5.6,0.1c0.4,0.7,0.6,1.5,1,2.2l0.5,0.6c0.4,0.4,0.5,0.3,1.5,0.1
  c0.9-0.2,2.6,1.2,2.6,1.2c0.3,0.3,0.3,0.7,0.3,1.5c0,0.5,0,0.7,0.1,1c0.6-0.2,1.3,0.3,1.9-0.1C192.6,508.5,192.6,508.5,194,506.6
   M188.4,492.8c4.9-0.1,9.9-0.2,14.9-0.3c-0.9-1.7-4.5-6.9-7.5-7.3c-0.6,0-1.3,0-2.1,0c-2.1,0-4.2,1-6.3,0c-1.5-0.7-1.8-2.3-2.9-3.4
  c-1.6-1.5-3.6-2.2-5.4-3.5c-2-1.4-2-1.4-2.3-2.3c-0.2-0.7-0.4-1.4-1.6-1.4c-1.4,0.1-2.8,0.2-4.2,0.3c-0.9,0-0.9,0-1.9,1
  c-0.8,0.8-1.6-0.1-2.5-0.2c-1.3,0-2.5,0.1-3.9,0.1c-3.4-0.1-3.4-0.1-3.8,0.4c-4,4,1.7,10.7,6.4,7.6c1.2-0.8,1.8-2.2,3.2-2.8
  c0.2-0.1,2.2-0.1,3.4,0.1c0,0,3.8,1.5,4.1,3.9c0.1,0.5,0.1,1,0.6,1.3c3.2,1.8,3.7,1.7,4.7,1.5c1.3-0.2,1.6,0.3,2.2,1.4
  C183.8,489.7,185.4,492.6,188.4,492.8 M478.3,237.9c-0.5-0.9-1-1.7-1.4-2.6c-0.5-0.4-0.8-1-1.4-1.3c-1.2-0.5-1.2-0.5-2.8-0.7
  c-1.1-2.6-1.1-2.6-2-4.1c-1,0-1.9-0.1-2.9-0.1c-1.1,0-1.1,0-3.4,2.3c-1.4-0.1-2.7-0.7-4.1-0.7c-2.4-0.1-3.1,0.5-3.5,0.9
  c-0.5,0.4-0.7,0.5-1.3,0.5c-0.8,0-1.7,0-2.5-0.1c-0.2-0.4-0.3-0.8-0.5-1.3c-0.2-0.4-0.4-0.8-0.5-1.2c-0.4-0.6-1-0.8-1.5-1.3
  l-1.2,0.3c0.2,0.4,0.3,0.8,0.5,1.2c-1.2-0.4-1.2-0.4-4.9-0.4c-0.4,0-3.7,0.7-1,3.4c1.3,0,2.4-1,3.8-0.5l2.7,1.6
  c0.5,0.4,0.4,1.1,0.6,1.6c-1.4-0.3-3.9-0.8-6.7-0.2c0.4,0.6,0.8,1.4,1.2,1.9c0.8-0.3,0.8-0.3,1.1-0.3c0.9,0,1.8,0,2.7,0.1l0.5,0.3
  c0.3,0.9,0.6,1.7,0.9,2.6l1.2,1.4c0.5,0,0.9,0,1.4,0c1.3-0.1,2.7-0.3,4-0.2c0.5,0,0.9,0,1.5,0c1.9-0.1,2.9,1.6,4.6,2.1
  c0,0,5.2,1.2,5.1-1.5c-0.1-1.1-0.1-1.1,0.8-1.9c0.5-0.5,1.4,0.4,1.7-0.3c0.7-1.3,0.7-1.3,1.4-1.6
  C473.3,237.7,473.3,237.7,478.3,237.9 M326.7,324.8l0.4-0.5c-0.1-0.5-0.2-1.3-0.3-1.9c-2.2-0.1-2.2-0.1-2.9-0.5c0,0-2.7-1.6-3.3-2.6
  c-0.3-0.6-0.5-0.9-1-1.1c-1.2-0.4-2.6-0.2-3.8-0.4c-0.7-0.2-1.2-0.7-1.8-0.9c1.8-3.4,1.8-3.4,3.8-4.2c0.3-0.2,1.8-1.9,1-3.1
  c-0.3-0.4-0.3-0.4-0.4-0.9c-0.4,0.1-0.9-0.1-1.4-0.1c-0.2,0-2.1,0.5-2.6,1c-0.7,0.7-0.4,1.8-0.8,2.7c-0.8,2-0.8,2-1.8,2.8
  c-0.1,0.1-10.1,9.1-10.4,9.5c-0.3,0.4-0.9,1.2-1.2,2.7c-0.2,0.8,0.1,1.5,0,2.2c4.7,0,9.5-0.1,14.4-0.1c1.2,0.1,1.8,0.3,2.9,1.8
  c2.1,2.7,3.2,3.2,4.5,3.9c0.4-0.3,0.4-0.4,1.2-0.7c0.5-0.2,1.6-0.6,1.6-4.8C324.7,327.1,324.7,327.1,326.7,324.8 M288.4,319.1
  l0.1-0.1c-0.5-0.2-0.9-0.6-1.4-0.8c-0.3-0.1-0.8-0.1-1-0.1c-1,0.1-1.1,0.1-1.5-0.1c-1.4-0.7-1.8-1.4-1.9-1.7
  c-0.3-0.8-0.7-0.9-1.2-0.9c-0.4,0-0.9,0.2-1.3,0.1c-0.6,0.3-1.5,0.6-2.1,0.9c0.5,0.3,1.1,0.4,1.6,0.9c0.4,0.5,0.4,1.1,0.7,1.6
  l0.3,0.4c0.4,0.4,0.9,0.8,1.3,1.2c0.4,0.4,0.6,0.9,1,1.2c0.3,0.3,0.5,0.4,0.9,0.6C284.6,322.3,285.4,322.5,288.4,319.1 M412.8,175.1
  c-1-0.2-2.1-0.2-3.1-0.4c-0.3-0.1-0.7-0.1-1-0.1l0,0h0l0,0h0l0,0h0l0,0l0.1,0.1c0.3,0.1,0.7,0.3,1,0.4c-0.6,0-0.7,0-1.6-0.2
  l-0.4,0.4h0h0h0h0h0h0l0,0c0,0,0,0-0.3,0.4l0.3,0.4c-1-0.8-1-0.8-1.2-1c-0.2-0.1-0.5-0.2-1-0.5c-0.8-0.2-0.9-0.3-1.5-0.4
  c-0.1,0-0.1,0-0.4,0l-0.5,0.1l0.5,0.4c-0.3,0-0.7,0-1,0.1l-0.4-0.3h0.2l0.5-0.1c-0.9-0.2-0.9-0.2-1.8-0.1c-0.4,0-0.7,0-1.3,0
  c-0.3,0-0.7,0.1-1,0.2h0l0,0h0l0,0l0,0h0h0l-0.2,0h0h0l0,0l0,0h0v0h0l-0.1,0l-0.5,0l0.1-0.5c0.8,0,1.5,0,2.3-0.1c0.6,0,1.2,0,2-0.1
  l0.5-0.1l-0.8-0.1h-0.4c0,0,0,0-0.3,0c-0.7,0-1.4-0.1-2.1-0.2l0.1,0c-0.2,0-0.3,0-0.8,0l-0.6,0h-0.5h-0.1l-0.4,0l-0.2,0l-0.9,0
  l-0.1-0.1l0.2-0.1c0.8,0,1.7,0,2.4,0c-0.3,0-0.7-0.1-1-0.1l-0.3,0c-0.3,0-0.7,0-1,0h-0.2c-0.5,0-1,0-1.6,0l-0.3,0l-0.2,0
  c0,0-0.1,0-0.6,0.2l-0.5,0c-0.2,0-0.3,0-0.7-0.1c-0.3,0-0.7,0-1,0c0,0-0.1,0-0.5,0h-0.6l-0.1,0h-0.1l-0.5,0.1v0l0,0l0.2,0v0v0
  l-0.2,0.2l0,0l0,0v0h-0.1h-0.1l-0.1,0l0,0h0l0,0h0l0,0h-0.3l-0.1,0l-0.1,0l-0.2,0.1v0l0.2,0.1l0.1,0l0,0h0.2h0.2l0.1,0l0,0l0.1,0.1
  l0,0.1v0l0,0l-0.1,0.1l-0.2,0.1l-0.2-0.1l-0.1,0l-0.3-0.1l-0.1,0h-0.1l-0.2-0.1l-0.5-0.1l0,0l0,0l0,0l0,0l-0.1,0l0-0.1H387l0,0l0,0
  l0,0h-0.3c-0.3,0-0.8-0.1-1.1,0l-0.2,0.2h0.1l0,0l-0.1,0.1v0l0,0.1l-0.1,0.1l-0.1,0l-0.2,0.2l-0.1,0.1l-0.2,0l-0.1,0l-0.1,0l0,0l0,0
  l0-0.1l0,0v0v0v-0.1l0,0v0l0-0.1l0,0l-0.2,0l0,0l0.1-0.1l0,0l0,0l-0.2,0h-0.2c-0.1,0-0.1,0-0.6,0.2l-0.5,0.2l-0.2,0.1l-0.1,0.1
  l-0.1,0l-0.8,0.3l-0.2,0.1l-0.4-0.1c0.1,0,0.1,0,0.5-0.2l0.6-0.1l0.2-0.1l0.2,0l0.1,0l0.1,0l0.1-0.1l0.1,0l0.1,0l0.4-0.1l0,0l0,0
  l0,0l-0.1,0l-0.3,0l-0.5,0.1l-0.2,0l-0.2,0l-0.1,0h0l-0.2,0l-0.2,0l-0.4,0l0,0h-0.4l-0.1,0l-0.2,0l-0.4,0h0h-0.5l-0.1,0l-0.1,0
  l-0.3,0.1l-0.2,0l-0.1,0l0,0l0.1,0l0,0h0l0,0h0h0l0,0h0l0,0l0,0l-0.1,0.1l-0.2,0l-0.1,0.1l-0.2,0.1l0,0.1l0.2,0h0h0l0,0h0l0,0h0h0h0
  v0l-0.1,0.1v0l-0.1,0.1l-0.2,0.1l-0.4,0l0,0h0l-0.1-0.1l0.1-0.1l0,0l0,0l-0.2-0.1l-0.1,0h-0.1l0-0.1l0.1-0.1l0.1,0l0.1,0l0.2-0.1
  l0.1,0c0,0-0.1,0-0.5,0l-0.2,0l-0.2,0l-0.2,0h-0.1l-0.6,0.1c-0.3,0.1-0.7,0.1-0.9,0.2l-0.1,0l-0.2,0.1l-0.2,0.1
  c-0.5,0.2-1.1,0.3-1.6,0.5l-0.6,0l0-0.1l0.1-0.1l-0.9,0l-0.8,0.2c-0.6,0.1-1.3,0.2-1.9,0.3c-0.3,0.1-0.7,0.2-1,0.2l-0.3,0.1l-0.5,0
  l-0.2,0h-0.1l-0.3,0.1l-0.3,0.1l-0.3,0.1l-0.1,0l-0.4,0.1l-0.3,0.1h-0.1l-0.2,0c-0.3,0.1-0.8,0.2-1.1,0.3l-0.3,0.1
  c-0.3,0.1-0.7,0.2-1,0.3l0.4,0.1l-0.1,0.1l-0.1,0.1h0.2c0.3,0,0.7-0.1,1-0.1l0.2,0l0.4,0c-0.3,0.1-0.7,0.3-1,0.4l-0.2,0.1l-0.2,0.1
  l-0.2,0.1c-0.3,0.1-0.7,0.3-1.4,0.6c-0.3,0.1-0.8,0.2-1.1,0.3l-0.3,0.1l-0.7,0.1h-0.1c-0.3-0.1-0.6,0-1.1,0.1l-0.6,0.1
  c-0.2,0-0.4,0-1-0.1c-0.4-0.1-0.7,0-1.3,0.1l-0.4,0.2c-0.1,0-0.2,0.1-0.5,0.2l-0.5,0.1l-0.2,0c-0.3,0-0.5,0-0.8,0l-0.5,0.1
  c-0.6,0.1-1.3,0.1-1.9,0.2l-0.3,0.1l-0.3,0l-0.3,0.1l-0.3,0.1l-0.3,0.1l-0.3,0.1l-0.3,0.1l-0.3,0.1l-0.7,0c-1.8,0.6-1.9,0.7-2.2,1.3
  l0.5,0.2l-0.4,0.3c0.4,0,0.9,0,1.4,0l0,0.3l0.1,0l-0.1,0.3l0.5,0c0.1,0,0.2,0,0.5,0l0.8-0.2l0.3-0.1c0.3,0,0.6,0,1.2-0.1l0.5-0.1
  c0,0,0.1,0,0.4,0l0.1,0c-0.3,0.2-0.6,0.4-1.1,0.6l-0.5,0.2l-0.3,0.1c-0.4,0.1-0.9,0.2-1.3,0.4h-0.2l-0.1,0l-0.1-0.1h-0.2l0-0.1
  l-0.1,0h-0.3h0h0h0h0l0,0h0l0,0c0,0,0,0-0.4,0c-0.3,0.1-0.6,0.1-0.9,0.2h-0.2l-0.7-0.2l-0.3,0l-0.9,0.4c-0.3,0-0.6,0-0.9,0
  c-0.7,0.2-0.7,0.2-1.2,0.7l-0.1,0.1c0.4,0.1,0.5,0.2,1.1,0.8l0,0.1l-0.5,0l-0.4,0.1l-0.3,0.2l-0.1,0.2l0.2,0.2l-0.1,0.2l-0.1,0.1
  l-0.2,0.2l0,0.1l0.1,0.1l0.1,0.1l0.2,0.2l0.1,0.1l0,0.2l0.5,0.2h0.1l0.2,0l0.3-0.1l0.2-0.2l0.7-0.7c0,0,0.1,0,0.4,0
  c0.3,0,0.7,0.1,1,0.2l0.1,0.1l0.1,0l0.1,0.1l0.2,0l0.4-0.3h0.7l0,0.1c0.2,0.1,0.7,0.1,1,0.1l0.3-0.2l0.3-0.1l0.3-0.1l0.2-0.1h0h0h0
  h0l0,0h0l0,0l0,0h0l0,0h0l0,0h0l0,0h0l0.2,0l0.3-0.2l0.7-0.2l0.4,0.3l0.1,0.1h0.5l0.5,0h0.2l0.4,0.3l0,0.2l0.1,0.1l0.2,0
  c0.4,0,0.8,0,1.2,0l0.2,0l0.4,0.3l0.1,0.1l0.5,0l0.2,0h0.2v0.5l0.4,0.2c0.1,0,0.1,0,0.5,0.1l0.1,0.4c-0.3,0.4-0.7,0.8-1.2,1.6v0.2
  l0.1,0.2l0.1,0h0.3l0.1,0.1l0.2,0.1l0.1,0.1l-0.1,0.6l-0.1,0.2l0.1,0.5l0.1,0.2l0,0.3l0,0.2l0,0.9l-0.1,0.8l0.1,0.1l0.2,0.6
  l-0.2,0.3c-0.5,0.4-0.5,0.5-0.4,1.4c-0.2,0.4-0.4,0.7-0.7,1.1c-0.8,0.6-0.8,0.6-1.1,1.1c0.4,0,0.8,0,1.2,0c-0.1,0.3-0.4,0.6-0.8,0.9
  c-0.3,0-0.7,0.2-1,0.3c-0.4,0.5-0.5,1.3-1,1.8c-0.3,0-0.7,0-1,0c-0.2,0.3-0.4,0.6-0.5,0.9l0,0.5c0.3,0.1,0.7,0.2,1,0.3
  c0.2,0,0.3,0,1,0.1l0.5,0.1c0.9,0,1.8,0,2.8-0.2c0.3-0.5,0.3-0.5,2.8-0.9c-0.2,1.1-0.6,2.4,1.5,2.5h0h0h0h0h0h0h0.1h0.1
  c0.6,0.3,1,0.9,1.5,1.3l0,0.5l-0.3,0.5c-0.4,0-0.7,0-1.3,0l-0.5-0.1H359h-0.1c-1.1,0.1-1.8,0.1-2.3-0.9c-4-0.4-4.4-0.1-4.4,1.1
  l0.8,0.8c-1,1.1-3,0.7-3.7,2.3l0.3,0.5c2.3,0.2,2.3,0.2,3.2,1.6l0.6,0.1c2-1.3,2-1.3,4.1-1.3c0.2-0.6,0.4-1.2,0.6-1.8
  c-0.7,0-1.5-0.1-2.2-0.2l-0.1-0.5c-0.3,0-0.7,0-1-0.1l0.5-0.5c0.4,0,0.7,0,1.5,0c0.8,0.6,0.8,0.6,2.4,0.8h1.6c0.3,0,0.7,0.2,0.9,0.3
  l0.1,0.6l-0.2,0.3c-0.7,0.3-1.1,1-1.6,1.4c0,0.1-0.1,0.2,0,0.6c0.7,0.8,0.7,0.8,0.8,1.3c-0.2,0.5-0.3,1.1-0.5,1.6
  c-0.6,0-1.1,0-2.1-0.2c-0.8,0.3-1.4,1-2.3,1h-0.1c-0.2,0-0.5,0-0.9-0.1c-0.3-0.1-0.8,0-1.1,0.1c-0.3,0.9-0.7,1.8-1.4,2.7
  c-0.3-0.1-0.7-0.2-1-0.3c-3.4,1.7-3.4,1.7-3.5,2.1c0,0.1-0.1,0.2-0.1,0.8c0.1,0.3,0.2,0.7,0.3,1c2.2,0.5,2.3,1.1,2.3,1.3
  c0,1.6-2.5,1.1-2.5,2.7l0.3,0.5c0,0,0.3,1,0.6,2.2c1.3,0.4,2.3-0.7,3.5-0.6c0.2,0,0.5,0,1,0.1l0.3,0.5c-0.1,0.3-0.3,0.7-0.5,1
  c-0.2,0-0.5,0-0.9,0.1l-0.5,0.2c-1.7,4.3-1.7,4.3-1.3,5c2,0,3.3-2.2,5.4-1.8c-0.2,0.9-0.4,1.7-0.9,2.9c-0.8,0.7-2,0.7-2.8,1.3
  c-0.6,0.5,3.6,10.2,3.6,10.3c3.1,4.7,5.8,7,7.8,6.8c0.3,0,0.6,0,1.2-0.1c0.7-0.4,0.7-0.4,1.8-0.4l0.5,0c0.5,0.1,1.1,0.2,1.6,0.3
  c0.1,3.1,3.4,2.6,4.8,4.3c0.8,0.9,6.6,0.9,6.5-1.8c0-0.3,0-0.5,0.1-1.2c0.3-3.4,5.9-6.7,2.4-9.8c0,0-2.3-2.1,1.3-2.4
  c0.3,0,0.5,0,1.2-0.1c0.7-0.1,0.7-0.1,1.7-0.1c1.3-2.1,1.3-2.1,3.2-3.5c0-1.1,0-2.2,0.4-3.6l0.4-0.4c-0.1-1.8-0.6-2.3-1.4-2.9
  l0.1-0.5c1.1-0.7,2.5-0.2,3.6-1c0.7-0.6,0.2-1.4,0.4-2.1c1.4,0,2.8,0,4.3,0c-0.2-1.4-0.2-1.5-0.1-2.3c0.8,0,1.6,0,2.4,0.3
  c-0.1,1.7,0,1.8,0.3,2.3c2.2-0.2,3.7-1.8,5.7-2.6c0.2,0,0.4,0,0.8,0c1,0.1,1,0.1,2.5-0.5l-0.1-0.6c0.6-1.2,2-1.9,2.7-2.9
  c0.8-0.3,0.8-0.3,1.5-1.9c0.3-0.1,0.8-0.3,1.2-0.4c0-0.2-0.1-0.4,0.1-0.9c1.4-1.2,1.4-1.2,1-2.7v-0.1l0.2,0l0.6,0.1l0.2,0.1l0.2,0.1
  l0.1,0l0.4,0.2l0.2,0.1l0.4,0.3c0.7,0.3,0.8,0.3,1.7,0.2c1.5-0.1,2.8,1,4.4,1c2,0,2.1-2.8,4.1-2.8c1.4,0.1,2.6-1.1,4-0.9
  c2.1,0.3,1.3-2.8,2.9-3.3c1,0,1.9,0,3.1,0.1c0.6-0.3,0.6-0.3,1.4-1.6l-0.2-0.5l-0.7-0.3l-0.7,0.8l-0.2,0.6l-0.5,0
  c-0.1,0-0.3,0-0.5,0c-1.1-0.2-1.7-1.5-3-1.5c-0.2,0-0.4,0-0.9,0c-3.6-0.2-4.2-1.3-4.5-1.8c-0.2-0.3-0.3-0.7-0.4-1
  c4.1-0.6,4.1-0.6,4.8-1.3c1.7,0.7,2,3.2,4.2,3.4l0.4-0.4l0.1-0.9c1-0.4,2.1,0.2,3.1-0.4c-1.3-1.8-3.5-2.5-5.1-3.9
  c-1.4-1.2-3.6-1.6-4.4-3.6l0.5-0.2c2.2,1.3,2.2,1.3,2.4,1.3c0.2,0,0.3,0,0.9-0.1l0.5,0.1c-0.4-0.8-0.4-0.8-1-1.7
  c-0.1-0.1-0.2-0.3-0.4-0.9c-0.1-0.6-1.8-2.1-3.5-0.7c-0.5,0-1,0-1.6-0.4l0.8-0.7c-0.2-0.2-0.2-0.2-1.9-0.8l0.1-0.3
  c0.6,0,1.3,0,1.9,0c0.2,0.4,0.5,0.8,0.8,1.1c0.6,0,1.2,0,2.2-0.1l0.3-0.5h0.5c0.2,0,0.3,0,0.9,0.1c1,0.4,1,0.4,1.7,0.2
  c0.4-2.7-3.6-1.6-5.2-2.7l0.1-0.5c2.1,0.5,2.8,0.2,3.1,0.1l0.3-0.6l0.5,0.2l0.7,0c0.3,0,0.7-0.1,1-0.2c-1.6-1.5-4-1.7-5.3-3.5
  c0.2-0.2,0.2-0.2,1.3-0.2c-0.3-0.3-0.7-0.7-1.4-1.3c-1.1-0.5-1.1-0.5-1.5-0.9c0,0,0,0-0.4-0.3c-1.4-0.7-3.2-0.4-4.5-1.6l-0.2-0.2
  c0.3-0.4,0.3-0.4,1.4-0.5c0.2,0,0.5,0,0.8,0c0.5,0,0.9,0,1.9,0.7c0.1,0.1,0.1,0.1,0.4,0.4c0.3,0.6,0.4,0.7,2.1,1.7l0.3-0.2
  c-1-0.9-2-1.7-3-2.7l-0.1-0.5l-0.3-0.2c-0.9-0.5-0.9-0.5-2.5-0.5c-0.2,0-0.3,0-0.7,0l-0.5,0c-0.3-0.3-0.7-0.6-0.8-1l0.5,0.2l0.4,0
  l0.5-0.2c-0.7-0.4-3.1-1.1-4-0.7l0.2,0.5c-0.4-0.1-0.9-0.3-1.7-1.3l-0.1-0.4c-1-0.7-1-0.7-1.6-1.3l0.8,0l-0.5-0.3l0-0.5
  c0.1,0,0.2,0,0-0.3c-1.3-0.6-1.3-0.8-1.5-1.4l0.5-0.1l-0.5-0.3l-0.1-0.5l-0.6-0.2c-0.6,0-1.2,0-1.8-0.1l-0.5-0.4
  c0.3,0,0.7,0.1,1,0.2l0.4-0.1l-0.9-0.5l0.3-0.2C413.6,175.3,413.2,175.2,412.8,175.1 M379,173.9c0.3-0.1,0.7-0.1,1-0.2l-0.9,0.1
  l-0.2,0l1-0.1l0.7-0.1l-0.9,0l-0.5,0l-1.3,0.1l1.2-0.1l-0.7,0l0.8-0.1l-0.1,0l-0.6,0c-0.5,0-1,0.1-1.5,0.1l0.9-0.1l-0.8,0
  c-0.5,0-0.9,0.1-1.4,0.1l0.5,0l-1.9,0.1c-0.3,0-0.7,0.1-0.9,0.1l-0.2,0l0.6-0.1c-1.2,0.1-2.7,0.1-3.8,0.2l-2,0.2l0.6,0
  c-1.2,0.2-2.3,0.5-3.4,0.5c0.4-0.1,0.8-0.1,1.2-0.2l-0.4,0c0.7-0.1,1.5-0.2,2.2-0.3l-0.8,0l0.6-0.1l-1,0.1c-1.1,0.1-2.3,0.2-3.4,0.4
  l-0.3,0l0.6-0.1l-0.2,0c-1,0.1-2,0.2-3,0.3l-0.2,0H360l-1.8,0.2l-0.3,0l-2,0.3l-0.1,0l-0.2,0.1l-2.6,0.4c-0.7,0.4-1.5,0.3-2.2,0.5
  l0.3,0l-0.3,0.2l2.7-0.5l1.6-0.2l1-0.1l-2.2,0.3l-2.7,0.5l-2.3,0.5c1.4,0,1.4,0,4.9-0.6l0.4,0.1c0.3,0,0.6,0,1,0l2.4-0.4l1.9-0.3
  c1.2-0.2,2.4-0.3,3.6-0.5l0.3,0l-0.6,0c-1.5,0.2-2.9,0.4-4.4,0.7l1,0l0.1,0l0.2,0l-1.6,0.3c-0.3,0-0.6,0-0.9,0l-0.9,0.1l-1.1,0.2
  c-0.9,0.1-1.7,0.2-2.6,0.3l-0.5,0l-0.8,0.1c-0.6,0.1-1.2,0.3-1.9,0.4l0.2,0.1l-0.7,0.3l-1.6,0.5l0.6,0.2l-0.9,0.1l-0.6,0
  c2.1-0.9,2.1-0.9,2.4-1.1l-0.3,0l-0.6-0.1l-2.2,0.5l-1.3,0.4l-1.6,0.6l-1.8,0.8l-0.4,0.3l0.8,0.1c-0.9,0.2-1.8,0.3-2.6,0.6
  c-0.7,0.2-1.4,0.5-2.1,0.7l1.7-1l-0.3-0.1l-1.4,0.2l-1.3,0.2l-2.1,0.4c-0.7,0.2-1.4,0.5-2.2,0.7l-1.5,0.5l0.2,0.2
  c0.4,0,0.8,0,1.2-0.1l1.4-0.2l-2.7,0.6l-1.8,0.7c0.8,0.2,0.8,0.2,5.5-1.1l-2.7,0.9l-3,0.8l-1.3,0.1l0-0.6l0.4-0.6
  c-0.4,0-0.9,0.1-1.3,0.1c-4.6,1.8-4.6,1.8-6.6,2.1l-2.6,0.8l-2.1,1.2l-0.1,0.5c0.8-0.2,1.9-0.4,2.8-0.7c0,0,0,0,3.7-0.1l0.1,0.3
  c0.6,0.1,1.2-0.2,1.9-0.3c0.4,0,0.7,0,0.8,0.1c-1.5,0.7-1.5,0.7-1.6,0.9c0.5,0,0.7,0,1.5-0.2c0.3,0,0.6,0,0.9,0
  c4.8-1.2,4.8-1.2,6.2-1.8l1.5-0.8l-2.3,0.5l2.1-1.1l1.6-0.2l2.6-1l1.7-0.8l0.8,0c2,0.1,3.7-1.2,5.5-1.6c0.3,0,0.7,0,1.2,0
  c0.1,0,1.1,0,2-0.9l-0.1-0.3h-0.3l-1.9,0.4l-1.6,0.3l1.5-0.5c1.5-0.3,2.9-0.6,4.3-0.9l0.8,0l-0.9,0.4c0.8,0.2,0.8,0.2,4.1-0.6l1-0.6
  l1.2-0.1l-0.9,0.4l1-0.1l1.9-0.3l1.5-0.6l0.1-0.2c0.4,0,0.8,0,1.1,0l0.7,0l1.6-0.4l1.5-0.2c2.1-0.4,4.3-0.7,6.4-1.1l0.9,0l1.1-0.2
  l0.7-0.3c-0.5,0.1-0.5,0.1-3.3,0.2l1.3-0.2l1.2-0.1h0.8c0.3,0,0.5,0,1,0c0.8-0.1,1.7-0.1,2.5-0.2C377.7,174.1,377.7,174.1,379,173.9
   M339.2,179.2c1-0.3,1.9-0.5,2.9-0.8c0.2-0.3,0.2-0.3,0.5-0.5l1.7-0.4c0.5-0.1,1.1-0.3,1.6-0.4l0.9-0.3c-0.6,0.1-1.1,0.2-1.7,0.3
  c0,0,2.9-0.8,5.4-1.3c1.2-0.2,2.5-0.3,3.7-0.7c-1.2,0.1-2.1,0.3-2.5,0.3l0.3,0c-2.1,0.3-2.1,0.3-2.4,0.3l-0.6,0
  c-1.5,0.2-2.9,0.5-4.3,0.8l-0.3,0l-0.8,0.1l-2.8,0.5l-1.7,0.3c-0.9,0.2-1.8,0.4-2.7,0.6l0.2,0c-1,0.2-1.9,0.4-2.9,0.7l-1.2,0.4
  l1-0.1l1.5-0.2l1-0.1c-2.1,0.6-2.1,0.6-3.6,0.8l-0.7,0l-1.8,0.4l-1.2,0.5l-2.6,0.8l0.1,0.3l1.7-0.2l0,0.3l2-0.5l0.5,0
  c0.2,0,0.4-0.1,2.1-0.6l2.3-0.6l-0.4,0.3c2.4-0.6,2.4-0.6,2.5-0.6l0,0.1C337,179.7,337.2,179.7,339.2,179.2 M317.7,184.7
  c1.3,0,3.8-1.2,4.7-1.6l-2.1,0.3l-3.4,1L317.7,184.7 M317.1,191L317.1,191l2.4-1.4l-0.8-0.5l-1.1-0.5l-2.8,0.7l-3.6,0.7l-1.8,0.2
  l-1.1-0.4l-1.8,0.2l1.7-1.2l2.8-1.2l2.3-1.1c-0.5,0-1,0-1.5,0.1c-1.1,0.2-2.6,0.4-8.5,3.5l-3.8,1.5l-1.6,1.1l-1,1.1l2.4-0.3
  c0.8-0.2,1.8-0.5,2.5-0.8c-0.4,0.4-0.7,0.8-1.1,1.2l0,0.1c0.2,0.1,0.5,0.1,2.1-0.1c0.9,0,1.8-0.1,2.7-0.1l1.9-0.4l1.8-0.7l-0.5,0.7
  c4.7-0.4,4.7-0.4,6-1.2C315.2,191.6,315.7,191.3,317.1,191 M286.5,194.3c0.3,0,0.6,0,0.9-0.1l1.5-0.8L286.5,194.3 M294.6,193
  l3.3-1.4l0.7-0.7l1.8-1l-1.2,0.2l-2.9,0.8l-2.4,0.9L292,193c0.3,0,0.7,0,1-0.1l-0.3,0.5L294.6,193 M305.9,187.9l2.9-0.9l1.8-0.7
  l1.5-0.8c-0.3,0-0.7,0-1,0.1l0.5-0.3l-1.6,0.3l-3,1l-1.2,0.8l-0.9,0.7L305.9,187.9 M318.2,183.7c0.7-0.2,1.4-0.5,2.1-0.7
  c-0.4,0-0.7,0-1.1,0.1c-0.3,0-0.7,0-1,0l-2.5,0.6c-0.6,0.2-1.2,0.4-1.8,0.6l1.4-0.1l1.3-0.3L318.2,183.7 M321,182.3l1.9-0.5l1.8-0.7
  l-0.6-0.1l1.9-0.7l-2,0.4l-2.2,0.6l-3.8,1.2l0.2,0.2l1.2-0.2L321,182.3L321,182.3z M332.6,178.6l1.6-0.3l3.1-0.7l0.6-0.2l-0.4,0
  c-1,0.2-1.9,0.4-2.9,0.6l0.5,0L332.6,178.6 M313.9,183.5l2.3-0.6l2.6-0.8l1.4-0.5l2.6-0.7l0.8-0.3l1.2-0.4l-0.9,0.1l1.5-0.4l1.4-0.4
  l-0.9,0.1l-2.5,0.4l-2.2,0.5l0.6-0.1l-0.8,0.3l-2.8,0.7l-0.6,0l-2.4,0.7l0.7-0.1l-1.4,0.5l1.6-0.4l0.2,0l0.5,0.1l-2.7,1L313.9,183.5
   M310.2,184l1.5-0.3l1.5-0.6l-1,0.1l-2.5,0.7L310.2,184L310.2,184z M301.2,188.4c0.4-0.2,2.8-1.1,2.9-1.5c-0.2,0-0.5,0.1-2.2,0.6
  l1.7-0.9l-0.8,0.1c-5.4,2.5-5.6,2.5-5.8,2.5l-0.1-0.1l0-0.1l3.3-1.5l-0.8,0.1l-2.7,1l-2.7,1.1l1.6-0.9l4.2-1.6l0.9-0.6l-4.1,1.4
  c-1.7,0.7-3.3,1.5-5,2.3l-0.4,0.6l1.6-0.4l1-0.2l-1.6,0.8l-3.6,1.6l1.7-0.5l1.2-0.1l1.2-0.2l2.5-1c1.2-0.5,2.3-1,3.5-1.4
  C299.5,188.9,300.4,188.7,301.2,188.4 M287,191.7c1.1-0.4,1-0.6,1-0.6l0,0c-0.6,0.1-1.1,0.5-1.7,0.5l-2.3,1
  C285.1,192.5,285.1,192.5,287,191.7 M302.7,185.8l1.7-0.4l3.6-1.2l1.5-0.6C307,184.2,305.3,184.7,302.7,185.8 M286.2,223.5l3-2.1
  l0.9-2.1c-3.9,0.2-3.9,0.2-4.2,0.3c-0.2,0.1-1.5,0.7-4.1,2.4l-0.6,1.9l2,0.2L286.2,223.5 M288.1,197.8c4-1.7,4-1.7,4-2.2l-0.1,0
  c-0.4,0-0.9,0-1.4,0.1l-0.1-0.5c-2.2,0.2-2.2,0.2-2.7,0.4c-3.6,1.8-3.6,1.8-5,2.2c-1.7,0.9-3.4,1.8-5.1,2.7c-1.6,1-3.2,2-4.8,2.9
  l2.1-0.4l2.8-1.1l2.9-1.6l0.8,0.4l2.7-1L288.1,197.8 M267.3,205.1l3.9-1.9l2-1.4l1.5-1.3l0.7-0.8c4.1-1.3,4.1-1.3,6.6-3.2l1.2-0.8
  l-1.3,0.2l-2.5,1.1l-0.5,0l0.2-0.5l-1.8,0.5l-2.2,1.1l-1.7,1.2c-4.5,2.1-4.5,2.1-4.9,2c0.2-0.1,0.3-0.3,1.5-1.2l-1,0.1l-2.6,1.2
  l-1,1l-0.7,0.7l0.2,0.5c-3.4,2.4-3.4,2.4-3.2,3c0.3-0.1,0.6-0.2,3.5-1.5L267.3,205.1 M267.5,200l3.7-1.7l1.1-0.7l-0.6-0.4
  c-0.8,0.3-1.8,0.6-2.5,1l-1.6,1.1c-0.1,0.1-0.5,0.4-2.5,1.6L267.5,200 M267.3,198.7l2.6-1.1l-0.9,0.2l-2,0.8L267.3,198.7
  L267.3,198.7z M312.4,182.3c1.9-0.5,1.9-0.5,3.5-1l-0.8,0.1l-1.5,0.3l-3.5,0.8l0.5-0.1l0.7-0.1c0.3,0,0.6-0.1,1-0.1L312.4,182.3
   M306.5,183.8l2.6-0.6l-0.4,0l-0.9,0.1l-1.5,0.3l-2.5,0.6l-4.3,1.3l-0.2,0.1l1.4-0.3l1-0.1l2.2-0.6l1.9-0.6L306.5,183.8
   M302.7,184.3l0.2,0l3.3-0.9l1.1-0.4l-0.6,0.1l-2.5,0.7L302.7,184.3L302.7,184.3z M284.9,191.8l5.3-1.9l1.5-0.7l-0.5,0l-2.3,0.8
  l0.6-0.4l2.4-1.1c0.8-0.3,1.6-0.6,2.5-0.8l2.7-1l-0.6,0.1l-2,0.6l-1.2,0.3l-2,0.6c-1.5,0.6-1.5,0.6-5.3,2l0.1,0.2
  c-1.9,0.7-2,0.8-2.7,0.8c-0.3,0-0.6,0.1-0.9,0.1l1.4-0.7l3.5-1.4l0.9-0.5l-0.5,0.1l1.3-0.5l0.2-0.1l-2.2,0.6l-4,1.3l-2.9,0.9
  l-3.2,1.1l-3,1.1l0.6,0l-0.3,0.3l1.2-0.3l1.8-0.5l0.1,0.3l0.7-0.1c-1,0.3-1.6,0.5-2.3,0.7l-0.8,0.1l-2,0.6l-2.1,0.9l-0.8,0.5
  c0.4,0,0.7-0.1,1.1-0.1l3.3-1l3.7-1.2l1.3-0.3c0.4,0,0.8-0.1,1.1-0.1c0.4,0,0.8-0.1,1.2-0.1L284.9,191.8 M292.4,187.4l0.3,0.1
  l2.5-0.8c-0.8,0.2-1,0.2-1.1,0.2l0.3-0.1L292.4,187.4 M277.1,192l5.5-1.9l-1.9,0.5l-3.4,1.1L277.1,192L277.1,192z M295.4,186.3
  l3.6-1l0.7-0.3l-3,0.8l-0.6,0.1c-0.3-0.1-10.4,3-10.5,3l-0.5,0.1l-2.3,0.7l-3,1l-1.3,0.5l2.9-0.9l-1.8,0.7l1.9-0.6l2.2-0.7l0.7-0.1
  l3.2-1l2.4-0.7l-3.1,1l1.3-0.4l2.1-0.6L295.4,186.3 M246.6,214.1l2.2-1.2l0.8-1.2l-0.2-1.3l2.5-2.1l3.9-2.1l1.4-1.3l5-2.7l2.7-1.6
  l0.7-0.9c-0.4,0-0.7,0.1-1.1,0.1c-1.3,0.6-2.6,1.3-3.9,1.9l-2.5,1.4l-3.1,1.8l-2,0.9l-0.3-0.1l1.1-0.8l2.6-1.4l2-1.1l2.9-1.7
  l-0.5-0.1l-2.4,1.2l-1.8,1c-0.3,0-0.6,0.1-0.9,0.1l-1.9,0.9l-1.2,0.3l2.3-1.1l2.8-1.3l-0.4-0.1l0.4-0.5l-1,0.2l-2.7,1.3l-0.1-0.2
  l1.9-0.8l3.2-1.5l0.4-0.3l-0.8,0.1l-3,1.2l-1.8,0.6l-1.7,0.5l-2.8,1.1l-3.3,1.6l-3.2,1.3l-2,1l0.5-0.1l-1.6,0.9l1.9-0.7l1.4-0.3
  l-1.6,1l-2.1,0.7l-1.8,0.6l-2.3,1.1l-1.1,1c0.4,0,0.7-0.1,1.1-0.1l1.7-0.4c0.4,0,0.7-0.1,1,0c-0.9,0.9-0.9,0.9-3,2l-1.7,0.1
  c-0.6,0.1-1.1,0.1-1.7,0.2l-3.5,1.5l-4,2.7l1.1,0c0.4,0,0.8-0.1,1.2-0.1l-3.6,2.6l-1,1.1c0.6-0.1,1.1-0.1,1.7-0.2l1.9-0.3l3.1-1.4
  l2.4-0.8l3.4-1.5l2-0.9l-0.9,0.9l1.2-0.3l-0.9,1.8l1.3,0l1.8-0.4l3.2-1.8l1.2-1.4l1.1-0.2L246.6,214.1 M230.9,220.2l2.8-1.8
  l-3.5,1.1l-4.6,2l0.6,0.5l2.9-1.2L230.9,220.2L230.9,220.2z M257,200.4l2.7-0.9l3.1-1.4l2.9-1.6l-0.1-0.1l-2.7,0.9l1-0.6l1.3-0.7
  l-0.2-0.1l-1.8,0.5c-0.9,0.3-1.7,0.7-2.6,1l-4.6,1.9l-7.1,3l-9.7,4.3l-1.5,1l-5.8,3.2l4-1.9l0.8-0.1l2.9-1.3
  c4.8-2.3,12.3-5.4,12.4-5.4L257,200.4 M316.8,304.8l2.3-1.8l-1.8-1.7l1.8-1.7l1-3.7l-4.7-0.6L315,293c-1.8,0-3.5,0-5.2,0l-4.6,2.2
  L302,297l-2-0.8l1.6-2.6l5.1-1.5l5.9-1.3l3-2.1l-3.6-0.2l-3.1-1.7l-4.3-1.2l-2.1-2.5l-2.4-2.5l-0.5-2.2l2-0.4l1.2-1.6l-1.6-3.8
  l-1.9-4.1l-1.9-7l-0.2-3.1l-5.2,4.2c-0.5,1.2-1,2.4-1.6,3.6l-4.3,1.4l-3.4,2.5l-3.4-0.1l0.3-2.3l-1.5-1.7l-3.7,0.8l2.9-4
  c0.9-1.8,1.8-3.5,2.7-5.2l1.3-2.7l-3.7-0.1l-1.8-1.9l-1-2.8l-2.7-2.9l-2.5,1.4l-3.7-0.1l-0.9-1c-1.4,0-2.8,0.1-4.2,0.1l-3.1,2
  l-0.4,2.8l-3.2,3.8l-1.2,2.6l-0.8,3.5c-0.8,0-1.6,0-2.3,0.1l-2,3.4l-2.7,1.9l1.1,1.5l1.6,2.4l-1.7,4.5c-0.9,1.7-1.9,3.5-2.8,5.3
  l-4.3,3.8l-4.8,3l-4.8,0.7l0.2,4.6c-1,2-2,4-2.9,6l-0.3,3.5l-2.1,2.9l-3.7,3.7l-4.9,0.8l-0.2-5.1l-0.9-4.3c0.6-1.2,1.2-2.5,1.9-3.7
  l1.8-5.1l2.9-4.2l-4.8-0.6l-3.7-0.1l-1.1-1.4l-3.8-1.3l-0.2-2.4l-2.1-2.5l-1.9-2.7l-6.1,1.8l0.8-2.6l2.5-5.8l-1-1.5l0.4-2.2l6.4-7
  l6.6-5.2l6.2-4.6l4.2-1.7l4.3-2.3l1.4-2.4l-2.3-0.9l-1.9-1.5l3.3,0.7l2.4,1l2.1-0.6l2.8-2.5l1.7,1.2l2.2-0.6l2-2l1.9-0.9l3.1-2.6
  l-1.8-0.2l-2.4-0.2l0.5-1.4l-1.2-1.5l1.8,0.1l2,1l1.2,0.9l3.2-1l3.9-2.4l0.3-1.8c0.7,0,1.4-0.1,2.2-0.1l-0.4,1.6l-3,1.9L249,235
  c-1.4,1.4-2.8,2.9-4.1,4.4l-3.3,1.1l-1.2,2l2.4,0.1c-0.5,0.6-1.1,1.2,0.2,2c0.6-0.2,1.3-0.4,1.9-0.6l3-2.4l3.2,0.1l1.5,0.3l1,1
  c0.9,0,1.8-0.1,2.7-0.1l2.3-2.5l-2.2-0.6l1.5-3.1l-2.8-0.2l-0.2-2.3l-1.6-0.6c0.6-0.6,1.1-1.2,1.7-1.7l1.6,0.4l2.1-1.3l1.1-1.4
  c0.8,0,1.6-0.1,2.4-0.1l2.9-2l4.2-2l2.4-1.6l0.5-1.7l1.9-2.8l2.5-0.5l2.9-2.1l0.8-2l-0.8-1l-0.6-1.5c1,0,1.9-0.1,2.9-0.1l1.6-1
  l1.8,0.2l0.3,1.1l2.6-0.2l2.8-0.6l0.4-1.9l1.7-0.4l-0.5,2.1l2,0.2l-1.3,2.1l1.3,0.4l-0.6,1.6l1.1,0.8l-0.9,2.1l1.5,0.8l0,2.1
  l-1.8,2.6l-5.1,2.9l-4.8,2.9l-0.9,2.8l-4.9,0.7l-1.8-0.6c-0.8,0-1.6,0-2.4,0.1l-5,2.5c-0.7,0.8-1.4,1.7-2.1,2.6l3.1,0.6l3.1-0.3
  l1.9-1.5l1.9-0.9l1.6,0.5l2.8,1.1l1.1,3.6l-0.5,2l0.7,2.5c1.1,0,2.2,0,3.3-0.1l1.5,3.4l5.3,0.1l2.7,1.5l1.4-2.1l-3.3-4.3l-1.3-1.8
  l0.1-2l2.6,1.8l4.5,3.2l2.4,1.9c0.5-1,1-2.1,1.6-3.1l3.3-2.7l-2.2-1.6l1.6-4.1l-3.2-1.4l-1.5-5l2.5-1.4l2.3-1.2l3.3,4.5l0.6,3
  l2.5,0.4l2.8-3.5l4.1-1.3l1.2-1.4c0.7,0,1.5,0,2.3,0l1.8-1.5l1-2.2c-1.5,0-2.9,0-4.4,0c0.2-0.4,0.5-0.8,0.7-1.2l-1.5-1.9l-1.6-0.3
  l-1.9-1.1c-0.7,0-1.4,0-2.1,0l0.5-1.6l0.3-1.4c-1.1,0-2.3,0-3.4,0.1l-1.2-0.1c0.6-0.8,1.2-1.6,1.8-2.4c0.8,0,1.5,0,2.3,0l2.1-1.1
  l-2.5-0.7l1.1-0.9l1.7-0.3l-0.4-1.5l-1.8-0.6l2.2-1.4l-1.5-0.9l-2.7,0.2l0.7-1.1l-1.9-0.1l-0.6-0.2l2.8-1.1l-1.5-0.7l-3.5,0.7
  l0.4-1.8l1-1l-1.5-0.1l1.4-1.2l-1.3-0.8c-1.1,0-2.1,0-3.2,0.1l-1.8,1l-1.9,0.3l-1.1-0.3l-2.2,1.2l-1.7,0.2l2.1-1.6l3-1.5l1.4-1.9
  l2-1.6c-0.8,0-1.7,0-2.5,0.1l-3.2,1.3l-1.9,0.2l-2.5,0.9l-3.1,1.7l-1.9,1.9l-2.6,1.3l-2,2.4l-1.6,0.3l1.4-2.1l3.7-2.7l2.7-1.8
  l4.2-1.8l4.1-1.5c-0.7,0-1.5,0-2.2,0.1l-2.9,0.4l-5.7,2.2l-6.5,3.1l-6.5,4.1l1.4,0.4l1.3,0.1l-1.6,1.6l-1.2-0.3l-2.7,0.7l-1.3,2
  c0.7,0,1.5-0.1,2.2-0.1l1.8-0.6l-0.2,1.2l1.5,1l-2.7,0.7l-2.4,1.9l-0.3,1.3l-6.5,3.8l-4.1,2.8l-4.1,2.3l-0.5-0.8l2.7-3.3l3.5-2
  l1.1-3l-5.1,2.4l2.8-4.1l-0.2-0.5l3.2-2.1l3-2.3l-0.8-0.2l2.7-1.9l1.5-2l-1.9,0l-2.3,1.2l-1.1,0.2l-4.1,2l-2.1,1.6l-2.3,1.3
  l-1.5,2.1l-0.4,1.4l-3.4,2.1l-1.2-0.5l-2.7,2.3l1.9-0.2l4.2-1.8c-1.1,0.8-2.2,1.7-3.3,2.5l-6.8,2.7l-4.5,3.8l0.4-2l4-2.6
  c-0.5,0-0.9,0-1.3,0.1l3.1-2.4c0.4,0,0.8,0,1.2-0.1l4.5-3.4l0.1-1.9l-4.2,2.4l-3.1,1.2l-1.2,2.5l-3.4,1.6l-3.2,2.1l-5.2,0.6
  l-0.1-1.5l-1-0.3l1.1-2l-3.6,1.7l-4.7,1.9l-3.1,2.5l-5.7,4l5.2-4.6l0.6-1.6l-3.3,1.1l-2.9-0.5l2-1.3l3.2-1.3l2-2.2l-1.4,0.3l1.1-2
  l2.4-1.7l-0.4-0.2l-0.9,0.2l-2.9,1.6l-1.3,0.5l5.5-3.3l-5.6,3.1l0.1-0.3l6.6-3.8l0.7-0.5l-4.9,2.6l-3.3,1.7l-1.2,0.5l-2.8,1.4
  l-3.6,2l5.3-3l1.9-1l1.9-0.9l2.6-1.4l0.3-0.2l-2.8,1.4l-3.8,2l-0.5,0.3l-0.2,0.1c-9.7,5.7-22.3,14-31.7,20.2
  C168,249.7,168,249.7,141.2,274l-4.6,4.6l0.8-0.8l-1.6,1.7l-2.6,2.7l-0.7,1l-2.6,2.7l-1.2,1.7l-2.4,2.6l-0.6,0.9l0,0.3l-2.6,3
  l-2.4,3.1l-3,3.6l-2.6,3.5l0.3,0.3l-3.1,4.2l-2.3,3.8l-1.9,2.9l-0.8,2.1l-0.1,1.4l0,1l-1.4,2.3l-0.9,2.8l-0.8,2.4l-3.1,5.6
  c-0.9,1.5-1.9,3-2.8,4.5l1-2.8l1.6-3.7l1.4-2.4l0.6-2.1V326l2.4-3.7l-0.7,0.1l0.7-1.8l0.2-0.8v-0.6l-0.8,0.6l-1.7,2.9l-0.7,1.7
  l-1.1,2.4l-1.3,3.9l-2.3,4.4l-2.9,5.7l-2.7,4.6l-3.7,6.4c-1.3,2.4-2.6,4.8-3.8,7.3l-1.4,1.8c-0.8,1.6-1.6,3.2-2.4,4.9l-1.7,5l-2.5,5
  l-1.5,3.9l-0.9,3.3l-2.2,5.1l-0.9,4.1l-0.2,3.3l-2,7.2l0,2.8l-1,3.8l-0.4,4.3c0.5-0.1,1-0.1,1.5-0.2l0.2,2.9l1.1,2.3l0.2,3.8
  l-0.9,4.7l-0.5,4.7l-1,7.8l0.5,3.3l0.8,3.8l-0.1,2.8l-1.8,2.7l0.3,3.1l1.1,3l1.6,3.3l0.8,3.7l-0.7,3.2l0.1,2.6l1.6,1.6l1.3,3.4
  l0.9,2.9l-0.2,3.5l1.1-1.2l0.7-3.9l-0.3-4.4l-1.4-1.6l0.2-3.8l-1.4-3v-4.9l0-4.6l-0.9-3.4l0.4-4.6l-1.2-1.3l0.3-5.6l-0.5-4.7
  l1.3-6.2l1.3-0.4l1.4,1.8l0.3,3.3l-1.1,5.4l0.7,6.9l1.2,5.5l1.4,3.9l0.9,4l-0.3,4.6l2,2.7l1.2,4.3l0.9,4.6l2.3,6.3l0.7,5.6l1.4,2.6
  l-1.7,2.2l-0.7,3.6l3.1,5.2l2.7,4.3l3.5,1.9l3.8,4.1l4.6,3.4l5.3,4.3l4.4,1.9l2.9-0.4l0.9-2.5l3.3-0.7l3.7,2.9l4.3,5l2.4,4.2
  c1.2,0,2.3-0.1,3.5-0.1c0.5,0,0.9,0,1.4-0.1l2,1.1l2.3,4.4l4.6,1.9l0.1-3l2.6,1.7c8.1,14.3,8.1,14.3,7.6,17.2l1.7,2.3l1.9-1.2
  l2.7,1.7c5.6,6.4,5.6,6.4,8.1,6l7.1,4.2l3.8,2l-0.6-4.7l1.6-3l6.5,0.4l0.9,2.9l2.1-0.3l0.9-3.9l-2.6-3.5c-2.3,0.1-4.5,0.1-6.8,0.2
  l-4.4-0.2l-6.4-0.4l-3.1-2.6l-4.3-5.5l0-4.5c-0.1-2-0.2-4-0.2-6l1.1-7.6c0-1.7-0.1-3.4-0.1-5.1l-2-3.9l-3.9-2.6l-5.8,0.8l-4-1.1
  l-4.4,2.6l-2.9-2.6l2.7-3.2c0-0.8,0-1.6,0-2.5c0-1,0-2,0.1-3l1.1-3.4l1.6-5.5c0.1-2,0.2-4,0.3-6.1l2.6-2.5l0.6-4.5l-1.8-1.7
  l-6.2,0.8l-3.9,1l-1.9,4.3l-1.8,6.4l-2,5.8l-3.2,0.7l-4.4,2l-4.5,1.1l-1.9-4.2l-3.5-2.8l-1.1-4.8l-2.1-6.2l-0.6-10.7l0.2-7.7l2.4-6
  l1.7-6.8l-0.7-6.9l4.1-6.8l2.7-0.4l3.2-3.5l3.4-4.1l3.7,0.7l2.5,1.3l2.5-1.5l1.3,3.6c1.1,0,2.3-0.1,3.5-0.1l2.8-0.4l-0.1-2.8
  l1.8-4.6l4.4-0.4l3.1-0.7l5.6,0.6l1.6,3.9c0.6,0,1.3,0,1.9-0.1l1.6-2.3l1.8-0.6l2.3,3.3l2,4.2c-0.2,1.6-0.5,3.3-0.7,4.9l1.2,2.8
  l0.3,3.2l1.7,2.3l0.7,3.4l2.3,1.7l-0.2,3.8l2.2,0.8l1.6-2.7l1.5-4.1l-0.8-4.9l-0.5-7.5l-2.1-6.5c0.4-2.8,0.8-5.7,1.7-9.9
  c0.6-1.4,1.4-3.2,2-4.5l3.5-6.2l4.1-2l5.4-4.8l5-3.7l4.5-2l1.4-3.5l3.6-2.3l-1.6-5.9l-1.5-2.6l1.6-3.2l-1.2-2.9l3.6-1.9l1.8,4.2
  l2.6-4.3l2.6-3.7l2.6-2.4l4-7.8c2.1,0,4.1-0.1,6.2-0.1l4.6-2.6l4.8-0.6l-0.4-3.1l1.3-6.3l4.4-4.8c1.2,0,2.5,0,3.7-0.1l1.9-2.8
  l4.9,0.2l5.1-2.8l3.7-3.7c8.4-0.3,8.4-0.3,11.1,1.3c-0.5,0.4-1.2,0.9-1.7,1.3c-2.1,0-4.2,0-6.7,0.4c-4.3,2.8-4.3,2.8-4.4,6.4
  l2.4,1.2l3.5-2.5l2.5-1.5l4.4-1.3l4.9-2.2l4.6-1l4.3-4.2l4-2.9l1.1-3.3l-4.9,1.2l-4.2,5.1l-5.4,0.3l-3.9-2.1l-3.6-3.6l-0.8-6.2
  l4.7-3.1l1.1-4.9l-5.6-0.4l-6.6,1.9l-7.9,4.1l-8.4,6.7l-6.2,3.9l3.1-3.6l4.2-3.9l2.6-1.9l-4.6-1.3c2.1,0,4.2-0.1,6.4-0.1l2.5-3.3
  l4.5-3.1l4.3-0.3l2.9-3.7l4-1.4c1.9,0,3.7,0,5.6-0.1l10.3-0.3l5.1,0.9l4.3-0.3l4.9-3l4.7-4l7-0.7L316.8,304.8"/>
</svg>
