<?xml version="1.0" encoding="utf-8"?>
<!-- Generator: Adobe Illustrator 23.0.0, SVG Export Plug-In . SVG Version: 6.00 Build 0)  -->
<svg version="1.1" id="Layer_1" xmlns="http://www.w3.org/2000/svg" xmlns:xlink="http://www.w3.org/1999/xlink" x="0px" y="0px"
	 viewBox="0 0 166.9 53.1" style="enable-background:new 0 0 166.9 53.1;" xml:space="preserve">
<style type="text/css">
	.st0{fill:#FFFFFF;}
</style>
<title>Navbar</title>
<desc>Created with Sketch.</desc>
<g id="About">
	<g id="About---nav-ux" transform="translate(-220.000000, -28.000000)">
		<g id="Navbar" transform="translate(220.000000, 28.000000)">
			<g id="Logo">
				<path id="Fill-1" class="st0" d="M147.1,46.5h-9V13h-13.2V5.9h35.5V13h-13.3V46.5"/>
				<path id="Fill-2" class="st0" d="M111.4,5.9h9.1v40.6h-9.1V5.9z"/>
				<path id="Fill-3" class="st0" d="M95.4,16.7h8v29.8h-15c-2.7,0-5-0.3-6.8-1s-3.2-1.8-4.2-3.4s-1.5-3.7-1.5-6.4V16.8h7.9v18.3
					c0,1.2,0.2,2.2,0.5,2.9c0.3,0.8,0.8,1.3,1.6,1.6c0.8,0.3,1.8,0.5,3.1,0.5h6.5V16.7"/>
				<path id="Fill-4" class="st0" d="M56.9,46.5H49V16.7h13.4c2.5,0,4.3,0.3,5.5,1s2,1.6,2.4,2.8c0.3,1.2,0.5,2.8,0.5,4.9v3.8h-7.6
					v-2.4c0-1.5-0.1-2.6-0.3-3.1s-0.6-0.9-1.1-1s-0.9-0.1-1.3-0.2c-0.4,0-1-0.1-1.9-0.1h-1.7L56.9,46.5"/>
				<path id="Fill-5" class="st0" d="M5.5,30.5V5.9h8.7v24.4c0,0.8,0,1.5,0.1,2.3s0.2,1.7,0.4,2.7c0.2,1,0.6,1.9,1.3,2.7
					c0.7,0.8,1.6,1.4,2.8,1.9c1.2,0.4,2.8,0.7,4.6,0.7c2.4,0,4.3-0.4,5.7-1.1c1.3-0.8,2.2-1.8,2.8-3.3c0.5-1.4,0.8-3.3,0.8-5.8V6
					h8.6v24.6c0,1.1,0,2.1-0.1,3.2s-0.2,2.1-0.3,3.1c-0.3,1.7-1.4,3.8-3.3,6.4c-1.9,2.5-6.6,3.8-14.1,3.8c-7.6,0-12.4-1.2-14.1-3.5
					c-1.8-2.4-2.8-4-3.1-4.9c-0.2-0.9-0.4-1.6-0.5-2.1s-0.2-1.1-0.2-1.8L5.5,30.5"/>
			</g>
		</g>
	</g>
</g>
</svg>
