<svg xmlns="http://www.w3.org/2000/svg" viewBox="0 0 198 92.76"><defs><style>.cls-1{isolation:isolate;}.cls-2{fill:#fff;}.cls-3{opacity:0.3;mix-blend-mode:multiply;}</style></defs><title>monoku</title><g class="cls-1"><g id="Capa_2" data-name="Capa 2"><g id="Layer_1" data-name="Layer 1"><path class="cls-2" d="M34.78,23.35V1.93A.93.93,0,0,0,33.85,1H25a.93.93,0,0,0-.91.75L19.52,24.82a2.17,2.17,0,0,0,1,2.29h0a2.17,2.17,0,0,1,1,2.29l-1,4.93a.17.17,0,0,1-.33,0L19.08,29A2.17,2.17,0,0,0,17.8,27.4l-1.45-.62a2.17,2.17,0,0,1-1.28-1.58L10.49,1.75A.93.93,0,0,0,9.58,1H.93A.93.93,0,0,0,0,1.93V26.7a2.2,2.2,0,0,0,1.2,1.95l.69.34a2.18,2.18,0,0,1,1.21,2v8.22a2.18,2.18,0,0,1-1.21,2l-.69.35A2.19,2.19,0,0,0,0,43.41V61.12a.93.93,0,0,0,.93.93h5.2a.93.93,0,0,0,.93-.93V43.7a2.2,2.2,0,0,1,1.2-2L9,41.41a2.18,2.18,0,0,0,1.21-1.95v-9A2.19,2.19,0,0,0,9,28.54l-.69-.34a2.2,2.2,0,0,1-1.2-1.95L6.71,14.72a.2.2,0,0,1,.18-.21.21.21,0,0,1,.24.19L8.65,25.57a2.17,2.17,0,0,0,1.27,1.64l1.32.58a2.19,2.19,0,0,1,1.27,1.64l2.34,10.1a2.17,2.17,0,0,1-1.06,2.24l-.1.06a2.18,2.18,0,0,0-1.06,2.24l2.85,17.2a.93.93,0,0,0,.92.78h1.78a.93.93,0,0,0,.92-.78l2.83-17.12a2.17,2.17,0,0,1,1.27-1.63l1.33-.59a2.17,2.17,0,0,0,1.27-1.64L28.28,29a2.2,2.2,0,0,0-1.06-2.24l-.11-.06a2.18,2.18,0,0,1-1.05-2.24l1.41-9.74a.2.2,0,0,1,.22-.17.22.22,0,0,1,.2.2l-.37,9.1a2.19,2.19,0,0,0,1.2,2l.69.34a2.19,2.19,0,0,1,1.21,1.95V40.32a2.18,2.18,0,0,1-1.21,2l-.69.35a2.17,2.17,0,0,0-1.2,1.94V61.12a.93.93,0,0,0,.93.93h5.4a.93.93,0,0,0,.93-.93V44.87A2.2,2.2,0,0,1,36,42.92l.69-.34a2.19,2.19,0,0,0,1.21-1.95v-13a2.19,2.19,0,0,0-1.21-1.95L36,25.3A2.19,2.19,0,0,1,34.78,23.35Z"/><path class="cls-2" d="M131.61,13c-.15-4.09-.64-5.61-2-7.79C127.47,2,123.32,0,118.8,0S110.14,2,108,5.25c-1.46,2.35-1.91,3.94-2,8.85,0,.66,0,2.79,0,4.19a1.76,1.76,0,0,0,1.22,1.7l2.2.74a1.78,1.78,0,0,1,1.22,1.7V44.08a1.79,1.79,0,0,1-1.22,1.7l-2.18.73A1.81,1.81,0,0,0,106,48.24c.09,5.39.51,7,2,9.47,2.13,3.29,6.28,5.34,10.82,5.34s8.69-2,10.83-5.35c1.43-2.31,1.88-3.82,2-8.43a1.8,1.8,0,0,1,1.23-1.66l2.23-.74a1.58,1.58,0,0,0,1.23-1.7V20.8a1.78,1.78,0,0,0-1.22-1.7l-2.21-.74a1.77,1.77,0,0,1-1.22-1.68C131.66,15.49,131.64,13.8,131.61,13Zm-3.85,8.31V44.81a1.81,1.81,0,0,1-1.23,1.7l-2.21.73a1.8,1.8,0,0,0-1.22,1.68c0,.62,0,1.27,0,1.43-.23,3.27-1.57,4.74-4.27,4.74s-4-1.33-4.24-4.39c0-.24,0-1.25,0-2.11a1.8,1.8,0,0,1,1.23-1.72l2.18-.73a1.79,1.79,0,0,0,1.23-1.7V21.88a1.81,1.81,0,0,0-1.23-1.7l-2.2-.73a1.79,1.79,0,0,1-1.22-1.7v-4c0-4,1.33-5.81,4.3-5.81s4.31,1.74,4.31,5.81v3.44a1.8,1.8,0,0,0,1.22,1.7l2.2.73A1.8,1.8,0,0,1,127.76,21.34Z"/><path class="cls-2" d="M99.77,1H93.06a.93.93,0,0,0-.93.93V19.47a1.79,1.79,0,0,0,1.13,1.66l1.62.65A1.78,1.78,0,0,1,96,23.44V37.8c0,.24-.32-.62-.39-.84L90.26,23.49a1.81,1.81,0,0,0-1.15-1.17l-2.84-.93a1.78,1.78,0,0,1-1.15-1.16L79.31,1.66A.93.93,0,0,0,78.42,1H72.67a.93.93,0,0,0-.93.93V20.76a1.79,1.79,0,0,0,1.13,1.66l1.62.65a1.78,1.78,0,0,1,1.12,1.66V42.58a1.78,1.78,0,0,1-1.12,1.66l-1.62.65a1.79,1.79,0,0,0-1.13,1.66V61.12a.93.93,0,0,0,.93.93h6.71a.93.93,0,0,0,.93-.93V46.91a1.78,1.78,0,0,1,1.12-1.66l1.62-.65a1.79,1.79,0,0,0,1.13-1.66V30.48a.21.21,0,0,1,.4-.06L89.65,43a1.78,1.78,0,0,1-.9,2.13l-.42.21a1.8,1.8,0,0,0-.9,2.14l4.39,14a.94.94,0,0,0,.89.65h7.06a.93.93,0,0,0,.93-.93V47.77a1.78,1.78,0,0,1,1.12-1.66l1.62-.65a1.79,1.79,0,0,0,1.13-1.66V22.9a1.79,1.79,0,0,0-1.13-1.66l-1.62-.65a1.79,1.79,0,0,1-1.12-1.67v-17A.93.93,0,0,0,99.77,1Z"/><path class="cls-2" d="M65.73,17.59c0-7.78-.28-9.51-2.05-12.35C61.53,2,57.38,0,52.86,0S44.2,2,42,5.25c-1.76,2.83-2,4.56-2,12.34v5.34a1.8,1.8,0,0,0,1.13,1.67l1.62.64a1.8,1.8,0,0,1,1.13,1.67V41.13a1.79,1.79,0,0,1-1.13,1.66l-1.62.65A1.77,1.77,0,0,0,40,45.11c0,1.19,0,2.92,0,3.52.1,5.08.54,6.69,2,9.08,2.13,3.29,6.28,5.34,10.82,5.34s8.69-2,10.83-5.35c1.47-2.37,1.91-3.89,2-8.82,0-.58,0-1.78,0-2.7a1.78,1.78,0,0,1,1.13-1.65l1.62-.65a1.8,1.8,0,0,0,1.13-1.67V25.28a1.8,1.8,0,0,0-1.13-1.67L66.86,23a1.8,1.8,0,0,1-1.13-1.67ZM61,25.82v16a1.81,1.81,0,0,1-1.12,1.67l-1.63.64a1.8,1.8,0,0,0-1.12,1.67v3.45c0,4-1.33,5.81-4.31,5.81s-4.3-1.74-4.3-5.81V45.46a1.79,1.79,0,0,1,1.13-1.66l1.62-.65a1.78,1.78,0,0,0,1.12-1.66V26.36a1.78,1.78,0,0,0-1.12-1.66l-1.62-.65a1.79,1.79,0,0,1-1.13-1.66V13.77c0-4,1.33-5.81,4.3-5.81s4.31,1.74,4.31,5.81v8.08a1.78,1.78,0,0,0,1.12,1.66l1.63.65A1.78,1.78,0,0,1,61,25.82Z"/><path class="cls-2" d="M164.16,46.12l-7.24-12.58,5.48-14.29a1.78,1.78,0,0,0-1-2.26l-.65-.28a1.79,1.79,0,0,1-1-2.26l4.44-12.2A.93.93,0,0,0,163.35,1H156.7a.93.93,0,0,0-.87.62L151,15a1.78,1.78,0,0,0,1,2.26l.65.28a1.79,1.79,0,0,1,1,2.26l-2.29,6.77a.2.2,0,0,1-.39-.07v-6.8a1.79,1.79,0,0,0-1.22-1.7l-2.2-.73a1.81,1.81,0,0,1-1.23-1.7V1.93a.93.93,0,0,0-.92-.93h-6.71a.93.93,0,0,0-.93.93V16.12a1.8,1.8,0,0,0,1.22,1.7l2.2.73a1.8,1.8,0,0,1,1.23,1.7V45.53a1.8,1.8,0,0,1-1.23,1.7l-2.2.73a1.8,1.8,0,0,0-1.22,1.7V61.12a.93.93,0,0,0,.93.93h6.71a.93.93,0,0,0,.92-.93V50a1.81,1.81,0,0,1,1.23-1.7l2.2-.73a1.79,1.79,0,0,0,1.22-1.7V40.52a.2.2,0,0,1,.38-.1l2.57,5.27a1.78,1.78,0,0,1-.82,2.45h0a1.79,1.79,0,0,0-.81,2.46L158,61.55a.94.94,0,0,0,.83.5h8a.93.93,0,0,0,.82-1.37L162.53,51a1.79,1.79,0,0,1,.81-2.46h0A1.79,1.79,0,0,0,164.16,46.12Z"/><path class="cls-2" d="M192.58,12.16V1.93a.93.93,0,0,0-.93-.93h-6.71a.93.93,0,0,0-.93.93V12.7a1.79,1.79,0,0,0,1.3,1.72l2.82.81a1.79,1.79,0,0,1,1.3,1.72V47.7a1.78,1.78,0,0,1-1.3,1.72l-3.07.87a1.78,1.78,0,0,0-1.25,1.39c-.47,2.36-1.77,3.41-4.1,3.41a4,4,0,0,1-4.16-3.87,1.32,1.32,0,0,1,.95-1.28l2.73-.79a1.91,1.91,0,0,0,1.59-1.81V17.5a1.78,1.78,0,0,0-1.29-1.72L176.7,15a1.79,1.79,0,0,1-1.3-1.72V1.93a.93.93,0,0,0-.93-.93h-6.7a.93.93,0,0,0-.93.93V13.79a1.79,1.79,0,0,0,1.3,1.72l2.82.81a1.78,1.78,0,0,1,1.3,1.71c0,5.6,0,23.36,0,29A1.8,1.8,0,0,1,171,48.71l-2.7.77A1.81,1.81,0,0,0,167,51.33a12,12,0,0,0,1.92,6.48c2.15,3.23,6.3,5.24,10.82,5.24s8.66-2,10.82-5.25a11.28,11.28,0,0,0,1.85-5.61,1.8,1.8,0,0,1,1.3-1.57l3-.84a1.79,1.79,0,0,0,1.3-1.71c0-.57,0-1.18,0-1.84V16.41a1.79,1.79,0,0,0-1.3-1.72l-2.82-.81A1.79,1.79,0,0,1,192.58,12.16Z"/><g class="cls-3"><path class="cls-2" d="M168.14,15.51l2.82.81a1.78,1.78,0,0,1,1.3,1.71v.3l8.56-.64V17.5a1.78,1.78,0,0,0-1.29-1.72L176.7,15a1.77,1.77,0,0,1-1.26-1.51l-8.55.65A1.76,1.76,0,0,0,168.14,15.51Z"/><path class="cls-2" d="M196.7,14.69l-2.82-.81a1.79,1.79,0,0,1-1.3-1.72l-8.55.65a1.79,1.79,0,0,0,1.28,1.61l2.82.81a1.79,1.79,0,0,1,1.3,1.72v.1l8.57-.64A1.79,1.79,0,0,0,196.7,14.69Z"/></g><g class="cls-3"><path class="cls-2" d="M150.9,19.92v-.21a1.79,1.79,0,0,0-1.22-1.7l-2.2-.73a1.8,1.8,0,0,1-1.21-1.6l-8.55.64a1.78,1.78,0,0,0,1.19,1.5l2.2.73a1.8,1.8,0,0,1,1.23,1.7v.31Z"/><path class="cls-2" d="M161.42,17l-.65-.28a1.79,1.79,0,0,1-1-2.06l-8.85.68a1.78,1.78,0,0,0,1.06,1.94l.65.28a1.78,1.78,0,0,1,1,2.17l8.85-.66A1.77,1.77,0,0,0,161.42,17Z"/></g><g class="cls-3"><path class="cls-2" d="M119.15,22.29v-.41a1.81,1.81,0,0,0-1.23-1.7l-2.2-.73a1.78,1.78,0,0,1-1.17-1.37l-8.54.65A1.74,1.74,0,0,0,107.16,20l2.2.74a1.78,1.78,0,0,1,1.22,1.7v.5Z"/><path class="cls-2" d="M136.32,21V20.8a1.78,1.78,0,0,0-1.22-1.7l-2.21-.74a1.79,1.79,0,0,1-1.21-1.58l-8.54.65a1.79,1.79,0,0,0,1.19,1.48l2.2.73a1.8,1.8,0,0,1,1.23,1.7v.31Z"/></g><g class="cls-3"><path class="cls-2" d="M90.26,23.49a1.81,1.81,0,0,0-1.15-1.17l-2.84-.93a1.79,1.79,0,0,1-1.11-1.07l-13.32,1a1.79,1.79,0,0,0,1,1.09l1.62.65a1.78,1.78,0,0,1,1.12,1.66v.8l15-1.12Z"/><path class="cls-2" d="M104.57,23.37V22.9a1.79,1.79,0,0,0-1.13-1.66l-1.62-.65a1.79,1.79,0,0,1-1.09-1.46l-8.55.65a1.78,1.78,0,0,0,1.08,1.35l1.62.65A1.78,1.78,0,0,1,96,23.44V24Z"/></g><g class="cls-3"><path class="cls-2" d="M52.43,27.26v-.9a1.78,1.78,0,0,0-1.12-1.66l-1.62-.65a1.77,1.77,0,0,1-1-1l-8.52.65a1.86,1.86,0,0,0,.92.87l1.62.64a1.8,1.8,0,0,1,1.13,1.67v1Z"/><path class="cls-2" d="M69.61,26v-.7a1.8,1.8,0,0,0-1.13-1.67L66.86,23a1.81,1.81,0,0,1-1-1.18l-8.53.64a1.82,1.82,0,0,0,1,1.08l1.63.65A1.78,1.78,0,0,1,61,25.82v.8Z"/></g><g class="cls-3"><path class="cls-2" d="M1.2,28.65l.69.34a2.18,2.18,0,0,1,1.21,2l7.05-.53A2.18,2.18,0,0,0,9,28.54l-.69-.34a2.2,2.2,0,0,1-1.2-1.95L0,26.7A2.2,2.2,0,0,0,1.2,28.65Z"/><path class="cls-2" d="M21.52,29.57l6.73-.51,0-.1a2.2,2.2,0,0,0-1.06-2.24l-.11-.06A2.2,2.2,0,0,1,26,24.81l-6.54.49a2.16,2.16,0,0,0,1.05,1.81,2.17,2.17,0,0,1,1,2.29Z"/><path class="cls-2" d="M19.08,29A2.17,2.17,0,0,0,17.8,27.4l-1.45-.62a2.17,2.17,0,0,1-1.14-1.15l-6.4.49a2.15,2.15,0,0,0,1.11,1.09l1.32.58a2.19,2.19,0,0,1,1.27,1.64l.18.79,6.55-.48Z"/><path class="cls-2" d="M37.88,28.35v-.76a2.19,2.19,0,0,0-1.21-1.95L36,25.3a2.21,2.21,0,0,1-1-1.17l-7.22.55a2.15,2.15,0,0,0,1,1.08l.69.34a2.19,2.19,0,0,1,1.21,1.95v.84Z"/></g><g class="cls-3"><path class="cls-2" d="M172.27,46.9V47A1.8,1.8,0,0,1,171,48.71l-2.7.77A1.81,1.81,0,0,0,167,51l8.59.39c0-.06,0-.13,0-.2a1.32,1.32,0,0,1,.95-1.28l2.73-.79a1.91,1.91,0,0,0,1.59-1.81v-.05Z"/><path class="cls-2" d="M189.43,47.7a1.78,1.78,0,0,1-1.3,1.72l-3.07.87a1.78,1.78,0,0,0-1.25,1.39l0,.12,8.6.39a1.8,1.8,0,0,1,1.3-1.57l3-.84a1.79,1.79,0,0,0,1.3-1.71l-8.56-.39Z"/></g><g class="cls-3"><path class="cls-2" d="M153,48.14a1.78,1.78,0,0,0-.91,2.21l10.32.47a1.78,1.78,0,0,1,.9-2.24h0a1.79,1.79,0,0,0,1-2L154,46.06A1.78,1.78,0,0,1,153,48.14Z"/><path class="cls-2" d="M146.25,50.09V50a1.81,1.81,0,0,1,1.23-1.7l2.2-.73a1.8,1.8,0,0,0,1.22-1.67l-8.56-.39h0a1.8,1.8,0,0,1-1.23,1.7l-2.2.73a1.8,1.8,0,0,0-1.22,1.7v0Z"/></g><g class="cls-3"><path class="cls-2" d="M127.75,44.86a1.81,1.81,0,0,1-1.22,1.65l-2.21.73a1.8,1.8,0,0,0-1.22,1.68V49l8.53.39v-.15a1.8,1.8,0,0,1,1.23-1.66l2.23-.74a1.57,1.57,0,0,0,1.23-1.62Z"/><path class="cls-2" d="M114.51,48.59a1.8,1.8,0,0,1,1.23-1.72l2.18-.73a1.77,1.77,0,0,0,1.22-1.67l-8.56-.39h0a1.79,1.79,0,0,1-1.22,1.7l-2.18.73A1.81,1.81,0,0,0,106,48.24h0l8.56.4Z"/></g><g class="cls-3"><path class="cls-2" d="M89.69,43.12a1.78,1.78,0,0,1-.94,2l-.42.21a1.79,1.79,0,0,0-.9,2.11l13.27.6v-.23a1.78,1.78,0,0,1,1.12-1.66l1.62-.65a1.81,1.81,0,0,0,1.13-1.66Z"/><path class="cls-2" d="M80.31,47.07v-.16a1.78,1.78,0,0,1,1.12-1.66l1.62-.65a1.79,1.79,0,0,0,1.13-1.66v-.07l-8.57-.39v.1a1.78,1.78,0,0,1-1.12,1.66l-1.62.65a1.79,1.79,0,0,0-1.13,1.66v.13Z"/></g><g class="cls-3"><path class="cls-2" d="M61,41.81v0a1.78,1.78,0,0,1-1.12,1.66l-1.63.65a1.8,1.8,0,0,0-1.12,1.67V46l8.56.39v-.23a1.78,1.78,0,0,1,1.13-1.65l1.62-.65a1.8,1.8,0,0,0,1.13-1.67h0Z"/><path class="cls-2" d="M48.56,45.46a1.79,1.79,0,0,1,1.13-1.66l1.62-.65a1.78,1.78,0,0,0,1.12-1.66v-.07L43.87,41v.1a1.79,1.79,0,0,1-1.13,1.66l-1.62.65A1.77,1.77,0,0,0,40,45.11v.12l8.56.39Z"/></g><g class="cls-3"><path class="cls-2" d="M21.93,44.15a2.17,2.17,0,0,1,1.27-1.63l1.33-.59a2.17,2.17,0,0,0,1.27-1.64l0-.09-11-.5a2.17,2.17,0,0,1-1.07,2.07l-.1.06A2.18,2.18,0,0,0,12.62,44l9.27.43Z"/><path class="cls-2" d="M30.6,40.42a2.14,2.14,0,0,1-1.19,1.85l-.69.35a2.17,2.17,0,0,0-1.2,1.94v.1l7.26.33v-.12A2.2,2.2,0,0,1,36,42.92l.69-.34a2.16,2.16,0,0,0,1.19-1.83Z"/><path class="cls-2" d="M7.06,43.7a2.2,2.2,0,0,1,1.2-2L9,41.41a2.18,2.18,0,0,0,1.2-1.92l-7-.33a2.18,2.18,0,0,1-1.21,2l-.69.35A2.19,2.19,0,0,0,0,43.41l7.06.32Z"/></g><path class="cls-2" d="M19.48,92.48,16.42,74.21h1.51l2.49,15.62,2.36-15.62h2L27,89.83l2.48-15.62H31l-3,18.27H26.07L23.79,76.34,21.33,92.48Z"/><path class="cls-2" d="M37.11,92.48V74.21h6.37V75.5H38.72v6.92h3.4v1.22h-3.4v7.54h4.76v1.3Z"/><path class="cls-2" d="M58.22,87.37V79.62Q58.22,74,63,74a5.32,5.32,0,0,1,1.38.17,3.57,3.57,0,0,1,1.06.46,3.33,3.33,0,0,1,.75.75,4,4,0,0,1,.51,1A5.82,5.82,0,0,1,67,77.42a11.43,11.43,0,0,1,.16,1.26c0,.41,0,.86,0,1.36v.13H65.63V79.9c0-.52,0-.91,0-1.18s0-.61-.07-1a3.32,3.32,0,0,0-.24-1,4.81,4.81,0,0,0-.44-.72,1.58,1.58,0,0,0-.75-.54,3.31,3.31,0,0,0-1.1-.16,3.54,3.54,0,0,0-1.53.3,2.28,2.28,0,0,0-1,.84,3.8,3.8,0,0,0-.5,1.17,5.45,5.45,0,0,0-.16,1.38v9.13A6,6,0,0,0,60,89.33a3.67,3.67,0,0,0,.44,1.07,2.05,2.05,0,0,0,.94.79,3.72,3.72,0,0,0,1.54.28,3.12,3.12,0,0,0,1.43-.3,2.1,2.1,0,0,0,.9-.81,4.25,4.25,0,0,0,.42-1.07,5.73,5.73,0,0,0,.12-1.22V85H63.51V83.76h3.85v8.72h-.71l-.48-1.79a3,3,0,0,1-1.28,1.51,3.76,3.76,0,0,1-2,.56,6.15,6.15,0,0,1-1.34-.13,5.08,5.08,0,0,1-1.06-.34,3.44,3.44,0,0,1-.8-.55,4.38,4.38,0,0,1-.59-.66,3.7,3.7,0,0,1-.39-.77,5.92,5.92,0,0,1-.26-.78,5.57,5.57,0,0,1-.13-.8q0-.45-.06-.72C58.22,87.82,58.22,87.61,58.22,87.37Z"/><path class="cls-2" d="M74.12,87.18V79.52a10.77,10.77,0,0,1,.14-1.77,6,6,0,0,1,.49-1.52A3.84,3.84,0,0,1,75.61,75a3.64,3.64,0,0,1,1.32-.78,6,6,0,0,1,3.7,0A3.69,3.69,0,0,1,82,75a4.19,4.19,0,0,1,.86,1.21,6.42,6.42,0,0,1,.48,1.52,10.77,10.77,0,0,1,.14,1.77v7.66q0,5.58-4.66,5.58T74.12,87.18Zm7.71.36V79.16q0-3.91-3-3.91t-3,3.91v8.38q0,3.93,3,3.93T81.83,87.54Z"/><path class="cls-2" d="M99.21,92.48V74.21h3.93a4.86,4.86,0,0,1,1.68.26,3.54,3.54,0,0,1,1.19.7,3.49,3.49,0,0,1,.74,1,4.89,4.89,0,0,1,.41,1.26,8.32,8.32,0,0,1,.11,1.36,5,5,0,0,1-.53,2.22,3,3,0,0,1-1.45,1.51,3.18,3.18,0,0,1,1.13.78,3.8,3.8,0,0,1,.73,1.15,6.27,6.27,0,0,1,.37,1.27,6.72,6.72,0,0,1,.12,1.26,14,14,0,0,1-.09,1.69,6.57,6.57,0,0,1-.36,1.47,3.55,3.55,0,0,1-.72,1.22,3.28,3.28,0,0,1-1.21.77,4.92,4.92,0,0,1-1.8.3Zm1.61-10.43h2.59a1.93,1.93,0,0,0,1-.26,1.64,1.64,0,0,0,.66-.72,3.69,3.69,0,0,0,.34-1,6.26,6.26,0,0,0,.11-1.19c0-2.3-.87-3.44-2.61-3.44h-2.11Zm0,9.2h2.89a2,2,0,0,0,1-.23,1.94,1.94,0,0,0,.67-.6,3.28,3.28,0,0,0,.41-.94,7.16,7.16,0,0,0,.21-1.14A13,13,0,0,0,106,87a10.06,10.06,0,0,0-.06-1.16,5.16,5.16,0,0,0-.2-1,2.8,2.8,0,0,0-.41-.83,1.7,1.7,0,0,0-.67-.53,2.15,2.15,0,0,0-1-.21h-2.89Z"/><path class="cls-2" d="M114.3,92.48V74.21h6.37V75.5h-4.75v6.92h3.39v1.22h-3.39v7.54h4.75v1.3Z"/><path class="cls-2" d="M129.51,92.48V86.81l-4-12.6h1.64c.14.5.34,1.22.61,2.15s.55,1.87.83,2.82.56,1.88.82,2.76.49,1.6.66,2.17l.25.84c.45-1.66,1-3.5,1.57-5.52s1.1-3.75,1.51-5.22H135l-3.86,12.6v5.67Z"/><path class="cls-2" d="M140.53,87.18V79.52a10.77,10.77,0,0,1,.14-1.77,6,6,0,0,1,.49-1.52A3.84,3.84,0,0,1,142,75a3.64,3.64,0,0,1,1.32-.78,6,6,0,0,1,3.7,0,3.69,3.69,0,0,1,1.33.78,4.19,4.19,0,0,1,.86,1.21,6.42,6.42,0,0,1,.48,1.52,10.77,10.77,0,0,1,.14,1.77v7.66q0,5.58-4.66,5.58T140.53,87.18Zm7.71.36V79.16q0-3.91-3.05-3.91t-3.05,3.91v8.38q0,3.93,3.05,3.93T148.24,87.54Z"/><path class="cls-2" d="M157,92.48V74.21h1.24L164,88.68V74.21h1.37V92.48h-1.21l-5.8-14.17V92.48Z"/><path class="cls-2" d="M172.81,92.48V74.21h4.11a5.47,5.47,0,0,1,1.84.28,3.7,3.7,0,0,1,1.34.76,4,4,0,0,1,.86,1.18,5.88,5.88,0,0,1,.47,1.49,9.29,9.29,0,0,1,.15,1.73v7.43c0,3.6-1.56,5.4-4.66,5.4Zm1.61-1.3h2.5c2,0,3-1.24,3-3.74V79.29q0-3.8-3-3.79h-2.5Z"/></g></g></g></svg>