<?xml version="1.0" encoding="UTF-8" standalone="no"?>
<svg
   xmlns:dc="http://purl.org/dc/elements/1.1/"
   xmlns:cc="http://creativecommons.org/ns#"
   xmlns:rdf="http://www.w3.org/1999/02/22-rdf-syntax-ns#"
   xmlns:svg="http://www.w3.org/2000/svg"
   xmlns="http://www.w3.org/2000/svg"
   xmlns:sodipodi="http://sodipodi.sourceforge.net/DTD/sodipodi-0.dtd"
   xmlns:inkscape="http://www.inkscape.org/namespaces/inkscape"
   viewBox="0 0 185.89 66"
   version="1.1"
   id="svg18"
   sodipodi:docname="swapps.svg"
   inkscape:version="0.92.2 2405546, 2018-03-11">
  <metadata
     id="metadata24">
    <rdf:RDF>
      <cc:Work
         rdf:about="">
        <dc:format>image/svg+xml</dc:format>
        <dc:type
           rdf:resource="http://purl.org/dc/dcmitype/StillImage" />
        <dc:title></dc:title>
      </cc:Work>
    </rdf:RDF>
  </metadata>
  <defs
     id="defs22" />
  <sodipodi:namedview
     pagecolor="#ffffff"
     bordercolor="#666666"
     borderopacity="1"
     objecttolerance="10"
     gridtolerance="10"
     guidetolerance="10"
     inkscape:pageopacity="0"
     inkscape:pageshadow="2"
     inkscape:window-width="1366"
     inkscape:window-height="713"
     id="namedview20"
     showgrid="false"
     inkscape:zoom="1.3556404"
     inkscape:cx="80.035972"
     inkscape:cy="33"
     inkscape:window-x="0"
     inkscape:window-y="27"
     inkscape:window-maximized="1"
     inkscape:current-layer="svg18" />
  <g
     data-name="Layer 2"
     id="g16"
     style="fill:#ffffff">
    <g
       data-name="Layer 1"
       id="g14"
       style="fill:#ffffff">
      <path
         d="M12 50.72c10.07-11 23.65-23.72 33.93-22.93 1.89.15 2 1.32 1.4 1.74-8.07 6.22-18.94 22.36-27.46 35.69a1.68 1.68 0 0 1-3-.35c-1.87-4.32-3.73-8.31-5.45-11.74a2.26 2.26 0 0 1 .58-2.41z"
         fill-rule="evenodd"
         fill="#df6c26"
         id="path2"
         style="fill:#ffffff" />
      <path
         d="M8.24 27.07A28.8 28.8 0 0 1 10.89 25c2.4-1.52 6.89-4.61 16.22-5 9.34.27 14.06 3.45 16.64 5.14a25.15 25.15 0 0 1 3 2.4c1.28 1.25 1 1.61.22 2.25-2.43 1.9-5.47 4.95-10.22 10.92-.39.5-.87 1-1.35.84-11.83-4.07-16.4-4.02-26.89.05-.92.34-1.78-.81-1.77-1.75v-9.64a4.91 4.91 0 0 1 1.5-3.14z"
         fill="#f5841f"
         fill-rule="evenodd"
         id="path4"
         style="fill:#ffffff" />
      <path
         d="M65.64 5.1c-16.82-2.61-38.95 22-56.39 36.17a1.59 1.59 0 0 1-2.51-.69C4.46 35.31 2.19 30.44.15 26.44a2.47 2.47 0 0 1 1-2.78C20 9 46.28-6.88 65.07 3.15c.74.41 1.22 2.07.57 1.95z"
         fill="#f99b1c"
         fill-rule="evenodd"
         id="path6"
         style="fill:#ffffff" />
      <path
         d="M57.42 48.07a14.44 14.44 0 0 0 7.14 1.69 11.54 11.54 0 0 0 7.65-2.42 8.38 8.38 0 0 0 2.92-6.79 9.68 9.68 0 0 0-1-4.44 8.17 8.17 0 0 0-2.47-3 25.54 25.54 0 0 0-3.23-2 32.3 32.3 0 0 0-3.23-1.48 8.91 8.91 0 0 1-2.47-1.38 2.25 2.25 0 0 1-1-1.77 2.18 2.18 0 0 1 1.06-1.8 5.56 5.56 0 0 1 3.21-.75 8.12 8.12 0 0 1 3.63.81 7 7 0 0 0 2.16.8 2.15 2.15 0 0 0 1.92-1.2 4.7 4.7 0 0 0 .65-2.34 2.55 2.55 0 0 0-1-2A5.8 5.8 0 0 0 71 18.81a22.56 22.56 0 0 0-2.7-.5 23.3 23.3 0 0 0-2.3-.13 13 13 0 0 0-7.65 2.22 7.65 7.65 0 0 0-3.17 6.7 8.1 8.1 0 0 0 1.38 4.74 9.67 9.67 0 0 0 3.35 3.06c1.33.72 2.65 1.37 4 2a16.31 16.31 0 0 1 3.34 1.92 3 3 0 0 1 1.37 2.45 2.27 2.27 0 0 1-1.22 2.1 5.75 5.75 0 0 1-2.87.69 6.25 6.25 0 0 1-2.5-.51 6.33 6.33 0 0 1-1.83-1.13 10 10 0 0 0-1.44-1.14 2.65 2.65 0 0 0-1.41-.51 2.46 2.46 0 0 0-2 1.18 4 4 0 0 0-.87 2.37c-.1 1.36.92 2.68 2.94 3.75z"
         id="path8"
         style="fill:#ffffff" />
      <path
         d="M72.23 21.61l8.41 25.79A2.75 2.75 0 0 0 82.2 49a7 7 0 0 0 5.58 0 2.43 2.43 0 0 0 1.48-1.62l2.2-10 2.19 10A2.43 2.43 0 0 0 95.13 49a6.42 6.42 0 0 0 2.79.58 6.3 6.3 0 0 0 2.77-.58 2.87 2.87 0 0 0 1.58-1.62l8.41-25.79a2 2 0 0 0 .08-.55c0-.68-.46-1.29-1.37-1.82a5.61 5.61 0 0 0-2.89-.8c-1.19 0-1.89.4-2.12 1.22L98 41.35l-3.37-14.29a1.89 1.89 0 0 0-1.1-1.27 4.89 4.89 0 0 0-4.14 0 1.87 1.87 0 0 0-1.1 1.27L85 41.35l-6.47-21.69c-.23-.82-.93-1.22-2.11-1.22a5.62 5.62 0 0 0-2.9.8c-.91.53-1.37 1.14-1.37 1.82a2 2 0 0 0 .08.55z"
         id="path10"
         style="fill:#ffffff" />
      <path
         d="M184.9 36.11a8.26 8.26 0 0 0-2.47-3 25.67 25.67 0 0 0-3.24-2 30.37 30.37 0 0 0-3.19-1.49 9.05 9.05 0 0 1-2.47-1.38 2.27 2.27 0 0 1-1-1.77 2.16 2.16 0 0 1 1.05-1.8 5.58 5.58 0 0 1 3.17-.74 8.14 8.14 0 0 1 3.64.81 6.88 6.88 0 0 0 2.15.8 2.13 2.13 0 0 0 1.92-1.2 4.62 4.62 0 0 0 .7-2.32 2.58 2.58 0 0 0-.95-2 5.8 5.8 0 0 0-2.45-1.2 22.56 22.56 0 0 0-2.7-.5c-.81-.08-1.57-.13-2.31-.13a13 13 0 0 0-7.64 2.22 6.87 6.87 0 0 0-2 2.17 6.9 6.9 0 0 0-1.46-1.79 10.72 10.72 0 0 0-7.24-2.34h-8.81a2.56 2.56 0 0 0-1.77.59 1.8 1.8 0 0 0-.68 1.39v1.5a6.56 6.56 0 0 0-1-1.14 10.75 10.75 0 0 0-7.25-2.34h-8.74a2.59 2.59 0 0 0-1.78.59 1.79 1.79 0 0 0-.67 1.39v19.72l-6.06-19.77a2.73 2.73 0 0 0-1.54-1.63 7 7 0 0 0-5.53 0 2.74 2.74 0 0 0-1.58 1.63l-7.85 25.79a2.22 2.22 0 0 0-.09.47 2.29 2.29 0 0 0 1.37 1.9 5.65 5.65 0 0 0 2.86.8c1.21 0 1.92-.41 2.15-1.22l1.44-5.29h8.91l1.44 5.29c.22.81.94 1.22 2.15 1.22a5.59 5.59 0 0 0 2.85-.8 2.11 2.11 0 0 0 .41.28 5.36 5.36 0 0 0 4.65 0 1.65 1.65 0 0 0 1-1.5v-9.14h4.18a11.36 11.36 0 0 0 7.53-2.39 7.23 7.23 0 0 0 1.16-1.25v12.77a1.65 1.65 0 0 0 1 1.5 5.36 5.36 0 0 0 4.65 0 1.63 1.63 0 0 0 1-1.5v-9.13H158a11.4 11.4 0 0 0 7.54-2.39 7.53 7.53 0 0 0 2.25-3.39 9.4 9.4 0 0 0 2.92 2.5c1.32.72 2.64 1.37 4 2a16.59 16.59 0 0 1 3.34 1.92 3.07 3.07 0 0 1 1.37 2.45 2.28 2.28 0 0 1-1.23 2.1 5.72 5.72 0 0 1-2.87.69 6.23 6.23 0 0 1-2.49-.51 6.39 6.39 0 0 1-1.84-1.13 9.42 9.42 0 0 0-1.43-1.14 2.71 2.71 0 0 0-1.42-.51 2.48 2.48 0 0 0-2 1.18 4 4 0 0 0-.86 2.37q0 2.11 3 3.8a14.44 14.44 0 0 0 7.14 1.69 11.57 11.57 0 0 0 7.58-2.47 8.37 8.37 0 0 0 2.91-6.79 9.67 9.67 0 0 0-1.01-4.44zm-70.67 1.65l3.08-11.33 3.09 11.33zm28-8.88c0 2.82-1.26 4.23-3.8 4.23h-4.18v-8.92h4.18c2.54 0 3.8 1.41 3.8 4.22zm19.48 0q0 4.23-3.8 4.23h-4.19v-8.92h4.19q3.8 0 3.8 4.22z"
         fill="#df6c26"
         id="path12"
         style="fill:#ffffff" />
    </g>
  </g>
</svg>
